<svg width="24" height="24" viewBox="0 0 24 24" fill="none" xmlns="http://www.w3.org/2000/svg">
<path d="M18 1.75C18.95 1.75 19.7 2.5 19.75 3.4V10.3C18.8 9.8 17.65 9.5 16.5 9.5C12.65 9.5 9.5 12.65 9.5 16.5C9.5 18.9 10.7 21 12.5 22.25H4.5C3.55 22.25 2.8 21.5 2.75 20.6V3.5C2.75 2.55 3.5 1.8 4.4 1.75H18ZM8.5 10.25H5.95C5.55 10.3 5.25 10.6 5.25 11C5.25 11.4 5.55 11.7 5.95 11.75H8.55C8.95 11.7 9.25 11.4 9.25 11C9.25 10.6 8.9 10.25 8.5 10.25ZM16 6.25H5.95C5.55 6.3 5.25 6.6 5.25 7C5.25 7.4 5.55 7.7 5.95 7.75H16.05C16.45 7.7 16.75 7.4 16.75 7C16.75 6.6 16.4 6.25 16 6.25Z" fill="black"/>
<path d="M16.75 11C19.95 11 22.5 13.55 22.5 16.75C22.5 19.95 19.95 22.5 16.75 22.5C13.55 22.5 11 19.95 11 16.75C11 13.55 13.55 11 16.75 11ZM16.75 13.5C16.35 13.5 16 13.85 16 14.25V16.9C16.05 17.15 16.2 17.4 16.45 17.5L18.45 18.4L18.5 18.45C18.85 18.55 19.25 18.4 19.4 18.05L19.45 18C19.55 17.65 19.4 17.25 19.05 17.1L17.5 16.4V14.2C17.45 13.8 17.15 13.5 16.75 13.5Z" fill="black"/>
</svg>
