<svg width="24" height="24" viewBox="0 0 24 24" fill="none" xmlns="http://www.w3.org/2000/svg">
<path d="M9.36923 19.6098H4.61538C4.47692 19.6098 4.38462 19.5171 4.38462 19.3781V3.62195C4.38462 3.48293 4.47692 3.39024 4.61538 3.39024H17.0769C17.2154 3.39024 17.3077 3.48293 17.3077 3.62195V8.39512C17.3077 8.76585 17.6308 9.09024 18 9.09024C18.3692 9.09024 18.6923 8.76585 18.6923 8.39512V3.62195C18.6923 2.74146 17.9538 2 17.0769 2H4.61538C3.73846 2 3 2.74146 3 3.62195V19.3781C3 20.2585 3.73846 21 4.61538 21H9.36923C9.73846 21 10.0615 20.6756 10.0615 20.3049C10.0615 19.9341 9.73846 19.6098 9.36923 19.6098Z" fill="#AAAAAA"/>
<path d="M15.6923 10.3415C12.7846 10.3415 10.3846 12.7512 10.3846 15.6707C10.3846 18.5902 12.7846 21 15.6923 21C18.6 21 21 18.5902 21 15.6707C21 12.7512 18.6 10.3415 15.6923 10.3415ZM15.6923 19.6098C13.5231 19.6098 11.7692 17.8488 11.7692 15.6707C11.7692 13.4927 13.5231 11.7317 15.6923 11.7317C17.8615 11.7317 19.6154 13.4927 19.6154 15.6707C19.6154 17.8488 17.8615 19.6098 15.6923 19.6098Z" fill="#AAAAAA"/>
<path d="M17.8154 15.9488L16.3847 15.3V13.3537C16.3847 12.9829 16.0616 12.6586 15.6923 12.6586C15.3231 12.6586 15 12.9829 15 13.3537V15.7634C15 16.0415 15.1847 16.2732 15.4154 16.4122L17.2616 17.2464C17.3539 17.2927 17.4462 17.2927 17.5385 17.2927C17.8154 17.2927 18.0462 17.1537 18.1846 16.8756C18.3231 16.5049 18.1847 16.1342 17.8154 15.9488ZM15.4616 6.86587C15.4616 6.49514 15.1385 6.17075 14.7693 6.17075H6.92311C6.55388 6.17075 6.2308 6.49514 6.2308 6.86587C6.2308 7.2366 6.55388 7.56099 6.92311 7.56099H14.7693C15.1385 7.56099 15.4616 7.2366 15.4616 6.86587ZM6.92311 9.87806C6.55388 9.87806 6.2308 10.2025 6.2308 10.5732C6.2308 10.9439 6.55388 11.2683 6.92311 11.2683H9.2308C9.60004 11.2683 9.92311 10.9439 9.92311 10.5732C9.92311 10.2025 9.60004 9.87806 9.2308 9.87806H6.92311Z" fill="#AAAAAA"/>
</svg>
