<svg width="22" height="23" viewBox="0 0 22 23" fill="none" xmlns="http://www.w3.org/2000/svg">
<path d="M20.3834 2.11662C19.9886 1.7218 19.4531 1.5 18.8947 1.5H3.10526C2.54691 1.5 2.01143 1.7218 1.61662 2.11662C1.2218 2.51143 1 3.04691 1 3.60526V15.1842C1 18.6721 3.82789 21.5 7.31579 21.5H14.6842C18.1721 21.5 21 18.6721 21 15.1842V3.60526C21 3.04691 20.7782 2.51143 20.3834 2.11662Z" stroke="#AAAAAA" stroke-width="1.7"/>
<mask id="mask0_4629_5229" style="mask-type:alpha" maskUnits="userSpaceOnUse" x="4" y="4" width="14" height="14">
<rect x="4.39911" y="4.78946" width="13.1579" height="13.1579" fill="#D9D9D9"/>
</mask>
<g mask="url(#mask0_4629_5229)">
<path fill-rule="evenodd" clip-rule="evenodd" d="M20.493 2.11662C20.0982 1.7218 19.5627 1.5 19.0044 1.5H18.1096C19.7665 1.5 21.1096 2.84315 21.1096 4.5V3.60526C21.1096 3.04691 20.8878 2.51143 20.493 2.11662ZM21.1096 15.1118C21.1096 15.1532 21.1088 15.1943 21.1071 15.2352C21.105 15.2769 21.1025 15.318 21.0996 15.3584C21.0087 16.4759 20.3054 17.4202 19.3257 17.8551C18.4835 18.0789 17.3324 18.0789 15.8465 18.0789H8.36839C7.94282 18.0789 7.51499 18.0871 7.09156 18.0952C5.12417 18.1327 3.2516 18.1684 2.14056 17.3753C1.5612 16.8708 1.17735 16.1476 1.11774 15.3343C1.11656 15.3175 1.11546 15.3006 1.11445 15.2835C1.11124 15.2267 1.10962 15.1695 1.10962 15.1118V15.1842C1.1109 15.2177 1.11251 15.2508 1.11445 15.2835C1.11541 15.3005 1.1165 15.3174 1.11774 15.3343C1.18722 16.3198 1.55988 16.9607 2.14056 17.3753C2.66747 17.834 3.3561 18.1118 4.10962 18.1118H18.1096C18.5425 18.1118 18.954 18.0201 19.3257 17.8551C20.4199 17.5643 20.9924 16.8957 21.0996 15.3584C21.103 15.3176 21.1055 15.2765 21.1071 15.2352C21.108 15.2183 21.1088 15.2013 21.1096 15.1842V15.1118ZM1.10962 4.5C1.10962 2.84315 2.45277 1.5 4.10962 1.5H3.21488C2.65653 1.5 2.12105 1.7218 1.72624 2.11662C1.33142 2.51143 1.10962 3.04691 1.10962 3.60526V4.5ZM5.10214 6.01883C5.29955 5.82143 5.56729 5.71053 5.84646 5.71053H8.47804C8.75722 5.71053 9.02496 5.82143 9.22236 6.01883C9.41977 6.21624 9.53067 6.48398 9.53067 6.76316V9.39474C9.53067 9.67391 9.41977 9.94165 9.22236 10.1391C9.02496 10.3365 8.75722 10.4474 8.47804 10.4474H5.84646C5.56729 10.4474 5.29955 10.3365 5.10214 10.1391C4.90473 9.94165 4.79383 9.67391 4.79383 9.39474V6.76316C4.79383 6.48398 4.90473 6.21624 5.10214 6.01883ZM11.3409 5.94176C11.4889 5.7937 11.6897 5.71053 11.8991 5.71053H16.6359C16.8453 5.71053 17.0461 5.7937 17.1942 5.94176C17.3422 6.08981 17.4254 6.29062 17.4254 6.5C17.4254 6.70938 17.3422 6.91019 17.1942 7.05824C17.0461 7.2063 16.8453 7.28947 16.6359 7.28947H11.8991C11.6897 7.28947 11.4889 7.2063 11.3409 7.05824C11.1928 6.91019 11.1096 6.70938 11.1096 6.5C11.1096 6.29062 11.1928 6.08981 11.3409 5.94176ZM11.3409 9.09965C11.4889 8.9516 11.6897 8.86842 11.8991 8.86842H15.057C15.2664 8.86842 15.4672 8.9516 15.6152 9.09965C15.7633 9.24771 15.8465 9.44851 15.8465 9.65789C15.8465 9.86728 15.7633 10.0681 15.6152 10.2161C15.4672 10.3642 15.2664 10.4474 15.057 10.4474H11.8991C11.6897 10.4474 11.4889 10.3642 11.3409 10.2161C11.1928 10.0681 11.1096 9.86728 11.1096 9.65789C11.1096 9.44851 11.1928 9.24771 11.3409 9.09965ZM5.44364 12.6328C5.57135 12.5799 5.70823 12.5526 5.84646 12.5526H8.47804C8.61627 12.5526 8.75315 12.5799 8.88087 12.6328C9.00858 12.6857 9.12462 12.7632 9.22236 12.8609C9.32011 12.9587 9.39765 13.0747 9.45055 13.2024C9.50345 13.3301 9.53067 13.467 9.53067 13.6053V16.2368C9.53067 16.516 9.41977 16.7838 9.22236 16.9812C9.02496 17.1786 8.75722 17.2895 8.47804 17.2895H5.84646C5.56729 17.2895 5.29955 17.1786 5.10214 16.9812C4.90473 16.7838 4.79383 16.516 4.79383 16.2368V13.6053C4.79383 13.467 4.82106 13.3301 4.87396 13.2024C4.92686 13.0747 5.00439 12.9587 5.10214 12.8609C5.19988 12.7632 5.31593 12.6857 5.44364 12.6328ZM11.3409 12.7839C11.4889 12.6358 11.6897 12.5526 11.8991 12.5526H16.6359C16.8453 12.5526 17.0461 12.6358 17.1942 12.7839C17.3422 12.9319 17.4254 13.1327 17.4254 13.3421C17.4254 13.5515 17.3422 13.7523 17.1942 13.9003C17.0461 14.0484 16.8453 14.1316 16.6359 14.1316H11.8991C11.6897 14.1316 11.4889 14.0484 11.3409 13.9003C11.1928 13.7523 11.1096 13.5515 11.1096 13.3421C11.1096 13.1327 11.1928 12.9319 11.3409 12.7839ZM11.597 15.7706C11.6928 15.7309 11.7954 15.7105 11.8991 15.7105H15.057C15.2664 15.7105 15.4672 15.7937 15.6152 15.9418C15.7633 16.0898 15.8465 16.2906 15.8465 16.5C15.8465 16.7094 15.7633 16.9102 15.6152 17.0582C15.4672 17.2063 15.2664 17.2895 15.057 17.2895H11.8991C11.7954 17.2895 11.6928 17.2691 11.597 17.2294C11.5012 17.1897 11.4142 17.1316 11.3409 17.0582C11.2675 16.9849 11.2094 16.8979 11.1697 16.8021C11.13 16.7063 11.1096 16.6037 11.1096 16.5C11.1096 16.3963 11.13 16.2937 11.1697 16.1979C11.2094 16.1021 11.2675 16.0151 11.3409 15.9418C11.4142 15.8684 11.5012 15.8103 11.597 15.7706Z" fill="#AAAAAA"/>
</g>
</svg>
