<svg width="20" height="21" viewBox="0 0 20 21" fill="none" xmlns="http://www.w3.org/2000/svg">
<path d="M17.8947 0.5C18.4531 0.5 18.9886 0.721804 19.3834 1.11662C19.7782 1.51143 20 2.04691 20 2.60526V14.1842C20 17.6721 17.1721 20.5 13.6842 20.5H6.31579C2.82789 20.5 0 17.6721 0 14.1842V2.60526C0 2.04691 0.221804 1.51143 0.616617 1.11662C1.01143 0.721804 1.54691 0.5 2.10526 0.5H17.8947ZM4.73684 4.71053C4.45767 4.71053 4.18993 4.82143 3.99252 5.01884C3.79511 5.21624 3.68421 5.48398 3.68421 5.76316V8.39474C3.68421 8.67391 3.79511 8.94165 3.99252 9.13906C4.18993 9.33647 4.45767 9.44737 4.73684 9.44737H7.36842C7.6476 9.44737 7.91534 9.33647 8.11274 9.13906C8.31015 8.94165 8.42105 8.67391 8.42105 8.39474V5.76316C8.42105 5.48398 8.31015 5.21624 8.11274 5.01884C7.91534 4.82143 7.6476 4.71053 7.36842 4.71053H4.73684ZM10.7895 4.71053C10.5801 4.71053 10.3793 4.7937 10.2312 4.94176C10.0832 5.08981 10 5.29062 10 5.5C10 5.70938 10.0832 5.91019 10.2312 6.05824C10.3793 6.2063 10.5801 6.28947 10.7895 6.28947H15.5263C15.7357 6.28947 15.9365 6.2063 16.0846 6.05824C16.2326 5.91019 16.3158 5.70938 16.3158 5.5C16.3158 5.29062 16.2326 5.08981 16.0846 4.94176C15.9365 4.7937 15.7357 4.71053 15.5263 4.71053H10.7895ZM10.7895 7.86842C10.5801 7.86842 10.3793 7.9516 10.2312 8.09965C10.0832 8.24771 10 8.44851 10 8.6579C10 8.86728 10.0832 9.06808 10.2312 9.21614C10.3793 9.36419 10.5801 9.44737 10.7895 9.44737H13.9474C14.1567 9.44737 14.3576 9.36419 14.5056 9.21614C14.6537 9.06808 14.7368 8.86728 14.7368 8.6579C14.7368 8.44851 14.6537 8.24771 14.5056 8.09965C14.3576 7.9516 14.1567 7.86842 13.9474 7.86842H10.7895ZM4.73684 11.5526C4.59861 11.5526 4.46173 11.5799 4.33402 11.6328C4.20631 11.6857 4.09027 11.7632 3.99252 11.8609C3.89477 11.9587 3.81724 12.0747 3.76434 12.2024C3.71144 12.3302 3.68421 12.467 3.68421 12.6053V15.2368C3.68421 15.516 3.79511 15.7838 3.99252 15.9812C4.18993 16.1786 4.45767 16.2895 4.73684 16.2895H7.36842C7.6476 16.2895 7.91534 16.1786 8.11274 15.9812C8.31015 15.7838 8.42105 15.516 8.42105 15.2368V12.6053C8.42105 12.467 8.39383 12.3302 8.34093 12.2024C8.28803 12.0747 8.21049 11.9587 8.11274 11.8609C8.015 11.7632 7.89896 11.6857 7.77125 11.6328C7.64353 11.5799 7.50665 11.5526 7.36842 11.5526H4.73684ZM10.7895 11.5526C10.5801 11.5526 10.3793 11.6358 10.2312 11.7839C10.0832 11.9319 10 12.1327 10 12.3421C10 12.5515 10.0832 12.7523 10.2312 12.9003C10.3793 13.0484 10.5801 13.1316 10.7895 13.1316H15.5263C15.7357 13.1316 15.9365 13.0484 16.0846 12.9003C16.2326 12.7523 16.3158 12.5515 16.3158 12.3421C16.3158 12.1327 16.2326 11.9319 16.0846 11.7839C15.9365 11.6358 15.7357 11.5526 15.5263 11.5526H10.7895ZM10.7895 14.7105C10.6858 14.7105 10.5831 14.7309 10.4874 14.7706C10.3916 14.8103 10.3045 14.8684 10.2312 14.9418C10.1579 15.0151 10.0998 15.1021 10.0601 15.1979C10.0204 15.2937 10 15.3963 10 15.5C10 15.6037 10.0204 15.7063 10.0601 15.8021C10.0998 15.8979 10.1579 15.9849 10.2312 16.0582C10.3045 16.1316 10.3916 16.1897 10.4874 16.2294C10.5831 16.2691 10.6858 16.2895 10.7895 16.2895H13.9474C14.1567 16.2895 14.3576 16.2063 14.5056 16.0582C14.6537 15.9102 14.7368 15.7094 14.7368 15.5C14.7368 15.2906 14.6537 15.0898 14.5056 14.9418C14.3576 14.7937 14.1567 14.7105 13.9474 14.7105H10.7895Z" fill="black"/>
</svg>
