<svg width="24" height="24" viewBox="0 0 24 24" fill="none" xmlns="http://www.w3.org/2000/svg">
<path d="M18.4378 14.117C18.3243 14.0669 16.3327 13.2003 14.0967 12.7314C14.6626 12.3708 15.1285 11.8739 15.4514 11.2863C15.7743 10.6987 15.9439 10.0395 15.9444 9.36928V6.9936C15.9444 4.79138 14.1534 3 11.9516 3C11.3854 3.00048 10.8258 3.12155 10.3102 3.35511C9.79454 3.58868 9.33478 3.92936 8.96157 4.35443C8.31495 5.08206 7.95771 6.02093 7.95738 6.9936V9.36928C7.95738 10.7106 8.62418 11.8974 9.64146 12.6218C7.18369 13.0457 4.85246 14.0611 4.74338 14.1098C4.08095 14.3805 3.58286 15.1245 3.58286 15.8409V18.708H3.59522C3.64248 19.0654 3.81825 19.3935 4.08979 19.6312C4.36134 19.8689 4.71017 19.9999 5.07133 20H18.0916C18.7432 20 19.3256 19.5747 19.5416 18.941L19.5801 18.8278V15.8409C19.5801 15.1194 19.0798 14.374 18.4378 14.117Z" fill="black"/>
<path d="M5.81956 12.4788C6.61433 12.2313 6.99099 12.0927 6.99099 12.0927C6.99099 12.0927 7.50581 11.8662 7.36984 11.4126C7.05135 10.8072 6.82448 10.3383 6.82448 8.56943V6.27068C6.82448 6.27068 6.96118 5.15215 7.39238 5.04618C7.42728 5.00916 7.4331 4.95472 7.41783 4.89375C7.36237 4.76256 7.2694 4.65059 7.15055 4.57184C7.0317 4.49309 6.89223 4.45106 6.74958 4.45099C5.95006 4.45214 5.18366 4.76989 4.61859 5.33449C4.05351 5.8991 3.73593 6.66443 3.73555 7.46252V9.37367C3.73555 10.1162 4.01623 10.7883 4.46415 11.3138C3.03894 11.7515 1.79334 12.4411 1.56501 12.5717C1.04583 12.8171 0.674255 13.4043 0.674255 13.9886V16.0732C0.674255 16.2657 0.750865 16.4503 0.887232 16.5865C1.0236 16.7226 1.20855 16.7991 1.4014 16.7991C1.57887 16.7978 1.74962 16.7312 1.88087 16.6119C2.01212 16.4927 2.09463 16.3293 2.11256 16.1531C2.11546 16.1262 2.12855 16.1015 2.12855 16.0732V15.7408C2.18672 15.0534 2.44486 13.8057 3.5145 13.2214C3.67811 13.1488 3.85262 13.0777 4.03077 13.0072C4.62944 12.8393 5.22576 12.6632 5.81956 12.4788Z" fill="black"/>
<path d="M18.0668 12.4788C17.272 12.2313 16.8954 12.0927 16.8954 12.0927C16.8954 12.0927 16.3805 11.8662 16.5165 11.4126C16.835 10.8072 17.0619 10.3383 17.0619 8.56943V6.27068C17.0619 6.27068 16.9252 5.15215 16.494 5.04618C16.4591 5.00916 16.4533 4.95472 16.4685 4.89375C16.524 4.76256 16.6169 4.65059 16.7358 4.57184C16.8547 4.49309 16.9941 4.45106 17.1368 4.45099C17.9363 4.45214 18.7027 4.76989 19.2678 5.33449C19.8328 5.8991 20.1504 6.66443 20.1508 7.46252V9.37367C20.1508 10.1162 19.8701 10.7883 19.4222 11.3138C20.8474 11.7515 22.093 12.4411 22.3213 12.5717C22.8405 12.8171 23.2121 13.4043 23.2121 13.9886V16.0732C23.2121 16.2657 23.1355 16.4503 22.9991 16.5865C22.8628 16.7226 22.6778 16.7991 22.4849 16.7991C22.3075 16.7978 22.1367 16.7312 22.0055 16.6119C21.8742 16.4927 21.7917 16.3293 21.7738 16.1531C21.7709 16.1262 21.7578 16.1015 21.7578 16.0732V15.7408C21.6996 15.0534 21.4415 13.8057 20.3719 13.2214C20.2082 13.1488 20.0337 13.0777 19.8556 13.0072C19.2569 12.8393 18.6606 12.6632 18.0668 12.4788Z" fill="black"/>
</svg>
