<svg width="24" height="24" viewBox="0 0 24 24" fill="none" xmlns="http://www.w3.org/2000/svg">
<path d="M18.1093 18.5317C18.1001 18.5408 18.088 18.5464 18.0752 18.5476L5.04464 18.5164V15.8396C5.04464 15.7075 5.1811 15.5007 5.319 15.4441C5.35457 15.4296 8.87766 13.8872 11.577 13.8872C14.2705 13.8872 17.7994 15.4296 17.8567 15.4542C17.975 15.5014 18.1093 15.7075 18.1093 15.8404V18.5317ZM9.41041 9.36901V6.99342C9.41041 6.32043 9.67731 5.6749 10.1526 5.19841C10.6278 4.72192 11.2727 4.45336 11.9457 4.45163C12.6187 4.45316 13.2635 4.72169 13.7387 5.19824C14.2139 5.67479 14.4806 6.32044 14.4802 6.99342V9.36901C14.4806 10.042 14.2139 10.6876 13.7387 11.1642C13.2635 11.6408 12.6187 11.9093 11.9457 11.9108C11.2726 11.9095 10.6275 11.641 10.1522 11.1645C9.6768 10.6879 9.41002 10.0421 9.41041 9.36901ZM18.4207 14.1158C18.3074 14.0665 16.3194 13.1999 14.0883 12.731C14.653 12.3704 15.1179 11.8734 15.4401 11.2858C15.7623 10.6983 15.9314 10.0391 15.9318 9.36901V6.99342C15.9318 4.79131 14.1434 3 11.9457 3C9.74719 3 7.95878 4.79131 7.95878 6.99342V9.36901C7.95878 10.7103 8.62435 11.897 9.63977 12.6207C7.18652 13.0453 4.85956 14.0607 4.75069 14.1086C4.09093 14.3808 3.59302 15.1247 3.59302 15.8411V18.7081H3.60536C3.65253 19.0654 3.82798 19.3935 4.09903 19.6312C4.37008 19.8689 4.71826 19.9999 5.07876 20H18.0752C18.7255 20 19.3069 19.5747 19.5224 18.9403L19.5609 18.8278V15.8396C19.5609 15.1182 19.0615 14.3728 18.4207 14.1158Z" fill="#AAAAAA"/>
<path d="M6.68643 12.3775C6.70965 12.3775 6.7307 12.384 6.75393 12.384C6.94643 12.384 7.13104 12.3076 7.26716 12.1715C7.40327 12.0353 7.47974 11.8507 7.47974 11.6582C7.47974 11.4657 7.40327 11.2811 7.26716 11.145C7.13104 11.0089 6.94643 10.9324 6.75393 10.9324C6.34069 10.9318 5.94459 10.7672 5.65267 10.4748C5.36074 10.1823 5.19687 9.78588 5.19706 9.37264V7.46158C5.19706 6.60294 5.89529 5.90326 6.75393 5.90326C6.94643 5.90326 7.13104 5.82679 7.26716 5.69067C7.40327 5.55455 7.47974 5.36994 7.47974 5.17744C7.47974 4.98495 7.40327 4.80033 7.26716 4.66422C7.13104 4.5281 6.94643 4.45163 6.75393 4.45163C5.956 4.45278 5.19112 4.77042 4.6271 5.33484C4.06309 5.89926 3.74601 6.66438 3.74543 7.4623V9.37337C3.74543 10.1159 4.0256 10.788 4.4727 11.3135C3.0501 11.7511 1.80678 12.4407 1.57888 12.5713C1.06065 12.8166 0.689758 13.4038 0.689758 13.9881V16.0726C0.689758 16.2651 0.766228 16.4497 0.902344 16.5859C1.03846 16.722 1.22307 16.7984 1.41557 16.7984C1.60807 16.7984 1.79268 16.722 1.9288 16.5859C2.06492 16.4497 2.14138 16.2651 2.14138 16.0726V13.9917C2.15063 13.9528 2.16876 13.9165 2.19437 13.8857C2.22239 13.8739 2.24955 13.86 2.27566 13.8444C2.96591 13.4423 5.08456 12.3993 6.57973 12.3993C6.61675 12.3993 6.65014 12.3833 6.68643 12.3775Z" fill="#AAAAAA"/>
<path d="M16.967 12.3775C16.9438 12.3775 16.9228 12.384 16.8995 12.384C16.707 12.384 16.5224 12.3076 16.3863 12.1715C16.2502 12.0353 16.1737 11.8507 16.1737 11.6582C16.1737 11.4657 16.2502 11.2811 16.3863 11.145C16.5224 11.0089 16.707 10.9324 16.8995 10.9324C17.3128 10.9318 17.7089 10.7672 18.0008 10.4748C18.2927 10.1823 18.4566 9.78588 18.4564 9.37264V7.46158C18.4564 6.60294 17.7582 5.90326 16.8995 5.90326C16.707 5.90326 16.5224 5.82679 16.3863 5.69067C16.2502 5.55455 16.1737 5.36994 16.1737 5.17744C16.1737 4.98495 16.2502 4.80033 16.3863 4.66422C16.5224 4.5281 16.707 4.45163 16.8995 4.45163C17.6975 4.45278 18.4624 4.77042 19.0264 5.33484C19.5904 5.89926 19.9075 6.66438 19.908 7.4623V9.37337C19.908 10.1159 19.6279 10.788 19.1808 11.3135C20.6034 11.7511 21.8467 12.4407 22.0746 12.5713C22.5928 12.8166 22.9637 13.4038 22.9637 13.9881V16.0726C22.9637 16.2651 22.8872 16.4497 22.7511 16.5859C22.615 16.722 22.4304 16.7984 22.2379 16.7984C22.0454 16.7984 21.8608 16.722 21.7247 16.5859C21.5886 16.4497 21.5121 16.2651 21.5121 16.0726V13.9917C21.5028 13.9528 21.4847 13.9165 21.4591 13.8857C21.4311 13.8739 21.4039 13.86 21.3778 13.8444C20.6876 13.4423 18.5689 12.3993 17.0737 12.3993C17.0367 12.3993 17.0033 12.3833 16.967 12.3775Z" fill="#AAAAAA"/>
</svg>
