<svg width="16" height="16" viewBox="0 0 16 16" fill="none" xmlns="http://www.w3.org/2000/svg">
<path d="M3.59756 3.59765C3.94977 3.24545 4.47807 3.24545 4.83027 3.59765L8.00008 6.76746L11.1699 3.59765C11.5221 3.24545 12.0504 3.24545 12.4026 3.59765C12.7548 3.94985 12.7548 4.47815 12.4026 4.83035L9.23279 8.00016L12.4026 11.17C12.7548 11.5222 12.7548 12.0505 12.4026 12.4027C12.0504 12.7549 11.5221 12.7549 11.1699 12.4027L8.00008 9.23287L4.83027 12.4027C4.47807 12.7549 3.94977 12.7549 3.59756 12.4027C3.24536 12.0505 3.24536 11.5222 3.59756 11.17L6.76738 8.00016L3.59756 4.83035C3.24536 4.47815 3.24536 3.94985 3.59756 3.59765Z" fill="#505050"/>
</svg>
