<svg width="81" height="54" viewBox="0 0 81 54" fill="none" xmlns="http://www.w3.org/2000/svg">
<g filter="url(#filter0_d_652_17592)">
<rect x="4" y="4" width="73" height="34" rx="6" fill="white" shape-rendering="crispEdges"/>
<path d="M19.0591 18.1297V19.6444H20.4118L19.0591 18.1297ZM20.6075 27.0306C20.7056 26.9326 20.7677 26.799 20.7677 26.6475V20.4552H18.9699C18.7741 20.4552 18.5962 20.375 18.4627 20.2414C18.3381 20.1077 18.2578 19.9294 18.2578 19.7336V17.9336H14.5732C14.4219 17.9336 14.2884 17.9961 14.1905 18.0938C14.0926 18.1922 14.0391 18.3255 14.0391 18.4769V26.6475C14.0391 26.799 14.0926 26.9326 14.1905 27.0306C14.2884 27.1287 14.4219 27.1911 14.5732 27.1911H20.225C20.3761 27.1911 20.5098 27.1287 20.6075 27.0306ZM13.6208 17.5237C13.87 17.2832 14.2083 17.1318 14.5732 17.1318H19.2814H19.3261L19.3526 17.1587L21.5511 19.68L21.5689 19.6978V19.7336V26.6475C21.5689 27.0219 21.4175 27.3604 21.1774 27.6011C20.937 27.8415 20.5988 27.9929 20.225 27.9929H14.5732C14.2083 27.9929 13.87 27.8415 13.6208 27.6011C13.3805 27.3604 13.2292 27.0219 13.2292 26.6475V18.4769C13.2292 18.1028 13.3805 17.7734 13.6208 17.5237ZM22.2009 14.9842V16.4992H23.5536L22.2009 14.9842ZM17.715 13.9863H22.4232H22.4679L22.4944 14.0219L24.693 16.5348L24.7108 16.5614V16.5882V23.5024C24.7108 23.8767 24.5593 24.2152 24.3192 24.4556C24.0697 24.7051 23.7406 24.8478 23.3668 24.8478L22.4232 24.8565C22.3164 24.8565 22.2097 24.8031 22.1384 24.7319C22.0673 24.6608 22.0229 24.5627 22.0229 24.4469C22.0229 24.3398 22.0672 24.233 22.1384 24.1618C22.2096 24.0903 22.3164 24.046 22.4232 24.046H23.3668C23.518 24.046 23.6516 23.9835 23.7493 23.8855C23.8474 23.7874 23.9096 23.6538 23.9096 23.5024V17.3101H22.1119C21.9158 17.3101 21.7378 17.2298 21.6045 17.0959C21.4709 16.9713 21.391 16.7843 21.391 16.5882V14.7972H17.715C17.5637 14.7972 17.4302 14.8509 17.3323 14.9486C17.2343 15.047 17.172 15.1803 17.172 15.3318V16.2766C17.172 16.3924 17.1275 16.4902 17.0563 16.5614C16.9851 16.6328 16.8872 16.6772 16.7715 16.6772C16.6647 16.6772 16.558 16.6328 16.4868 16.5614C16.4156 16.4902 16.3711 16.3834 16.3711 16.2766V15.3318C16.3711 14.9667 16.5224 14.628 16.7626 14.3785C17.0118 14.1378 17.3412 13.9863 17.715 13.9863Z" fill="#505050"/>
<path d="M32.602 20.114C32.602 19.162 32.8167 18.308 33.246 17.552C33.6753 16.7867 34.2587 16.1893 34.996 15.76C35.7427 15.3307 36.5687 15.116 37.474 15.116C38.538 15.116 39.4667 15.3727 40.26 15.886C41.0533 16.3993 41.632 17.1273 41.996 18.07H40.47C40.1993 17.482 39.8073 17.0293 39.294 16.712C38.79 16.3947 38.1833 16.236 37.474 16.236C36.7927 16.236 36.1813 16.3947 35.64 16.712C35.0987 17.0293 34.674 17.482 34.366 18.07C34.058 18.6487 33.904 19.33 33.904 20.114C33.904 20.8887 34.058 21.57 34.366 22.158C34.674 22.7367 35.0987 23.1847 35.64 23.502C36.1813 23.8193 36.7927 23.978 37.474 23.978C38.1833 23.978 38.79 23.824 39.294 23.516C39.8073 23.1987 40.1993 22.746 40.47 22.158H41.996C41.632 23.0913 41.0533 23.8147 40.26 24.328C39.4667 24.832 38.538 25.084 37.474 25.084C36.5687 25.084 35.7427 24.874 34.996 24.454C34.2587 24.0247 33.6753 23.432 33.246 22.676C32.8167 21.92 32.602 21.066 32.602 20.114ZM47.2385 25.126C46.5198 25.126 45.8665 24.9627 45.2785 24.636C44.6998 24.3093 44.2425 23.8473 43.9065 23.25C43.5798 22.6433 43.4165 21.9433 43.4165 21.15C43.4165 20.366 43.5845 19.6753 43.9205 19.078C44.2658 18.4713 44.7325 18.0093 45.3205 17.692C45.9085 17.3653 46.5665 17.202 47.2945 17.202C48.0225 17.202 48.6805 17.3653 49.2685 17.692C49.8565 18.0093 50.3185 18.4667 50.6545 19.064C50.9998 19.6613 51.1725 20.3567 51.1725 21.15C51.1725 21.9433 50.9951 22.6433 50.6405 23.25C50.2951 23.8473 49.8238 24.3093 49.2265 24.636C48.6291 24.9627 47.9665 25.126 47.2385 25.126ZM47.2385 24.006C47.6958 24.006 48.1251 23.8987 48.5265 23.684C48.9278 23.4693 49.2498 23.1473 49.4925 22.718C49.7445 22.2887 49.8705 21.766 49.8705 21.15C49.8705 20.534 49.7491 20.0113 49.5065 19.582C49.2638 19.1527 48.9465 18.8353 48.5545 18.63C48.1625 18.4153 47.7378 18.308 47.2805 18.308C46.8138 18.308 46.3845 18.4153 45.9925 18.63C45.6098 18.8353 45.3018 19.1527 45.0685 19.582C44.8351 20.0113 44.7185 20.534 44.7185 21.15C44.7185 21.7753 44.8305 22.3027 45.0545 22.732C45.2878 23.1613 45.5958 23.4833 45.9785 23.698C46.3611 23.9033 46.7811 24.006 47.2385 24.006ZM54.1215 18.742C54.3735 18.3033 54.7469 17.9393 55.2415 17.65C55.7455 17.3513 56.3289 17.202 56.9915 17.202C57.6729 17.202 58.2889 17.3653 58.8395 17.692C59.3995 18.0187 59.8382 18.4807 60.1555 19.078C60.4729 19.666 60.6315 20.352 60.6315 21.136C60.6315 21.9107 60.4729 22.6013 60.1555 23.208C59.8382 23.8147 59.3995 24.286 58.8395 24.622C58.2889 24.958 57.6729 25.126 56.9915 25.126C56.3382 25.126 55.7595 24.9813 55.2555 24.692C54.7609 24.3933 54.3829 24.0247 54.1215 23.586V28.64H52.8475V17.328H54.1215V18.742ZM59.3295 21.136C59.3295 20.5573 59.2129 20.0533 58.9795 19.624C58.7462 19.1947 58.4289 18.868 58.0275 18.644C57.6355 18.42 57.2015 18.308 56.7255 18.308C56.2589 18.308 55.8249 18.4247 55.4235 18.658C55.0315 18.882 54.7142 19.2133 54.4715 19.652C54.2382 20.0813 54.1215 20.5807 54.1215 21.15C54.1215 21.7287 54.2382 22.2373 54.4715 22.676C54.7142 23.1053 55.0315 23.4367 55.4235 23.67C55.8249 23.894 56.2589 24.006 56.7255 24.006C57.2015 24.006 57.6355 23.894 58.0275 23.67C58.4289 23.4367 58.7462 23.1053 58.9795 22.676C59.2129 22.2373 59.3295 21.724 59.3295 21.136ZM68.9165 17.328L64.2965 28.612H62.9805L64.4925 24.916L61.3985 17.328H62.8125L65.2205 23.544L67.6005 17.328H68.9165Z" fill="#505050"/>
<path fill-rule="evenodd" clip-rule="evenodd" d="M54.7719 38.0005C54.7719 38.0005 55.4477 38.0036 54.4728 38.0005C52.8616 37.9974 50.2053 40.0712 48.4786 42.308C46.752 44.5448 43.235 50 40.9857 50C38.7363 50 34.8255 44.6864 33.1931 42.308C31.5606 39.9297 28.9377 37.9636 26 38.0005H54.7719Z" fill="white"/>
</g>
<defs>
<filter id="filter0_d_652_17592" x="0" y="0" width="81" height="54" filterUnits="userSpaceOnUse" color-interpolation-filters="sRGB">
<feFlood flood-opacity="0" result="BackgroundImageFix"/>
<feColorMatrix in="SourceAlpha" type="matrix" values="0 0 0 0 0 0 0 0 0 0 0 0 0 0 0 0 0 0 127 0" result="hardAlpha"/>
<feOffset/>
<feGaussianBlur stdDeviation="2"/>
<feComposite in2="hardAlpha" operator="out"/>
<feColorMatrix type="matrix" values="0 0 0 0 0 0 0 0 0 0 0 0 0 0 0 0 0 0 0.15 0"/>
<feBlend mode="normal" in2="BackgroundImageFix" result="effect1_dropShadow_652_17592"/>
<feBlend mode="normal" in="SourceGraphic" in2="effect1_dropShadow_652_17592" result="shape"/>
</filter>
</defs>
</svg>
