<svg width="60" height="60" viewBox="0 0 60 60" fill="none" xmlns="http://www.w3.org/2000/svg">
<path d="M30 13.125C17.6194 13.125 11.25 18.7875 11.25 30L11.2556 30.5306C11.4281 38.9306 15.7594 42.8362 24.6694 43.8244L27.6412 46.9125C28.2975 47.5912 29.5912 48.4837 30.885 48.4669C32.1169 48.45 33.3525 47.5575 34.0463 46.9106L36.9544 43.815C45.2812 42.8156 48.75 38.8837 48.75 30C48.75 18.7875 42.3806 13.125 30 13.125ZM23.25 27H37.23C37.7273 27 38.2042 27.1975 38.5558 27.5492C38.9075 27.9008 39.105 28.3777 39.105 28.875C39.105 29.3723 38.9075 29.8492 38.5558 30.2008C38.2042 30.5525 37.7273 30.75 37.23 30.75H23.25C22.7527 30.75 22.2758 30.5525 21.9242 30.2008C21.5725 29.8492 21.375 29.3723 21.375 28.875C21.375 28.3777 21.5725 27.9008 21.9242 27.5492C22.2758 27.1975 22.7527 27 23.25 27Z" fill="#EE7326"/>
<path d="M30 1.875C11.2463 1.875 1.875 11.2463 1.875 30C1.875 48.7537 11.2463 58.125 30 58.125C48.7537 58.125 58.125 48.7537 58.125 30C58.125 11.2463 48.7537 1.875 30 1.875ZM30 5.625C46.6838 5.625 54.375 13.3163 54.375 30C54.375 46.6838 46.6838 54.375 30 54.375C13.3163 54.375 5.625 46.6838 5.625 30C5.625 13.3163 13.3163 5.625 30 5.625Z" fill="#EE7326" fill-opacity="0.1"/>
</svg>
