<svg width="20" height="20" viewBox="0 0 20 20" fill="none" xmlns="http://www.w3.org/2000/svg">
<g opacity="0.5">
<path d="M17.6388 4.16699H2.36103C1.51725 4.16699 0.833252 4.8199 0.833252 5.62533V14.3753C0.833252 15.1808 1.51725 15.8337 2.36103 15.8337H17.6388C18.4826 15.8337 19.1666 15.1808 19.1666 14.3753V5.62533C19.1666 4.8199 18.4826 4.16699 17.6388 4.16699ZM17.8934 14.3753C17.8934 14.5093 17.7792 14.6184 17.6388 14.6184H2.36103C2.22063 14.6184 2.1064 14.5093 2.1064 14.3753V5.62533C2.1064 5.49131 2.22063 5.38227 2.36103 5.38227H17.6388C17.7792 5.38227 17.8934 5.49131 17.8934 5.62533V14.3753ZM6.24413 10.4257V9.57498C6.24413 9.37364 6.07312 9.21039 5.86219 9.21039H4.97098C4.76005 9.21039 4.58904 9.37364 4.58904 9.57498V10.4257C4.58904 10.627 4.76005 10.7903 4.97098 10.7903H5.86219C6.07312 10.7903 6.24413 10.627 6.24413 10.4257ZM9.29969 10.4257V9.57498C9.29969 9.37364 9.12867 9.21039 8.91774 9.21039H8.02654C7.81561 9.21039 7.64459 9.37364 7.64459 9.57498V10.4257C7.64459 10.627 7.81561 10.7903 8.02654 10.7903H8.91774C9.12867 10.7903 9.29969 10.627 9.29969 10.4257ZM12.3552 10.4257V9.57498C12.3552 9.37364 12.1842 9.21039 11.9733 9.21039H11.0821C10.8712 9.21039 10.7001 9.37364 10.7001 9.57498V10.4257C10.7001 10.627 10.8712 10.7903 11.0821 10.7903H11.9733C12.1842 10.7903 12.3552 10.627 12.3552 10.4257ZM15.4108 10.4257V9.57498C15.4108 9.37364 15.2398 9.21039 15.0289 9.21039H14.1377C13.9267 9.21039 13.7557 9.37364 13.7557 9.57498V10.4257C13.7557 10.627 13.9267 10.7903 14.1377 10.7903H15.0289C15.2398 10.7903 15.4108 10.627 15.4108 10.4257ZM4.71635 12.917V12.0663C4.71635 11.865 4.54534 11.7017 4.33441 11.7017H3.44321C3.23228 11.7017 3.06126 11.865 3.06126 12.0663V12.917C3.06126 13.1183 3.23228 13.2816 3.44321 13.2816H4.33441C4.54534 13.2816 4.71635 13.1183 4.71635 12.917ZM16.9386 12.917V12.0663C16.9386 11.865 16.7676 11.7017 16.5566 11.7017H15.6654C15.4545 11.7017 15.2835 11.865 15.2835 12.0663V12.917C15.2835 13.1183 15.4545 13.2816 15.6654 13.2816H16.5566C16.7676 13.2816 16.9386 13.1183 16.9386 12.917ZM4.71635 7.93435V7.08366C4.71635 6.88232 4.54534 6.71908 4.33441 6.71908H3.44321C3.23228 6.71908 3.06126 6.88232 3.06126 7.08366V7.93435C3.06126 8.13569 3.23228 8.29894 3.44321 8.29894H4.33441C4.54534 8.29894 4.71635 8.13569 4.71635 7.93435ZM7.77191 7.93435V7.08366C7.77191 6.88232 7.60089 6.71908 7.38997 6.71908H6.49876C6.28783 6.71908 6.11682 6.88232 6.11682 7.08366V7.93435C6.11682 8.13569 6.28783 8.29894 6.49876 8.29894H7.38997C7.60089 8.29894 7.77191 8.13569 7.77191 7.93435ZM10.8275 7.93435V7.08366C10.8275 6.88232 10.6564 6.71908 10.4455 6.71908H9.55432C9.34339 6.71908 9.17237 6.88232 9.17237 7.08366V7.93435C9.17237 8.13569 9.34339 8.29894 9.55432 8.29894H10.4455C10.6564 8.29894 10.8275 8.13569 10.8275 7.93435ZM13.883 7.93435V7.08366C13.883 6.88232 13.712 6.71908 13.5011 6.71908H12.6099C12.3989 6.71908 12.2279 6.88232 12.2279 7.08366V7.93435C12.2279 8.13569 12.3989 8.29894 12.6099 8.29894H13.5011C13.712 8.29894 13.883 8.13569 13.883 7.93435ZM16.9386 7.93435V7.08366C16.9386 6.88232 16.7676 6.71908 16.5566 6.71908H15.6654C15.4545 6.71908 15.2835 6.88232 15.2835 7.08366V7.93435C15.2835 8.13569 15.4545 8.29894 15.6654 8.29894H16.5566C16.7676 8.29894 16.9386 8.13569 16.9386 7.93435ZM13.8194 12.7347V12.2486C13.8194 12.0472 13.6483 11.884 13.4374 11.884H6.56242C6.35149 11.884 6.18047 12.0472 6.18047 12.2486V12.7347C6.18047 12.936 6.35149 13.0993 6.56242 13.0993H13.4374C13.6483 13.0993 13.8194 12.936 13.8194 12.7347Z" fill="#505050"/>
</g>
</svg>
