<svg width="16" height="16" viewBox="0 0 16 16" fill="none" xmlns="http://www.w3.org/2000/svg">
<path d="M8.0037 15.1701L8.00363 15.1701C7.71954 15.1697 7.48299 14.9677 7.44266 14.6887C7.44265 14.6887 7.44264 14.6886 7.44263 14.6886L6.91001 11.1405L4.56117 11.1405L4.56117 11.0905L4.56117 11.1405C4.3047 11.1405 4.07961 10.9655 4.01265 10.7157L4.01213 10.7137L4.01217 10.7137C3.99462 10.6357 3.92857 10.2876 4.0414 9.85327C4.15451 9.41783 4.44659 8.89919 5.13882 8.48075C5.15611 8.46711 5.17422 8.45189 5.19432 8.435L5.19958 8.43058L5.19964 8.43054L5.23179 8.46882C5.28053 8.42778 5.33532 8.38216 5.39853 8.33653L8.0037 15.1701ZM8.0037 15.1701C8.1604 15.1701 8.30261 15.1081 8.40515 15.0055C8.48769 14.923 8.54404 14.8147 8.56196 14.692L8.56192 14.6923L8.51252 14.6845M8.0037 15.1701L8.562 14.6917M10.592 8.97454C10.5715 8.96134 10.4014 8.82759 10.303 8.74824C9.90617 8.41293 9.58368 7.51914 9.54795 6.66546C9.5278 6.18064 9.59083 5.51551 10.0068 5.09958C10.0634 5.04296 10.1255 4.98342 10.186 4.92552C10.4278 4.70307 10.6087 4.51673 10.6085 4.26259C10.6085 4.09109 10.5416 3.93003 10.4201 3.80855M10.592 8.97454L7.49212 14.6814C7.52877 14.9354 7.74387 15.1197 8.0037 15.1201C8.14699 15.1201 8.27653 15.0635 8.36979 14.9702C8.44491 14.8951 8.49623 14.7965 8.51252 14.6845M10.592 8.97454C11.637 9.60722 11.4744 10.4796 11.4546 10.5723M10.592 8.97454L10.6327 8.34862M10.4201 3.80855C10.2981 3.68688 10.1359 3.62 9.96352 3.61981M10.4201 3.80855L10.3848 3.84395M10.4201 3.80855L10.3848 3.8439C10.3848 3.84392 10.3848 3.84394 10.3848 3.84395M9.96352 3.61981C9.92577 3.61981 6.08435 3.62256 5.97332 3.62476M9.96352 3.61981L9.96346 3.66981C9.96348 3.66981 9.9635 3.66981 9.96352 3.66981M9.96352 3.61981L9.96352 3.66981M5.97332 3.62476C5.65816 3.65738 5.41044 3.93149 5.41063 4.26223C5.41062 4.51875 5.59092 4.70491 5.82656 4.92185C5.89104 4.98342 5.9528 5.0426 6.00942 5.09921C6.35591 5.4457 6.52466 6.13007 6.46071 6.9295C6.40812 7.58565 6.18018 8.41055 5.70232 8.75649C5.64992 8.79423 5.6052 8.83198 5.56526 8.86569C5.53943 8.8875 5.51524 8.90765 5.49198 8.92579M5.97332 3.62476L5.97431 3.67475C5.97489 3.67474 5.97558 3.67473 5.97637 3.67472M5.97332 3.62476L5.97847 3.6745C5.97777 3.67457 5.97707 3.67464 5.97637 3.67472M5.49198 8.92579C5.47383 8.94283 5.45332 8.95675 5.43114 8.96793M5.49198 8.92579L5.52272 8.96522C5.5233 8.96477 5.52388 8.96432 5.52446 8.96386M5.49198 8.92579L5.52621 8.96224C5.52562 8.96278 5.52504 8.96332 5.52446 8.96386M5.43114 8.96793C4.37977 9.60337 4.54193 10.4794 4.56392 10.5772M5.43114 8.96793L5.45365 9.01258C5.45424 9.01228 5.45484 9.01198 5.45543 9.01167M5.43114 8.96793L5.457 9.01072C5.45648 9.01104 5.45596 9.01136 5.45543 9.01167M4.56392 10.5772L7.17641 10.5721C7.30467 10.5721 7.41369 10.6657 7.43275 10.7929M4.56392 10.5772L4.6127 10.5663C4.61099 10.5587 4.60825 10.5454 4.60532 10.5272M4.56392 10.5772L4.56382 10.5272L4.60532 10.5272M7.43275 10.7929L7.98027 14.4402L8.00597 14.2745M7.43275 10.7929L7.48219 10.7855L8.00597 14.2745M7.43275 10.7929L7.48219 10.7855C7.45945 10.6338 7.32938 10.5221 7.17641 10.5221L7.17631 10.5221L4.60532 10.5272M8.00597 14.2745L8.03085 14.4403L8.46416 11.6469C8.48614 11.5051 8.61899 11.4089 8.76026 11.4311C8.90153 11.4533 8.99809 11.5858 8.97592 11.727M8.00597 14.2745L8.41475 11.6393C8.44099 11.47 8.59959 11.3553 8.76801 11.3817C8.93656 11.4082 9.05177 11.5662 9.02531 11.7348M8.97592 11.727L8.51252 14.6845M8.97592 11.727L9.02531 11.7348M8.97592 11.727L9.02531 11.7348L9.02531 11.7348M8.51252 14.6845L8.562 14.6917M8.562 14.6917L9.02531 11.7348M8.562 14.6917L11.1765 4.26278C11.1767 4.78696 10.8087 5.12481 10.5773 5.33724L10.575 5.33942L10.5403 5.30334M4.60532 10.5272C4.59122 10.4394 4.5727 10.2361 4.64312 9.98783C4.72769 9.68972 4.94166 9.32268 5.45543 9.01167M5.45543 9.01167C5.48011 8.99905 5.50344 8.98328 5.52446 8.96386M5.52446 8.96386C5.548 8.94545 5.57224 8.92524 5.59752 8.9039C5.63754 8.87011 5.68091 8.83353 5.73154 8.79706L5.73164 8.79699C5.98203 8.61572 6.163 8.31244 6.28786 7.97675C6.41307 7.64012 6.48397 7.26519 6.51055 6.9335L6.51055 6.93349C6.57495 6.12854 6.40669 5.42577 6.04477 5.06386C5.98769 5.00678 5.92554 4.94722 5.86108 4.88569L5.86109 4.88568L5.86042 4.88507C5.62194 4.6655 5.46062 4.49359 5.46063 4.26223L5.46063 4.2622C5.46045 3.95722 5.6883 3.70564 5.97637 3.67472M5.97637 3.67472C6.12518 3.67254 9.92544 3.66981 9.96352 3.66981M9.96352 3.66981C10.1228 3.67 10.2722 3.73167 10.3848 3.84395M10.3848 3.84395C10.4969 3.95609 10.5585 4.10442 10.5585 4.26259L10.5585 4.26263C10.5587 4.49143 10.3971 4.6634 10.1521 4.88871L10.1514 4.8894C10.091 4.94724 10.0285 5.00716 9.97141 5.06422C9.53947 5.49615 9.47776 6.18072 9.498 6.66754L9.498 6.66755C9.51608 7.09957 9.60665 7.54147 9.74306 7.91826C9.87894 8.29361 10.0625 8.6105 10.2708 8.78644L10.2708 8.78645L10.2717 8.78717C10.3211 8.82701 10.3884 8.88042 10.4459 8.92553C10.5018 8.96942 10.5521 9.00834 10.5649 9.01659L10.5649 9.0166L10.5661 9.01731C11.0778 9.32712 11.2904 9.69299 11.3745 9.98954C11.444 10.2347 11.4264 10.4355 11.4129 10.5223M11.4129 10.5223L8.89932 10.5223V10.569L8.89932 10.5223C8.72842 10.5223 8.59025 10.6605 8.59024 10.8314C8.59023 11.0023 8.72842 11.1405 8.89932 11.1405L11.4547 11.1405L11.4547 11.1405C11.7165 11.1403 11.9421 10.9626 12.0063 10.7031L12.0063 10.7031L12.0066 10.7021C12.0228 10.6305 12.0886 10.287 11.9797 9.85769C11.8705 9.42711 11.5862 8.91339 10.908 8.50279M11.4129 10.5223C11.41 10.541 11.4073 10.5544 11.4057 10.5619L11.4546 10.5723M11.4129 10.5223L11.4546 10.5223L11.4546 10.5723M10.908 8.50279C10.8825 8.4836 10.7445 8.37418 10.6645 8.31003M10.908 8.50279C10.9073 8.50237 10.9066 8.50194 10.9059 8.50152L10.88 8.54431M10.908 8.50279C10.9087 8.50329 10.9092 8.50373 10.9098 8.5041L10.88 8.54431M10.6645 8.31003C10.5512 8.21398 10.4211 7.9888 10.3151 7.68592C10.2098 7.38522 10.1311 7.01633 10.1154 6.64176M10.6645 8.31003C10.6643 8.3099 10.6641 8.30976 10.664 8.30962L10.6327 8.34862M10.6645 8.31003C10.6646 8.31017 10.6648 8.3103 10.665 8.31043L10.6327 8.34862M10.1154 6.64176C10.093 6.10766 10.2027 5.70695 10.4084 5.50122C10.4586 5.45106 10.5132 5.39861 10.5645 5.34949L10.5742 5.34017L10.5403 5.30334M10.1154 6.64176L10.0668 6.64379L10.1154 6.64175C10.1154 6.64176 10.1154 6.64176 10.1154 6.64176ZM10.5403 5.30334L10.5298 5.31349C10.4786 5.36253 10.4236 5.41532 10.3731 5.46586C10.1523 5.68666 10.0429 6.10534 10.0654 6.64385C10.0973 7.40352 10.3844 8.13883 10.6327 8.34862M10.5403 5.30334C10.7734 5.08933 11.1267 4.76465 11.1265 4.26278L10.6327 8.34862M10.6327 8.34862C10.7142 8.41404 10.859 8.52874 10.88 8.54431M10.88 8.54431C12.2158 9.35163 11.9882 10.5565 11.9578 10.691C11.899 10.9287 11.693 11.0903 11.4547 11.0905L8.89932 11.0905C8.75603 11.0905 8.64023 10.9747 8.64024 10.8314C8.64024 10.6881 8.75603 10.5723 8.89932 10.5723H11.4546M5.9749 3.05708C6.35982 3.05328 9.91246 3.05147 9.96316 3.05165L5.9749 3.05708ZM5.9749 3.05708L5.96996 3.05698C5.95604 3.05669 5.94212 3.05726 5.92827 3.05869M5.9749 3.05708L5.92827 3.05869M5.92827 3.05869C5.30895 3.12232 4.84153 3.6398 4.8419 4.26244C4.84174 4.78876 5.20745 5.12513 5.43442 5.3339L5.43707 5.33633L5.92827 3.05869ZM11.1765 4.26276C11.1765 3.93947 11.0505 3.63523 10.8212 3.40634L10.8212 3.40631C10.592 3.17789 10.2873 3.05172 9.96341 3.05165L11.1765 4.26276Z" fill="#505050" stroke="#505050" stroke-width="0.1"/>
</svg>
