<svg width="20" height="20" viewBox="0 0 20 20" fill="none" xmlns="http://www.w3.org/2000/svg">
<path d="M17.3509 10.5078L3.83683 16.6074C3.75868 16.6424 3.67164 16.6525 3.58756 16.6362C3.50348 16.62 3.42645 16.5783 3.36694 16.5167L3.27431 16.4208C3.21862 16.3631 3.18039 16.2908 3.16403 16.2123C3.14768 16.1338 3.15386 16.0523 3.18187 15.9772L4.81296 11.6681C4.93063 11.3576 5.13832 11.0894 5.40942 10.8978C5.68051 10.7062 6.00266 10.5999 6.33456 10.5925L10.0374 10.4922C10.1445 10.4915 10.2471 10.4496 10.3242 10.3752C10.4012 10.3008 10.4466 10.1997 10.451 10.0927L10.4588 9.64496C10.4581 9.5379 10.4163 9.43522 10.3419 9.35821C10.2675 9.2812 10.1664 9.23576 10.0594 9.23134L6.36233 9.00179C6.03089 8.98287 5.71265 8.8654 5.4484 8.66443C5.18416 8.46347 4.98595 8.18817 4.87919 7.87382L3.39948 3.51041C3.36618 3.43334 3.35645 3.34813 3.37153 3.26553C3.3866 3.18293 3.42581 3.10665 3.48419 3.04631L3.58011 2.95369C3.64073 2.88517 3.72221 2.8385 3.81199 2.8209C3.90177 2.80329 3.99485 2.81573 4.07686 2.85628L17.3698 9.42377C17.4403 9.45791 17.4998 9.51124 17.5414 9.57764C17.583 9.64404 17.605 9.72082 17.6049 9.79916L17.5996 10.1055C17.6038 10.1899 17.5822 10.2735 17.5378 10.3454C17.4934 10.4172 17.4282 10.4739 17.3509 10.5078Z" fill="white"/>
</svg>
