<svg width="20" height="20" viewBox="0 0 20 20" fill="none" xmlns="http://www.w3.org/2000/svg">
<g opacity="0.5">
<path d="M5.625 8.22266C5.625 8.4713 5.72377 8.70975 5.89959 8.88557C6.0754 9.06138 6.31386 9.16016 6.5625 9.16016C6.81114 9.16016 7.0496 9.06138 7.22541 8.88557C7.40123 8.70975 7.5 8.4713 7.5 8.22266C7.5 7.97402 7.40123 7.73556 7.22541 7.55974C7.0496 7.38393 6.81114 7.28516 6.5625 7.28516C6.31386 7.28516 6.0754 7.38393 5.89959 7.55974C5.72377 7.73556 5.625 7.97402 5.625 8.22266Z" fill="#505050"/>
<path d="M12.5 8.22266C12.5 8.4713 12.5988 8.70975 12.7746 8.88557C12.9504 9.06138 13.1889 9.16016 13.4375 9.16016C13.6861 9.16016 13.9246 9.06138 14.1004 8.88557C14.2762 8.70975 14.375 8.4713 14.375 8.22266C14.375 7.97402 14.2762 7.73556 14.1004 7.55974C13.9246 7.38393 13.6861 7.28516 13.4375 7.28516C13.1889 7.28516 12.9504 7.38393 12.7746 7.55974C12.5988 7.73556 12.5 7.97402 12.5 8.22266Z" fill="#505050"/>
<path d="M10 1.25C5.16797 1.25 1.25 5.16797 1.25 10C1.25 14.832 5.16797 18.75 10 18.75C14.832 18.75 18.75 14.832 18.75 10C18.75 5.16797 14.832 1.25 10 1.25ZM15.1367 15.1367C14.4688 15.8047 13.6914 16.3281 12.8262 16.6953C11.9336 17.0742 10.9824 17.2656 10 17.2656C9.01758 17.2656 8.06641 17.0742 7.17188 16.6953C6.30664 16.3301 5.5293 15.8047 4.86133 15.1367C4.19336 14.4688 3.66992 13.6914 3.30273 12.8262C2.92578 11.9336 2.73438 10.9824 2.73438 10C2.73438 9.01758 2.92578 8.06641 3.30469 7.17188C3.66992 6.30664 4.19531 5.5293 4.86328 4.86133C5.53125 4.19336 6.30859 3.66992 7.17383 3.30273C8.06641 2.92578 9.01758 2.73438 10 2.73438C10.9824 2.73438 11.9336 2.92578 12.8281 3.30469C13.6934 3.66992 14.4707 4.19531 15.1387 4.86328C15.8066 5.53125 16.3301 6.30859 16.6973 7.17383C17.0742 8.06641 17.2656 9.01758 17.2656 10C17.2656 10.9824 17.0742 11.9336 16.6953 12.8281C16.3301 13.6934 15.8047 14.4707 15.1367 15.1367Z" fill="#505050"/>
<path d="M12.9688 10.4102H12.0293C11.9473 10.4102 11.877 10.4727 11.8711 10.5547C11.7969 11.5215 10.9864 12.2852 10 12.2852C9.01371 12.2852 8.20121 11.5215 8.12894 10.5547C8.12308 10.4727 8.05277 10.4102 7.97074 10.4102H7.03128C6.94144 10.4102 6.87113 10.4844 6.87503 10.5742C6.96097 12.2207 8.33011 13.5352 10 13.5352C11.67 13.5352 13.0391 12.2207 13.125 10.5742C13.1289 10.4844 13.0586 10.4102 12.9688 10.4102Z" fill="#505050"/>
</g>
</svg>
