<svg width="40" height="40" viewBox="0 0 40 40" fill="none" xmlns="http://www.w3.org/2000/svg">
<path fill-rule="evenodd" clip-rule="evenodd" d="M11.7818 32.4997C11.9337 32.587 12.1059 32.6328 12.2811 32.6328C12.4644 32.6328 12.6443 32.5826 12.8011 32.4877L16.6577 30.1504C17.3103 30.282 17.9649 30.3689 18.6148 30.4104C18.2167 29.2836 18 28.0712 18 26.8081C18 24.6125 18.6547 22.5698 19.7795 20.8646C19.6885 20.8791 19.5946 20.8863 19.4979 20.8863C19.0345 20.8863 18.638 20.7207 18.306 20.3887C17.974 20.0567 17.8083 19.6593 17.8083 19.1959C17.8083 18.7334 17.974 18.336 18.306 18.004C18.638 17.672 19.0345 17.5056 19.4979 17.5056C19.9613 17.5056 20.3585 17.672 20.6906 18.004C21.0099 18.3233 21.176 18.703 21.1883 19.143C23.1423 17.2004 25.835 16 28.8081 16C30.2272 16 31.5823 16.2735 32.8238 16.7706C32.5606 15.3561 32.0032 14.0153 31.1573 12.7664C29.9512 10.9871 28.2924 9.56382 26.2268 8.53595C26.2266 8.53595 26.2264 8.53588 26.2264 8.53577C24.1759 7.5167 21.9126 7 19.4992 7C17.0858 7 14.8226 7.5167 12.7724 8.53595C10.7054 9.56452 9.04641 10.988 7.84184 12.7667C6.61969 14.5709 6 16.5736 6 18.7193C6 20.6828 6.53228 22.5352 7.58144 24.2241C8.51645 25.733 9.77679 27.0157 11.3326 28.0436L11.2776 31.6138C11.2748 31.793 11.3201 31.9698 11.4088 32.1256C11.4975 32.2814 11.6263 32.4106 11.7818 32.4997ZM13.9293 20.3887C13.5973 20.7207 13.1945 20.8863 12.7223 20.8863C12.2485 20.8863 11.8465 20.7207 11.5145 20.3887C11.1825 20.0567 11.0169 19.6593 11.0169 19.1959C11.0169 18.7334 11.1825 18.336 11.5145 18.004C11.8465 17.672 12.2486 17.5056 12.7223 17.5056C13.1944 17.5056 13.5973 17.672 13.9293 18.004C14.2613 18.336 14.4278 18.7334 14.4278 19.1959C14.4277 19.6593 14.2613 20.0567 13.9293 20.3887Z" fill="#E8E8E8"/>
<path fill-rule="evenodd" clip-rule="evenodd" d="M32.2529 18.4868C31.1601 18.0342 29.9888 17.8013 28.806 17.8013C26.4173 17.8015 24.1266 18.7505 22.4376 20.4396C20.7486 22.1286 19.7998 24.4195 19.7998 26.8081C19.7998 29.1967 20.7486 31.4875 22.4376 33.1766C24.1266 34.8657 26.4173 35.8147 28.806 35.8149C29.9888 35.8149 31.1601 35.582 32.2529 35.1294C33.3457 34.6768 34.3387 34.0134 35.1751 33.177C36.0115 32.3407 36.675 31.3478 37.1277 30.255C37.5803 29.1622 37.8133 27.9909 37.8133 26.8081C37.8133 25.6253 37.5803 24.454 37.1277 23.3612C36.675 22.2684 36.0115 21.2755 35.1751 20.4391C34.3387 19.6028 33.3457 18.9394 32.2529 18.4868Z" fill="#007BE0"/>
<g clip-path="url(#clip0_6887_33507)">
<path d="M26.6583 26.9708H25.25V30.75H26.6583V26.9708Z" fill="white"/>
<path d="M32.7417 27.5292L32.1125 30.3625C32.0667 30.5834 31.825 30.75 31.5458 30.75H27.125V26.6834L29.75 23.8209C29.8375 23.725 29.975 23.6667 30.1167 23.6667C30.2375 23.6667 30.35 23.7167 30.4125 23.8084C30.4458 23.8542 30.4833 23.9292 30.4542 24.0292L29.7417 26.3625L29.5542 26.9709H32.175C32.3667 26.9709 32.55 27.05 32.6583 27.1875C32.7125 27.2584 32.775 27.3792 32.7417 27.5292Z" fill="white"/>
</g>
<defs>
<clipPath id="clip0_6887_33507">
<rect width="10" height="10" fill="white" transform="translate(24 22)"/>
</clipPath>
</defs>
</svg>
