<svg width="40" height="40" viewBox="0 0 40 40" fill="none" xmlns="http://www.w3.org/2000/svg">
<path fill-rule="evenodd" clip-rule="evenodd" d="M32.2567 5.81827C31.7328 5.29434 31.0222 5 30.2812 5H11.6562C11.2894 5 10.9261 5.07226 10.5871 5.21266C10.2482 5.35306 9.94019 5.55885 9.68077 5.81827C9.42135 6.07769 9.21556 6.38567 9.07516 6.72463C8.93476 7.06358 8.8625 7.42687 8.8625 7.79375V9.65625H7V12.45H13.5188V14.3125H8.8625V25.4875H13.5188V27.35H7V30.1438H8.8625V32.0063C8.8625 32.3731 8.93476 32.7364 9.07516 33.0754C9.21556 33.4143 9.42135 33.7223 9.68077 33.9817C9.94019 34.2412 10.2482 34.4469 10.5871 34.5873C10.9261 34.7277 11.2894 34.8 11.6562 34.8H21.5317C19.3618 32.8232 18 29.9747 18 26.8081C18 22.1729 20.9178 18.2193 25.0169 16.6836V9.65625H27.8106V16.0454C28.1391 16.0154 28.4718 16 28.8081 16C30.3235 16 31.766 16.3119 33.075 16.8749V7.79375C33.075 7.0528 32.7807 6.3422 32.2567 5.81827Z" fill="#E8E8E8"/>
<path fill-rule="evenodd" clip-rule="evenodd" d="M32.2529 18.4868C31.1601 18.0342 29.9888 17.8013 28.806 17.8013C26.4173 17.8015 24.1266 18.7505 22.4376 20.4396C20.7486 22.1286 19.7998 24.4195 19.7998 26.8081C19.7998 29.1967 20.7486 31.4875 22.4376 33.1766C24.1266 34.8657 26.4173 35.8147 28.806 35.8149C29.9888 35.8149 31.1601 35.582 32.2529 35.1294C33.3457 34.6768 34.3387 34.0134 35.1751 33.177C36.0115 32.3407 36.675 31.3478 37.1277 30.255C37.5803 29.1622 37.8133 27.9909 37.8133 26.8081C37.8133 25.6253 37.5803 24.454 37.1277 23.3612C36.675 22.2684 36.0115 21.2755 35.1751 20.4391C34.3387 19.6028 33.3457 18.9394 32.2529 18.4868Z" fill="#007BE0"/>
<path d="M29.5834 25.7498V24L32.5 27.0623L29.5834 30.1252V28.3312C27.4998 28.3312 26.0416 29.0311 25 30.5625C25.4167 28.3748 26.6669 26.1877 29.5834 25.7498Z" fill="#DCDCDC"/>
</svg>
