<svg width="40" height="40" viewBox="0 0 40 40" fill="none" xmlns="http://www.w3.org/2000/svg">
<path fill-rule="evenodd" clip-rule="evenodd" d="M32.2567 5.81827C31.7328 5.29434 31.0222 5 30.2812 5H11.6562C11.2894 5 10.9261 5.07226 10.5871 5.21266C10.2482 5.35306 9.94019 5.55885 9.68077 5.81827C9.42135 6.07769 9.21556 6.38567 9.07516 6.72463C8.93476 7.06358 8.8625 7.42687 8.8625 7.79375V9.65625H7V12.45H13.5188V14.3125H8.8625V25.4875H13.5188V27.35H7V30.1438H8.8625V32.0063C8.8625 32.3731 8.93476 32.7364 9.07516 33.0754C9.21556 33.4143 9.42135 33.7223 9.68077 33.9817C9.94019 34.2412 10.2482 34.4469 10.5871 34.5873C10.9261 34.7277 11.2894 34.8 11.6562 34.8H21.5317C19.3618 32.8232 18 29.9747 18 26.8081C18 22.1729 20.9178 18.2193 25.0169 16.6836V9.65625H27.8106V16.0454C28.1391 16.0154 28.4718 16 28.8081 16C30.3235 16 31.766 16.3119 33.075 16.8749V7.79375C33.075 7.0528 32.7807 6.3422 32.2567 5.81827Z" fill="#E8E8E8"/>
<path fill-rule="evenodd" clip-rule="evenodd" d="M32.2529 18.4868C31.1601 18.0342 29.9888 17.8013 28.806 17.8013C26.4173 17.8015 24.1266 18.7505 22.4376 20.4396C20.7486 22.1286 19.7998 24.4195 19.7998 26.8081C19.7998 29.1967 20.7486 31.4875 22.4376 33.1766C24.1266 34.8657 26.4173 35.8147 28.806 35.8149C29.9888 35.8149 31.1601 35.582 32.2529 35.1294C33.3457 34.6768 34.3387 34.0134 35.1751 33.177C36.0115 32.3407 36.675 31.3478 37.1277 30.255C37.5803 29.1622 37.8133 27.9909 37.8133 26.8081C37.8133 25.6253 37.5803 24.454 37.1277 23.3612C36.675 22.2684 36.0115 21.2755 35.1751 20.4391C34.3387 19.6028 33.3457 18.9394 32.2529 18.4868Z" fill="#007BE0"/>
<g clip-path="url(#clip0_5141_34439)">
<path d="M26.6583 26.9708H25.25V30.75H26.6583V26.9708Z" fill="white"/>
<path d="M32.7417 27.5292L32.1125 30.3625C32.0667 30.5833 31.825 30.75 31.5458 30.75H27.125V26.6833L29.75 23.8208C29.8375 23.725 29.975 23.6667 30.1167 23.6667C30.2375 23.6667 30.35 23.7167 30.4125 23.8083C30.4458 23.8542 30.4833 23.9292 30.4542 24.0292L29.7417 26.3625L29.5542 26.9708H32.175C32.3667 26.9708 32.55 27.05 32.6583 27.1875C32.7125 27.2583 32.775 27.3792 32.7417 27.5292Z" fill="white"/>
</g>
<g clip-path="url(#clip1_5141_34439)">
<path d="M26.6583 26.9708H25.25V30.75H26.6583V26.9708Z" fill="white"/>
<path d="M32.7417 27.5292L32.1125 30.3625C32.0667 30.5833 31.825 30.75 31.5458 30.75H27.125V26.6833L29.75 23.8208C29.8375 23.725 29.975 23.6667 30.1167 23.6667C30.2375 23.6667 30.35 23.7167 30.4125 23.8083C30.4458 23.8542 30.4833 23.9292 30.4542 24.0292L29.7417 26.3625L29.5542 26.9708H32.175C32.3667 26.9708 32.55 27.05 32.6583 27.1875C32.7125 27.2583 32.775 27.3792 32.7417 27.5292Z" fill="white"/>
</g>
<defs>
<clipPath id="clip0_5141_34439">
<rect width="10" height="10" fill="white" transform="translate(24 22)"/>
</clipPath>
<clipPath id="clip1_5141_34439">
<rect width="10" height="10" fill="white" transform="translate(24 22)"/>
</clipPath>
</defs>
</svg>
