<svg width="40" height="40" viewBox="0 0 40 40" fill="none" xmlns="http://www.w3.org/2000/svg">
<path fill-rule="evenodd" clip-rule="evenodd" d="M21.5317 34.8H8.31111C7.87629 34.8 7.44573 34.7144 7.044 34.548C6.64228 34.3816 6.27727 34.1377 5.9698 33.8302C5.66234 33.5227 5.41844 33.1577 5.25204 32.756C5.08564 32.3543 5 31.9237 5 31.4889V8.31111C5 7.43295 5.34885 6.59076 5.9698 5.9698C6.59076 5.34885 7.43295 5 8.31111 5H31.4889C31.9237 5 32.3543 5.08564 32.756 5.25204C33.1577 5.41844 33.5227 5.66234 33.8302 5.9698C34.1377 6.27727 34.3816 6.64228 34.548 7.044C34.7144 7.44573 34.8 7.87629 34.8 8.31111V17.8116C33.0851 16.6671 31.0245 16 28.8081 16C23.3945 16 18.9105 19.9802 18.1227 25.1739C18.1057 25.1839 18.0883 25.1932 18.0705 25.2019C17.9571 25.2574 17.8326 25.2863 17.7064 25.2863C17.5802 25.2863 17.4557 25.2574 17.3423 25.2019C17.229 25.1464 17.1298 25.0657 17.0524 24.966L15.3969 22.7144C15.3181 22.6115 15.2166 22.528 15.1003 22.4706C14.984 22.4131 14.8561 22.3833 14.7264 22.3833C14.5967 22.3833 14.4688 22.4131 14.3525 22.4706C14.2362 22.528 14.1347 22.6115 14.0559 22.7144L10.1322 27.9626C10.0258 28.1064 9.96783 28.2803 9.96667 28.4592V29.0056C9.96667 29.1143 9.98808 29.2219 10.0297 29.3223C10.0713 29.4228 10.1323 29.514 10.2091 29.5909C10.286 29.6677 10.3772 29.7287 10.4777 29.7703C10.5781 29.8119 10.6857 29.8333 10.7944 29.8333H18.4291C18.9921 31.7681 20.0814 33.4788 21.5317 34.8ZM17.1408 13.6963C16.7324 13.4234 16.2523 13.2778 15.7611 13.2778C15.1025 13.2778 14.4708 13.5394 14.0051 14.0051C13.5394 14.4708 13.2778 15.1025 13.2778 15.7611C13.2778 16.2523 13.4234 16.7324 13.6963 17.1408C13.9692 17.5492 14.357 17.8675 14.8108 18.0554C15.2646 18.2434 15.7639 18.2925 16.2456 18.1967C16.7273 18.1009 17.1698 17.8644 17.5171 17.5171C17.8644 17.1698 18.1009 16.7273 18.1967 16.2456C18.2925 15.7639 18.2434 15.2646 18.0554 14.8108C17.8675 14.357 17.5492 13.9692 17.1408 13.6963Z" fill="#E8E8E8"/>
<path fill-rule="evenodd" clip-rule="evenodd" d="M32.2529 18.4868C31.1601 18.0342 29.9888 17.8013 28.806 17.8013C26.4173 17.8015 24.1266 18.7505 22.4376 20.4396C20.7486 22.1286 19.7998 24.4195 19.7998 26.8081C19.7998 29.1967 20.7486 31.4875 22.4376 33.1766C24.1266 34.8657 26.4173 35.8147 28.806 35.8149C29.9888 35.8149 31.1601 35.582 32.2529 35.1294C33.3457 34.6768 34.3387 34.0134 35.1751 33.177C36.0115 32.3407 36.675 31.3478 37.1277 30.255C37.5803 29.1622 37.8133 27.9909 37.8133 26.8081C37.8133 25.6253 37.5803 24.454 37.1277 23.3612C36.675 22.2684 36.0115 21.2755 35.1751 20.4391C34.3387 19.6028 33.3457 18.9394 32.2529 18.4868Z" fill="#007BE0"/>
<path d="M29.5834 25.7498V24L32.5 27.0623L29.5834 30.1252V28.3312C27.4998 28.3312 26.0416 29.0311 25 30.5625C25.4167 28.3748 26.6669 26.1877 29.5834 25.7498Z" fill="#DCDCDC"/>
</svg>
