<svg width="40" height="40" viewBox="0 0 40 40" fill="none" xmlns="http://www.w3.org/2000/svg">
<path fill-rule="evenodd" clip-rule="evenodd" d="M21.5317 34.8H8.31111C7.87629 34.8 7.44573 34.7144 7.044 34.548C6.64228 34.3816 6.27727 34.1377 5.9698 33.8302C5.66234 33.5227 5.41844 33.1577 5.25204 32.756C5.08564 32.3543 5 31.9237 5 31.4889V8.31111C5 7.43295 5.34885 6.59076 5.9698 5.9698C6.59076 5.34885 7.43295 5 8.31111 5H31.4889C31.9237 5 32.3543 5.08564 32.756 5.25204C33.1577 5.41844 33.5227 5.66234 33.8302 5.9698C34.1377 6.27727 34.3816 6.64228 34.548 7.044C34.7144 7.44573 34.8 7.87629 34.8 8.31111V17.8116C33.0851 16.6671 31.0245 16 28.8081 16C23.3945 16 18.9105 19.9802 18.1227 25.1739C18.1057 25.1839 18.0883 25.1932 18.0705 25.2019C17.9571 25.2574 17.8326 25.2863 17.7064 25.2863C17.5802 25.2863 17.4557 25.2574 17.3423 25.2019C17.229 25.1464 17.1298 25.0657 17.0524 24.966L15.3969 22.7144C15.3181 22.6115 15.2166 22.528 15.1003 22.4706C14.984 22.4131 14.8561 22.3833 14.7264 22.3833C14.5967 22.3833 14.4688 22.4131 14.3525 22.4706C14.2362 22.528 14.1347 22.6115 14.0559 22.7144L10.1322 27.9626C10.0258 28.1064 9.96783 28.2803 9.96667 28.4592V29.0056C9.96667 29.1143 9.98808 29.2219 10.0297 29.3223C10.0713 29.4228 10.1323 29.514 10.2091 29.5909C10.286 29.6677 10.3772 29.7287 10.4777 29.7703C10.5781 29.8119 10.6857 29.8333 10.7944 29.8333H18.4291C18.9921 31.7681 20.0814 33.4788 21.5317 34.8ZM17.1408 13.6963C16.7324 13.4234 16.2523 13.2778 15.7611 13.2778C15.1025 13.2778 14.4708 13.5394 14.0051 14.0051C13.5394 14.4708 13.2778 15.1025 13.2778 15.7611C13.2778 16.2523 13.4234 16.7324 13.6963 17.1408C13.9692 17.5492 14.357 17.8675 14.8108 18.0554C15.2646 18.2434 15.7639 18.2925 16.2456 18.1967C16.7273 18.1009 17.1698 17.8644 17.5171 17.5171C17.8644 17.1698 18.1009 16.7273 18.1967 16.2456C18.2925 15.7639 18.2434 15.2646 18.0554 14.8108C17.8675 14.357 17.5492 13.9692 17.1408 13.6963Z" fill="#E8E8E8"/>
<path fill-rule="evenodd" clip-rule="evenodd" d="M32.2529 18.4868C31.1601 18.0342 29.9888 17.8013 28.806 17.8013C26.4173 17.8015 24.1266 18.7505 22.4376 20.4396C20.7486 22.1286 19.7998 24.4195 19.7998 26.8081C19.7998 29.1967 20.7486 31.4875 22.4376 33.1766C24.1266 34.8657 26.4173 35.8147 28.806 35.8149C29.9888 35.8149 31.1601 35.582 32.2529 35.1294C33.3457 34.6768 34.3387 34.0134 35.1751 33.177C36.0115 32.3407 36.675 31.3478 37.1277 30.255C37.5803 29.1622 37.8133 27.9909 37.8133 26.8081C37.8133 25.6253 37.5803 24.454 37.1277 23.3612C36.675 22.2684 36.0115 21.2755 35.1751 20.4391C34.3387 19.6028 33.3457 18.9394 32.2529 18.4868Z" fill="#007BE0"/>
<path fill-rule="evenodd" clip-rule="evenodd" d="M26.9947 30.3702C26.9461 30.3702 26.8983 30.3575 26.8561 30.3333C26.8129 30.3085 26.7771 30.2726 26.7524 30.2293C26.7278 30.186 26.7152 30.137 26.716 30.0872L26.7313 29.0955C26.2991 28.8099 25.949 28.4536 25.6893 28.0345C25.3979 27.5653 25.25 27.0508 25.25 26.5053C25.25 25.9093 25.4221 25.353 25.7616 24.8519C26.0962 24.3578 26.5571 23.9624 27.1312 23.6767C27.7007 23.3935 28.3294 23.25 28.9998 23.25C29.6702 23.25 30.2989 23.3935 30.8684 23.6766L30.8686 23.6767C31.4423 23.9622 31.9031 24.3575 32.2381 24.8518C32.5778 25.3533 32.75 25.9081 32.75 26.5009C32.75 27.0937 32.5779 27.6498 32.2386 28.1537C31.9037 28.6514 31.4427 29.0486 30.8685 29.3342C30.2993 29.6172 29.6705 29.7608 28.9998 29.7608C28.7393 29.7608 28.4743 29.7339 28.2105 29.6807L27.1392 30.3299C27.0956 30.3563 27.0457 30.3702 26.9947 30.3702ZM27.1173 27.1073C27.2484 27.1073 27.3604 27.0613 27.4526 26.9691C27.5448 26.8769 27.591 26.7665 27.591 26.6378C27.591 26.5093 27.5448 26.3989 27.4526 26.3067C27.3603 26.2145 27.2484 26.1682 27.1173 26.1682C26.9857 26.1682 26.874 26.2145 26.7818 26.3067C26.6896 26.3989 26.6436 26.5093 26.6436 26.6378C26.6436 26.7665 26.6896 26.8769 26.7818 26.9691C26.874 27.0613 26.9857 27.1073 27.1173 27.1073ZM28.9994 27.1073C29.1281 27.1073 29.2385 27.0613 29.3307 26.9691C29.4229 26.8769 29.4692 26.7665 29.4692 26.6378C29.4692 26.5093 29.4229 26.3989 29.3307 26.3067C29.2385 26.2145 29.1281 26.1682 28.9994 26.1682C28.8707 26.1682 28.7605 26.2145 28.6683 26.3067C28.5761 26.3989 28.5301 26.5093 28.5301 26.6378C28.5301 26.7665 28.5761 26.8769 28.6683 26.9691C28.7605 27.0613 28.8707 27.1073 28.9994 27.1073ZM30.8819 27.1073C31.0131 27.1073 31.125 27.0613 31.2172 26.9691C31.3095 26.8769 31.3557 26.7665 31.3557 26.6378C31.3557 26.5093 31.3095 26.3989 31.2172 26.3067C31.125 26.2145 31.0131 26.1682 30.8819 26.1682C30.7504 26.1682 30.6387 26.2145 30.5464 26.3067C30.4542 26.3989 30.4082 26.5093 30.4082 26.6378C30.4082 26.7665 30.4542 26.8769 30.5464 26.9691C30.6387 27.0613 30.7503 27.1073 30.8819 27.1073Z" fill="#DCDCDC"/>
</svg>
