<svg width="40" height="40" viewBox="0 0 40 40" fill="none" xmlns="http://www.w3.org/2000/svg">
<path d="M12.5978 11.977H27.2022C27.5767 11.977 27.7639 12.1642 27.7639 12.5387V13.6621C27.7639 14.0366 27.5767 14.2238 27.2022 14.2238H12.5978C12.2234 14.2238 12.0361 14.0366 12.0361 13.6621V12.5387C12.0361 12.1642 12.2234 11.977 12.5978 11.977Z" fill="#E8E8E8"/>
<path d="M14.8449 7.48334H24.9556C25.3301 7.48334 25.5173 7.67057 25.5173 8.04504V9.16846C25.5173 9.54293 25.3301 9.73016 24.9556 9.73016H14.8449C14.4704 9.73016 14.2832 9.54293 14.2832 9.16846V8.04504C14.2832 7.67057 14.4704 7.48334 14.8449 7.48334Z" fill="#E8E8E8"/>
<path fill-rule="evenodd" clip-rule="evenodd" d="M25.6438 16.4706H10.9128C9.41496 16.4706 8.66602 17.2196 8.66602 18.7175V28.8282C8.66602 30.3261 9.41496 31.075 10.9128 31.075H18.8751C18.312 29.766 18.0002 28.3235 18.0002 26.8081C18.0002 21.94 21.2186 17.8236 25.6438 16.4706Z" fill="#E8E8E8"/>
<path fill-rule="evenodd" clip-rule="evenodd" d="M32.2529 18.4868C31.1601 18.0342 29.9888 17.8013 28.806 17.8013C26.4173 17.8015 24.1266 18.7505 22.4376 20.4396C20.7486 22.1286 19.7998 24.4195 19.7998 26.8081C19.7998 29.1967 20.7486 31.4875 22.4376 33.1766C24.1266 34.8657 26.4173 35.8147 28.806 35.8149C29.9888 35.8149 31.1601 35.582 32.2529 35.1294C33.3457 34.6768 34.3387 34.0134 35.1751 33.177C36.0115 32.3407 36.675 31.3478 37.1277 30.255C37.5803 29.1622 37.8133 27.9909 37.8133 26.8081C37.8133 25.6253 37.5803 24.454 37.1277 23.3612C36.675 22.2684 36.0115 21.2755 35.1751 20.4391C34.3387 19.6028 33.3457 18.9394 32.2529 18.4868Z" fill="#007BE0"/>
<path fill-rule="evenodd" clip-rule="evenodd" d="M26.9947 30.3702C26.9461 30.3702 26.8983 30.3575 26.8561 30.3333C26.8129 30.3085 26.7771 30.2726 26.7524 30.2293C26.7278 30.186 26.7152 30.137 26.716 30.0872L26.7313 29.0955C26.2991 28.8099 25.949 28.4536 25.6893 28.0345C25.3979 27.5653 25.25 27.0508 25.25 26.5053C25.25 25.9093 25.4221 25.353 25.7616 24.8519C26.0962 24.3578 26.5571 23.9624 27.1312 23.6767C27.7007 23.3935 28.3294 23.25 28.9998 23.25C29.6702 23.25 30.2989 23.3935 30.8684 23.6766L30.8686 23.6767C31.4423 23.9622 31.9031 24.3575 32.2381 24.8518C32.5778 25.3533 32.75 25.9081 32.75 26.5009C32.75 27.0937 32.5779 27.6498 32.2386 28.1537C31.9037 28.6514 31.4427 29.0486 30.8685 29.3342C30.2993 29.6172 29.6705 29.7608 28.9998 29.7608C28.7393 29.7608 28.4743 29.7339 28.2105 29.6807L27.1392 30.3299C27.0956 30.3563 27.0457 30.3702 26.9947 30.3702ZM27.1173 27.1073C27.2484 27.1073 27.3604 27.0613 27.4526 26.9691C27.5448 26.8769 27.591 26.7665 27.591 26.6378C27.591 26.5093 27.5448 26.3989 27.4526 26.3067C27.3603 26.2145 27.2484 26.1682 27.1173 26.1682C26.9857 26.1682 26.874 26.2145 26.7818 26.3067C26.6896 26.3989 26.6436 26.5093 26.6436 26.6378C26.6436 26.7665 26.6896 26.8769 26.7818 26.9691C26.874 27.0613 26.9857 27.1073 27.1173 27.1073ZM28.9994 27.1073C29.1281 27.1073 29.2385 27.0613 29.3307 26.9691C29.4229 26.8769 29.4692 26.7665 29.4692 26.6378C29.4692 26.5093 29.4229 26.3989 29.3307 26.3067C29.2385 26.2145 29.1281 26.1682 28.9994 26.1682C28.8707 26.1682 28.7605 26.2145 28.6683 26.3067C28.5761 26.3989 28.5301 26.5093 28.5301 26.6378C28.5301 26.7665 28.5761 26.8769 28.6683 26.9691C28.7605 27.0613 28.8707 27.1073 28.9994 27.1073ZM30.8819 27.1073C31.0131 27.1073 31.125 27.0613 31.2172 26.9691C31.3095 26.8769 31.3557 26.7665 31.3557 26.6378C31.3557 26.5093 31.3095 26.3989 31.2172 26.3067C31.125 26.2145 31.0131 26.1682 30.8819 26.1682C30.7504 26.1682 30.6387 26.2145 30.5464 26.3067C30.4542 26.3989 30.4082 26.5093 30.4082 26.6378C30.4082 26.7665 30.4542 26.8769 30.5464 26.9691C30.6387 27.0613 30.7503 27.1073 30.8819 27.1073Z" fill="#DCDCDC"/>
</svg>
