<svg width="40" height="40" viewBox="0 0 40 40" fill="none" xmlns="http://www.w3.org/2000/svg">
<path d="M12.5978 11.977H27.2022C27.5766 11.977 27.7639 12.1642 27.7639 12.5387V13.6621C27.7639 14.0366 27.5766 14.2238 27.2022 14.2238H12.5978C12.2233 14.2238 12.0361 14.0366 12.0361 13.6621V12.5387C12.0361 12.1642 12.2233 11.977 12.5978 11.977Z" fill="#E8E8E8"/>
<path d="M14.8446 7.48334H24.9553C25.3298 7.48334 25.5171 7.67057 25.5171 8.04504V9.16846C25.5171 9.54293 25.3298 9.73016 24.9553 9.73016H14.8446C14.4702 9.73016 14.2829 9.54293 14.2829 9.16846V8.04504C14.2829 7.67057 14.4702 7.48334 14.8446 7.48334Z" fill="#E8E8E8"/>
<path fill-rule="evenodd" clip-rule="evenodd" d="M25.6436 16.4706H10.9127C9.4148 16.4706 8.66586 17.2196 8.66586 18.7175V28.8282C8.66586 30.3261 9.4148 31.075 10.9127 31.075H18.8749C18.3119 29.766 18 28.3235 18 26.8081C18 21.94 21.2185 17.8236 25.6436 16.4706Z" fill="#E8E8E8"/>
<path fill-rule="evenodd" clip-rule="evenodd" d="M32.2529 18.4868C31.1601 18.0342 29.9888 17.8013 28.806 17.8013C26.4173 17.8015 24.1266 18.7505 22.4376 20.4396C20.7486 22.1286 19.7998 24.4195 19.7998 26.8081C19.7998 29.1967 20.7486 31.4875 22.4376 33.1766C24.1266 34.8657 26.4173 35.8147 28.806 35.8149C29.9888 35.8149 31.1601 35.582 32.2529 35.1294C33.3457 34.6768 34.3387 34.0134 35.1751 33.177C36.0115 32.3407 36.675 31.3478 37.1277 30.255C37.5803 29.1622 37.8133 27.9909 37.8133 26.8081C37.8133 25.6253 37.5803 24.454 37.1277 23.3612C36.675 22.2684 36.0115 21.2755 35.1751 20.4391C34.3387 19.6028 33.3457 18.9394 32.2529 18.4868Z" fill="#007BE0"/>
<path d="M29.5834 25.7498V24L32.5 27.0623L29.5834 30.1252V28.3312C27.4998 28.3312 26.0416 29.0311 25 30.5625C25.4167 28.3748 26.6669 26.1877 29.5834 25.7498Z" fill="white"/>
</svg>
