<svg width="40" height="40" viewBox="0 0 40 40" fill="none" xmlns="http://www.w3.org/2000/svg">
<path fill-rule="evenodd" clip-rule="evenodd" d="M10.5091 34.0899C10.3485 34.0899 10.1867 34.0548 10.0348 33.9845C9.65781 33.8068 9.4163 33.4353 9.4163 33.0255V27.7033H6.13784C4.33031 27.7033 2.85938 26.2706 2.85938 24.51V7.47901C2.85938 5.71844 4.33031 4.28571 6.13784 4.28571H32.3655C34.1731 4.28571 35.644 5.71844 35.644 7.47901V18.4359C33.7814 16.9134 31.4014 16 28.8081 16C22.839 16 18 20.839 18 26.8081C18 27.3679 18.0426 27.9178 18.1246 28.4547L11.6309 33.5149L11.5301 33.5987V33.5934L11.1921 33.8568C10.9943 34.0111 10.7528 34.0899 10.5091 34.0899ZM10.5084 14.9302H27.9935C28.5979 14.9302 29.0864 14.4533 29.0864 13.8658C29.0864 13.2782 28.5979 12.8013 27.9935 12.8013H10.5084C9.90409 12.8013 9.4156 13.2782 9.4156 13.8658C9.4156 14.4533 9.90409 14.9302 10.5084 14.9302ZM19.251 19.1869H10.5084C9.90409 19.1869 9.4156 18.7101 9.4156 18.1225C9.4156 17.5349 9.90409 17.0581 10.5084 17.0581H19.251C19.8553 17.0581 20.3438 17.5349 20.3438 18.1225C20.3438 18.7101 19.8553 19.1869 19.251 19.1869Z" fill="#E8E8E8"/>
<path fill-rule="evenodd" clip-rule="evenodd" d="M32.2529 18.4868C31.1601 18.0342 29.9888 17.8013 28.806 17.8013C26.4173 17.8015 24.1266 18.7505 22.4376 20.4396C20.7486 22.1286 19.7998 24.4195 19.7998 26.8081C19.7998 29.1967 20.7486 31.4875 22.4376 33.1766C24.1266 34.8657 26.4173 35.8147 28.806 35.8149C29.9888 35.8149 31.1601 35.582 32.2529 35.1294C33.3457 34.6768 34.3387 34.0134 35.1751 33.177C36.0115 32.3407 36.675 31.3478 37.1277 30.255C37.5803 29.1622 37.8133 27.9909 37.8133 26.8081C37.8133 25.6253 37.5803 24.454 37.1277 23.3612C36.675 22.2684 36.0115 21.2755 35.1751 20.4391C34.3387 19.6028 33.3457 18.9394 32.2529 18.4868Z" fill="#007BE0"/>
<path d="M29.5834 25.7498V24L32.5 27.0623L29.5834 30.1252V28.3312C27.4998 28.3312 26.0416 29.0311 25 30.5625C25.4167 28.3748 26.6669 26.1877 29.5834 25.7498Z" fill="#DCDCDC"/>
</svg>
