<svg width="40" height="40" viewBox="0 0 40 40" fill="none" xmlns="http://www.w3.org/2000/svg">
<path fill-rule="evenodd" clip-rule="evenodd" d="M10.5091 34.0899C10.3485 34.0899 10.1867 34.0548 10.0348 33.9845C9.65781 33.8068 9.4163 33.4353 9.4163 33.0255V27.7033H6.13784C4.33031 27.7033 2.85938 26.2706 2.85938 24.51V7.47901C2.85938 5.71844 4.33031 4.28571 6.13784 4.28571H32.3655C34.1731 4.28571 35.644 5.71844 35.644 7.47901V18.4359C33.7814 16.9134 31.4014 16 28.8081 16C22.839 16 18 20.839 18 26.8081C18 27.3679 18.0426 27.9178 18.1246 28.4547L11.6309 33.5149L11.5301 33.5987V33.5934L11.1921 33.8568C10.9943 34.0111 10.7528 34.0899 10.5091 34.0899ZM10.5084 14.9302H27.9935C28.5979 14.9302 29.0864 14.4533 29.0864 13.8658C29.0864 13.2782 28.5979 12.8013 27.9935 12.8013H10.5084C9.90409 12.8013 9.4156 13.2782 9.4156 13.8658C9.4156 14.4533 9.90409 14.9302 10.5084 14.9302ZM19.251 19.1869H10.5084C9.90409 19.1869 9.4156 18.7101 9.4156 18.1225C9.4156 17.5349 9.90409 17.0581 10.5084 17.0581H19.251C19.8553 17.0581 20.3438 17.5349 20.3438 18.1225C20.3438 18.7101 19.8553 19.1869 19.251 19.1869Z" fill="#E8E8E8"/>
<path fill-rule="evenodd" clip-rule="evenodd" d="M32.2529 18.4868C31.1601 18.0342 29.9888 17.8013 28.806 17.8013C26.4173 17.8015 24.1266 18.7505 22.4376 20.4396C20.7486 22.1286 19.7998 24.4195 19.7998 26.8081C19.7998 29.1967 20.7486 31.4875 22.4376 33.1766C24.1266 34.8657 26.4173 35.8147 28.806 35.8149C29.9888 35.8149 31.1601 35.582 32.2529 35.1294C33.3457 34.6768 34.3387 34.0134 35.1751 33.177C36.0115 32.3407 36.675 31.3478 37.1277 30.255C37.5803 29.1622 37.8133 27.9909 37.8133 26.8081C37.8133 25.6253 37.5803 24.454 37.1277 23.3612C36.675 22.2684 36.0115 21.2755 35.1751 20.4391C34.3387 19.6028 33.3457 18.9394 32.2529 18.4868Z" fill="#007BE0"/>
<path fill-rule="evenodd" clip-rule="evenodd" d="M26.9947 30.3702C26.9461 30.3702 26.8983 30.3575 26.8561 30.3333C26.8129 30.3085 26.7771 30.2726 26.7524 30.2293C26.7278 30.186 26.7152 30.137 26.716 30.0872L26.7313 29.0955C26.2991 28.8099 25.949 28.4536 25.6893 28.0345C25.3979 27.5653 25.25 27.0508 25.25 26.5053C25.25 25.9093 25.4221 25.353 25.7616 24.8519C26.0962 24.3578 26.5571 23.9624 27.1312 23.6767C27.7007 23.3935 28.3294 23.25 28.9998 23.25C29.6702 23.25 30.2989 23.3935 30.8684 23.6766L30.8686 23.6767C31.4423 23.9622 31.9031 24.3575 32.2381 24.8518C32.5778 25.3533 32.75 25.9081 32.75 26.5009C32.75 27.0937 32.5779 27.6498 32.2386 28.1537C31.9037 28.6514 31.4427 29.0486 30.8685 29.3342C30.2993 29.6172 29.6705 29.7608 28.9998 29.7608C28.7393 29.7608 28.4743 29.7339 28.2105 29.6807L27.1392 30.3299C27.0956 30.3563 27.0457 30.3702 26.9947 30.3702ZM27.1173 27.1073C27.2484 27.1073 27.3604 27.0613 27.4526 26.9691C27.5448 26.8769 27.591 26.7665 27.591 26.6378C27.591 26.5093 27.5448 26.3989 27.4526 26.3067C27.3603 26.2145 27.2484 26.1682 27.1173 26.1682C26.9857 26.1682 26.874 26.2145 26.7818 26.3067C26.6896 26.3989 26.6436 26.5093 26.6436 26.6378C26.6436 26.7665 26.6896 26.8769 26.7818 26.9691C26.874 27.0613 26.9857 27.1073 27.1173 27.1073ZM28.9994 27.1073C29.1281 27.1073 29.2385 27.0613 29.3307 26.9691C29.4229 26.8769 29.4692 26.7665 29.4692 26.6378C29.4692 26.5093 29.4229 26.3989 29.3307 26.3067C29.2385 26.2145 29.1281 26.1682 28.9994 26.1682C28.8707 26.1682 28.7605 26.2145 28.6683 26.3067C28.5761 26.3989 28.5301 26.5093 28.5301 26.6378C28.5301 26.7665 28.5761 26.8769 28.6683 26.9691C28.7605 27.0613 28.8707 27.1073 28.9994 27.1073ZM30.8819 27.1073C31.0131 27.1073 31.125 27.0613 31.2172 26.9691C31.3095 26.8769 31.3557 26.7665 31.3557 26.6378C31.3557 26.5093 31.3095 26.3989 31.2172 26.3067C31.125 26.2145 31.0131 26.1682 30.8819 26.1682C30.7504 26.1682 30.6387 26.2145 30.5464 26.3067C30.4542 26.3989 30.4082 26.5093 30.4082 26.6378C30.4082 26.7665 30.4542 26.8769 30.5464 26.9691C30.6387 27.0613 30.7503 27.1073 30.8819 27.1073Z" fill="#DCDCDC"/>
</svg>
