<svg width="40" height="40" viewBox="0 0 40 40" fill="none" xmlns="http://www.w3.org/2000/svg">
<path fill-rule="evenodd" clip-rule="evenodd" d="M5 11.3857H34.8L34.8 11.3857V7.12859C34.8 5.95299 33.847 5 32.6714 5H7.12859C5.95299 5 5 5.95299 5 7.12859V11.3857ZM34.8 17.8116V13.5143H5.00004V32.6714C5.00004 33.847 5.95303 34.8 7.12863 34.8H21.5317C19.459 32.9118 18.1236 30.2281 18.0081 27.2317L17.1832 27.6442C16.6575 27.907 16.0182 27.6939 15.7553 27.1682C15.6814 27.0204 15.6429 26.8575 15.6429 26.6922V19.4935C15.6429 18.9057 16.1194 18.4292 16.7072 18.4292C16.8725 18.4292 17.0354 18.4677 17.1832 18.5416L20.3237 20.1118C22.3032 17.6073 25.3679 16 28.8081 16C31.0245 16 33.0851 16.6672 34.8 17.8116ZM13.5275 11.3857L11.3858 7.12859H13.5143L15.6561 11.3857H13.5275ZM17.7715 7.12863L19.9132 11.3857H22.0418L19.9 7.12863H17.7715ZM26.2989 11.3857L24.1572 7.12859H26.2857L28.4275 11.3857H26.2989Z" fill="#E8E8E8"/>
<path fill-rule="evenodd" clip-rule="evenodd" d="M32.2529 18.4868C31.1601 18.0342 29.9888 17.8013 28.806 17.8013C26.4173 17.8015 24.1266 18.7505 22.4376 20.4396C20.7486 22.1286 19.7998 24.4195 19.7998 26.8081C19.7998 29.1967 20.7486 31.4875 22.4376 33.1766C24.1266 34.8657 26.4173 35.8147 28.806 35.8149C29.9888 35.8149 31.1601 35.582 32.2529 35.1294C33.3457 34.6768 34.3387 34.0134 35.1751 33.177C36.0115 32.3407 36.675 31.3478 37.1277 30.255C37.5803 29.1622 37.8133 27.9909 37.8133 26.8081C37.8133 25.6253 37.5803 24.454 37.1277 23.3612C36.675 22.2684 36.0115 21.2755 35.1751 20.4391C34.3387 19.6028 33.3457 18.9394 32.2529 18.4868Z" fill="#007BE0"/>
<path d="M29.5834 25.7498V24L32.5 27.0623L29.5834 30.1252V28.3312C27.4998 28.3312 26.0416 29.0311 25 30.5625C25.4167 28.3748 26.6669 26.1877 29.5834 25.7498Z" fill="#DCDCDC"/>
</svg>
