<svg width="285" height="337" viewBox="0 0 285 337" fill="none" xmlns="http://www.w3.org/2000/svg">
<g clip-path="url(#clip0_25_2369)">
<path d="M124.086 319.732L123.181 323.699L123.399 323.936C123.351 324.058 123.302 324.179 123.244 324.3C122.764 325.388 122.214 326.444 121.599 327.462C120.787 328.815 119.877 330.119 118.934 331.399C118.416 332.107 117.884 332.81 117.352 333.509C117.337 333.532 117.321 333.555 117.303 333.577C117.309 333.552 117.317 333.527 117.328 333.504L117.153 333.465L116.152 329.11L115.847 329.799V329.804L115.354 330.943C115.392 331.152 115.431 331.356 115.48 331.559C115.475 331.554 115.475 331.545 115.47 331.54C115.465 331.535 115.465 331.535 115.465 331.53C115.402 331.394 115.334 331.263 115.272 331.128L114.517 332.864L112.988 332.515C112.185 332.098 111.382 331.676 110.584 331.239C99.6792 325.309 89.5826 317.739 82.7854 307.435C80.0835 303.33 78.0413 298.825 76.7333 294.085C74.1547 284.668 74.5998 274.534 79.2925 266.12L79.2929 266.118L79.2939 266.117L79.2955 266.116L79.2974 266.115C79.4135 265.902 79.5344 265.689 79.6602 265.475C79.7521 265.718 79.8392 265.96 79.936 266.203V266.208C81.1973 269.5 82.7196 272.687 84.4884 275.736C84.6238 275.974 84.7593 276.211 84.9044 276.444C89.2252 283.714 94.8551 290.117 101.508 295.327C101.526 295.344 101.545 295.36 101.566 295.375C101.589 295.394 101.613 295.412 101.639 295.428C103.119 296.592 104.649 297.687 106.23 298.711V298.716C107.463 299.521 108.731 300.282 110.018 301.005C112.761 302.537 115.746 304.011 118.31 305.849C120.801 307.629 122.901 309.748 124.018 312.585C124.105 312.813 124.188 313.04 124.26 313.268L122.267 319.432L124.086 319.732Z" fill="#F0F0F0"/>
<path d="M115.847 329.799V329.804L115.354 330.943C114.609 326.793 115.494 322.404 114.88 318.2C114.812 317.73 114.725 317.259 114.614 316.794C113.985 314.136 112.548 311.649 109.993 310.461C109.248 310.12 108.465 309.868 107.662 309.709C106.075 309.37 104.42 309.297 102.819 309.108C102.417 309.059 102.021 309.006 101.634 308.933C99.5631 308.612 97.5861 307.846 95.8379 306.688C93.6977 305.164 91.8325 303.284 90.3228 301.131C89.3252 299.779 88.3967 298.378 87.5411 296.932C87.4249 296.747 87.3185 296.558 87.2072 296.369C85.205 292.893 83.5629 289.221 82.3065 285.41C81.6593 283.462 81.1167 281.481 80.681 279.475C79.7114 275.091 79.2456 270.61 79.2925 266.12C79.2925 266.12 79.2926 266.119 79.2929 266.118C79.2931 266.118 79.2935 266.117 79.2939 266.117C79.2944 266.116 79.2949 266.116 79.2955 266.116C79.2961 266.115 79.2967 266.115 79.2974 266.115C79.2925 265.912 79.2974 265.708 79.3022 265.504C79.3119 265.087 79.9553 265.179 79.9456 265.597C79.9408 265.8 79.936 265.999 79.936 266.203V266.208C79.8966 270.509 80.3298 274.802 81.2277 279.009C81.276 279.223 81.3244 279.436 81.368 279.649C82.6759 285.479 84.874 291.071 87.8845 296.228C87.9184 296.287 87.9522 296.345 87.991 296.403C88.6925 297.601 89.4472 298.765 90.2406 299.904C91.6983 302.098 93.4908 304.048 95.5525 305.684C97.2874 306.985 99.3022 307.86 101.435 308.24C101.648 308.279 101.861 308.317 102.079 308.351C102.248 308.38 102.422 308.405 102.596 308.424C104.227 308.628 105.901 308.705 107.521 309.016C108.258 309.155 108.982 309.358 109.684 309.622C110.833 310.083 111.872 310.783 112.733 311.676C113.593 312.569 114.256 313.633 114.676 314.801C115.108 315.933 115.403 317.114 115.557 318.316C115.61 318.709 115.649 319.102 115.683 319.499V319.504C115.731 320.144 115.755 320.789 115.765 321.434C115.775 322.239 115.76 323.044 115.741 323.844C115.633 325.829 115.669 327.819 115.847 329.799Z" fill="white"/>
<path d="M87.8163 296.796C85.9728 297.734 83.8565 297.986 81.8454 297.505C79.8342 297.023 78.0591 295.842 76.8372 294.17C76.5911 293.831 77.1052 293.431 77.3517 293.771C78.4867 295.33 80.1403 296.431 82.014 296.875C83.8877 297.319 85.8581 297.077 87.5695 296.193C87.9417 296.001 88.1863 296.605 87.8163 296.796Z" fill="white"/>
<path d="M101.372 308.434C102.719 304.418 102.507 300.041 100.777 296.175C100.606 295.792 101.208 295.546 101.379 295.928C103.171 299.954 103.383 304.509 101.972 308.685C101.837 309.083 101.238 308.829 101.372 308.434Z" fill="white"/>
<path d="M81.0398 279.069C81.8286 278.855 82.5519 278.448 83.1449 277.884C83.7379 277.321 84.1819 276.618 84.4371 275.84C84.5668 275.441 85.1658 275.695 85.037 276.092C84.751 276.95 84.2597 277.725 83.6059 278.349C82.9522 278.974 82.1559 279.428 81.2866 279.672C81.2066 279.702 81.1182 279.701 81.0394 279.668C80.9606 279.634 80.8973 279.573 80.8624 279.495C80.8301 279.415 80.8307 279.325 80.8639 279.245C80.8971 279.166 80.9603 279.102 81.0398 279.069Z" fill="white"/>
<path d="M117.274 333.615C117.284 333.601 117.294 333.591 117.303 333.577C117.284 333.635 117.265 333.693 117.25 333.756L117.274 333.615Z" fill="#F0F0F0"/>
<path d="M131.657 303.764L130.98 306.14L126.819 305.359L125.441 309.622L125.204 310.354L124.26 313.268L122.267 319.432L124.086 319.732L123.181 323.699L123.399 323.936L123.467 324.009L123.917 324.504L126.655 327.501L119.166 333.926L117.966 333.649L117.352 333.509C117.337 333.532 117.321 333.555 117.303 333.576C117.309 333.552 117.317 333.527 117.328 333.504L117.153 333.465L116.152 329.11L115.847 329.799V329.804L115.354 330.943C115.392 331.152 115.431 331.356 115.48 331.559C115.475 331.554 115.475 331.545 115.47 331.54C115.465 331.535 115.465 331.535 115.465 331.53C115.402 331.394 115.334 331.263 115.272 331.128C114.314 329.125 113.399 327.093 112.553 325.037C110.466 320.085 108.829 314.955 107.662 309.709C107.613 309.481 107.56 309.253 107.521 309.02V309.016C106.812 305.623 106.38 302.179 106.23 298.716V298.711C106.152 296.816 106.172 294.917 106.288 293.023C106.594 288.129 107.666 283.313 109.466 278.752C109.476 278.728 109.485 278.709 109.495 278.684C112.945 269.985 119.016 262.44 127.269 258.42C127.613 258.245 127.966 258.08 128.319 257.925H128.329L128.334 257.92C128.556 257.823 128.774 257.731 128.996 257.634C128.924 257.886 128.846 258.139 128.779 258.396C127.802 261.784 127.104 265.246 126.689 268.748V268.753C126.65 269.02 126.616 269.296 126.587 269.568V269.573C125.675 278.02 126.334 286.563 128.532 294.769C128.537 294.793 128.547 294.813 128.551 294.837C129.372 297.883 130.41 300.867 131.657 303.764Z" fill="#F0F0F0"/>
<path d="M123.917 324.504C123.535 325.018 123.143 325.517 122.746 326.017C122.364 326.497 121.982 326.977 121.599 327.462C120.6 328.696 119.709 330.013 118.934 331.399C118.545 332.119 118.222 332.872 117.966 333.649L117.352 333.509C117.337 333.532 117.321 333.555 117.303 333.577C117.309 333.552 117.317 333.527 117.328 333.504C118.455 329.974 121.019 327.239 123.244 324.3C123.322 324.203 123.394 324.106 123.467 324.009L123.917 324.504Z" fill="white"/>
<path d="M129.156 257.906C129.03 258.066 128.9 258.231 128.779 258.396C127.835 259.622 126.944 260.888 126.103 262.192C124.607 264.494 123.278 266.9 122.127 269.393C122.035 269.587 121.943 269.786 121.856 269.985C119.392 275.432 117.786 281.23 117.095 287.17C117.086 287.228 117.081 287.282 117.076 287.34C116.916 288.727 116.813 290.119 116.766 291.515C116.612 294.145 116.872 296.783 117.536 299.332C117.632 299.667 117.739 299.996 117.855 300.316C118.146 301.101 118.51 301.856 118.943 302.571C119.255 303.093 119.601 303.594 119.979 304.07C120.206 304.36 120.443 304.647 120.695 304.923C120.84 305.083 120.99 305.243 121.14 305.403C121.266 305.524 121.387 305.65 121.512 305.772C122.819 307.042 124.26 308.22 125.441 309.622L125.204 310.354C124.067 308.909 122.601 307.711 121.28 306.45C120.451 305.669 119.696 304.812 119.026 303.89C118.939 303.764 118.847 303.638 118.764 303.507C118.316 302.851 117.929 302.154 117.608 301.427C117.444 301.063 117.294 300.69 117.158 300.302C116.368 297.795 116.008 295.171 116.094 292.543C116.11 290.86 116.21 289.178 116.394 287.505C116.413 287.287 116.438 287.073 116.467 286.855C116.957 282.872 117.852 278.95 119.137 275.149C120.764 270.328 123.001 265.735 125.794 261.484C126.592 260.267 127.439 259.079 128.334 257.92C128.45 257.76 128.571 257.605 128.697 257.445C128.953 257.115 129.413 257.576 129.156 257.906Z" fill="white"/>
<path d="M116.697 287.566C114.661 287.203 112.821 286.126 111.504 284.529C110.187 282.931 109.48 280.916 109.508 278.844C109.51 278.759 109.545 278.679 109.604 278.619C109.664 278.56 109.745 278.526 109.829 278.525C109.914 278.524 109.995 278.556 110.056 278.614C110.118 278.672 110.154 278.751 110.158 278.836C110.128 280.765 110.787 282.642 112.017 284.128C113.246 285.613 114.964 286.609 116.862 286.936C117.274 287.007 117.107 287.637 116.697 287.566Z" fill="white"/>
<path d="M120.53 305.039C124.018 302.646 126.477 299.023 127.418 294.892C127.511 294.483 128.14 294.649 128.047 295.058C127.06 299.354 124.493 303.119 120.858 305.602C120.511 305.838 120.185 305.274 120.53 305.039Z" fill="white"/>
<path d="M121.934 269.323C122.692 269.628 123.514 269.74 124.326 269.647C125.138 269.555 125.915 269.262 126.586 268.795C126.93 268.554 127.255 269.119 126.914 269.358C126.17 269.871 125.312 270.193 124.415 270.297C123.518 270.401 122.61 270.283 121.769 269.953C121.687 269.929 121.617 269.874 121.574 269.8C121.531 269.727 121.518 269.639 121.537 269.555C121.559 269.472 121.613 269.401 121.688 269.357C121.762 269.314 121.85 269.302 121.934 269.323Z" fill="white"/>
<path d="M190.901 54.2751C187.238 34.6264 193.005 12.2726 209.033 0.379272C208.124 22.0973 214.909 43.4375 228.187 60.624C233.332 67.2335 239.741 74.0479 239.542 82.4287C239.418 87.6435 236.604 92.5015 232.896 96.1614C229.188 99.8214 224.621 102.46 220.108 105.058L219.405 106.153C206.176 91.196 194.564 73.9238 190.901 54.2751Z" fill="#F0F0F0"/>
<path d="M209.325 0.679673C202.591 15.7853 200.777 32.6337 204.14 48.8316C204.882 52.2974 205.935 55.7485 207.721 58.8276C209.486 61.8156 212.016 64.2755 215.049 65.9518C217.846 67.5718 220.894 68.9041 223.25 71.1774C225.733 73.5735 226.838 76.8438 226.746 80.2606C226.633 84.4411 225.029 88.3317 223.327 92.0818C221.439 96.2455 219.411 100.54 219.533 105.221C219.548 105.789 218.669 105.779 218.654 105.212C218.441 97.0678 224.316 90.5269 225.625 82.7121C226.236 79.0655 225.754 75.2123 223.196 72.3857C220.959 69.914 217.817 68.5373 214.971 66.9216C211.982 65.2251 209.438 63.1291 207.547 60.2233C205.612 57.2508 204.422 53.8337 203.596 50.4021C201.779 42.6065 201.196 34.5731 201.869 26.5961C202.586 17.4876 204.853 8.56938 208.57 0.227087C208.801 -0.289151 209.554 0.166805 209.325 0.679673Z" fill="white"/>
<path d="M202.751 43.6799C199.963 43.8766 197.196 43.0735 194.944 41.4142C192.693 39.7548 191.103 37.3472 190.458 34.6213C190.33 34.0693 191.18 33.8432 191.308 34.396C191.904 36.9355 193.385 39.178 195.485 40.7189C197.585 42.2598 200.165 42.9975 202.76 42.7989C203.324 42.7565 203.312 43.6376 202.751 43.6799Z" fill="white"/>
<path d="M213.523 65.3176C217.308 61.0278 219.34 55.4658 219.215 49.7406C219.202 49.1734 220.081 49.1833 220.094 49.7499C220.213 55.7078 218.086 61.4916 214.138 65.947C213.761 66.3714 213.148 65.7397 213.523 65.3176Z" fill="white"/>
<path d="M203.616 18.0347C204.71 18.1839 205.825 18.0583 206.859 17.6691C207.893 17.2799 208.814 16.6394 209.541 15.805C209.912 15.3761 210.524 16.0083 210.156 16.4345C209.349 17.3525 208.33 18.0587 207.189 18.4912C206.047 18.9237 204.817 19.0694 203.607 18.9156C203.491 18.9107 203.382 18.8619 203.301 18.7792C203.221 18.6966 203.174 18.5862 203.172 18.4705C203.174 18.3539 203.221 18.2427 203.304 18.161C203.388 18.0794 203.499 18.034 203.616 18.0347Z" fill="white"/>
<path d="M274.577 16.6317C274.353 16.9062 274.129 17.1807 273.907 17.4623C270.913 21.168 268.224 25.1113 265.868 29.2533C265.681 29.5707 265.496 29.8951 265.318 30.2171C259.746 40.2569 256.083 51.2463 254.514 62.6265C253.893 67.1555 253.618 71.7253 253.689 76.2963C253.788 82.6089 254.397 89.4456 252.466 95.2515C252.272 95.8595 252.039 96.4548 251.771 97.034L220.793 106.927C220.711 106.914 220.631 106.908 220.549 106.896L219.33 107.347C219.31 107.112 219.295 106.867 219.274 106.632C219.262 106.495 219.257 106.356 219.245 106.22C219.239 106.128 219.233 106.036 219.222 105.954C219.22 105.923 219.219 105.893 219.219 105.869C219.208 105.787 219.207 105.709 219.199 105.634C219.106 104.266 219.021 102.897 218.95 101.522C218.948 101.515 218.948 101.515 218.953 101.506C218.421 91.0396 218.757 80.4367 220.687 70.2219C220.745 69.9146 220.801 69.6003 220.873 69.2885C221.768 64.6889 223.038 60.1705 224.668 55.7782C225.568 53.376 226.589 51.0211 227.727 48.7224C230.678 42.7885 234.542 37.3569 239.177 32.6266C248.419 23.1983 260.566 16.8375 273.582 16.6372C273.915 16.6324 274.242 16.6295 274.577 16.6317Z" fill="#F0F0F0"/>
<path d="M274.633 17.0481C260.183 25.0455 248.614 37.4032 241.57 52.366C240.08 55.5808 238.848 58.9719 238.425 62.5084C238.039 65.9587 238.581 69.4498 239.997 72.6188C241.257 75.6002 242.89 78.5035 243.405 81.74C243.949 85.1515 242.867 88.4298 240.741 91.1023C238.14 94.3722 234.522 96.5102 230.911 98.4778C226.902 100.662 222.703 102.868 219.989 106.679C219.66 107.141 218.964 106.603 219.293 106.142C224.015 99.5103 232.634 97.8328 238.373 92.383C241.051 89.84 242.981 86.4727 242.637 82.6722C242.335 79.3489 240.654 76.3535 239.351 73.3459C237.984 70.1878 237.212 66.9789 237.447 63.5175C237.688 59.9768 238.791 56.5302 240.192 53.2913C243.424 45.9705 247.784 39.2046 253.112 33.2414C259.156 26.4017 266.323 20.6489 274.302 16.2316C274.796 15.9584 275.123 16.7767 274.633 17.0481Z" fill="white"/>
<path d="M243.555 47.4143C241.211 45.8889 239.484 43.5779 238.683 40.8941C237.882 38.2104 238.058 35.3285 239.181 32.7633C239.41 32.245 240.225 32.5773 239.995 33.0963C238.945 35.4831 238.781 38.1676 239.532 40.6652C240.283 43.1628 241.9 45.309 244.092 46.7164C244.567 47.0229 244.028 47.7189 243.555 47.4143Z" fill="white"/>
<path d="M239.159 71.1915C244.757 70.0503 249.721 66.8359 253.06 62.1893C253.391 61.7286 254.087 62.2669 253.757 62.727C250.273 67.5559 245.1 70.8904 239.272 72.0652C238.716 72.1768 238.606 71.3025 239.159 71.1915Z" fill="white"/>
<path d="M259.65 27.4599C260.434 28.2396 261.399 28.8118 262.459 29.1251C263.518 29.4385 264.639 29.4831 265.72 29.2552C266.274 29.1366 266.383 30.011 265.833 30.1288C264.637 30.3752 263.4 30.3243 262.228 29.9807C261.057 29.6371 259.988 29.0112 259.113 28.1578C259.024 28.0842 258.966 27.9794 258.951 27.8647C258.937 27.7499 258.966 27.6338 259.033 27.54C259.105 27.4479 259.21 27.3879 259.325 27.3729C259.441 27.3579 259.557 27.3892 259.65 27.4599Z" fill="white"/>
<path d="M75.507 30.8025C73.7952 29.5914 71.9224 28.3284 69.8278 28.3789C64.7581 28.5011 62.0247 35.9504 56.9602 35.6884C53.7305 35.5214 51.5864 32.2327 48.5792 31.0403C44.664 29.4879 39.6817 32.524 39.2546 36.7223L39.7574 36.2611C54.9763 39.9799 70.7696 40.7112 86.2658 38.4147C82.6796 35.8773 79.0933 33.3399 75.507 30.8025Z" fill="#F0F0F0"/>
<path d="M84.9928 39.7628C94.7084 39.7628 102.584 31.8684 102.584 22.1301C102.584 12.3919 94.7084 4.49744 84.9928 4.49744C75.2772 4.49744 67.4012 12.3919 67.4012 22.1301C67.4012 31.8684 75.2772 39.7628 84.9928 39.7628Z" fill="#B1060F"/>
<path d="M126.17 18.7619C123.989 17.2184 121.602 15.6089 118.933 15.6733C112.472 15.829 108.988 25.3225 102.534 24.9886C98.4181 24.7757 95.6858 20.5846 91.8533 19.0649C86.8638 17.0866 80.5142 20.9558 79.9699 26.3062L80.6106 25.7184C100.006 30.4577 120.133 31.3897 139.882 28.463C135.311 25.2293 130.741 21.9956 126.17 18.7619Z" fill="#F0F0F0"/>
<path d="M284.408 195.769L265.739 95.5763C265.42 93.9247 264.55 92.4308 263.273 91.3397C261.995 90.2485 260.386 89.6248 258.708 89.5709C258.557 89.5675 258.406 89.5675 258.255 89.5709L245.538 90.0282L244.169 90.0786L237.822 90.3072L236.453 90.3543L232.37 90.5023L150.047 93.4647C149.923 93.4714 149.795 93.4714 149.671 93.468L131.224 93.0813L124.397 92.9401L124.179 92.9367L119.14 92.8291L75.2346 91.9145L63.5939 91.6691L57.8541 91.5514L56.4787 91.5211L49.9337 91.3866L48.5617 91.3564L41.8658 91.2185L40.4937 91.1883L33.1369 91.0336L31.9829 91.01L25.4212 90.8722L24.3846 90.852H24.2337C22.4917 90.8591 20.8083 91.4833 19.481 92.6143C18.1538 93.7452 17.2682 95.3101 16.9809 97.0323L0.0968295 201.001C-0.0746299 202.054 -0.0156091 203.132 0.269803 204.16C0.555216 205.188 1.06019 206.141 1.74975 206.954C2.43932 207.768 3.29699 208.421 4.26334 208.868C5.22969 209.316 6.28161 209.548 7.34625 209.548H104.309C105.737 209.552 107.125 210.011 108.275 210.859L110.113 212.225C111.38 213.159 112.911 213.666 114.484 213.671H171.628C172.593 213.673 173.549 213.483 174.441 213.113C175.333 212.742 176.143 212.198 176.824 211.512C177.988 210.345 179.541 209.652 181.185 209.565L277.571 204.474C278.616 204.419 279.638 204.141 280.567 203.659C281.496 203.176 282.312 202.5 282.96 201.676C283.607 200.851 284.071 199.898 284.321 198.879C284.571 197.86 284.6 196.8 284.408 195.769Z" fill="#CCCCCC"/>
<path d="M269.131 193.045L258.725 89.7054C258.721 89.6617 258.715 89.6146 258.708 89.5709C258.513 87.9198 257.7 86.4043 256.433 85.3308L234.048 66.6387C233.074 65.8197 231.864 65.3353 230.596 65.2567C220.354 64.5976 168.286 62.1565 149.067 78.8782C148.484 79.3868 147.797 79.7612 147.054 79.975C146.311 80.1888 145.53 80.2368 144.767 80.1156C144.001 79.9911 143.272 79.7026 142.628 79.2697C141.984 78.8368 141.441 78.2697 141.036 77.6071C139.402 75.0541 137.261 72.8656 134.746 71.1781C133.617 70.3922 132.441 69.6769 131.224 69.0361C130.147 68.4679 128.976 67.9164 127.702 67.3852C126.605 66.9278 125.434 66.4874 124.179 66.0671C117.674 63.8882 108.979 62.2607 97.3586 61.716C92.5379 61.4873 87.298 61.4571 81.7862 61.6218C76.7542 61.7698 71.4069 62.0758 65.8952 62.5331L65.8147 62.5364L28.5209 85.3577C27.6848 85.8802 26.9782 86.5864 26.4546 87.4229C25.9309 88.2594 25.604 89.2044 25.4983 90.1862L25.4212 90.8722L13.5792 196.929C13.4769 197.83 13.5596 198.742 13.8221 199.61C14.0845 200.478 14.5213 201.283 15.1056 201.976C15.6743 202.651 16.3825 203.194 17.1812 203.568C17.9799 203.942 18.8501 204.137 19.7317 204.141H111.623C112.844 204.147 114.028 204.568 114.981 205.335L118.993 208.556C120.038 209.398 121.332 209.868 122.673 209.894L163.077 210.557H163.174C164.194 210.555 165.197 210.294 166.089 209.797L173.882 205.459C174.593 205.063 175.384 204.833 176.197 204.787L263.284 200.177C264.132 200.131 264.962 199.907 265.719 199.519C266.475 199.131 267.142 198.587 267.675 197.924C268.229 197.248 268.643 196.469 268.893 195.631C269.143 194.794 269.224 193.914 269.131 193.045Z" fill="#E6E6E6"/>
<path d="M238.733 174.409L237.514 158.324L232.371 90.5042L231.607 80.4713C231.414 77.8361 230.248 75.3675 228.338 73.5468C226.427 71.726 223.909 70.6836 221.273 70.6228C202.43 70.1378 168.309 70.9913 151.565 82.2364C149.703 83.5053 147.444 84.0525 145.209 83.7759C142.974 83.4994 140.916 82.418 139.417 80.7332C137.1 78.1838 134.319 76.1017 131.222 74.5991C128.956 73.4598 126.6 72.5094 124.178 71.7575C117.091 69.4881 108.147 68.1093 97.3473 67.6211L71.7165 67.4708H71.6729C69.8974 67.4725 68.1891 68.1516 66.8951 69.3702C65.6012 70.5889 64.8186 72.2556 64.7064 74.0317L63.5937 91.668L58.7317 169.012C58.6408 170.452 58.8429 171.897 59.3258 173.257C59.8087 174.617 60.5623 175.865 61.5409 176.924C62.5195 177.983 63.7027 178.832 65.0186 179.419C66.3345 180.007 67.7557 180.319 69.196 180.339C112.219 180.979 131.014 190.081 139.209 197.597C140.952 199.2 143.178 200.174 145.535 200.365C147.892 200.557 150.246 199.955 152.223 198.654C167.099 188.888 191.83 186.173 211.515 185.751C217.543 185.625 223.097 185.707 227.751 185.872C229.247 185.926 230.737 185.663 232.125 185.1C233.512 184.536 234.765 183.686 235.802 182.604C236.838 181.522 237.635 180.232 238.14 178.82C238.646 177.408 238.848 175.905 238.733 174.409Z" fill="white"/>
<path d="M25.1494 196.842C25.1333 196.842 25.1166 196.841 25.1005 196.84C25.0108 196.834 24.9232 196.81 24.8427 196.769C24.7622 196.729 24.6905 196.673 24.6315 196.605C24.5725 196.537 24.5275 196.458 24.499 196.373C24.4705 196.287 24.4591 196.197 24.4655 196.107L31.8679 91.3402C31.8732 91.2499 31.8964 91.1616 31.9363 91.0804C31.9761 90.9992 32.0317 90.9269 32.0999 90.8676C32.168 90.8083 32.2473 90.7632 32.3331 90.7351C32.4189 90.7069 32.5094 90.6963 32.5993 90.7037C32.6891 90.71 32.7767 90.734 32.8571 90.7743C32.9376 90.8146 33.0094 90.8703 33.0684 90.9384C33.1273 91.0065 33.1724 91.0855 33.2008 91.1711C33.2293 91.2566 33.2407 91.3469 33.2344 91.4368L25.832 196.204C25.8199 196.377 25.7428 196.539 25.6161 196.658C25.4894 196.776 25.3226 196.842 25.1494 196.842Z" fill="white"/>
<path d="M34.0575 192.721C34.0414 192.721 34.0247 192.72 34.0086 192.719C33.9189 192.713 33.8313 192.689 33.7508 192.649C33.6703 192.608 33.5985 192.552 33.5396 192.484C33.4806 192.416 33.4356 192.337 33.4071 192.252C33.3786 192.166 33.3672 192.076 33.3736 191.986L40.776 87.2193C40.7813 87.129 40.8045 87.0406 40.8443 86.9594C40.8842 86.8783 40.9398 86.8059 41.0079 86.7466C41.0761 86.6873 41.1554 86.6423 41.2412 86.6141C41.3269 86.586 41.4175 86.5753 41.5074 86.5827C41.5971 86.5891 41.6847 86.613 41.7652 86.6533C41.8457 86.6936 41.9175 86.7494 41.9764 86.8174C42.0354 86.8855 42.0804 86.9646 42.1089 87.0501C42.1374 87.1356 42.1488 87.2259 42.1425 87.3159L34.74 192.083C34.728 192.256 34.6508 192.418 34.5242 192.537C34.3975 192.655 34.2307 192.721 34.0575 192.721Z" fill="white"/>
<path d="M42.2803 190.661C42.2642 190.661 42.2475 190.66 42.2314 190.659C42.1417 190.652 42.0541 190.628 41.9736 190.588C41.8931 190.548 41.8214 190.492 41.7624 190.424C41.7034 190.356 41.6584 190.277 41.6299 190.191C41.6014 190.106 41.5901 190.015 41.5964 189.925L48.9988 85.1587C49.0041 85.0684 49.0273 84.9801 49.0672 84.8989C49.107 84.8177 49.1626 84.7454 49.2308 84.6861C49.2989 84.6267 49.3782 84.5817 49.464 84.5536C49.5498 84.5254 49.6403 84.5148 49.7302 84.5222C49.82 84.5285 49.9076 84.5525 49.988 84.5928C50.0685 84.6331 50.1403 84.6888 50.1993 84.7569C50.2582 84.825 50.3033 84.904 50.3317 84.9895C50.3602 85.0751 50.3716 85.1654 50.3653 85.2553L42.9629 190.022C42.9508 190.195 42.8737 190.357 42.747 190.476C42.6203 190.594 42.4536 190.66 42.2803 190.661Z" fill="white"/>
<path d="M50.5032 186.54C50.4871 186.54 50.4704 186.539 50.4543 186.538C50.3646 186.531 50.277 186.507 50.1965 186.467C50.116 186.427 50.0442 186.371 49.9852 186.303C49.9263 186.235 49.8813 186.156 49.8528 186.07C49.8243 185.985 49.8129 185.894 49.8192 185.804L57.2217 81.0378C57.2269 80.9475 57.2502 80.8591 57.29 80.7779C57.3299 80.6968 57.3855 80.6244 57.4536 80.5651C57.5218 80.5058 57.6011 80.4607 57.6869 80.4326C57.7726 80.4045 57.8631 80.3938 57.9531 80.4012C58.0428 80.4076 58.1304 80.4315 58.2109 80.4718C58.2914 80.5121 58.3632 80.5678 58.4221 80.6359C58.4811 80.704 58.5261 80.7831 58.5546 80.8686C58.5831 80.9541 58.5945 81.0444 58.5881 81.1343L51.1857 185.901C51.1737 186.074 51.0965 186.237 50.9699 186.355C50.8432 186.474 50.6764 186.539 50.5032 186.54Z" fill="white"/>
<path d="M260.87 197.529C260.886 197.529 260.902 197.528 260.918 197.527C261.008 197.521 261.096 197.497 261.176 197.456C261.257 197.416 261.328 197.36 261.387 197.292C261.446 197.224 261.491 197.145 261.52 197.06C261.548 196.974 261.56 196.884 261.553 196.794L254.151 92.0271C254.146 91.9368 254.122 91.8485 254.083 91.7673C254.043 91.6862 253.987 91.6138 253.919 91.5545C253.851 91.4952 253.772 91.4501 253.686 91.422C253.6 91.3938 253.51 91.3832 253.42 91.3906C253.33 91.3969 253.242 91.4209 253.162 91.4612C253.081 91.5014 253.01 91.5572 252.951 91.6253C252.892 91.6934 252.847 91.7724 252.818 91.8579C252.79 91.9435 252.778 92.0338 252.785 92.1237L260.187 196.89C260.199 197.064 260.276 197.226 260.403 197.344C260.53 197.463 260.696 197.529 260.87 197.529Z" fill="white"/>
<path d="M251.961 191.347C251.978 191.347 251.994 191.347 252.01 191.345C252.1 191.339 252.188 191.315 252.268 191.275C252.349 191.235 252.42 191.179 252.479 191.111C252.538 191.043 252.583 190.964 252.612 190.878C252.64 190.793 252.652 190.702 252.645 190.612L245.243 85.8456C245.238 85.7553 245.214 85.667 245.175 85.5858C245.135 85.5046 245.079 85.4323 245.011 85.3729C244.943 85.3136 244.864 85.2686 244.778 85.2405C244.692 85.2123 244.601 85.2016 244.511 85.2091C244.422 85.2154 244.334 85.2394 244.254 85.2797C244.173 85.3199 244.101 85.3757 244.042 85.4438C243.983 85.5119 243.938 85.5909 243.91 85.6764C243.881 85.762 243.87 85.8523 243.876 85.9422L251.279 190.709C251.291 190.882 251.368 191.044 251.495 191.163C251.621 191.281 251.788 191.347 251.961 191.347Z" fill="white"/>
<path d="M243.739 184.479C243.755 184.479 243.771 184.478 243.787 184.477C243.877 184.471 243.965 184.447 244.045 184.406C244.126 184.366 244.198 184.31 244.257 184.242C244.315 184.174 244.36 184.095 244.389 184.01C244.417 183.924 244.429 183.834 244.423 183.744L237.02 78.9772C237.015 78.8869 236.992 78.7986 236.952 78.7174C236.912 78.6362 236.856 78.5639 236.788 78.5046C236.72 78.4452 236.641 78.4002 236.555 78.372C236.469 78.3439 236.379 78.3332 236.289 78.3407C236.199 78.347 236.111 78.371 236.031 78.4113C235.95 78.4515 235.879 78.5073 235.82 78.5754C235.761 78.6435 235.716 78.7225 235.687 78.808C235.659 78.8936 235.647 78.9839 235.654 79.0738L243.056 183.84C243.068 184.014 243.145 184.176 243.272 184.294C243.399 184.413 243.565 184.479 243.739 184.479Z" fill="white"/>
<path d="M75.5748 91.1376C91.0206 86.1981 108.253 87.5058 122.885 94.4645C127.06 96.4397 131.003 98.874 134.642 101.722C135.671 102.532 137.136 101.084 136.096 100.265C122.656 89.8167 105.769 84.8531 88.8274 86.3719C84.1406 86.7923 79.5135 87.7241 75.0283 89.1507C73.7727 89.5522 74.3094 91.5423 75.5748 91.1376Z" fill="#3F3D56"/>
<path d="M160.568 102.522C174.928 94.9562 192.125 93.3063 207.739 97.601C212.19 98.8224 216.492 100.537 220.565 102.713C221.731 103.337 222.771 101.559 221.602 100.933C206.721 92.9743 188.858 91.1422 172.607 95.5788C168.074 96.8187 163.689 98.5503 159.53 100.743C158.359 101.36 159.397 103.139 160.568 102.522Z" fill="#3F3D56"/>
<path d="M160.568 116.259C174.928 108.693 192.125 107.043 207.739 111.338C212.19 112.559 216.492 114.274 220.565 116.449C221.731 117.073 222.771 115.295 221.602 114.67C206.721 106.711 188.858 104.879 172.607 109.316C168.074 110.555 163.689 112.287 159.53 114.479C158.359 115.097 159.397 116.876 160.568 116.259Z" fill="#3F3D56"/>
<path d="M222.105 129.258C222.116 129.082 222.073 128.906 221.983 128.753C221.893 128.601 221.759 128.479 221.599 128.404C209.677 122.147 196.161 119.61 182.789 121.118C182.705 121.125 182.628 121.138 182.537 121.145H182.534C182.451 121.152 182.37 121.164 182.289 121.182C174.335 122.099 166.619 124.483 159.531 128.213C159.376 128.305 159.248 128.436 159.159 128.593C159.071 128.75 159.024 128.927 159.024 129.107V154.733C159.027 154.89 159.065 155.045 159.136 155.186C159.207 155.327 159.309 155.449 159.435 155.545C159.56 155.64 159.706 155.705 159.86 155.736C160.014 155.766 160.174 155.761 160.326 155.721C160.641 155.63 160.956 155.543 161.278 155.459C168.445 153.515 175.802 152.361 183.218 152.019C183.376 152.012 183.533 152.006 183.698 151.999C189.738 151.739 195.79 151.957 201.796 152.651C201.922 152.658 202.047 152.672 202.172 152.692C202.48 152.725 202.796 152.762 203.104 152.803C203.229 152.816 203.346 152.83 203.46 152.85C204.661 153.001 205.852 153.172 207.046 153.357C208.77 153.633 210.495 153.94 212.219 154.279C212.326 154.299 212.437 154.326 212.548 154.346C215.315 154.897 218.07 155.536 220.81 156.242C220.963 156.282 221.123 156.286 221.277 156.255C221.432 156.223 221.577 156.157 221.702 156.062C221.828 155.966 221.93 155.843 222.001 155.702C222.071 155.561 222.11 155.405 222.112 155.247V129.299C222.113 129.285 222.111 129.271 222.105 129.258Z" fill="#3F3D56"/>
<path d="M184.4 122.515C183.647 122.145 182.784 122.069 181.978 122.302C181.622 122.436 181.296 122.639 181.019 122.9C180.742 123.161 180.52 123.475 180.365 123.823C180.085 124.49 179.906 125.195 179.834 125.915C179.791 126.198 179.788 126.555 180.072 126.687C180.175 126.725 180.287 126.733 180.394 126.712C180.502 126.691 180.601 126.64 180.682 126.566C180.829 126.421 180.95 126.252 181.04 126.067C181.533 125.298 182.211 124.666 183.012 124.229C183.813 123.793 184.711 123.566 185.623 123.569L186.382 123.872C185.785 123.333 185.118 122.877 184.4 122.515Z" fill="#FF6582"/>
<path d="M192.614 128.421C192.025 127.552 191.327 126.624 190.234 126.341C188.969 126.012 187.668 126.665 186.565 127.309C183.286 129.224 180.11 131.311 177.051 133.563L177.055 133.597L184.154 133.16C185.864 133.055 187.633 132.935 189.144 132.214C189.686 131.873 190.293 131.646 190.926 131.549C191.318 131.57 191.703 131.669 192.057 131.84C192.412 132.011 192.729 132.251 192.99 132.545C196.262 135.654 197.209 140.408 200.88 143.139C198.544 138.008 195.779 133.085 192.614 128.421Z" fill="white"/>
<path d="M183.699 151.999C183.534 152.005 183.377 152.012 183.219 152.019C182.075 151.607 180.903 151.243 179.718 150.927C178.95 150.721 178.169 150.536 177.388 150.378C176.504 150.185 175.613 150.034 174.722 149.904C173.026 149.656 171.317 149.512 169.604 149.471C169.591 149.472 169.577 149.471 169.565 149.467C169.553 149.463 169.541 149.456 169.531 149.448C169.522 149.439 169.514 149.428 169.509 149.416C169.503 149.404 169.501 149.391 169.501 149.378C169.501 149.365 169.503 149.352 169.509 149.34C169.514 149.328 169.522 149.318 169.531 149.309C169.541 149.3 169.553 149.294 169.565 149.29C169.577 149.286 169.591 149.284 169.604 149.286C169.823 149.286 170.042 149.292 170.254 149.306C171.972 149.37 173.683 149.537 175.38 149.808C176.264 149.952 177.148 150.124 178.025 150.316C178.82 150.494 179.615 150.694 180.396 150.913C181.513 151.229 182.614 151.591 183.699 151.999Z" fill="white"/>
<path d="M203.461 152.85C203.345 152.83 203.228 152.816 203.105 152.802C202.632 152.411 202.152 152.04 201.652 151.676C201.028 151.222 200.384 150.797 199.727 150.398C198.27 149.512 196.749 148.736 195.176 148.077C192.691 147.039 190.118 146.225 187.488 145.645C184.488 144.987 181.452 144.51 178.395 144.217C175.339 143.901 172.269 143.708 169.199 143.516C169.069 143.509 169.062 143.317 169.199 143.324C169.583 143.351 169.967 143.372 170.357 143.399C173.461 143.592 176.565 143.811 179.649 144.162C182.707 144.49 185.739 145.018 188.728 145.741C191.28 146.372 193.771 147.229 196.17 148.303C197.55 148.925 198.887 149.639 200.172 150.439C200.987 150.955 201.775 151.504 202.529 152.088C202.844 152.335 203.16 152.582 203.461 152.85Z" fill="white"/>
<path d="M202.173 152.692C202.048 152.672 201.922 152.658 201.796 152.651C201.652 152.534 201.501 152.424 201.351 152.314C200.296 151.558 199.195 150.867 198.055 150.247C197.019 149.683 195.955 149.172 194.868 148.715C192.384 147.675 189.81 146.861 187.18 146.284C184.18 145.625 181.144 145.148 178.087 144.856C175.031 144.54 171.961 144.347 168.891 144.155C168.761 144.141 168.761 143.956 168.891 143.963C169.282 143.99 169.665 144.011 170.049 144.038C173.153 144.23 176.257 144.45 179.341 144.801C182.398 145.129 185.431 145.657 188.42 146.38C190.972 147.009 193.463 147.867 195.862 148.942C196.766 149.354 197.65 149.801 198.514 150.288C199.794 150.993 201.017 151.797 202.173 152.692Z" fill="white"/>
<path d="M212.547 154.348C212.438 154.327 212.328 154.3 212.218 154.279C212.095 154.148 211.979 154.011 211.862 153.874C211.273 153.194 210.69 152.507 210.115 151.813C207.847 149.107 205.695 146.318 203.667 143.475C201.926 141.044 200.275 138.564 198.712 136.036C197.965 134.841 197.246 133.633 196.54 132.41C195.992 131.462 195.458 130.512 194.937 129.56C194.786 129.285 194.642 129.01 194.498 128.735C194.162 128.09 193.827 127.437 193.47 126.799C193.083 126.016 192.514 125.338 191.812 124.82C191.461 124.585 191.055 124.445 190.633 124.415C190.039 124.417 189.455 124.569 188.934 124.855C185.1 126.644 181.484 128.868 178.155 131.483C174.904 134.017 171.965 136.929 169.398 140.157C169.316 140.254 169.137 140.164 169.213 140.061C169.521 139.677 169.836 139.292 170.152 138.914C172.619 135.99 175.397 133.343 178.436 131.023C178.443 131.016 178.457 131.009 178.464 131.002C178.731 130.789 178.998 130.583 179.272 130.384C180.969 129.131 182.735 127.976 184.562 126.922C185.494 126.38 186.447 125.864 187.42 125.377C187.659 125.253 187.906 125.13 188.153 125.013C188.4 124.889 188.646 124.772 188.893 124.656C189.381 124.406 189.915 124.259 190.462 124.223C192.367 124.195 193.347 126.119 194.025 127.417C194.238 127.822 194.457 128.227 194.67 128.632C195.492 130.164 196.348 131.689 197.239 133.193C197.78 134.127 198.342 135.054 198.911 135.975C199.727 137.287 200.563 138.585 201.433 139.876L201.433 139.879L201.435 139.881L201.437 139.882L201.44 139.883C202.447 141.408 203.495 142.905 204.578 144.395C206.435 146.943 208.381 149.434 210.416 151.868C211.115 152.706 211.826 153.533 212.547 154.348Z" fill="white"/>
<path d="M222.113 151.319V151.635C221.435 150.838 220.743 150.048 220.057 149.258C219.77 148.928 219.482 148.599 219.194 148.269C217.974 146.882 216.748 145.499 215.514 144.121C214.274 142.747 213.034 141.373 211.78 140.006C211.478 139.677 211.177 139.347 210.868 139.017C210.622 138.74 210.354 138.483 210.067 138.248C209.777 138.007 209.445 137.823 209.087 137.705C208.675 137.591 208.24 137.586 207.826 137.692C207.353 137.802 206.901 137.973 206.442 138.118C205.969 138.276 205.503 138.427 205.03 138.578C204.085 138.887 203.146 139.196 202.2 139.505C202.188 139.51 202.176 139.512 202.163 139.512C202.151 139.512 202.138 139.509 202.127 139.504C202.115 139.499 202.105 139.491 202.096 139.482C202.088 139.473 202.081 139.462 202.077 139.45C202.071 139.437 202.069 139.423 202.07 139.409C202.07 139.395 202.074 139.381 202.081 139.369C202.087 139.356 202.096 139.345 202.108 139.337C202.119 139.328 202.132 139.323 202.145 139.32C202.378 139.244 202.618 139.169 202.858 139.093C203.811 138.777 204.756 138.468 205.709 138.159C206.181 138.001 206.654 137.85 207.127 137.699C207.566 137.532 208.029 137.439 208.498 137.424C209.263 137.479 209.981 137.817 210.512 138.372C210.807 138.647 211.074 138.935 211.341 139.23C211.656 139.574 211.972 139.917 212.287 140.261C213.555 141.648 214.813 143.04 216.062 144.437C217.316 145.838 218.559 147.241 219.79 148.647C219.879 148.75 219.968 148.853 220.057 148.956C220.75 149.739 221.428 150.529 222.113 151.319Z" fill="white"/>
<path d="M188.1 124.013L187.911 124.097C187.476 123.362 186.868 122.746 186.139 122.303C185.41 121.861 184.583 121.606 183.733 121.561C180.927 121.361 178.463 123.235 178.239 125.738C178.148 126.769 178.445 127.796 179.073 128.618L178.897 128.722C178.243 127.866 177.933 126.797 178.028 125.723C178.261 123.117 180.828 121.165 183.749 121.373C184.635 121.42 185.496 121.686 186.255 122.146C187.014 122.607 187.648 123.248 188.1 124.013Z" fill="#FF6582"/>
<path d="M174.238 129.077C173.502 128.756 172.7 128.616 171.898 128.667C171.097 128.718 170.32 128.959 169.63 129.371C172.148 129.759 174.644 130.278 177.107 130.928C176.087 130.395 175.289 129.56 174.238 129.077Z" fill="white"/>
<path d="M169.616 129.369L169.338 129.57C169.432 129.5 169.53 129.434 169.63 129.371L169.616 129.369Z" fill="white"/>
<path d="M209.96 139.514C209.701 139.179 209.356 138.922 208.962 138.77L208.573 138.784C211.631 143.554 215.638 147.641 220.343 150.789C216.882 147.031 213.421 143.272 209.96 139.514Z" fill="white"/>
<path d="M177.965 130.535C177.855 130.425 177.745 130.315 177.634 130.205C176.781 129.275 175.754 128.522 174.611 127.988C174.029 127.743 173.405 127.613 172.773 127.608C172.121 127.623 171.476 127.749 170.866 127.979C170.578 128.082 170.297 128.198 170.021 128.322C169.705 128.464 169.394 128.615 169.085 128.768C168.505 129.054 167.932 129.353 167.367 129.665C166.243 130.285 165.154 130.952 164.1 131.666C163.554 132.037 163.019 132.42 162.495 132.815C162.008 133.181 161.531 133.558 161.063 133.944C160.963 134.027 160.814 133.894 160.914 133.811C161.037 133.709 161.162 133.607 161.286 133.507C161.638 133.223 161.996 132.944 162.359 132.671C163.022 132.173 163.701 131.693 164.398 131.233C165.481 130.517 166.602 129.849 167.76 129.231C168.339 128.922 168.926 128.626 169.52 128.342C169.7 128.257 169.881 128.173 170.065 128.094C170.485 127.906 170.918 127.748 171.36 127.624C171.996 127.441 172.66 127.383 173.317 127.452C173.946 127.533 174.557 127.721 175.122 128.01C176.242 128.639 177.253 129.447 178.115 130.401C178.205 130.492 178.056 130.626 177.965 130.535Z" fill="white"/>
<path d="M75.5748 104.874C91.0206 99.9349 108.253 101.243 122.885 108.201C127.06 110.177 131.003 112.611 134.642 115.459C135.671 116.269 137.136 114.821 136.096 114.002C122.656 103.554 105.769 98.5899 88.8274 100.109C84.1406 100.529 79.5135 101.461 75.0283 102.887C73.7727 103.289 74.3094 105.279 75.5748 104.874Z" fill="#3F3D56"/>
<path d="M75.5748 118.611C91.0206 113.672 108.253 114.979 122.885 121.938C127.06 123.913 131.003 126.347 134.642 129.196C135.671 130.006 137.136 128.557 136.096 127.739C122.656 117.29 105.769 112.327 88.8274 113.845C84.1406 114.266 79.5135 115.198 75.0283 116.624C73.7727 117.026 74.3094 119.016 75.5748 118.611Z" fill="#3F3D56"/>
<path d="M75.5748 132.348C91.0206 127.408 108.253 128.716 122.885 135.675C127.06 137.65 131.003 140.084 134.642 142.933C135.671 143.742 137.136 142.294 136.096 141.476C122.656 131.027 105.769 126.063 88.8274 127.582C84.1406 128.002 79.5135 128.934 75.0283 130.361C73.7727 130.762 74.3094 132.752 75.5748 132.348Z" fill="#3F3D56"/>
<path d="M75.5748 146.084C91.0206 141.145 108.253 142.453 122.885 149.411C127.06 151.387 131.003 153.821 134.642 156.669C135.671 157.479 137.136 156.031 136.096 155.212C122.656 144.764 105.769 139.8 88.8274 141.319C84.1406 141.739 79.5135 142.671 75.0283 144.098C73.7727 144.499 74.3094 146.489 75.5748 146.084Z" fill="#3F3D56"/>
<path d="M75.5748 159.821C91.0206 154.882 108.253 156.19 122.885 163.148C127.06 165.123 131.003 167.558 134.642 170.406C135.671 171.216 137.136 169.768 136.096 168.949C122.656 158.5 105.769 153.537 88.8274 155.056C84.1406 155.476 79.5135 156.408 75.0283 157.834C73.7727 158.236 74.3094 160.226 75.5748 159.821Z" fill="#3F3D56"/>
<path d="M131.224 69.0361V107.537C131.224 108.192 130.083 108.74 128.544 108.888C128.275 108.915 127.993 108.929 127.702 108.929C126.854 108.945 126.011 108.807 125.212 108.522C125.064 108.464 124.921 108.396 124.783 108.317C124.401 108.092 124.179 107.826 124.179 107.537V66.067C125.434 66.4873 126.605 66.9278 127.702 67.3851C128.976 67.9164 130.147 68.4679 131.224 69.0361Z" fill="#A9A9A9"/>
<path d="M145.988 82.2373H144.982V206.777H145.988V82.2373Z" fill="#E6E6E6"/>
<path d="M235.806 182.599C234.769 183.681 233.515 184.532 232.127 185.096C230.739 185.66 229.248 185.925 227.751 185.872C223.097 185.707 217.543 185.625 211.515 185.751L211.482 185.722L237.606 151.778L238.733 174.409C238.846 175.903 238.644 177.405 238.14 178.816C237.635 180.227 236.84 181.516 235.806 182.599Z" fill="#F2F2F2"/>
<path d="M170.771 301.233L169.378 312.57L168.314 321.187L167.888 324.664H161.831V321.575L161.826 311.353V301.233H170.771Z" fill="#FFB6B6"/>
<path d="M128.537 300.045L126.82 305.359L125.441 309.622L125.204 310.354L124.26 313.268L122.267 319.432L121.275 322.501L115.765 321.434L115.325 321.352L115.683 319.5L115.901 318.37L118.31 305.849L118.702 303.832L118.765 303.507L118.944 302.571L119.756 298.348L125.629 299.482L126.307 299.613L128.537 300.045Z" fill="#FFB6B6"/>
<path d="M179.871 233.718C176.407 252.8 175.541 261.038 175.541 261.038C175.541 261.038 178.139 264.074 176.407 265.81C174.675 267.546 176.407 271.013 176.407 271.013L172.513 313.079L169.378 312.57L161.826 311.353L159.102 310.912L160.834 271.449C160.834 271.449 159.102 267.977 159.968 267.109C160.834 266.242 159.102 261.038 159.102 261.038L156.94 219.84L143.524 264.942C143.524 264.942 144.826 266.678 143.524 267.977C142.228 269.277 139.635 275.785 139.635 275.785L131.657 303.764L130.98 306.14L126.819 305.359L122.291 304.506L121.459 304.351L119.979 304.07L119.026 303.89L118.702 303.832L117.134 303.536L117.608 301.427L117.855 300.316L124.604 270.271L124.759 269.578L124.923 268.845C124.923 268.845 124.057 266.678 125.354 265.374C125.733 264.976 126.01 264.492 126.161 263.963C126.312 263.434 126.332 262.876 126.22 262.338C126.177 262.293 126.138 262.244 126.103 262.193C125.95 261.982 125.845 261.74 125.794 261.485C125.678 260.941 125.779 260.18 126.655 259.302C126.902 259.04 127.109 258.742 127.269 258.42C128.585 255.923 129.248 250.632 129.248 250.632C129.248 250.632 130.419 208.731 134.25 202.33C134.402 202.051 134.615 201.81 134.874 201.627C139.199 199.028 180.732 201.627 180.732 201.627C180.732 201.627 180.79 201.927 180.882 202.5C181.381 205.715 182.808 217.532 179.871 233.718Z" fill="#2F2E41"/>
<path d="M178.51 156.739L179.723 149.416L202.056 153.184L233.741 155.456C234.429 154.693 235.344 154.174 236.35 153.975C237.356 153.776 238.399 153.907 239.324 154.35C240.249 154.794 241.007 155.524 241.484 156.434C241.961 157.343 242.133 158.383 241.973 159.398C241.813 160.414 241.33 161.35 240.597 162.068C239.863 162.786 238.918 163.247 237.901 163.383C236.885 163.519 235.852 163.322 234.956 162.822C234.061 162.322 233.35 161.545 232.93 160.608L213.497 161.918L178.51 156.739Z" fill="#FFB6B6"/>
<path d="M161.816 151.67L163.393 145.134C163.393 145.134 171.956 143.554 178.726 145.065L204.195 149.964L202.134 165.396L161.816 151.67Z" fill="#CCCCCC"/>
<path d="M102.701 205.499L116.95 174.472L127.349 152.52L136.367 157.84L108.293 208.913C108.539 209.823 108.511 210.787 108.211 211.681C107.911 212.575 107.354 213.361 106.609 213.937C105.864 214.514 104.965 214.857 104.026 214.921C103.087 214.986 102.15 214.77 101.333 214.301C100.517 213.832 99.8571 213.131 99.4381 212.286C99.019 211.441 98.8594 210.491 98.9792 209.555C99.099 208.619 99.4931 207.74 100.111 207.029C100.73 206.317 101.545 205.806 102.453 205.559C102.535 205.536 102.618 205.517 102.701 205.499Z" fill="#FFB6B6"/>
<path d="M143.795 143.115L136.879 139.934C136.879 139.934 135.652 139.507 133.008 143.178C130.363 146.848 107.614 181.481 107.614 181.481L122.06 188.027L143.795 143.115Z" fill="#CCCCCC"/>
<path d="M178.599 331.414L169.596 325.178V321.109L168.314 321.187L161.831 321.575L160.123 321.677L158.943 335.846L158.928 336.045H163.181L163.219 335.846L163.94 332.02L165.783 335.846L165.88 336.045H177.162C177.501 336.044 177.836 335.976 178.149 335.846C178.568 335.669 178.931 335.382 179.201 335.015C179.471 334.649 179.638 334.217 179.684 333.763C179.73 333.31 179.654 332.853 179.463 332.44C179.272 332.026 178.973 331.672 178.599 331.414Z" fill="#2F2E41"/>
<path d="M130.578 331.787L126.655 327.501L123.917 324.504L123.467 324.009L123.399 323.936L123.181 323.699L124.086 319.732L122.267 319.432L115.9 318.37L115.557 318.316L114.88 318.2L114.725 318.176L112.553 325.037L110.584 331.239L110.371 331.918L112.988 332.515L114.517 332.864L115.272 331.128L115.354 330.943L115.847 329.804V329.799L116.152 329.11L117.153 333.465L117.328 333.504L117.352 333.509L117.966 333.649L119.166 333.926L127.555 335.846L128.15 335.982C128.805 336.128 129.492 336.009 130.06 335.65C130.628 335.291 131.032 334.722 131.183 334.066C131.274 333.666 131.267 333.249 131.161 332.852C131.056 332.455 130.856 332.089 130.578 331.787Z" fill="#2F2E41"/>
<path d="M169.407 123.109C168.428 124.909 167.07 126.473 165.427 127.692C163.783 128.912 161.894 129.757 159.891 130.169C159.668 130.218 159.446 130.257 159.218 130.291C156.075 130.783 152.859 130.195 150.092 128.622C147.324 127.049 145.17 124.584 143.978 121.628C142.786 118.671 142.628 115.398 143.528 112.34C144.429 109.282 146.335 106.619 148.937 104.785C151.539 102.95 154.684 102.053 157.86 102.238C161.035 102.423 164.055 103.68 166.428 105.804C168.801 107.928 170.386 110.794 170.927 113.936C171.468 117.078 170.932 120.311 169.407 123.109Z" fill="#FFB6B6"/>
<path d="M163.805 103.941C159.194 100.762 155.134 100.278 151.799 101.18C151.367 100.509 150.761 99.9698 150.046 99.6188C147.444 93.0496 139.529 89.1044 132.736 91.0222C125.899 92.9524 121.182 100.543 122.468 107.545C123.265 111.885 125.99 115.644 127.086 119.918C129.208 128.192 124.032 137.67 115.935 140.337C123.602 141.88 132.04 137.186 134.791 129.849C136.127 126.285 136.207 122.394 136.377 118.591C136.422 115.966 136.743 113.353 137.334 110.796C137.628 109.648 138.043 108.536 138.572 107.476C139.725 105.148 141.639 103.287 143.995 102.202C143.784 102.857 143.732 103.552 143.841 104.23C143.951 104.909 144.221 105.552 144.627 106.106C142.829 108.363 141.851 110.804 141.851 112.267C138.116 119.109 143.457 124.986 150.283 128.729C153.006 130.23 156.149 130.78 159.218 130.291L159.504 129.069L159.891 130.17L161.182 133.86C162.673 134.582 164.15 135.374 165.614 136.236C165.058 133.617 164.608 131.004 164.298 128.448C163.869 124.97 165.364 119.792 166.442 116.643C167.11 114.702 167.454 112.664 167.457 110.611V110.521L168.507 113.901L172.329 112.267C171.618 108.179 172.329 103.538 163.805 103.941Z" fill="#2F2E41"/>
<path d="M134.44 197.725C134.943 195.732 134.943 193.646 134.44 191.653C133.575 188.618 135.306 187.317 135.306 187.317L135.738 140.482C137.566 138.649 142.463 138.62 145.203 138.762V136.7C145.203 135.94 145.504 135.212 146.04 134.675C146.576 134.138 147.303 133.836 148.06 133.836H160.73C161.488 133.836 162.214 134.138 162.75 134.675C163.286 135.212 163.587 135.94 163.587 136.7V139.172L167.303 139.23C173.774 139.714 179.436 146.119 179.436 146.119L173.811 167.802C173.811 167.802 175.542 185.582 177.705 187.75C179.869 189.919 179.003 191.22 179.003 191.22C179.003 191.22 177.705 195.99 180.301 197.725C182.897 199.459 181.166 202.495 181.166 202.495C181.166 202.495 134.44 203.362 133.142 202.061C131.844 200.76 134.44 197.725 134.44 197.725Z" fill="#CCCCCC"/>
<path d="M220.533 336.423C220.533 336.499 220.519 336.574 220.49 336.644C220.461 336.714 220.419 336.778 220.365 336.832C220.312 336.885 220.248 336.928 220.178 336.957C220.108 336.986 220.033 337 219.958 337H84.3578C84.2051 337 84.0586 336.939 83.9507 336.831C83.8427 336.723 83.7821 336.576 83.7821 336.423C83.7821 336.27 83.8427 336.123 83.9507 336.015C84.0586 335.907 84.2051 335.846 84.3578 335.846H219.958C220.033 335.846 220.108 335.861 220.178 335.889C220.248 335.918 220.312 335.961 220.365 336.014C220.419 336.068 220.461 336.132 220.49 336.202C220.519 336.272 220.533 336.347 220.533 336.423Z" fill="#CCCCCC"/>
</g>
<defs>
<clipPath id="clip0_25_2369">
<rect width="284.533" height="337" fill="white"/>
</clipPath>
</defs>
</svg>
