<svg width="370" height="288" viewBox="0 0 370 288" fill="none" xmlns="http://www.w3.org/2000/svg">
<g clip-path="url(#clip0_25_2547)">
<path d="M76.8118 189.436C60.0835 172.966 53.0183 155.783 56.917 141.054C61.9204 122.151 84.1478 109.082 117.9 105.197L118.024 106.281C84.7423 110.112 62.854 122.888 57.9718 141.333C54.1775 155.667 61.1402 172.475 77.5774 188.659L76.8118 189.436Z" fill="#F0F0F0"/>
<path d="M238.212 247.901C217.334 247.901 194.646 244.798 172.111 238.831C144.243 231.452 118.691 220.315 98.218 206.622L98.8243 205.715C119.199 219.342 144.638 230.428 172.39 237.776C197.47 244.417 222.737 247.494 245.452 246.682L245.492 247.772C243.093 247.858 240.666 247.901 238.212 247.901Z" fill="#F0F0F0"/>
<path d="M286.109 241.039L285.759 240.005C304.432 233.691 316.111 223.52 319.533 210.589C323.884 194.152 314.432 175.078 292.918 156.88C271.294 138.589 240.112 123.413 205.115 114.146L205.394 113.091C240.544 122.398 271.878 137.653 293.622 156.046C315.476 174.532 325.053 194.001 320.588 210.869C317.067 224.17 305.144 234.602 286.109 241.039Z" fill="#F0F0F0"/>
<path d="M114.652 248.357C73.6275 230.16 42.0154 206.551 25.639 181.879L26.5478 181.275C42.811 205.776 74.2572 229.245 115.094 247.36L114.652 248.357Z" fill="#F0F0F0"/>
<path d="M258.889 279.883C254.657 279.883 250.353 279.788 245.977 279.599L246.024 278.509C278.681 279.923 307.494 276.015 329.355 267.204L329.763 268.216C310.693 275.901 286.387 279.883 258.889 279.883Z" fill="#F0F0F0"/>
<path d="M235.086 106.176C228.305 103.968 221.331 101.912 214.357 100.065C174.221 89.4382 134.768 85.6651 100.26 89.1558L100.151 88.0699C134.787 84.5678 174.375 88.3499 214.636 99.01C221.63 100.862 228.624 102.924 235.424 105.138L235.086 106.176Z" fill="#F0F0F0"/>
<path d="M51.1729 191.073C34.4446 174.603 27.3793 157.42 31.278 142.69C36.2814 123.788 58.5088 110.719 92.2608 106.834L92.3855 107.918C59.1033 111.749 37.215 124.525 32.3328 142.97C28.5385 157.304 35.5012 174.112 51.9384 190.296L51.1729 191.073Z" fill="#F0F0F0"/>
<path d="M212.573 249.538C191.695 249.538 169.007 246.435 146.472 240.468C118.604 233.089 93.0525 221.952 72.5791 208.259L73.1853 207.352C93.5602 220.978 118.999 232.065 146.751 239.413C171.831 246.054 197.099 249.131 219.813 248.319L219.853 249.409C217.454 249.495 215.027 249.538 212.573 249.538Z" fill="#F0F0F0"/>
<path d="M260.47 242.676L260.12 241.642C278.793 235.328 290.472 225.156 293.894 212.226C298.245 195.789 288.793 176.714 267.279 158.516C245.655 140.226 214.473 125.049 179.476 115.783L179.755 114.728C214.905 124.035 246.239 139.29 267.983 157.683C289.837 176.169 299.414 195.638 294.949 212.505C291.428 225.806 279.505 236.239 260.47 242.676Z" fill="#F0F0F0"/>
<path d="M89.0126 249.994C47.9886 231.797 16.3764 208.188 0 183.516L0.908833 182.912C17.1721 207.413 48.6183 230.882 89.4547 248.997L89.0126 249.994Z" fill="#F0F0F0"/>
<path d="M233.25 281.52C229.018 281.52 224.715 281.425 220.339 281.236L220.385 280.146C253.042 281.56 281.855 277.651 303.716 268.84L304.124 269.853C285.054 277.538 260.748 281.52 233.25 281.52Z" fill="#F0F0F0"/>
<path d="M209.447 107.812C202.667 105.604 195.692 103.548 188.718 101.702C148.583 91.0749 109.129 87.3018 74.6216 90.7925L74.5118 89.7066C109.148 86.2045 148.737 89.9866 188.997 100.647C195.991 102.499 202.985 104.561 209.785 106.775L209.447 107.812Z" fill="#F0F0F0"/>
<path d="M18.5958 161.846C26.436 153.054 38.9425 147.696 50.2761 150.904C39.8204 158.304 32.3188 169.165 29.0987 181.565C27.8742 186.351 27.0106 191.802 23.0305 194.729C20.554 196.55 17.2726 196.985 14.227 196.57C11.1813 196.156 8.30146 194.971 5.46052 193.797L4.69604 193.863C6.89395 182.29 10.7556 170.638 18.5958 161.846Z" fill="#F2F2F2"/>
<path d="M50.2416 151.148C40.7658 153.443 32.2539 158.666 25.9148 166.074C24.5219 167.645 23.3851 169.425 22.5465 171.35C21.7901 173.251 21.5566 175.32 21.8703 177.342C22.1248 179.234 22.6041 181.139 22.3946 183.059C22.2727 184.04 21.9448 184.985 21.4324 185.83C20.92 186.676 20.2346 187.404 19.4213 187.966C17.431 189.42 15.0373 190.071 12.6742 190.627C10.0506 191.244 7.31558 191.844 5.17685 193.588C4.91771 193.799 4.60505 193.385 4.8638 193.174C8.58482 190.139 13.7562 190.529 17.8732 188.325C19.7942 187.297 21.4171 185.683 21.8116 183.469C22.1566 181.533 21.664 179.568 21.3897 177.655C21.0549 175.687 21.207 173.667 21.8327 171.771C22.5706 169.81 23.6369 167.989 24.9858 166.385C27.965 162.727 31.5008 159.56 35.4637 157.001C39.9703 154.054 44.9476 151.901 50.1803 150.633C50.5042 150.554 50.5634 151.071 50.2416 151.148Z" fill="white"/>
<path d="M27.8156 163.568C26.7172 162.336 26.0926 160.753 26.0533 159.103C26.014 157.452 26.5626 155.841 27.6012 154.558C27.8122 154.299 28.2245 154.615 28.0131 154.874C27.0438 156.067 26.5329 157.568 26.5727 159.105C26.6124 160.642 27.2001 162.114 28.2297 163.255C28.4532 163.504 28.0378 163.815 27.8156 163.568Z" fill="white"/>
<path d="M21.6149 176.4C24.9819 176.624 28.3096 175.57 30.9343 173.449C31.1942 173.239 31.5069 173.653 31.2473 173.863C28.5119 176.066 25.0467 177.155 21.5434 176.915C21.2095 176.892 21.2828 176.377 21.6149 176.4Z" fill="white"/>
<path d="M40.087 154.733C40.4126 155.298 40.8736 155.774 41.4285 156.117C41.9834 156.46 42.6148 156.66 43.2661 156.699C43.6001 156.718 43.5265 157.232 43.1946 157.213C42.4753 157.167 41.7782 156.945 41.1643 156.568C40.5504 156.19 40.0383 155.667 39.6729 155.046C39.6335 154.99 39.6168 154.921 39.6262 154.854C39.6356 154.786 39.6703 154.725 39.7234 154.682C39.7784 154.641 39.8475 154.623 39.9156 154.633C39.9837 154.642 40.0452 154.678 40.087 154.733Z" fill="white"/>
<path d="M66.3645 187.401C66.1555 187.395 65.9466 187.389 65.7351 187.387C62.926 187.322 60.1164 187.486 57.3339 187.877C57.1182 187.904 56.9001 187.934 56.6857 187.967C49.9921 188.98 43.5446 191.227 37.671 194.594C35.335 195.935 33.1045 197.453 30.9987 199.133C28.0907 201.454 25.1223 204.202 21.7177 205.391C21.3639 205.519 21.0026 205.625 20.6356 205.709L4.83614 194.791C4.81268 194.748 4.78657 194.709 4.76293 194.666L4.11218 194.259C4.21473 194.165 4.32312 194.069 4.42567 193.975C4.48493 193.92 4.54773 193.867 4.60697 193.813C4.64759 193.777 4.68841 193.741 4.72302 193.706C4.7365 193.694 4.75015 193.682 4.76115 193.674C4.79576 193.639 4.83158 193.611 4.8637 193.58C5.46809 193.044 6.07729 192.512 6.69131 191.982C6.6938 191.979 6.6938 191.979 6.69982 191.978C11.3886 187.958 16.4541 184.295 21.9146 181.516C22.0789 181.433 22.2456 181.346 22.4171 181.267C24.8853 180.029 27.4507 178.994 30.0875 178.173C31.5328 177.729 32.9996 177.357 34.4825 177.061C38.3153 176.303 42.2435 176.152 46.1231 176.615C53.8569 177.538 61.2094 180.925 66.0027 186.938C66.1253 187.092 66.2444 187.243 66.3645 187.401Z" fill="#F2F2F2"/>
<path d="M66.1904 187.577C57.2433 183.703 47.3032 182.747 37.782 184.846C35.7243 185.261 33.7449 185.998 31.9167 187.03C30.1683 188.092 28.7363 189.604 27.7694 191.407C26.8342 193.07 26.0701 194.88 24.7469 196.287C24.0588 196.997 23.2285 197.554 22.3103 197.921C21.392 198.287 20.4067 198.456 19.4188 198.415C16.9547 198.377 14.6512 197.456 12.4298 196.477C9.96346 195.39 7.41885 194.221 4.6614 194.326C4.3273 194.339 4.32718 193.819 4.66078 193.807C9.45826 193.625 13.3528 197.05 17.9666 197.769C20.1195 198.105 22.3866 197.794 24.0345 196.264C25.4755 194.925 26.265 193.06 27.1974 191.368C28.1148 189.595 29.4524 188.073 31.0932 186.936C32.863 185.815 34.8107 185.003 36.8529 184.535C41.4338 183.408 46.1633 183.008 50.8683 183.351C56.2402 183.712 61.5107 184.99 66.4519 187.128C66.7577 187.261 66.4942 187.709 66.1904 187.577Z" fill="white"/>
<path d="M40.808 183.99C40.6729 182.344 41.127 180.704 42.0893 179.363C43.0515 178.021 44.4592 177.065 46.0609 176.666C46.3853 176.586 46.5243 177.087 46.1995 177.167C44.7073 177.536 43.3961 178.426 42.5027 179.677C41.6092 180.928 41.1923 182.457 41.3272 183.989C41.3561 184.322 40.8368 184.32 40.808 183.99Z" fill="white"/>
<path d="M28.1326 190.501C30.6864 192.707 33.9777 193.87 37.3503 193.757C37.6844 193.745 37.6846 194.264 37.3509 194.276C33.8411 194.387 30.4184 193.17 27.766 190.869C27.5133 190.649 27.8813 190.283 28.1326 190.501Z" fill="white"/>
<path d="M55.925 184.324C55.8446 184.972 55.9263 185.629 56.1627 186.237C56.3991 186.845 56.7829 187.385 57.2795 187.808C57.5349 188.025 57.1666 188.391 56.9129 188.176C56.3664 187.706 55.9433 187.109 55.6806 186.438C55.4179 185.766 55.3235 185.041 55.4058 184.325C55.4079 184.256 55.4359 184.192 55.484 184.143C55.5322 184.095 55.5969 184.067 55.6651 184.065C55.7338 184.065 55.7997 184.092 55.8483 184.141C55.897 184.189 55.9245 184.255 55.925 184.324Z" fill="white"/>
<path d="M325.803 233.917C321.373 223.001 311.395 213.751 299.643 212.962C307.003 223.446 310.419 236.197 309.285 248.958C308.829 253.878 307.811 259.302 310.576 263.396C312.297 265.944 315.241 267.457 318.249 268.09C321.257 268.723 324.367 268.575 327.437 268.425L328.135 268.744C329.954 257.105 330.233 244.833 325.803 233.917Z" fill="#F2F2F2"/>
<path d="M299.593 213.204C307.747 218.55 314.008 226.33 317.489 235.439C318.273 237.386 318.745 239.445 318.889 241.54C318.962 243.585 318.487 245.612 317.512 247.411C316.636 249.107 315.545 250.74 315.097 252.619C314.882 253.584 314.873 254.584 315.072 255.553C315.27 256.521 315.671 257.437 316.248 258.24C317.634 260.278 319.67 261.696 321.708 263.014C323.972 264.478 326.346 265.962 327.775 268.323C327.948 268.609 328.382 268.324 328.209 268.038C325.724 263.93 320.722 262.558 317.585 259.099C316.122 257.484 315.136 255.419 315.508 253.201C315.834 251.262 316.958 249.576 317.859 247.867C318.836 246.126 319.371 244.172 319.419 242.177C319.383 240.081 318.991 238.008 318.259 236.044C316.683 231.597 314.417 227.426 311.545 223.683C308.291 219.393 304.326 215.692 299.824 212.739C299.545 212.556 299.316 213.022 299.593 213.204Z" fill="white"/>
<path d="M316.541 232.44C317.99 231.648 319.11 230.368 319.701 228.826C320.293 227.285 320.318 225.583 319.771 224.026C319.659 223.711 319.165 223.87 319.276 224.185C319.788 225.635 319.765 227.219 319.211 228.654C318.658 230.088 317.609 231.277 316.256 232.006C315.962 232.165 316.249 232.598 316.541 232.44Z" fill="white"/>
<path d="M318.069 246.61C314.822 245.689 312.042 243.578 310.283 240.697C310.109 240.412 309.675 240.697 309.849 240.982C311.685 243.976 314.583 246.167 317.963 247.118C318.285 247.209 318.389 246.7 318.069 246.61Z" fill="white"/>
<path d="M307.953 219.993C307.456 220.416 306.862 220.709 306.224 220.846C305.586 220.983 304.924 220.959 304.298 220.776C303.977 220.682 303.873 221.191 304.192 221.285C304.885 221.483 305.616 221.509 306.321 221.359C307.027 221.21 307.684 220.89 308.237 220.427C308.293 220.388 308.332 220.329 308.346 220.262C308.36 220.195 308.348 220.126 308.312 220.068C308.274 220.01 308.215 219.97 308.148 219.956C308.08 219.943 308.01 219.956 307.953 219.993Z" fill="white"/>
<path d="M272.226 241.928C272.424 241.992 272.623 242.057 272.823 242.126C275.49 243.01 278.082 244.108 280.571 245.412C280.765 245.509 280.96 245.611 281.151 245.714C287.115 248.918 292.432 253.202 296.833 258.347C298.582 260.396 300.173 262.575 301.591 264.866C303.55 268.029 305.423 271.615 308.229 273.88C308.52 274.119 308.824 274.34 309.142 274.542L327.691 269.571C327.728 269.538 327.765 269.51 327.802 269.478L328.552 269.313C328.487 269.19 328.417 269.063 328.352 268.94C328.315 268.868 328.273 268.798 328.236 268.726C328.21 268.679 328.183 268.631 328.162 268.587C328.154 268.571 328.145 268.556 328.137 268.544C328.116 268.5 328.092 268.461 328.072 268.421C327.683 267.713 327.288 267.007 326.888 266.302C326.887 266.298 326.887 266.298 326.881 266.295C323.816 260.933 320.276 255.779 316.067 251.327C315.94 251.194 315.813 251.055 315.678 250.924C313.769 248.927 311.701 247.091 309.493 245.431C308.281 244.527 307.025 243.684 305.728 242.907C302.373 240.904 298.723 239.442 294.914 238.573C287.32 236.843 279.257 237.562 272.722 241.613C272.555 241.717 272.392 241.82 272.226 241.928Z" fill="#F2F2F2"/>
<path d="M272.33 242.152C282.059 241.511 291.742 243.952 300.004 249.129C301.803 250.212 303.419 251.571 304.794 253.158C306.084 254.746 306.925 256.651 307.229 258.675C307.551 260.556 307.663 262.517 308.436 264.287C308.845 265.187 309.44 265.99 310.182 266.644C310.924 267.298 311.795 267.788 312.739 268.082C315.073 268.875 317.552 268.781 319.973 268.606C322.661 268.411 325.45 268.166 328.012 269.192C328.323 269.316 328.497 268.827 328.187 268.703C323.73 266.919 318.911 268.835 314.324 267.962C312.183 267.555 310.153 266.499 309.115 264.504C308.207 262.759 308.091 260.737 307.781 258.83C307.513 256.851 306.765 254.969 305.601 253.347C304.311 251.695 302.75 250.276 300.984 249.149C297.048 246.547 292.728 244.581 288.181 243.322C283.001 241.857 277.607 241.288 272.235 241.642C271.902 241.664 272 242.174 272.33 242.152Z" fill="white"/>
<path d="M297.442 247.306C298.122 245.801 298.245 244.104 297.79 242.517C297.334 240.93 296.33 239.557 294.956 238.642C294.677 238.458 294.378 238.883 294.657 239.067C295.938 239.916 296.874 241.196 297.295 242.674C297.716 244.153 297.595 245.733 296.953 247.13C296.814 247.434 297.303 247.608 297.442 247.306Z" fill="white"/>
<path d="M307.192 257.699C304.045 258.919 300.555 258.907 297.416 257.667C297.105 257.544 296.931 258.033 297.241 258.156C300.509 259.44 304.142 259.445 307.413 258.169C307.725 258.047 307.502 257.578 307.192 257.699Z" fill="white"/>
<path d="M283.092 242.539C282.95 243.176 282.652 243.768 282.225 244.261C281.798 244.754 281.255 245.134 280.645 245.365C280.332 245.483 280.556 245.952 280.867 245.835C281.54 245.576 282.139 245.156 282.612 244.612C283.085 244.068 283.417 243.416 283.581 242.714C283.601 242.649 283.597 242.579 283.568 242.517C283.539 242.455 283.487 242.407 283.424 242.382C283.359 242.359 283.288 242.363 283.226 242.392C283.163 242.422 283.115 242.474 283.092 242.539Z" fill="white"/>
<path d="M239.865 271.087C242.275 271.087 244.229 269.133 244.229 266.722C244.229 264.312 242.275 262.358 239.865 262.358C237.454 262.358 235.501 264.312 235.501 266.722C235.501 269.133 237.454 271.087 239.865 271.087Z" fill="#FD6584"/>
<path d="M255.323 196.746C257.733 196.746 259.687 194.791 259.687 192.381C259.687 189.97 257.733 188.016 255.323 188.016C252.913 188.016 250.959 189.97 250.959 192.381C250.959 194.791 252.913 196.746 255.323 196.746Z" fill="#E6E6E6"/>
<path d="M174.118 75.6756C176.528 75.6756 178.482 73.7214 178.482 71.3108C178.482 68.9002 176.528 66.946 174.118 66.946C171.708 66.946 169.754 68.9002 169.754 71.3108C169.754 73.7214 171.708 75.6756 174.118 75.6756Z" fill="#E6E6E6"/>
<path d="M82.6665 238.742C82.6665 239.853 82.7031 240.964 82.7808 242.066C82.8631 243.383 83.0048 244.691 83.1968 245.989C83.8421 250.362 85.0754 254.627 86.8632 258.669C86.9546 258.87 87.0461 259.071 87.1375 259.272L87.2747 259.574C87.3204 259.674 87.3707 259.775 87.4164 259.871C87.4804 260.004 87.5398 260.132 87.6038 260.26C87.6815 260.42 87.7593 260.58 87.8415 260.74C87.8507 260.758 87.8598 260.781 87.8736 260.804C87.9421 260.941 88.0061 261.074 88.0793 261.211C88.0927 261.241 88.108 261.27 88.125 261.298C88.2027 261.453 88.285 261.613 88.3673 261.769C88.4587 261.933 88.5456 262.102 88.637 262.267C88.8565 262.674 89.085 263.076 89.3182 263.479C89.3868 263.597 89.4553 263.716 89.5285 263.835C89.5925 263.945 89.6565 264.055 89.7251 264.164C89.7708 264.238 89.8165 264.315 89.8622 264.388C89.9354 264.512 90.0085 264.631 90.0862 264.754C90.2554 265.024 90.4291 265.294 90.5982 265.564H90.6028C90.6805 265.687 90.7628 265.811 90.8451 265.929V265.934C91.0874 266.3 91.3388 266.666 91.5903 267.027L91.592 267.027L91.5935 267.028L91.5945 267.03L91.5949 267.031C91.796 267.324 92.0063 267.607 92.212 267.891V267.895C92.3492 268.074 92.4817 268.257 92.6189 268.435C92.7286 268.581 92.8429 268.732 92.9572 268.879C92.98 268.91 93.0075 268.938 93.0303 268.97V268.975C93.0623 269.016 93.0943 269.052 93.1263 269.093C93.6109 269.715 94.1108 270.323 94.6258 270.918L94.7081 271.014C94.7356 271.046 94.7676 271.078 94.795 271.114C94.8407 271.165 94.8818 271.215 94.9276 271.265C94.9687 271.316 95.0144 271.366 95.0601 271.416C97.7451 274.441 100.789 277.127 104.126 279.413C104.569 279.72 105.022 280.017 105.474 280.305C105.589 280.378 105.703 280.451 105.817 280.52C105.849 280.543 105.886 280.565 105.918 280.588C105.982 280.625 106.041 280.661 106.105 280.703C106.165 280.739 106.224 280.776 106.288 280.812C106.53 280.963 106.777 281.109 107.024 281.256C107.083 281.292 107.147 281.329 107.211 281.366C107.271 281.398 107.335 281.434 107.399 281.471C107.399 281.475 107.399 281.475 107.403 281.475H107.408V281.48H107.413C107.719 281.658 108.03 281.832 108.345 282.001C108.514 282.093 108.688 282.189 108.862 282.275C109.255 282.49 109.653 282.696 110.05 282.893C110.192 282.961 110.338 283.03 110.48 283.103C110.599 283.158 110.718 283.217 110.837 283.272C110.873 283.29 110.905 283.304 110.937 283.322C111.038 283.368 111.134 283.414 111.235 283.46C111.344 283.51 111.454 283.56 111.559 283.611C111.683 283.665 111.801 283.72 111.925 283.771C112.382 283.976 112.844 284.173 113.305 284.36C114.96 285.039 116.651 285.625 118.371 286.116C118.449 286.139 118.531 286.162 118.613 286.185C119.349 286.391 120.09 286.578 120.835 286.747C122.138 287.049 123.453 287.296 124.78 287.488H124.789C124.949 287.511 125.105 287.534 125.265 287.556C125.279 287.556 125.292 287.561 125.311 287.561C125.311 287.566 125.311 287.566 125.315 287.561C125.489 287.584 125.667 287.607 125.841 287.63C125.853 287.633 125.865 287.635 125.877 287.634C126.042 287.657 126.211 287.675 126.376 287.694C126.554 287.712 126.732 287.73 126.911 287.749C127.048 287.762 127.185 287.776 127.322 287.79C127.334 287.794 127.346 287.795 127.359 287.794C127.482 287.803 127.605 287.817 127.729 287.826H127.747C127.852 287.835 127.962 287.845 128.067 287.854C129.343 287.954 130.623 288 131.921 288C133.325 288 134.719 287.945 136.095 287.826H136.109C136.406 287.799 136.698 287.771 136.991 287.744C137.069 287.735 137.142 287.73 137.22 287.721C137.233 287.721 137.252 287.717 137.265 287.717C137.288 287.712 137.311 287.712 137.338 287.707C137.351 287.708 137.363 287.706 137.375 287.703C137.476 287.694 137.576 287.68 137.681 287.671L138.024 287.63C138.138 287.616 138.253 287.598 138.367 287.584C138.395 287.579 138.417 287.579 138.445 287.575C138.527 287.566 138.609 287.552 138.692 287.538C138.733 287.534 138.774 287.529 138.811 287.524C138.893 287.511 138.971 287.502 139.053 287.488H139.057C141.566 287.127 144.042 286.569 146.463 285.819C146.591 285.778 146.719 285.741 146.847 285.7C146.852 285.7 146.857 285.696 146.861 285.696C146.898 285.682 146.939 285.673 146.975 285.659C147.318 285.549 147.657 285.435 147.995 285.316C148.461 285.161 148.923 284.991 149.385 284.818C149.508 284.767 149.632 284.722 149.755 284.671C150.006 284.575 150.253 284.475 150.5 284.374C150.921 284.205 151.341 284.027 151.757 283.844C152.146 283.67 152.53 283.496 152.914 283.313C152.923 283.309 152.937 283.309 152.946 283.3C153.033 283.259 153.12 283.217 153.202 283.176H153.207C155.312 282.166 157.342 281.006 159.282 279.706C159.904 279.29 160.517 278.86 161.12 278.416C161.605 278.055 162.08 277.689 162.555 277.314C164.901 275.448 167.072 273.373 169.043 271.114V271.11C169.184 270.954 169.317 270.794 169.454 270.634C169.477 270.611 169.495 270.589 169.514 270.57C169.6 270.465 169.683 270.365 169.77 270.264V270.259C169.884 270.127 169.998 269.99 170.108 269.852C170.135 269.82 170.158 269.793 170.181 269.766V269.761C170.272 269.651 170.359 269.542 170.451 269.427C170.496 269.372 170.538 269.317 170.583 269.263V269.258C170.853 268.92 171.114 268.581 171.374 268.234C171.443 268.142 171.511 268.046 171.584 267.95C171.914 267.507 172.234 267.054 172.544 266.602V266.597C172.663 266.428 172.778 266.254 172.896 266.085C173.011 265.911 173.125 265.737 173.239 265.564C173.354 265.381 173.473 265.202 173.587 265.019L173.601 264.992C173.715 264.818 173.829 264.635 173.939 264.457C174.026 264.311 174.113 264.169 174.199 264.027C174.254 263.931 174.314 263.835 174.369 263.735C174.39 263.704 174.41 263.672 174.428 263.639C174.556 263.415 174.684 263.191 174.812 262.967C174.963 262.706 175.109 262.441 175.255 262.176C175.31 262.066 175.37 261.956 175.429 261.846C175.452 261.81 175.47 261.773 175.489 261.737C175.557 261.609 175.626 261.476 175.69 261.343C175.758 261.215 175.827 261.083 175.895 260.95C175.959 260.822 176.028 260.69 176.092 260.557C176.142 260.456 176.188 260.356 176.238 260.255C176.242 260.247 176.246 260.239 176.252 260.232C176.275 260.182 176.298 260.136 176.316 260.091C176.322 260.084 176.326 260.076 176.33 260.068C176.38 259.967 176.426 259.862 176.476 259.761C176.54 259.629 176.599 259.492 176.663 259.359C176.705 259.268 176.75 259.172 176.792 259.075C176.851 258.943 176.915 258.81 176.97 258.673C177.034 258.536 177.093 258.399 177.153 258.257C177.17 258.223 177.185 258.188 177.198 258.152C177.23 258.088 177.253 258.024 177.281 257.96C177.354 257.791 177.427 257.617 177.496 257.448C177.578 257.256 177.656 257.059 177.729 256.867C177.802 256.689 177.87 256.506 177.939 256.323L177.966 256.259C179.032 253.453 179.84 250.556 180.38 247.604V247.599C180.685 245.913 180.903 244.213 181.034 242.505C181.039 242.409 181.048 242.318 181.052 242.226C181.135 241.07 181.171 239.908 181.171 238.742C181.171 238.226 181.162 237.714 181.148 237.201C180.829 226.491 177.011 216.181 170.277 207.847C170.131 207.664 169.984 207.481 169.833 207.298C169.683 207.116 169.527 206.937 169.376 206.759C164.365 200.889 158.044 196.279 150.925 193.3C143.805 190.322 136.085 189.058 128.387 189.611C120.689 190.164 113.229 192.519 106.608 196.484C99.9871 200.45 94.3904 205.916 90.2691 212.442C90.0451 212.799 89.8211 213.16 89.6062 213.521C89.3868 213.887 89.1765 214.253 88.9662 214.623C84.8246 221.986 82.6546 230.294 82.6665 238.742Z" fill="#F2F2F2"/>
<path d="M129.963 206.523C138.062 208.601 146.362 209.799 154.718 210.096C155.982 210.165 157.248 210.156 158.511 210.07C161.285 209.837 163.662 208.965 166.309 208.488C167.581 208.26 168.998 208.093 170.279 207.846C169.983 207.478 169.682 207.116 169.375 206.757C166.613 206.991 163.808 207.755 161.013 208.11C156.261 208.714 150.936 208.04 147.334 206.377C145.586 205.569 144.247 204.562 142.506 203.751C142.269 203.63 142.012 203.551 141.748 203.519C141.246 203.504 140.75 203.633 140.318 203.89C137.397 205.366 133.154 206.564 129.217 205.905C128.923 206.135 129.481 206.396 129.963 206.523Z" fill="white"/>
<path d="M112.539 211.715C112.503 211.708 112.467 211.703 112.431 211.697C112.582 211.603 112.725 211.496 112.856 211.376L112.539 211.715Z" fill="white"/>
<path d="M88.9672 214.625C90.6117 214.757 92.2649 214.855 93.9267 214.919C95.1902 214.987 96.4568 214.978 97.7194 214.893C100.494 214.658 102.87 213.788 105.517 213.311C107.943 212.875 110.891 212.665 112.431 211.697C108.45 211.008 104.326 212.41 100.221 212.933C96.901 213.341 93.5353 213.175 90.2715 212.441C89.8171 213.156 89.3823 213.884 88.9672 214.625Z" fill="white"/>
<path d="M108.862 282.275C109.255 282.49 109.653 282.696 110.05 282.893C110.192 282.961 110.338 283.03 110.48 283.103C110.599 283.158 110.718 283.217 110.837 283.272C110.873 283.29 110.905 283.304 110.937 283.322C111.038 283.368 111.134 283.414 111.234 283.46C111.344 283.51 111.454 283.56 111.559 283.611C111.683 283.665 111.801 283.72 111.925 283.771C112.382 283.976 112.844 284.173 113.305 284.36C114.96 285.039 116.651 285.625 118.371 286.116C118.449 286.139 118.531 286.162 118.613 286.185C119.349 286.391 120.09 286.578 120.835 286.747C122.138 287.049 123.453 287.296 124.78 287.488H124.789C124.949 287.511 125.105 287.534 125.265 287.556C125.279 287.556 125.292 287.561 125.311 287.561C125.311 287.566 125.311 287.566 125.315 287.561C125.489 287.584 125.667 287.607 125.841 287.63C125.853 287.633 125.865 287.635 125.877 287.634C126.042 287.657 126.211 287.675 126.376 287.694C126.554 287.712 126.732 287.73 126.911 287.749C127.048 287.762 127.185 287.776 127.322 287.79C127.334 287.794 127.346 287.795 127.359 287.794C127.482 287.803 127.605 287.817 127.729 287.826H127.747C127.852 287.835 127.962 287.845 128.067 287.854C129.343 287.954 130.623 288 131.921 288C133.325 288 134.719 287.945 136.095 287.826H136.109C136.406 287.799 136.698 287.771 136.991 287.744C137.069 287.735 137.142 287.73 137.22 287.721C137.233 287.721 137.252 287.717 137.265 287.717C137.288 287.712 137.311 287.712 137.338 287.707C137.351 287.708 137.363 287.706 137.375 287.703C137.476 287.694 137.576 287.68 137.681 287.671L138.024 287.63C138.138 287.616 138.253 287.598 138.367 287.584C138.394 287.579 138.417 287.579 138.445 287.575C138.527 287.566 138.609 287.552 138.692 287.538C138.733 287.534 138.774 287.529 138.811 287.524C138.893 287.511 138.971 287.502 139.053 287.488H139.057C141.566 287.127 144.042 286.569 146.463 285.819C146.591 285.778 146.719 285.741 146.847 285.7C146.257 282.947 145.042 280.366 143.296 278.157C141.549 275.949 139.319 274.171 136.776 272.962C137.405 272.362 137.84 271.588 138.024 270.739C138.143 270.192 138.152 269.627 138.052 269.076C137.951 268.525 137.743 268 137.439 267.53C136.846 266.619 135.915 265.98 134.851 265.756L128.076 264.338C126.986 264.126 125.855 264.352 124.931 264.969C124.006 265.585 123.362 266.542 123.139 267.63C123.07 267.964 123.039 268.305 123.048 268.645C116.524 272.989 111.829 277.493 108.862 282.275Z" fill="#CCCCCC"/>
<path d="M128.867 261.662C136.662 261.662 142.982 255.341 142.982 247.544C142.982 239.748 136.662 233.427 128.867 233.427C121.071 233.427 114.752 239.748 114.752 247.544C114.752 255.341 121.071 261.662 128.867 261.662Z" fill="#FFB8B8"/>
<path d="M120.069 259.716C118.563 258.688 117.026 256.711 116 255.23C114.64 253.284 113.705 251.073 113.254 248.741C112.803 246.41 112.847 244.009 113.383 241.696C113.554 240.771 113.974 239.91 114.598 239.206C115.263 238.548 116.349 238.236 117.16 238.701C116.939 238.108 116.841 237.476 116.873 236.844C116.906 236.212 117.067 235.593 117.348 235.025C117.918 233.893 118.745 232.908 119.762 232.15C121.706 230.653 124.02 229.709 126.458 229.421C128.895 229.132 131.365 229.509 133.606 230.511C134.488 230.92 133.04 227.764 133.962 228.068C134.879 228.423 135.898 228.405 136.802 228.018C137.67 227.581 140.547 230.178 140.214 229.265C140.873 229.564 141.445 230.025 141.878 230.604C142.31 231.184 142.589 231.864 142.688 232.581C142.787 233.298 142.704 234.028 142.445 234.703C142.186 235.379 141.76 235.978 141.207 236.445C140.479 237.06 139.569 237.414 138.771 237.936C137.374 238.919 136.385 240.38 135.991 242.043C135.597 243.706 135.825 245.456 136.632 246.962C135.793 246.423 134.872 246.022 133.906 245.777C133.421 245.658 132.914 245.658 132.429 245.774C131.943 245.891 131.493 246.122 131.115 246.448C130.799 246.81 130.56 247.232 130.413 247.69C130.267 248.147 130.215 248.629 130.261 249.107C130.293 250.065 130.521 251.009 130.546 251.967C130.621 254.779 132.127 260.124 129.947 261.619C128.227 262.798 122.124 261.12 120.069 259.716Z" fill="#2F2E41"/>
<path d="M138.572 176.883C138.275 176.883 137.981 176.823 137.706 176.708C137.297 176.544 136.947 176.26 136.702 175.893C136.457 175.526 136.328 175.094 136.333 174.653V172.418C136.333 171.95 136.146 171.5 135.815 171.169C135.483 170.837 135.034 170.651 134.566 170.65C133.976 170.65 133.41 170.415 132.993 169.998C132.576 169.581 132.341 169.015 132.341 168.425V137.811C132.341 137.221 132.576 136.656 132.993 136.238C133.41 135.821 133.976 135.587 134.565 135.586H235.976C236.566 135.587 237.131 135.821 237.548 136.238C237.966 136.656 238.2 137.221 238.201 137.811V168.425C238.2 169.015 237.966 169.581 237.548 169.998C237.131 170.415 236.566 170.65 235.976 170.65H146.438C146.206 170.65 145.976 170.695 145.762 170.784C145.547 170.873 145.352 171.004 145.188 171.168L140.131 176.226C139.928 176.433 139.685 176.598 139.418 176.711C139.15 176.824 138.862 176.883 138.572 176.883Z" fill="white"/>
<path d="M138.572 177.341C138.215 177.34 137.861 177.269 137.531 177.131C137.038 176.932 136.616 176.59 136.321 176.148C136.025 175.706 135.87 175.185 135.876 174.653V172.419C135.876 172.071 135.737 171.738 135.492 171.492C135.246 171.246 134.913 171.108 134.566 171.108C133.854 171.107 133.173 170.824 132.67 170.321C132.167 169.818 131.884 169.136 131.884 168.425V137.811C131.884 137.1 132.167 136.418 132.67 135.915C133.173 135.412 133.854 135.13 134.565 135.129H235.976C236.687 135.13 237.369 135.412 237.872 135.915C238.374 136.418 238.657 137.1 238.658 137.811V168.425C238.657 169.136 238.374 169.818 237.872 170.321C237.369 170.824 236.687 171.107 235.976 171.108H146.438C146.266 171.107 146.096 171.141 145.936 171.207C145.777 171.273 145.633 171.37 145.512 171.492L140.454 176.549C140.209 176.799 139.916 176.998 139.592 177.134C139.269 177.27 138.923 177.34 138.572 177.341ZM134.565 136.043C134.097 136.044 133.647 136.23 133.316 136.562C132.985 136.893 132.798 137.343 132.798 137.811V168.425C132.798 168.894 132.985 169.343 133.316 169.675C133.648 170.006 134.097 170.193 134.566 170.193C135.155 170.194 135.721 170.429 136.138 170.846C136.555 171.263 136.79 171.829 136.79 172.419V174.653C136.79 175.003 136.894 175.344 137.088 175.635C137.283 175.926 137.559 176.152 137.882 176.286C138.205 176.42 138.56 176.455 138.903 176.387C139.246 176.318 139.561 176.15 139.808 175.903L144.865 170.845C145.071 170.638 145.316 170.473 145.586 170.362C145.856 170.25 146.146 170.192 146.438 170.193H235.976C236.445 170.193 236.894 170.006 237.225 169.675C237.557 169.343 237.743 168.894 237.744 168.425V137.811C237.743 137.342 237.557 136.893 237.225 136.562C236.894 136.23 236.445 136.044 235.976 136.043L134.565 136.043Z" fill="#3F3D56"/>
<path d="M227.262 149.446H145.028C144.714 149.446 144.413 149.321 144.191 149.099C143.968 148.877 143.844 148.575 143.844 148.261C143.844 147.947 143.968 147.646 144.191 147.424C144.413 147.201 144.714 147.077 145.028 147.077H227.262C227.576 147.077 227.877 147.201 228.099 147.424C228.321 147.646 228.446 147.947 228.446 148.261C228.446 148.575 228.321 148.877 228.099 149.099C227.877 149.321 227.576 149.446 227.262 149.446Z" fill="#FF0000"/>
<path d="M227.11 154.479H145.028C144.714 154.479 144.413 154.354 144.191 154.132C143.968 153.909 143.844 153.608 143.844 153.294C143.844 152.98 143.968 152.679 144.191 152.456C144.413 152.234 144.714 152.109 145.028 152.109H227.11C227.425 152.109 227.726 152.234 227.948 152.456C228.17 152.679 228.295 152.98 228.295 153.294C228.295 153.608 228.17 153.909 227.948 154.132C227.726 154.354 227.425 154.479 227.11 154.479Z" fill="#E6E6E6"/>
<path d="M227.029 159.511H145.028C144.714 159.511 144.413 159.386 144.191 159.164C143.968 158.942 143.844 158.641 143.844 158.326C143.844 158.012 143.968 157.711 144.191 157.489C144.413 157.267 144.714 157.142 145.028 157.142H227.029C227.343 157.142 227.644 157.267 227.866 157.489C228.088 157.711 228.213 158.012 228.213 158.326C228.213 158.641 228.088 158.942 227.866 159.164C227.644 159.386 227.343 159.511 227.029 159.511Z" fill="#E6E6E6"/>
<path d="M356.762 130.835C356.762 131.946 356.726 133.057 356.648 134.159C356.566 135.476 356.424 136.784 356.232 138.082C355.587 142.455 354.353 146.72 352.566 150.762C352.474 150.963 352.383 151.164 352.291 151.365L352.154 151.667C352.108 151.767 352.058 151.868 352.012 151.964C351.948 152.097 351.889 152.225 351.825 152.353C351.747 152.513 351.67 152.673 351.587 152.833C351.578 152.851 351.569 152.874 351.555 152.897C351.487 153.034 351.423 153.167 351.35 153.304C351.336 153.334 351.321 153.363 351.304 153.391C351.226 153.546 351.144 153.706 351.061 153.862C350.97 154.026 350.883 154.195 350.792 154.36C350.572 154.767 350.344 155.169 350.111 155.572C350.042 155.691 349.973 155.809 349.9 155.928C349.836 156.038 349.772 156.148 349.704 156.257C349.658 156.331 349.612 156.408 349.567 156.482C349.493 156.605 349.42 156.724 349.343 156.847C349.173 157.117 349 157.387 348.831 157.657H348.826C348.748 157.78 348.666 157.904 348.584 158.022V158.027C348.341 158.393 348.09 158.759 347.838 159.12C347.838 159.12 347.837 159.12 347.837 159.12C347.836 159.12 347.836 159.121 347.835 159.121C347.835 159.121 347.834 159.122 347.834 159.123C347.834 159.123 347.834 159.124 347.834 159.124C347.633 159.417 347.422 159.7 347.217 159.984V159.988C347.08 160.167 346.947 160.35 346.81 160.528C346.7 160.674 346.586 160.825 346.472 160.972C346.449 161.004 346.421 161.031 346.398 161.063V161.068C346.366 161.109 346.334 161.145 346.302 161.186C345.818 161.808 345.318 162.416 344.803 163.011L344.721 163.107C344.693 163.139 344.661 163.171 344.634 163.207C344.588 163.258 344.547 163.308 344.501 163.358C344.46 163.409 344.414 163.459 344.369 163.509C341.684 166.534 338.639 169.22 335.303 171.506C334.86 171.813 334.407 172.11 333.954 172.398C333.84 172.471 333.726 172.544 333.612 172.613C333.58 172.636 333.543 172.658 333.511 172.681C333.447 172.718 333.388 172.754 333.324 172.796C333.264 172.832 333.205 172.869 333.141 172.905C332.898 173.056 332.652 173.203 332.405 173.349C332.345 173.385 332.281 173.422 332.217 173.459C332.158 173.491 332.094 173.527 332.03 173.564C332.03 173.568 332.03 173.568 332.025 173.568H332.021V173.573H332.016C331.71 173.751 331.399 173.925 331.083 174.094C330.914 174.186 330.741 174.282 330.567 174.368C330.174 174.583 329.776 174.789 329.378 174.986C329.237 175.054 329.09 175.123 328.949 175.196C328.83 175.251 328.711 175.31 328.592 175.365C328.555 175.384 328.523 175.397 328.491 175.416C328.391 175.461 328.295 175.507 328.194 175.553C328.085 175.603 327.975 175.653 327.87 175.704C327.746 175.758 327.627 175.813 327.504 175.864C327.047 176.069 326.585 176.266 326.123 176.453C324.469 177.132 322.778 177.718 321.058 178.209C320.98 178.232 320.898 178.255 320.816 178.278C320.08 178.484 319.339 178.671 318.594 178.84C317.291 179.142 315.976 179.389 314.649 179.581H314.639C314.479 179.604 314.324 179.627 314.164 179.65C314.15 179.65 314.136 179.654 314.118 179.654C314.118 179.659 314.118 179.659 314.114 179.654C313.94 179.677 313.762 179.7 313.588 179.723C313.576 179.726 313.564 179.728 313.551 179.727C313.387 179.75 313.218 179.768 313.053 179.787C312.875 179.805 312.696 179.823 312.518 179.842C312.381 179.855 312.244 179.869 312.107 179.883C312.095 179.887 312.083 179.888 312.07 179.887C311.947 179.896 311.823 179.91 311.7 179.919H311.682C311.576 179.928 311.467 179.938 311.362 179.947C310.086 180.047 308.806 180.093 307.508 180.093C306.104 180.093 304.71 180.038 303.334 179.919H303.32C303.023 179.892 302.73 179.864 302.438 179.837C302.36 179.828 302.287 179.823 302.209 179.814C302.195 179.814 302.177 179.81 302.163 179.81C302.141 179.805 302.118 179.805 302.09 179.8C302.078 179.801 302.066 179.799 302.054 179.796C301.953 179.787 301.853 179.773 301.747 179.764L301.405 179.723C301.29 179.709 301.176 179.691 301.062 179.677C301.034 179.672 301.011 179.672 300.984 179.668C300.902 179.659 300.819 179.645 300.737 179.631C300.696 179.627 300.655 179.622 300.618 179.618C300.536 179.604 300.458 179.595 300.376 179.581H300.371C297.863 179.22 295.386 178.662 292.965 177.912C292.837 177.871 292.709 177.834 292.581 177.793C292.577 177.793 292.572 177.789 292.568 177.789C292.531 177.775 292.49 177.766 292.453 177.752C292.11 177.642 291.772 177.528 291.434 177.409C290.968 177.254 290.506 177.084 290.044 176.911C289.921 176.86 289.797 176.815 289.674 176.764C289.422 176.668 289.175 176.568 288.929 176.467C288.508 176.298 288.087 176.12 287.671 175.937C287.283 175.763 286.899 175.589 286.515 175.406C286.506 175.402 286.492 175.402 286.483 175.393C286.396 175.352 286.309 175.31 286.227 175.269H286.222C284.117 174.259 282.086 173.099 280.147 171.799C279.525 171.383 278.912 170.953 278.309 170.509C277.824 170.148 277.349 169.782 276.873 169.408C274.528 167.541 272.356 165.466 270.386 163.207V163.203C270.244 163.047 270.112 162.887 269.975 162.727C269.952 162.704 269.934 162.682 269.915 162.663C269.828 162.558 269.746 162.458 269.659 162.357V162.352C269.545 162.22 269.431 162.083 269.321 161.945C269.294 161.913 269.271 161.886 269.248 161.859V161.854C269.156 161.744 269.07 161.635 268.978 161.52C268.932 161.465 268.891 161.411 268.845 161.356V161.351C268.576 161.013 268.315 160.674 268.055 160.327C267.986 160.235 267.917 160.139 267.844 160.043C267.515 159.6 267.195 159.147 266.884 158.695V158.69C266.765 158.521 266.651 158.347 266.532 158.178C266.418 158.004 266.304 157.83 266.189 157.657C266.075 157.474 265.956 157.295 265.842 157.113L265.828 157.085C265.714 156.911 265.6 156.728 265.49 156.55C265.403 156.404 265.316 156.262 265.229 156.12C265.174 156.024 265.115 155.928 265.06 155.828C265.039 155.797 265.019 155.765 265.001 155.732C264.873 155.508 264.745 155.284 264.617 155.06C264.466 154.799 264.32 154.534 264.173 154.269C264.118 154.159 264.059 154.049 264 153.939C263.977 153.903 263.958 153.866 263.94 153.83C263.872 153.702 263.803 153.569 263.739 153.436C263.67 153.308 263.602 153.176 263.533 153.043C263.469 152.915 263.401 152.783 263.337 152.65C263.286 152.549 263.241 152.449 263.19 152.348C263.187 152.34 263.182 152.332 263.177 152.325C263.154 152.275 263.131 152.229 263.113 152.184C263.107 152.177 263.103 152.169 263.099 152.161C263.049 152.06 263.003 151.955 262.953 151.854C262.889 151.722 262.829 151.585 262.765 151.452C262.724 151.361 262.678 151.265 262.637 151.169C262.578 151.036 262.514 150.903 262.459 150.766C262.395 150.629 262.336 150.492 262.276 150.35C262.259 150.316 262.244 150.281 262.23 150.245C262.198 150.181 262.176 150.117 262.148 150.053C262.075 149.884 262.002 149.71 261.933 149.541C261.851 149.349 261.773 149.152 261.7 148.96C261.627 148.782 261.558 148.599 261.49 148.416L261.462 148.352C260.397 145.546 259.589 142.649 259.049 139.697V139.692C258.744 138.006 258.525 136.306 258.395 134.598C258.39 134.502 258.381 134.411 258.376 134.319C258.294 133.163 258.258 132.001 258.258 130.835C258.258 130.319 258.267 129.807 258.28 129.294C258.6 118.584 262.418 108.274 269.152 99.9401C269.298 99.7572 269.444 99.5743 269.595 99.3914C269.746 99.2085 269.902 99.0302 270.052 98.8519C275.064 92.982 281.384 88.372 288.504 85.3934C295.624 82.4149 303.344 81.1512 311.042 81.7043C318.739 82.2573 326.2 84.6116 332.821 88.5773C339.442 92.543 345.038 98.0093 349.16 104.535C349.384 104.892 349.608 105.253 349.823 105.614C350.042 105.98 350.252 106.346 350.463 106.716C354.604 114.079 356.774 122.387 356.762 130.835Z" fill="#F2F2F2"/>
<path d="M309.465 98.6157C301.366 100.694 293.067 101.892 284.711 102.189C283.447 102.258 282.181 102.249 280.918 102.163C278.144 101.93 275.767 101.058 273.12 100.581C271.848 100.353 270.43 100.186 269.149 99.9387C269.445 99.5714 269.747 99.2086 270.053 98.8503C272.816 99.0837 275.621 99.8478 278.416 100.203C283.168 100.807 288.492 100.133 292.095 98.4695C293.842 97.6625 295.181 96.6552 296.923 95.8444C297.16 95.7228 297.416 95.6442 297.681 95.6123C298.183 95.5972 298.679 95.7259 299.11 95.9832C302.032 97.4585 306.274 98.6575 310.212 97.9978C310.506 98.2275 309.948 98.4892 309.465 98.6157Z" fill="white"/>
<path d="M326.89 103.808C326.926 103.801 326.962 103.796 326.998 103.79C326.847 103.696 326.704 103.589 326.572 103.469L326.89 103.808Z" fill="white"/>
<path d="M350.462 106.718C348.817 106.85 347.164 106.947 345.502 107.012C344.238 107.08 342.972 107.071 341.709 106.986C338.935 106.751 336.558 105.88 333.912 105.404C331.486 104.968 328.538 104.758 326.998 103.79C330.979 103.101 335.103 104.503 339.208 105.025C342.528 105.434 345.893 105.268 349.157 104.534C349.612 105.249 350.046 105.977 350.462 106.718Z" fill="white"/>
<path d="M301.955 152.39C310.125 152.39 316.748 145.618 316.748 137.265C316.748 128.911 310.125 122.14 301.955 122.14C293.785 122.14 287.162 128.911 287.162 137.265C287.162 145.618 293.785 152.39 301.955 152.39Z" fill="#FFB6B6"/>
<path d="M330.567 174.368C330.174 174.583 329.776 174.789 329.378 174.986C329.237 175.054 329.09 175.123 328.949 175.196C328.83 175.251 328.711 175.31 328.592 175.365C328.555 175.384 328.523 175.397 328.491 175.416C328.391 175.461 328.295 175.507 328.194 175.553C328.084 175.603 327.975 175.653 327.87 175.704C327.746 175.758 327.627 175.813 327.504 175.864C327.047 176.069 326.585 176.266 326.123 176.453C324.469 177.132 322.777 177.718 321.058 178.209C320.98 178.232 320.898 178.255 320.816 178.278C320.08 178.484 319.339 178.671 318.594 178.84C317.291 179.142 315.976 179.389 314.648 179.581H314.639C314.479 179.604 314.324 179.627 314.164 179.649C314.15 179.649 314.136 179.654 314.118 179.654C314.118 179.659 314.118 179.659 314.114 179.654C313.94 179.677 313.762 179.7 313.588 179.723C313.576 179.726 313.564 179.728 313.551 179.727C313.387 179.75 313.218 179.768 313.053 179.787C312.875 179.805 312.696 179.823 312.518 179.842C312.381 179.855 312.244 179.869 312.107 179.883C312.095 179.887 312.082 179.888 312.07 179.887C311.947 179.896 311.823 179.91 311.7 179.919H311.681C311.576 179.928 311.467 179.938 311.362 179.947C310.086 180.047 308.806 180.093 307.508 180.093C306.104 180.093 304.71 180.038 303.334 179.919H303.32C303.023 179.892 302.73 179.864 302.438 179.837C302.36 179.828 302.287 179.823 302.209 179.814C302.195 179.814 302.177 179.81 302.163 179.81C302.141 179.805 302.118 179.805 302.09 179.8C302.078 179.801 302.066 179.799 302.054 179.796C301.953 179.787 301.853 179.773 301.747 179.764L301.405 179.723C301.29 179.709 301.176 179.691 301.062 179.677C301.034 179.672 301.011 179.672 300.984 179.668C300.902 179.659 300.819 179.645 300.737 179.631C300.696 179.627 300.655 179.622 300.618 179.618C300.536 179.604 300.458 179.595 300.376 179.581H300.371C297.863 179.22 295.386 178.662 292.965 177.912C292.837 177.871 292.709 177.834 292.581 177.793C293.172 175.04 294.387 172.459 296.133 170.25C297.879 168.042 300.11 166.264 302.653 165.055C302.024 164.455 301.589 163.681 301.405 162.832C301.286 162.285 301.276 161.72 301.377 161.169C301.477 160.618 301.686 160.093 301.99 159.623C302.583 158.712 303.514 158.074 304.577 157.849L311.352 156.431C312.443 156.219 313.573 156.445 314.498 157.062C315.423 157.678 316.066 158.635 316.29 159.723C316.359 160.057 316.389 160.398 316.381 160.738C322.905 165.082 327.6 169.586 330.567 174.368Z" fill="#CCCCCC"/>
<path d="M341.54 130.705C339.025 127.772 337.83 123.881 335.82 120.551C333.81 117.221 330.312 114.24 326.616 115.015C324.069 115.549 322.1 117.797 321.103 120.304C320.107 122.811 319.92 125.575 319.745 128.283C319.807 122.718 316.141 117.323 311.091 115.547C306.042 113.771 299.998 115.752 296.825 120.223C295.441 118.939 293.633 118.208 291.746 118.169C289.858 118.129 288.022 118.784 286.584 120.008C283.746 122.545 283.118 127.374 285.205 130.61C287.293 133.846 291.813 135.052 295.13 133.257L296.303 134.336C295.643 136.645 296.923 139.372 299.075 140.242C300.82 140.947 303.283 140.829 303.936 142.661C304.392 143.94 303.539 145.306 302.632 146.29C301.725 147.273 300.648 148.288 300.539 149.649C300.374 151.702 302.496 153.141 304.424 153.574C309.074 154.618 314.234 152.465 316.914 148.36C316.966 148.281 317.022 148.202 317.082 148.123C318.586 146.199 319.682 143.99 320.303 141.629C320.924 139.268 321.057 136.805 320.694 134.39C320.543 133.442 320.695 132.736 321.349 132.511C324.176 131.54 332.095 133.578 334.491 135.42C336.888 137.262 338.807 139.7 341.115 141.661C343.424 143.621 346.366 145.134 349.297 144.6C351.644 144.172 353.641 142.468 354.985 140.412C356.328 138.356 357.101 135.959 357.793 133.577C352.602 136.577 345.498 135.321 341.54 130.705Z" fill="#2F2E41"/>
<path d="M37.8646 100.201C37.8646 101.312 37.9012 102.423 37.9789 103.525C38.0612 104.842 38.2029 106.149 38.3949 107.448C39.0402 111.82 40.2735 116.085 42.0614 120.127C42.1528 120.328 42.2442 120.529 42.3357 120.73L42.4728 121.032C42.5185 121.133 42.5688 121.233 42.6145 121.329C42.6785 121.462 42.7379 121.59 42.802 121.718C42.8797 121.878 42.9574 122.038 43.0397 122.198C43.0488 122.216 43.058 122.239 43.0717 122.262C43.1402 122.399 43.2043 122.532 43.2774 122.669C43.2908 122.699 43.3061 122.728 43.3231 122.756C43.4008 122.911 43.4831 123.071 43.5654 123.227C43.6568 123.392 43.7437 123.561 43.8351 123.725C44.0546 124.132 44.2832 124.535 44.5163 124.937C44.5849 125.056 44.6535 125.175 44.7266 125.294C44.7906 125.403 44.8546 125.513 44.9232 125.623C44.9689 125.696 45.0146 125.774 45.0603 125.847C45.1335 125.97 45.2066 126.089 45.2843 126.213C45.4535 126.482 45.6272 126.752 45.7964 127.022H45.8009C45.8786 127.145 45.9609 127.269 46.0432 127.388V127.392C46.2855 127.758 46.537 128.124 46.7884 128.485C46.789 128.485 46.7896 128.485 46.7902 128.485C46.7907 128.486 46.7912 128.486 46.7917 128.486C46.7921 128.487 46.7924 128.487 46.7927 128.488C46.7929 128.488 46.793 128.489 46.793 128.49C46.9941 128.782 47.2044 129.066 47.4101 129.349V129.354C47.5473 129.532 47.6799 129.715 47.817 129.893C47.9267 130.04 48.041 130.191 48.1553 130.337C48.1782 130.369 48.2056 130.396 48.2285 130.428V130.433C48.2605 130.474 48.2925 130.511 48.3245 130.552C48.809 131.174 49.3089 131.782 49.824 132.376L49.9062 132.472C49.9337 132.504 49.9657 132.536 49.9931 132.573C50.0388 132.623 50.08 132.673 50.1257 132.724C50.1668 132.774 50.2125 132.824 50.2583 132.875C52.9432 135.899 55.9876 138.585 59.3238 140.872C59.7672 141.178 60.2198 141.475 60.6724 141.763C60.7867 141.836 60.901 141.909 61.0153 141.978C61.0473 142.001 61.0838 142.024 61.1158 142.047C61.1798 142.083 61.2393 142.12 61.3033 142.161C61.3627 142.198 61.4221 142.234 61.4861 142.271C61.7284 142.422 61.9753 142.568 62.2222 142.714C62.2816 142.751 62.3456 142.787 62.4096 142.824C62.469 142.856 62.533 142.893 62.597 142.929C62.597 142.934 62.597 142.934 62.6016 142.934H62.6062V142.938H62.6108C62.9171 143.117 63.2279 143.29 63.5434 143.459C63.7125 143.551 63.8862 143.647 64.06 143.734C64.4531 143.949 64.8509 144.154 65.2486 144.351C65.3903 144.42 65.5366 144.488 65.6783 144.561C65.7972 144.616 65.916 144.676 66.0349 144.731C66.0715 144.749 66.1035 144.763 66.1355 144.781C66.2361 144.827 66.3321 144.872 66.4326 144.918C66.5424 144.968 66.6521 145.019 66.7572 145.069C66.8806 145.124 66.9995 145.179 67.123 145.229C67.5801 145.435 68.0418 145.631 68.5036 145.819C70.1583 146.497 71.8493 147.083 73.5689 147.575C73.6466 147.597 73.7289 147.62 73.8112 147.643C74.5473 147.849 75.2879 148.036 76.0331 148.206C77.336 148.507 78.6511 148.754 79.9783 148.946H79.9875C80.1475 148.969 80.3029 148.992 80.463 149.015C80.4767 149.015 80.4904 149.019 80.5087 149.019C80.5087 149.024 80.5087 149.024 80.5132 149.019C80.687 149.042 80.8652 149.065 81.039 149.088C81.0508 149.092 81.0632 149.093 81.0755 149.093C81.2401 149.115 81.4093 149.134 81.5739 149.152C81.7521 149.17 81.9304 149.189 82.1087 149.207C82.2459 149.221 82.383 149.234 82.5202 149.248C82.5319 149.252 82.5444 149.254 82.5567 149.253C82.6802 149.262 82.8036 149.275 82.927 149.285H82.9453C83.0505 149.294 83.1602 149.303 83.2653 149.312C84.5408 149.413 85.8209 149.458 87.1192 149.458C88.5227 149.458 89.917 149.404 91.2931 149.285H91.3068C91.604 149.257 91.8966 149.23 92.1891 149.202C92.2669 149.193 92.34 149.189 92.4177 149.179C92.4314 149.179 92.4497 149.175 92.4634 149.175C92.4863 149.17 92.5091 149.17 92.5366 149.166C92.5489 149.166 92.5613 149.165 92.5732 149.161C92.6737 149.152 92.7743 149.138 92.8794 149.129L93.2223 149.088C93.3366 149.074 93.4509 149.056 93.5652 149.042C93.5926 149.038 93.6155 149.038 93.6429 149.033C93.7252 149.024 93.8075 149.01 93.8898 148.997C93.9309 148.992 93.9721 148.987 94.0086 148.983C94.0909 148.969 94.1686 148.96 94.2509 148.946H94.2555C96.7641 148.585 99.2404 148.027 101.662 147.277C101.79 147.236 101.918 147.2 102.046 147.159C102.05 147.159 102.055 147.154 102.059 147.154C102.096 147.14 102.137 147.131 102.174 147.117C102.516 147.008 102.855 146.893 103.193 146.774C103.659 146.619 104.121 146.45 104.583 146.276C104.706 146.226 104.83 146.18 104.953 146.13C105.205 146.034 105.451 145.933 105.698 145.833C106.119 145.663 106.539 145.485 106.955 145.302C107.344 145.128 107.728 144.955 108.112 144.772C108.121 144.767 108.135 144.767 108.144 144.758C108.231 144.717 108.318 144.676 108.4 144.635H108.405C110.51 143.624 112.54 142.464 114.48 141.164C115.102 140.748 115.715 140.318 116.318 139.875C116.803 139.514 117.278 139.148 117.754 138.773C120.099 136.907 122.27 134.832 124.241 132.573V132.568C124.382 132.413 124.515 132.253 124.652 132.093C124.675 132.07 124.693 132.047 124.712 132.029C124.798 131.924 124.881 131.823 124.968 131.722V131.718C125.082 131.585 125.196 131.448 125.306 131.311C125.333 131.279 125.356 131.251 125.379 131.224V131.219C125.471 131.11 125.557 131 125.649 130.886C125.695 130.831 125.736 130.776 125.781 130.721V130.716C126.051 130.378 126.312 130.04 126.572 129.692C126.641 129.601 126.709 129.505 126.783 129.409C127.112 128.965 127.432 128.513 127.743 128.06V128.055C127.861 127.886 127.976 127.712 128.095 127.543C128.209 127.369 128.323 127.196 128.437 127.022C128.552 126.839 128.671 126.661 128.785 126.478L128.799 126.45C128.913 126.277 129.027 126.094 129.137 125.915C129.224 125.769 129.311 125.627 129.398 125.486C129.452 125.39 129.512 125.294 129.567 125.193C129.588 125.162 129.608 125.13 129.626 125.097C129.754 124.873 129.882 124.649 130.01 124.425C130.161 124.164 130.307 123.899 130.454 123.634C130.508 123.524 130.568 123.414 130.627 123.305C130.65 123.268 130.668 123.232 130.687 123.195C130.755 123.067 130.824 122.934 130.888 122.802C130.956 122.674 131.025 122.541 131.094 122.409C131.158 122.28 131.226 122.148 131.29 122.015C131.34 121.915 131.386 121.814 131.436 121.714C131.44 121.705 131.445 121.698 131.45 121.691C131.473 121.64 131.496 121.595 131.514 121.549C131.52 121.542 131.524 121.534 131.528 121.526C131.578 121.425 131.624 121.32 131.674 121.22C131.738 121.087 131.798 120.95 131.862 120.817C131.903 120.726 131.948 120.63 131.99 120.534C132.049 120.401 132.113 120.269 132.168 120.131C132.232 119.994 132.291 119.857 132.351 119.715C132.368 119.681 132.383 119.646 132.396 119.61C132.428 119.546 132.451 119.482 132.479 119.418C132.552 119.249 132.625 119.075 132.694 118.906C132.776 118.714 132.854 118.517 132.927 118.325C133 118.147 133.069 117.964 133.137 117.781L133.165 117.717C134.23 114.911 135.038 112.014 135.578 109.062V109.057C135.883 107.372 136.101 105.672 136.232 103.964C136.237 103.868 136.246 103.776 136.25 103.685C136.333 102.528 136.369 101.367 136.369 100.201C136.369 99.684 136.36 99.1719 136.346 98.6598C136.027 87.9498 132.209 77.6392 125.475 69.3055C125.329 69.1226 125.182 68.9397 125.032 68.7568C124.881 68.5739 124.725 68.3956 124.574 68.2172C119.563 62.3474 113.242 57.7373 106.123 54.7588C99.0028 51.7803 91.2829 50.5166 83.5852 51.0696C75.8875 51.6227 68.4274 53.9769 61.8063 57.9427C55.1853 61.9084 49.5885 67.3746 45.4672 73.9006C45.2432 74.2573 45.0192 74.6185 44.8043 74.9797C44.5849 75.3455 44.3746 75.7113 44.1643 76.0817C40.0227 83.4446 37.8527 91.7526 37.8646 100.201Z" fill="#F2F2F2"/>
<path d="M85.1616 67.9811C93.2605 70.0595 101.56 71.2576 109.916 71.5545C111.18 71.6233 112.446 71.6147 113.709 71.5287C116.483 71.2953 118.86 70.4231 121.507 69.9465C122.779 69.718 124.196 69.5509 125.477 69.304C125.181 68.9367 124.88 68.574 124.574 68.2157C121.811 68.4491 119.006 69.2131 116.211 69.5682C111.459 70.1725 106.134 69.4981 102.532 67.8349C100.784 67.0278 99.4457 66.0205 97.7041 65.2098C97.4672 65.0882 97.2106 65.0096 96.9463 64.9776C96.4441 64.9626 95.9481 65.0913 95.5166 65.3486C92.5947 66.8239 88.3525 68.0228 84.4149 67.3632C84.1213 67.5929 84.6789 67.8545 85.1616 67.9811Z" fill="white"/>
<path d="M67.737 73.1729C67.7011 73.1664 67.665 73.1612 67.629 73.155C67.7803 73.0612 67.9227 72.9539 68.0546 72.8344L67.737 73.1729Z" fill="white"/>
<path d="M44.1653 76.0836C45.8098 76.2151 47.463 76.3129 49.1248 76.3772C50.3884 76.4455 51.6549 76.4368 52.9175 76.3514C55.692 76.1168 58.0686 75.2459 60.7154 74.7692C63.1411 74.3332 66.0888 74.1231 67.6289 73.1551C63.6483 72.466 59.524 73.8688 55.4193 74.3909C52.0991 74.7992 48.7335 74.633 45.4696 73.8995C45.0152 74.6145 44.5804 75.3425 44.1653 76.0836Z" fill="white"/>
<path d="M64.06 143.734C64.4532 143.949 64.8509 144.154 65.2486 144.351C65.3903 144.42 65.5366 144.488 65.6784 144.561C65.7972 144.616 65.9161 144.676 66.0349 144.731C66.0715 144.749 66.1035 144.763 66.1355 144.781C66.2361 144.827 66.3321 144.872 66.4327 144.918C66.5424 144.968 66.6521 145.019 66.7573 145.069C66.8807 145.124 66.9996 145.179 67.123 145.229C67.5801 145.435 68.0419 145.631 68.5036 145.819C70.1583 146.497 71.8494 147.083 73.569 147.575C73.6467 147.597 73.729 147.62 73.8113 147.643C74.5473 147.849 75.2879 148.036 76.0331 148.206C77.336 148.507 78.6511 148.754 79.9784 148.946H79.9875C80.1475 148.969 80.303 148.992 80.463 149.015C80.4767 149.015 80.4904 149.019 80.5087 149.019C80.5087 149.024 80.5087 149.024 80.5133 149.019C80.687 149.042 80.8653 149.065 81.039 149.088C81.0509 149.092 81.0632 149.093 81.0756 149.093C81.2402 149.115 81.4093 149.134 81.5739 149.152C81.7522 149.17 81.9305 149.189 82.1088 149.207C82.2459 149.221 82.3831 149.234 82.5202 149.248C82.5319 149.252 82.5444 149.254 82.5568 149.253C82.6802 149.262 82.8036 149.275 82.9271 149.285H82.9454C83.0505 149.294 83.1602 149.303 83.2654 149.312C84.5409 149.413 85.8209 149.458 87.1193 149.458C88.5227 149.458 89.9171 149.404 91.2931 149.285H91.3069C91.604 149.257 91.8966 149.23 92.1892 149.202C92.2669 149.193 92.34 149.189 92.4178 149.179C92.4315 149.179 92.4498 149.175 92.4635 149.175C92.4863 149.17 92.5092 149.17 92.5366 149.166C92.549 149.166 92.5613 149.165 92.5732 149.161C92.6738 149.152 92.7743 149.138 92.8795 149.129L93.2224 149.088C93.3367 149.074 93.4509 149.056 93.5652 149.042C93.5927 149.038 93.6155 149.038 93.6429 149.033C93.7252 149.024 93.8075 149.01 93.8898 148.997C93.931 148.992 93.9721 148.987 94.0087 148.983C94.091 148.969 94.1687 148.96 94.251 148.946H94.2555C96.7642 148.585 99.2405 148.027 101.662 147.277C101.79 147.236 101.918 147.2 102.046 147.159C101.455 144.405 100.24 141.825 98.4938 139.616C96.7475 137.407 94.5169 135.629 91.9743 134.42C92.6032 133.821 93.038 133.047 93.2224 132.198C93.3411 131.651 93.3505 131.085 93.25 130.535C93.1496 129.984 92.9413 129.458 92.6372 128.988C92.044 128.077 91.1132 127.439 90.0497 127.214L83.2745 125.797C82.1839 125.584 81.0534 125.81 80.1288 126.427C79.2043 127.043 78.5604 128 78.3372 129.089C78.2681 129.422 78.2374 129.763 78.2457 130.104C71.722 134.447 67.027 138.951 64.06 143.734Z" fill="#CCCCCC"/>
<path d="M90.8627 121.223C99.9706 121.223 107.354 113.838 107.354 104.729C107.354 95.6194 99.9706 88.2349 90.8627 88.2349C81.7549 88.2349 74.3715 95.6194 74.3715 104.729C74.3715 113.838 81.7549 121.223 90.8627 121.223Z" fill="#9E616A"/>
<path d="M88.5192 120.341C84.3907 121.456 79.8391 119.974 76.6171 117.161C73.3951 114.349 71.3797 110.363 70.2184 106.247C69.3679 103.232 68.9646 99.8855 70.3068 97.0552C71.6489 94.2249 75.2611 92.3154 78.0479 93.745C76.3287 91.7418 77.1876 88.4285 79.1954 86.7147C81.2033 85.001 83.9604 84.5097 86.5862 84.2411C90.3971 83.8513 94.3335 83.8077 97.9599 85.0425C101.586 86.2773 104.881 88.9769 106.016 92.6363C107.175 93.1761 108.481 93.3161 109.728 93.0345C110.975 92.7528 112.094 92.0654 112.908 91.0799C113.119 92.2117 112.95 93.3813 112.428 94.4076C111.907 95.434 111.062 96.2598 110.024 96.7574L115.58 94.9557C116.536 96.9787 114.861 99.4823 112.72 100.13C110.579 100.778 108.268 100.07 106.236 99.134C104.204 98.1981 102.235 97.0148 100.028 96.6498C97.8209 96.2848 95.2285 96.9941 94.2076 98.9848C93.6729 100.028 93.6451 101.249 93.3346 102.379C93.0242 103.509 92.2378 104.68 91.0698 104.773C90.3319 104.831 89.6094 104.438 88.8735 104.518C88.4219 104.607 88.006 104.826 87.6768 105.148C87.3476 105.469 87.1194 105.88 87.02 106.33C86.8368 107.232 86.8345 108.161 87.0134 109.064L88.4248 119.854L88.5192 120.341Z" fill="#2F2E41"/>
</g>
<defs>
<clipPath id="clip0_25_2547">
<rect width="370" height="288" fill="white"/>
</clipPath>
</defs>
</svg>
