<svg width="374" height="282" viewBox="0 0 374 282" fill="none" xmlns="http://www.w3.org/2000/svg">
<g clip-path="url(#clip0_25_2709)">
<path d="M223.684 237.393L240.226 211.127C256.518 211.566 272.457 215.976 286.658 223.975C258.091 228.809 243.03 260.925 217.611 274.832C209.649 279.108 200.828 281.538 191.8 281.94C182.772 282.343 173.77 280.708 165.46 277.156L143.461 277.852C148.33 264.096 156.122 251.559 166.301 241.105C176.48 230.651 188.803 222.529 202.422 217.299C210.091 214.44 218.089 212.559 226.228 211.699C224.267 224.229 223.684 237.393 223.684 237.393Z" fill="#F2F2F2"/>
<path d="M238.251 277.786C237.979 278.429 237.697 279.061 237.397 279.693C237.187 280.131 236.97 280.575 236.743 281.007L230.996 281.013H224.64L221.171 281.018C220.805 280.591 220.445 280.153 220.101 279.704C215.952 274.297 213.873 267.584 214.238 260.777C214.609 255.039 216.693 249.434 218.738 243.885C221.564 236.223 224.274 228.672 222.152 220.994C225.356 223.263 228.258 225.933 230.786 228.939C229.582 230.023 228.602 231.332 227.898 232.792C227.699 233.202 227.538 233.751 227.86 234.083C228.021 234.197 228.208 234.27 228.403 234.298C228.598 234.326 228.798 234.308 228.985 234.244C229.916 234.061 230.858 233.884 231.794 233.701C232.543 233.562 233.291 233.424 234.039 233.279C235.782 235.896 237.267 238.675 238.472 241.579C240.358 246.091 241.52 250.874 241.914 255.749C242.474 263.282 241.218 270.84 238.251 277.786Z" fill="#3F3D56"/>
<path d="M251.108 249.523C250.914 249.933 250.748 250.482 251.075 250.809C251.234 250.925 251.419 251 251.614 251.029C251.809 251.058 252.008 251.04 252.194 250.976C253.125 250.793 254.073 250.621 255.004 250.438C254.854 255.666 254.849 260.982 253.79 266.011C253.552 267.148 253.252 268.271 252.892 269.376C251.619 273.218 249.526 276.736 246.757 279.688C246.691 279.765 246.624 279.837 246.552 279.909C246.203 280.281 245.832 280.647 245.455 281.001L236.743 281.007L230.996 281.013H224.64C224.59 280.575 224.54 280.137 224.501 279.699C223.733 271.554 225.073 263.348 228.392 255.871C228.608 255.394 228.83 254.928 229.051 254.452C231.432 249.653 234.619 245.299 238.472 241.579C244.531 235.68 252.057 231.51 260.269 229.499C256.921 233.895 255.769 239.117 255.309 244.639C253.509 245.876 252.062 247.559 251.108 249.523Z" fill="#989898"/>
<path d="M231.456 279.693C231.368 279.965 231.279 280.236 231.185 280.502C231.124 280.674 231.063 280.846 230.996 281.013H224.64L221.171 281.018L211.539 281.024C211.29 280.724 211.04 280.419 210.796 280.109C210.691 279.976 210.586 279.843 210.486 279.71C206.955 275.213 204.285 270.103 202.611 264.636C200.647 258.022 200.14 251.061 201.125 244.232C202.109 237.403 204.562 230.869 208.314 225.08C208.857 230.38 211.423 234.843 214.681 239.056C214.515 239.195 214.349 239.322 214.193 239.472C212.99 240.553 212.011 241.86 211.312 243.32C211.112 243.735 210.951 244.284 211.267 244.606C211.426 244.722 211.612 244.798 211.807 244.827C212.002 244.856 212.201 244.837 212.387 244.772C213.329 244.595 214.271 244.412 215.202 244.234C215.95 244.096 216.693 243.952 217.441 243.813C217.796 243.746 218.15 243.68 218.499 243.613C218.583 243.708 218.66 243.796 218.738 243.885C222.157 247.749 225.737 251.58 228.392 255.871C229.056 256.948 229.661 258.06 230.204 259.203C233.145 265.642 233.592 272.944 231.456 279.693Z" fill="#989898"/>
<path d="M320.222 112.967H300.481C296.223 112.967 292.771 116.421 292.771 120.681V120.681C292.771 124.941 296.223 128.394 300.481 128.394H320.222C324.48 128.394 327.933 124.941 327.933 120.681C327.933 116.421 324.48 112.967 320.222 112.967Z" fill="#E6E6E6"/>
<path d="M326.388 135.096H233.398C229.14 135.096 225.688 138.549 225.688 142.809C225.688 147.069 229.14 150.523 233.398 150.523H326.388C330.646 150.523 334.099 147.069 334.099 142.809C334.099 138.549 330.646 135.096 326.388 135.096Z" fill="#989898"/>
<path d="M368.607 280.325C368.607 280.412 368.59 280.498 368.557 280.578C368.524 280.658 368.475 280.731 368.414 280.792C368.353 280.853 368.28 280.902 368.2 280.935C368.12 280.968 368.034 280.985 367.947 280.985L333.017 281.001L324.305 281.007L318.558 281.012H312.202L308.732 281.018L299.1 281.024L147.552 281.101L146.4 281.107L78.6115 281.129H77.4921L19.7901 281.151H18.6706L0.659545 281.157C0.48464 281.157 0.316895 281.087 0.193218 280.963C0.0695412 280.84 6.10352e-05 280.672 6.10352e-05 280.497C6.10352e-05 280.322 0.0695412 280.154 0.193218 280.03C0.316895 279.907 0.48464 279.837 0.659545 279.837L18.8591 279.832H19.9785L77.6639 279.809H78.7833L146.045 279.787H147.192L204.506 279.765H205.26L298.048 279.71L307.663 279.704L312.063 279.699L319.018 279.693H324.959L334.319 279.687L367.947 279.665C368.034 279.665 368.12 279.682 368.2 279.715C368.28 279.748 368.353 279.797 368.414 279.858C368.475 279.919 368.524 279.992 368.557 280.072C368.59 280.152 368.607 280.238 368.607 280.325Z" fill="#CACACA"/>
<path d="M142.71 59.5309C142.477 59.5306 142.254 59.438 142.089 59.2734C141.925 59.1088 141.832 58.8856 141.832 58.6528V52.682C141.833 52.4495 141.925 52.2267 142.09 52.0626C142.254 51.8984 142.477 51.8062 142.71 51.8062C142.942 51.8062 143.165 51.8984 143.33 52.0626C143.494 52.2267 143.587 52.4495 143.588 52.682V58.6528C143.587 58.8856 143.495 59.1088 143.33 59.2734C143.166 59.438 142.942 59.5306 142.71 59.5309Z" fill="#3F3D56"/>
<path d="M200.869 39.3749V21.5527C200.869 18.817 199.782 16.1933 197.849 14.2589C195.915 12.3244 193.292 11.2377 190.557 11.2377H152.812C150.078 11.2377 147.455 12.3244 145.521 14.2589C143.588 16.1933 142.501 18.817 142.501 21.5527V119.327C142.501 122.063 143.588 124.686 145.521 126.621C147.455 128.555 150.078 129.642 152.812 129.642H190.558C193.292 129.642 195.915 128.555 197.849 126.621C199.782 124.686 200.869 122.063 200.869 119.327V52.0611C201.041 52.0611 201.207 51.9926 201.329 51.8706C201.451 51.7486 201.519 51.5831 201.519 51.4105V40.0255C201.519 39.853 201.451 39.6875 201.329 39.5655C201.207 39.4435 201.041 39.375 200.869 39.3749Z" fill="#3F3D56"/>
<path d="M198.674 21.6214V119.255C198.675 121.283 197.875 123.23 196.45 124.672C195.024 126.114 193.087 126.934 191.06 126.956C191.032 126.96 191.004 126.962 190.976 126.961H153.048C151.005 126.961 149.046 126.149 147.601 124.704C146.157 123.259 145.345 121.299 145.345 119.255V21.6214C145.345 20.6098 145.544 19.6081 145.932 18.6736C146.319 17.7391 146.886 16.89 147.602 16.175C148.317 15.4599 149.166 14.8928 150.101 14.506C151.035 14.1193 152.037 13.9204 153.048 13.9209H157.648C157.421 14.4771 157.334 15.0807 157.395 15.6783C157.456 16.276 157.664 16.8494 157.999 17.3479C158.334 17.8464 158.787 18.2548 159.317 18.537C159.847 18.8191 160.439 18.9664 161.039 18.9659H182.664C183.136 18.9655 183.603 18.8713 184.038 18.6887C184.483 18.5081 184.888 18.2414 185.23 17.9038C185.572 17.5663 185.844 17.1645 186.031 16.7215C186.217 16.2786 186.314 15.8031 186.317 15.3225C186.319 14.8419 186.226 14.3656 186.044 13.9209H190.976C193.018 13.9211 194.976 14.7325 196.419 16.1766C197.863 17.6207 198.674 19.5792 198.674 21.6214Z" fill="white"/>
<path d="M142.71 49.3454C142.477 49.3451 142.254 49.2526 142.089 49.088C141.925 48.9233 141.832 48.7002 141.832 48.4674V42.4966C141.832 42.2637 141.925 42.0404 142.089 41.8757C142.254 41.711 142.477 41.6185 142.71 41.6185C142.943 41.6185 143.166 41.711 143.33 41.8757C143.495 42.0404 143.588 42.2637 143.588 42.4966V48.4674C143.587 48.7002 143.495 48.9233 143.33 49.088C143.166 49.2526 142.942 49.3451 142.71 49.3454Z" fill="#3F3D56"/>
<path d="M142.534 37.755C142.302 37.7547 142.078 37.6621 141.914 37.4975C141.749 37.3329 141.657 37.1097 141.656 36.8769V30.9061C141.656 30.6733 141.749 30.4499 141.914 30.2853C142.078 30.1206 142.301 30.0281 142.534 30.0281C142.767 30.0281 142.99 30.1206 143.155 30.2853C143.319 30.4499 143.412 30.6733 143.412 30.9061V36.8769C143.412 37.1097 143.319 37.3329 143.155 37.4975C142.99 37.6621 142.767 37.7547 142.534 37.755Z" fill="#3F3D56"/>
<path d="M165.882 14.9254C165.882 14.6926 165.975 14.4695 166.139 14.3049C166.304 14.1402 166.527 14.0476 166.76 14.0474H172.728C172.844 14.0471 172.958 14.0696 173.065 14.1136C173.172 14.1576 173.269 14.2222 173.351 14.3038C173.432 14.3853 173.497 14.4822 173.541 14.5889C173.586 14.6956 173.608 14.8099 173.608 14.9254C173.608 15.0409 173.586 15.1553 173.541 15.262C173.497 15.3686 173.432 15.4655 173.351 15.5471C173.269 15.6287 173.172 15.6933 173.065 15.7373C172.958 15.7813 172.844 15.8038 172.728 15.8035H166.76C166.527 15.8032 166.304 15.7106 166.139 15.546C165.975 15.3814 165.882 15.1582 165.882 14.9254Z" fill="white"/>
<path d="M176.064 15.8035C176.549 15.8035 176.942 15.4104 176.942 14.9254C176.942 14.4405 176.549 14.0474 176.064 14.0474C175.579 14.0474 175.186 14.4405 175.186 14.9254C175.186 15.4104 175.579 15.8035 176.064 15.8035Z" fill="white"/>
<path d="M171.921 47.1229C171.441 46.3288 170.873 45.481 169.982 45.2217C168.951 44.9214 167.891 45.5179 166.992 46.1065C164.304 47.867 161.716 49.7748 159.239 51.8213L159.241 51.8521L165.027 51.4529C166.421 51.3568 167.862 51.2474 169.093 50.588C169.526 50.2803 170.022 50.0727 170.545 49.9803C170.874 50.0046 171.194 50.0984 171.484 50.2554C171.774 50.4124 172.027 50.6291 172.228 50.8911C174.894 53.7315 175.666 58.0752 178.657 60.5707C176.771 55.917 174.518 51.4203 171.921 47.1229Z" fill="#F2F2F2"/>
<path d="M188.312 71.2148C188.017 70.8424 187.896 70.7551 187.605 70.3792C185.237 67.3151 183.011 64.1475 180.927 60.8764C179.512 58.6547 178.167 56.3905 176.892 54.0835C176.285 52.9868 175.695 51.8814 175.121 50.7674C174.676 49.9037 174.241 49.0348 173.815 48.1607C173.694 47.9111 173.575 47.6603 173.458 47.4089C173.181 46.8178 172.909 46.2238 172.617 45.6407C172.315 44.9407 171.853 44.3214 171.268 43.8329C170.99 43.6213 170.657 43.4933 170.309 43.4638C169.819 43.4666 169.339 43.6042 168.922 43.8615C165.762 45.5232 162.813 47.5577 160.137 49.9215C157.457 52.2758 155.062 54.9356 153 57.8467C152.937 57.9368 152.788 57.8507 152.852 57.76C153.102 57.4053 153.358 57.0545 153.619 56.7075C156.86 52.3954 160.834 48.6873 165.359 45.7526C166.12 45.259 166.896 44.7886 167.686 44.3413C168.084 44.1158 168.484 43.8931 168.891 43.6842C169.28 43.4556 169.718 43.3201 170.168 43.2882C171.718 43.2641 172.521 45.0203 173.072 46.202C173.246 46.5738 173.421 46.9446 173.598 47.3142C174.269 48.7174 174.965 50.1078 175.688 51.4854C176.134 52.3359 176.589 53.1815 177.054 54.0221C178.502 56.6397 180.041 59.2043 181.672 61.716C183.831 65.043 185.973 67.982 188.433 71.0932C188.501 71.1793 188.38 71.3021 188.312 71.2148Z" fill="#E4E4E4"/>
<path d="M159.984 49.0543C159.894 48.9538 159.804 48.8534 159.714 48.753C159.037 47.9184 158.199 47.2293 157.25 46.727C156.782 46.504 156.271 46.3856 155.753 46.3798C155.218 46.3945 154.69 46.5096 154.198 46.719C153.964 46.8126 153.735 46.9187 153.51 47.0318C153.252 47.1615 152.999 47.2998 152.747 47.4393C152.274 47.701 151.808 47.9741 151.347 48.2588C150.431 48.8253 149.544 49.4349 148.685 50.0879C148.24 50.4265 147.804 50.7762 147.377 51.137C146.98 51.4721 146.591 51.8163 146.21 52.1695C146.128 52.2446 146.007 52.123 146.088 52.0478C146.188 51.9542 146.29 51.8613 146.392 51.7694C146.678 51.51 146.97 51.2556 147.266 51.0061C147.806 50.5504 148.36 50.1124 148.927 49.6919C149.81 49.0376 150.724 48.4277 151.667 47.8622C152.139 47.5799 152.617 47.3094 153.102 47.0507C153.248 46.9727 153.396 46.8963 153.546 46.824C153.885 46.6526 154.238 46.5088 154.601 46.3942C155.115 46.2278 155.659 46.1744 156.196 46.2375C156.714 46.3129 157.213 46.4856 157.667 46.7466C158.595 47.3352 159.419 48.0737 160.105 48.932C160.179 49.0147 160.058 49.1369 159.984 49.0543Z" fill="#E4E4E4"/>
<path d="M179.732 57.2496L182.041 56.4046L183.188 55.9851C183.559 55.8358 183.936 55.7056 184.32 55.595C184.656 55.4991 185.012 55.5037 185.345 55.6081C185.642 55.718 185.914 55.8866 186.144 56.1037C186.38 56.3206 186.599 56.5547 186.8 56.804C187.049 57.1042 187.295 57.4074 187.542 57.7097C188.562 58.9572 189.575 60.2102 190.582 61.4686C191.588 62.7269 192.588 63.9906 193.58 65.2596C194.576 66.5318 195.564 67.8092 196.546 69.092C196.666 69.2491 196.786 69.4064 196.906 69.5637C196.973 69.6506 197.122 69.5649 197.055 69.4768C196.066 68.1811 195.07 66.8907 194.068 65.6056C193.062 64.3175 192.05 63.0348 191.031 61.7576C190.012 60.4804 188.987 59.2088 187.954 57.9427C187.696 57.6272 187.439 57.3122 187.181 56.9974C186.963 56.7319 186.748 56.4636 186.509 56.2165C186.305 55.9714 186.056 55.7688 185.774 55.6203C185.492 55.4718 185.184 55.3804 184.867 55.3512C184.483 55.3647 184.105 55.4479 183.75 55.5968C183.364 55.7365 182.979 55.8789 182.593 56.02L180.268 56.8709L179.686 57.0836C179.583 57.1214 179.628 57.2878 179.732 57.2496Z" fill="#E4E4E4"/>
<path d="M156.946 47.7223C156.353 47.4297 155.692 47.3004 155.032 47.3476C154.372 47.3948 153.737 47.6169 153.191 47.9909C155.248 48.3459 157.283 48.821 159.285 49.4136C158.453 48.9263 157.803 48.1628 156.946 47.7223Z" fill="#F2F2F2"/>
<path d="M153.179 47.9888L152.953 48.1725C153.03 48.1082 153.109 48.0479 153.191 47.9909L153.179 47.9888Z" fill="#F2F2F2"/>
<path d="M186.057 57.2581C185.855 56.96 185.573 56.7247 185.244 56.579L184.927 56.5915C187.343 60.8635 190.607 64.5964 194.518 67.5611L186.057 57.2581Z" fill="#F2F2F2"/>
<path d="M158 30.1365C159.839 30.1365 161.33 28.6448 161.33 26.8048C161.33 24.9647 159.839 23.473 158 23.473C156.16 23.473 154.669 24.9647 154.669 26.8048C154.669 28.6448 156.16 30.1365 158 30.1365Z" fill="#FD6584"/>
<path d="M165.454 25.2272C165.36 24.9191 165.178 24.6453 164.93 24.4393C164.683 24.2333 164.38 24.1043 164.06 24.068C164.053 24.0674 164.045 24.0674 164.038 24.068C164.029 24.0652 164.02 24.0631 164.01 24.0618C163.44 23.9894 162.861 24.0388 162.311 24.2065C161.762 24.3743 161.254 24.6567 160.821 25.035C160.511 25.315 160.263 25.6567 160.094 26.0383C159.939 25.8269 159.735 25.6564 159.5 25.5416C159.264 25.4268 159.005 25.3712 158.743 25.3794C158.405 25.4018 158.083 25.5277 157.819 25.7401C157.556 25.9524 157.364 26.2409 157.271 26.5661C157.261 26.6058 157.264 26.6478 157.279 26.6858C157.295 26.7238 157.322 26.7558 157.357 26.777C157.457 26.8628 157.577 26.9235 157.705 26.9542C157.981 27.0128 158.259 27.0665 158.537 27.1151C159.081 27.21 159.628 27.2869 160.177 27.346C160.54 27.3847 160.904 27.4154 161.269 27.4383C162.022 27.4857 162.779 27.497 163.534 27.4732C163.902 27.4873 164.268 27.4227 164.609 27.2836C164.858 27.1611 165.071 26.9757 165.227 26.7458C165.373 26.5246 165.469 26.2741 165.508 26.0117C165.548 25.7493 165.529 25.4816 165.454 25.2272Z" fill="#E6E6E6"/>
<path d="M158.602 30.0811C158.596 29.9415 158.572 29.8032 158.532 29.6693C158.438 29.3613 158.255 29.0875 158.008 28.8815C157.76 28.6756 157.458 28.5465 157.137 28.5101C157.13 28.5095 157.123 28.5095 157.116 28.5101C157.107 28.5074 157.097 28.5054 157.088 28.5039C156.47 28.4282 155.844 28.4926 155.255 28.6923C154.803 28.8288 154.384 29.0584 154.025 29.3663C153.666 29.6742 153.376 30.0537 153.172 30.4804C153.017 30.2689 152.813 30.0983 152.578 29.9835C152.342 29.8687 152.082 29.8131 151.82 29.8216C151.483 29.8439 151.16 29.9698 150.897 30.1822C150.633 30.3945 150.442 30.683 150.348 31.0082C150.338 31.048 150.342 31.0897 150.357 31.1276C150.373 31.1655 150.4 31.1975 150.434 31.2191C150.535 31.3047 150.654 31.3654 150.782 31.3963C151.059 31.4549 151.336 31.5086 151.616 31.5573C152.159 31.6521 152.706 31.729 153.255 31.7881C154.37 31.9078 155.492 31.9504 156.612 31.9154C156.98 31.9294 157.347 31.8647 157.688 31.7257C157.936 31.6031 158.149 31.4178 158.304 31.1879C158.522 30.8619 158.627 30.4728 158.602 30.0811Z" fill="#E6E6E6"/>
<path opacity="0.8" d="M151.429 39.0963C151.357 39.4114 151.408 39.7421 151.571 40.0212C151.666 40.163 151.806 40.2692 151.968 40.3229C152.131 40.3766 152.306 40.3749 152.468 40.3179C153.101 40.1213 153.725 39.891 154.353 39.6776C154.439 39.6519 154.511 39.5941 154.555 39.5162C154.6 39.4384 154.612 39.3465 154.59 39.2598C154.566 39.1734 154.508 39.1001 154.43 39.0558C154.352 39.0114 154.259 38.9995 154.173 39.0225L152.604 39.5558C152.486 39.596 152.368 39.6417 152.247 39.6748C152.234 39.6782 152.188 39.6884 152.191 39.6881C152.197 39.6876 152.232 39.6914 152.193 39.6887C152.17 39.6819 152.17 39.6833 152.193 39.6931L152.163 39.676C152.191 39.6988 152.16 39.673 152.15 39.6634C152.142 39.6549 152.118 39.6213 152.137 39.649C152.123 39.6292 152.111 39.6084 152.101 39.5866C152.118 39.6233 152.087 39.5325 152.084 39.5199C152.072 39.3783 152.08 39.2356 152.108 39.0964C152.108 39.0064 152.072 38.9203 152.008 38.8567C151.945 38.7931 151.859 38.7572 151.769 38.7567C151.68 38.7589 151.594 38.7954 151.531 38.8586C151.468 38.9219 151.431 39.007 151.429 39.0963Z" fill="#3F3D56"/>
<path opacity="0.8" d="M184.581 45.5674L186.255 47.6783C186.468 47.947 186.924 47.6561 186.822 47.3479C186.613 46.7174 187.334 46.3661 187.831 46.2622C188.492 46.203 189.146 46.0691 189.777 45.8633C190.175 45.6832 189.83 45.0976 189.435 45.2768C188.703 45.6084 187.849 45.4564 187.108 45.779C186.763 45.9031 186.476 46.1504 186.303 46.4734C186.129 46.7963 186.081 47.1721 186.167 47.5284L186.735 47.198L185.061 45.087C184.997 45.0239 184.911 44.9885 184.821 44.9885C184.731 44.9885 184.645 45.0239 184.581 45.087C184.519 45.1517 184.485 45.2377 184.485 45.3272C184.485 45.4167 184.519 45.5027 184.581 45.5674Z" fill="#3F3D56"/>
<path opacity="0.2" d="M198.675 111.131V119.257C198.675 121.285 197.875 123.231 196.449 124.673C195.023 126.114 193.087 126.935 191.059 126.956C191.032 126.959 191.002 126.959 190.976 126.959H153.047C151.005 126.959 149.046 126.148 147.602 124.703C146.158 123.259 145.346 121.3 145.346 119.257V111.131H198.675Z" fill="#3F3D56"/>
<g opacity="0.8">
<path d="M198.674 34.9932V40.1435C197.678 40.773 196.639 41.3324 195.565 41.8178C194.1 40.7464 192.907 39.3471 192.079 37.7319C192.232 39.4517 192.731 41.1227 193.548 42.6438C193.52 42.6494 193.492 42.6605 193.47 42.666C191.458 43.3867 189.142 43.8413 187.252 42.8434C185.845 42.1005 184.919 40.6591 184.348 39.1678C184.111 38.5341 183.907 37.8883 183.739 37.233C183.5 36.346 183.284 35.4534 182.99 34.583C182.979 34.5442 182.963 34.5109 182.952 34.4721C182.924 34.3834 182.891 34.2947 182.863 34.206C182.475 33.0367 181.821 31.9737 180.951 31.1014C180.778 30.9398 180.595 30.7898 180.402 30.6524L180.558 30.4639C180.317 30.7503 180.039 31.0038 179.732 31.2178C179.561 31.3515 179.362 31.4445 179.15 31.4896C178.937 31.5348 178.718 31.5309 178.507 31.4784C177.676 31.2345 177.438 30.0869 177.831 29.3107C177.837 29.2996 177.842 29.283 177.848 29.2719C177.86 29.2449 177.875 29.219 177.892 29.1943C178.117 28.8333 178.415 28.5236 178.768 28.2851C179.117 28.0426 179.484 27.8258 179.865 27.6365C180.053 26.9556 180.411 26.3337 180.905 25.8294C181.4 25.3251 182.014 24.9549 182.691 24.7536C184.051 24.375 185.475 24.2881 186.87 24.4986C188.465 24.6588 190.048 24.9255 191.608 25.2969C192.628 25.5409 193.731 25.8957 194.301 26.7827C195.454 28.5789 193.647 31.179 194.717 33.0196C195.254 33.7881 196.062 34.3248 196.978 34.522C197.538 34.6939 198.12 34.8158 198.674 34.9932Z" fill="#2F2E41"/>
<path d="M168.147 33.9394L169.706 34.1343V33.9394L170.012 33.0371V33.0761C170.012 33.594 170.064 34.1105 170.17 34.6177C170.238 34.9604 170.329 35.2983 170.442 35.6292C170.9 36.9622 171.535 39.1528 171.352 40.6262C171.222 41.7079 170.951 46.8394 170.715 47.9464C171.337 47.5819 173.222 41.3532 173.222 41.3532L173.386 40.8874L173.507 41.4058C173.995 41.4825 174.491 41.4988 174.984 41.4545C175.539 41.4032 176.084 41.2733 176.603 41.0686H176.605C176.842 40.976 177.073 40.8679 177.296 40.7451C177.999 40.366 178.664 39.9196 179.281 39.412C181.078 37.9035 182.065 35.9546 180.873 33.7757C180.753 32.8289 180.356 31.9386 179.731 31.2168C179.72 31.2012 179.708 31.1837 179.694 31.1681L178.364 29.4082L178.192 29.1821C178.096 29.2147 177.992 29.2194 177.892 29.1958C177.46 29.1334 176.796 28.8664 176.653 29.0847C175.239 28.7027 173.517 28.9073 171.563 30.2521C167.947 30.0825 168.449 32.2107 168.147 33.9394Z" fill="#2F2E41"/>
<path d="M173.929 39.5571C176.29 39.5571 178.203 37.6428 178.203 35.2815C178.203 32.9201 176.29 31.0059 173.929 31.0059C171.569 31.0059 169.655 32.9201 169.655 35.2815C169.655 37.6428 171.569 39.5571 173.929 39.5571Z" fill="#9E616A"/>
<path d="M168.083 34.0018L168.233 34.0661L172.689 34.721L174.382 33.3548C174.382 33.3548 175.979 35.9722 175.792 37.5001C175.738 37.9542 175.66 39.0924 175.568 40.367C175.436 42.2458 175.276 44.4149 175.13 45.101C175.556 44.8496 176.56 41.9242 177.187 39.9811H177.189C177.509 38.9911 177.731 38.2563 177.731 38.2563L177.902 37.773L178.027 38.3089C178.636 38.4058 179.256 38.411 179.866 38.3245C181.662 36.8161 182.65 34.8671 181.458 32.6882C181.337 31.7414 180.94 30.8511 180.316 30.1293C180.635 29.9188 179.258 28.0576 179.069 28.3519C179.03 28.3421 178.989 28.3304 178.948 28.3207C178.772 28.2773 178.594 28.2441 178.414 28.2213C176.976 28.0709 175.529 28.4235 174.321 29.2191C174.144 29.3244 173.965 29.4394 173.784 29.5641C172.451 29.4565 171.126 29.8525 170.071 30.674C169.015 31.4955 168.306 32.6829 168.083 34.0018Z" fill="#2F2E41"/>
<path d="M169.552 78.913C169.732 78.7009 169.863 78.4519 169.937 78.1837C170.01 77.9154 170.023 77.6343 169.976 77.3603C169.929 77.0862 169.822 76.8258 169.664 76.5974C169.505 76.369 169.298 76.1782 169.058 76.0384L170.882 60.8022L167.634 62.1384L166.374 76.8354C166.166 77.2548 166.119 77.736 166.242 78.1878C166.365 78.6395 166.649 79.0305 167.041 79.2866C167.432 79.5427 167.905 79.6461 168.368 79.5772C168.83 79.5083 169.252 79.272 169.552 78.913Z" fill="#9E616A"/>
<path d="M171.481 46.8311L169.289 45.4344C169.289 45.4344 167.455 45.4506 167.394 48.7672C167.333 52.0838 167.18 58.55 167.18 58.55L165.184 73.4629L169.641 74.0756L171.769 57.9839L173.428 53.1234L171.481 46.8311Z" fill="#CCCCCC"/>
<path d="M181.57 70.2946L169.881 70.0994L168.907 62.109H181.57V70.2946Z" fill="#9E616A"/>
<path d="M170.764 119.18H168.066L166.782 108.767H170.765L170.764 119.18Z" fill="#9E616A"/>
<path d="M187.956 119.143L185.257 119.124L184.046 108.703L187.556 109.508L187.956 119.143Z" fill="#9E616A"/>
<path d="M179.516 55.2273L180.127 56.8179L180.005 58.4079L168.038 62.5542L168.632 55.5943L169.977 54.0038L179.516 55.2273Z" fill="#FFB6B6"/>
<path d="M171.436 117.847L170.765 117.808L167.878 117.636L167.168 117.592V119.422L163.112 122.221C162.911 122.36 162.761 122.559 162.681 122.789C162.602 123.019 162.598 123.269 162.67 123.502C162.743 123.735 162.887 123.938 163.083 124.083C163.28 124.227 163.517 124.305 163.76 124.306H168.837L169.712 122.498L170.056 124.306H171.973L171.436 117.847Z" fill="#2F2E41"/>
<path d="M188.881 117.819L187.901 117.753L185.074 117.564L184.614 117.531L184.603 119.36L180.524 122.138C180.323 122.275 180.171 122.473 180.09 122.703C180.009 122.933 180.004 123.182 180.075 123.415C180.147 123.648 180.29 123.852 180.486 123.997C180.681 124.143 180.918 124.222 181.162 124.222L186.238 124.256L187.13 122.454L187.457 124.267L189.369 124.278L188.881 117.819Z" fill="#2F2E41"/>
<path d="M188.795 111.732L186.831 96.0202L184.493 79.4543C186.205 76.2736 181.848 67.2605 181.848 67.2605L181.805 66.4226L169.489 68.747L169.491 68.7352C166.972 75.6087 166.138 79.0044 166.276 86.324L166.772 112.636H166.616C166.358 112.636 166.11 112.739 165.928 112.922C165.745 113.105 165.642 113.352 165.642 113.611C165.642 113.869 165.745 114.117 165.928 114.3C166.11 114.483 166.358 114.585 166.616 114.585H171.487C171.745 114.585 171.993 114.483 172.176 114.3C172.358 114.117 172.461 113.869 172.461 113.611C172.461 113.352 172.358 113.105 172.176 112.922C171.993 112.739 171.745 112.636 171.487 112.636H171.361L175.832 81.3061L179.622 94.461L183.908 111.612C182.35 111.222 182.592 112.125 182.592 112.636C182.592 112.895 182.694 113.143 182.877 113.325C183.06 113.508 183.307 113.611 183.566 113.611H188.436C188.663 113.611 188.882 113.532 189.057 113.388C189.232 113.244 189.351 113.043 189.393 112.82C189.436 112.598 189.399 112.367 189.29 112.169C189.181 111.97 189.006 111.816 188.795 111.732Z" fill="#2F2E41"/>
<path d="M182.942 63.5457L182.919 63.0101C182.879 62.8511 182.789 62.709 182.663 62.6042C182.536 62.4993 182.38 62.4371 182.217 62.4265C182.054 60.5697 181.371 52.5593 181.33 52.21L181.329 52.1952L181.018 45.5576C181.007 45.3165 180.907 45.0881 180.738 44.9158C180.569 44.7436 180.343 44.6397 180.102 44.624L178.462 44.5167C178.439 44.516 178.418 44.5065 178.402 44.4903C178.386 44.4741 178.378 44.4525 178.378 44.4299C178.378 44.2487 178.342 44.0692 178.273 43.9018C178.203 43.7343 178.102 43.5822 177.974 43.454C177.846 43.3259 177.693 43.2242 177.526 43.1549C177.359 43.0855 177.179 43.0498 176.998 43.0498H172.141C171.826 43.0499 171.523 43.1649 171.287 43.3732C171.051 43.5815 170.899 43.8687 170.86 44.1809C170.858 44.2024 170.848 44.2223 170.831 44.2366C170.815 44.251 170.794 44.2586 170.773 44.2581H170.772C170.22 44.2468 169.682 44.4337 169.256 44.785C168.831 45.1363 168.545 45.6287 168.451 46.1728C167.787 50.0378 166.456 58.8096 167.114 63.6863C167.343 65.384 166.849 64.0394 166.762 65.4598C166.754 65.5971 166.772 65.7347 166.817 65.8648C166.862 65.9949 166.932 66.1149 167.023 66.2179C166.836 66.2857 166.684 66.4243 166.599 66.6037C166.514 66.7831 166.503 66.9887 166.569 67.176L166.484 67.1548C166.534 67.3553 166.662 67.5275 166.84 67.6336C167.017 67.7396 167.23 67.7708 167.43 67.7202L182.354 63.9567C182.771 63.8514 183.047 63.9631 182.942 63.5457Z" fill="#CCCCCC"/>
<path d="M198.927 50.4675C198.851 50.7212 198.721 50.9552 198.545 51.1529C198.369 51.3507 198.151 51.5075 197.908 51.6122C197.665 51.7169 197.402 51.7671 197.138 51.7591C196.873 51.7511 196.614 51.6852 196.377 51.566L191.7 55.8359L191.079 52.5498L195.619 49.0094C195.845 48.6255 196.205 48.3381 196.629 48.2015C197.053 48.065 197.512 48.0889 197.92 48.2686C198.328 48.4483 198.656 48.7714 198.841 49.1767C199.027 49.582 199.057 50.0413 198.927 50.4675Z" fill="#9E616A"/>
<path d="M182.648 47.2037C182.648 47.2037 181.017 43.5168 178.957 44.2497C176.897 44.9826 177.961 48.5598 177.961 48.5598L185.7 60.2253C185.7 60.2253 196.862 53.0624 195.504 53.0118C194.147 52.9612 193.741 50.4916 193.741 50.4916L187.842 53.4404L187.642 52.3907L187.322 52.7107L186.497 52.0607L182.648 47.2037Z" fill="#CCCCCC"/>
</g>
<path d="M109.787 148.912C110.344 148.351 110.772 147.675 111.04 146.931C111.309 146.187 111.41 145.393 111.339 144.605C111.267 143.817 111.024 143.055 110.625 142.371C110.227 141.688 109.684 141.1 109.034 140.649L117.646 97.8575L108.136 100.912L101.242 142.302C100.558 143.445 100.316 144.798 100.562 146.107C100.809 147.416 101.527 148.589 102.58 149.403C103.633 150.218 104.948 150.618 106.276 150.528C107.605 150.437 108.854 149.862 109.787 148.912Z" fill="#9E616A"/>
<path d="M122.503 58.3764L116.602 53.9205C116.602 53.9205 111.396 53.5518 110.475 62.9426C109.553 72.3334 107.66 90.6345 107.66 90.6345L98.6302 132.47L111.129 135.215L120.801 90.0665L126.602 76.6591L122.503 58.3764Z" fill="#CCCCCC"/>
<path d="M112.774 126.691L146.026 126.136L148.796 103.406H112.774V126.691Z" fill="#9E616A"/>
<path d="M143.514 265.749H151.191L154.842 236.13L143.513 236.13L143.514 265.749Z" fill="#9E616A"/>
<path d="M94.6104 265.646L102.286 265.592L105.731 235.948L95.7475 238.238L94.6104 265.646Z" fill="#9E616A"/>
<path d="M118.619 83.8311L116.88 88.3549L117.227 92.8788L151.268 104.673L149.579 84.875L145.752 80.3512L118.619 83.8311Z" fill="#FFB6B6"/>
<path d="M133.223 43.1203C139.937 43.1203 145.381 37.675 145.381 30.9578C145.381 24.2407 139.937 18.7954 133.223 18.7954C126.508 18.7954 121.065 24.2407 121.065 30.9578C121.065 37.675 126.508 43.1203 133.223 43.1203Z" fill="#9E616A"/>
<path d="M141.61 261.961L153.745 261.236V266.437L165.282 274.408C165.851 274.801 166.281 275.367 166.506 276.022C166.732 276.677 166.743 277.387 166.537 278.048C166.331 278.709 165.919 279.287 165.361 279.698C164.803 280.109 164.129 280.33 163.436 280.33H148.99L146.5 275.185L145.527 280.33H140.08L141.61 261.961Z" fill="#2F2E41"/>
<path d="M91.9845 261.876L104.114 261.067L104.15 266.267L115.742 274.157C116.315 274.547 116.748 275.109 116.978 275.762C117.209 276.416 117.224 277.125 117.023 277.788C116.821 278.451 116.413 279.032 115.858 279.446C115.304 279.861 114.631 280.087 113.938 280.092L99.4921 280.193L96.9661 275.066L96.0298 280.217L90.583 280.255L91.9845 261.876Z" fill="#2F2E41"/>
<path d="M92.2218 244.565L97.8113 199.87L104.462 152.747C99.5915 143.699 110.558 115.603 110.558 115.603L112.106 115.677L147.142 122.289L147.134 122.255C154.3 141.808 156.674 151.467 156.281 172.288L154.87 247.136H155.313C156.048 247.136 156.752 247.428 157.272 247.948C157.792 248.468 158.084 249.173 158.084 249.908C158.084 250.644 157.792 251.349 157.272 251.868C156.752 252.388 156.048 252.68 155.313 252.68H141.458C140.723 252.68 140.018 252.388 139.499 251.868C138.979 251.349 138.687 250.644 138.687 249.908C138.687 249.173 138.979 248.468 139.499 247.948C140.018 247.428 140.723 247.136 141.458 247.136H141.815L129.098 158.014L118.316 195.435L106.124 244.221C110.558 243.112 109.869 245.681 109.869 247.136C109.869 247.872 109.577 248.577 109.058 249.096C108.538 249.616 107.833 249.908 107.098 249.908H93.2436C92.5992 249.909 91.9748 249.685 91.478 249.274C90.9811 248.864 90.643 248.293 90.522 247.66C90.4009 247.026 90.5044 246.371 90.8147 245.806C91.125 245.241 91.6227 244.802 92.2218 244.565Z" fill="#2F2E41"/>
<path d="M107.83 117.058L108.938 105.97C109.053 105.518 109.309 105.113 109.667 104.815C110.026 104.517 110.47 104.34 110.936 104.31C111.398 99.0279 113.341 76.2416 113.457 75.2479L113.461 75.2058L114.345 56.3245C114.377 55.6388 114.661 54.9889 115.141 54.499C115.622 54.0092 116.266 53.7136 116.951 53.6688L121.618 53.3637C121.682 53.3615 121.742 53.3346 121.787 53.2885C121.832 53.2424 121.856 53.1809 121.856 53.1168C121.856 52.6012 121.958 52.0907 122.155 51.6144C122.352 51.1381 122.641 50.7053 123.006 50.3408C123.37 49.9762 123.803 49.687 124.279 49.4898C124.755 49.2925 125.265 49.1909 125.781 49.1909H139.597C140.492 49.1913 141.356 49.5184 142.027 50.1108C142.698 50.7032 143.13 51.5202 143.241 52.4085C143.248 52.4697 143.277 52.5263 143.323 52.567C143.369 52.6077 143.428 52.6295 143.49 52.6281L143.491 52.6281C145.061 52.5957 146.591 53.1274 147.802 54.1267C149.014 55.126 149.827 56.5267 150.095 58.0746C151.984 69.0687 155.769 94.0212 153.898 107.893C153.246 112.723 154.651 108.898 154.897 112.938C154.921 113.329 154.869 113.72 154.742 114.09C154.615 114.46 154.416 114.802 154.157 115.095C155.297 115.426 155.74 116.659 155.447 117.82L155.69 117.76C155.546 118.33 155.182 118.82 154.677 119.122C154.172 119.423 153.568 119.512 152.998 119.368L110.546 108.662C109.359 108.363 107.53 118.245 107.83 117.058Z" fill="#CCCCCC"/>
<path d="M120.203 20.1431C117.938 20.8176 115.825 18.9223 114.249 17.1267L114.809 17.7918C111.1 20.4044 108.883 24.6605 107.444 28.9689C106.005 33.2726 105.203 37.7805 103.579 42.0224C101.955 46.2595 99.3339 50.3589 95.3214 52.4728C89.9462 55.3038 83.3602 54.0166 77.6431 51.974C77.5671 51.9455 77.4959 51.9217 77.4199 51.8932C79.7354 47.5664 81.1535 42.8162 81.589 37.9277C79.2371 42.521 75.8453 46.5013 71.6838 49.5514C67.9482 47.8527 64.3561 45.8542 60.9429 43.5757C58.7348 42.0984 56.4081 40.1888 56.1517 37.543C55.8906 34.9161 57.8516 32.5173 60.1641 31.2537C62.4766 29.9902 65.1357 29.5627 67.6619 28.8027C70.1833 28.0474 72.757 26.8076 74.0818 24.5275C77.135 19.2833 71.9972 11.8873 75.2736 6.77614C76.8881 4.26329 80.022 3.25625 82.9281 2.55799C87.3637 1.49663 91.8659 0.736466 96.4041 0.282675C100.388 -0.116353 104.505 -0.263609 108.294 1.01894C112.083 2.30149 115.521 5.27983 116.333 9.20347C118.546 10.3673 120.887 11.6546 122.074 13.8634C123.261 16.0674 122.601 19.4306 120.203 20.1431Z" fill="#2F2E41"/>
<path d="M116.822 19.2595C114.653 21.9775 113.473 24.9168 113.473 26.6771C108.967 34.9149 115.41 41.9908 123.645 46.498C126.929 48.3051 130.722 48.9665 134.424 48.3779L134.769 46.9067L135.235 48.2319C135.235 48.2319 140.597 65.9467 142.365 66.9858C141.694 63.8332 140.926 49.2361 140.552 46.1593C140.035 41.9716 141.838 35.7373 143.138 31.946C143.945 29.6094 144.359 27.1553 144.363 24.6834V24.5753L145.63 28.6445L150.24 26.677C149.382 21.7554 150.24 16.1682 139.957 16.6527C134.395 12.8263 129.497 12.2435 125.474 13.3287C124.955 12.5257 121.961 14.0297 121.096 13.6069" fill="#2F2E41"/>
<path d="M204.42 71.9772C204.194 72.7352 203.804 73.4342 203.278 74.0251C202.753 74.616 202.104 75.0844 201.378 75.3974C200.651 75.7103 199.865 75.8601 199.075 75.8363C198.285 75.8124 197.509 75.6155 196.803 75.2594L182.829 88.0173L180.973 78.1989L194.537 67.6206C195.213 66.4736 196.287 65.6148 197.554 65.2069C198.822 64.799 200.195 64.8703 201.413 65.4073C202.631 65.9443 203.61 66.9097 204.165 68.1206C204.719 69.3315 204.81 70.7037 204.42 71.9772Z" fill="#9E616A"/>
<path d="M155.782 62.2255C155.782 62.2255 150.909 51.2096 144.754 53.3993C138.6 55.589 141.778 66.2773 141.778 66.2773L164.9 101.132C164.9 101.132 198.25 79.7301 194.195 79.579C190.14 79.4278 188.926 72.0491 188.926 72.0491L171.3 80.8596L170.704 77.7232L169.748 78.6794L167.281 76.7372L155.782 62.2255Z" fill="#CCCCCC"/>
</g>
<defs>
<clipPath id="clip0_25_2709">
<rect width="374" height="282" fill="white"/>
</clipPath>
</defs>
</svg>
