<svg width="389" height="337" viewBox="0 0 389 337" fill="none" xmlns="http://www.w3.org/2000/svg">
<g clip-path="url(#clip0_25_2148)">
<path d="M38.5196 312C34.9763 323.836 40.4754 335.937 40.4754 335.937C40.4754 335.937 51.7193 328.848 55.2626 317.012C58.8058 305.176 53.3067 293.075 53.3067 293.075C53.3067 293.075 42.0629 300.164 38.5196 312Z" fill="#F2F2F2"/>
<path d="M43.8994 312.32C46.8816 324.31 40.8188 336.139 40.8188 336.139C40.8188 336.139 29.9211 328.528 26.939 316.539C23.9568 304.549 30.0195 292.72 30.0195 292.72C30.0195 292.72 40.9172 300.331 43.8994 312.32Z" fill="#F2F2F2"/>
<path d="M221.12 324.226L223.376 318.424L202.073 306.964L198.744 315.526L221.12 324.226Z" fill="#FFB8B8"/>
<path d="M233.204 309.092C232.248 308.719 231.228 308.539 230.203 308.562C229.177 308.584 228.166 308.808 227.227 309.221C226.288 309.635 225.439 310.229 224.73 310.97C224.021 311.712 223.465 312.586 223.093 313.542L221.572 317.453L219.226 323.49L218.653 324.97L226.17 327.894L233.441 309.185L233.204 309.092Z" fill="#2F2E41"/>
<path d="M219.227 313.061L218.246 315.662L215.798 322.155L215.739 322.317C209.502 323.118 202.665 321.547 196.341 319.107C193.811 318.131 191.332 317.025 188.916 315.794C185.34 313.987 182.138 312.079 179.583 310.448C175.737 307.98 173.358 306.126 173.358 306.126C173.358 306.126 172.73 306.694 171.593 307.667C170.069 308.971 167.634 311.007 164.55 313.404C163.373 314.325 162.11 315.288 160.76 316.293C150.809 323.674 138.038 303.978 138.038 303.978C138.038 303.978 141.629 301.692 142.568 301.248C145.589 299.818 152.687 296.445 158.811 293.448C161.966 291.901 164.859 290.451 166.801 289.42C173.678 285.759 182.227 292.687 182.227 292.687L219.227 313.061Z" fill="#2F2E41"/>
<path opacity="0.14" d="M219.227 313.061L218.246 315.662L215.798 322.155L215.739 322.317C209.502 323.118 202.665 321.547 196.341 319.107C193.811 318.131 191.332 317.025 188.916 315.794C185.34 313.987 182.138 312.079 179.583 310.448C175.737 307.98 173.358 306.126 173.358 306.126C173.358 306.126 172.73 306.694 171.593 307.667C170.069 308.971 167.634 311.007 164.55 313.404C163.373 314.325 162.11 315.288 160.76 316.293C150.809 323.674 138.038 303.978 138.038 303.978C138.038 303.978 141.629 301.692 142.568 301.248C145.589 299.818 152.687 296.445 158.811 293.448C161.966 291.901 164.859 290.451 166.801 289.42C173.678 285.759 182.227 292.687 182.227 292.687L219.227 313.061Z" fill="black"/>
<path d="M93.2026 174.965C141.518 174.965 180.685 135.798 180.685 87.4824C180.685 39.1672 141.518 0 93.2026 0C44.8875 0 5.72028 39.1672 5.72028 87.4824C5.72028 135.798 44.8875 174.965 93.2026 174.965Z" fill="#EEF1F3"/>
<path opacity="0.2" d="M28.6085 29.051C20.4483 48.139 19.3414 69.5067 25.4854 89.3358C31.6294 109.165 44.624 126.163 62.1472 137.293C79.6703 148.423 100.58 152.96 121.14 150.092C141.7 147.225 160.571 137.14 174.38 121.64C169.395 133.302 161.934 143.741 152.515 152.233C143.095 160.725 131.942 167.068 119.827 170.822C107.713 174.576 94.9272 175.651 82.3561 173.973C69.7849 172.295 57.7288 167.904 47.0231 161.105C36.3174 154.305 27.218 145.259 20.3555 134.593C13.493 123.927 9.03136 111.897 7.27974 99.336C5.52811 86.7749 6.52838 73.9831 10.2112 61.8469C13.8941 49.7107 20.1715 38.5203 28.6085 29.051Z" fill="black"/>
<path d="M93.4429 87.4821H93.6835L98.0096 335.509H88.8766L93.4429 87.4821Z" fill="#3F3D56"/>
<path d="M79.9761 199.968L77.9608 203.796L92.4219 211.41L94.4372 207.582L79.9761 199.968Z" fill="#3F3D56"/>
<path d="M388.389 336.496H0.507698C0.373048 336.496 0.243913 336.443 0.148701 336.348C0.0534891 336.252 0 336.123 0 335.989C0 335.854 0.0534891 335.725 0.148701 335.63C0.243913 335.534 0.373048 335.481 0.507698 335.481H388.389C388.524 335.481 388.653 335.534 388.748 335.63C388.843 335.725 388.897 335.854 388.897 335.989C388.897 336.123 388.843 336.252 388.748 336.348C388.653 336.443 388.524 336.496 388.389 336.496Z" fill="#3F3D56"/>
<path d="M119.688 258.457H90.2413C89.6356 258.457 89.0549 258.216 88.6266 257.787C88.1983 257.359 87.9574 256.778 87.9567 256.173V243.48C87.9567 238.969 89.7486 234.643 92.9382 231.454C96.1278 228.264 100.454 226.472 104.965 226.472C109.475 226.472 113.801 228.264 116.991 231.454C120.181 234.643 121.972 238.969 121.972 243.48V256.173C121.972 256.778 121.731 257.359 121.303 257.787C120.874 258.216 120.294 258.457 119.688 258.457Z" fill="#2F2E41"/>
<path d="M147.691 274.4C147.006 274.52 146.355 274.789 145.785 275.189C145.215 275.588 144.739 276.107 144.391 276.71C144.043 277.313 143.832 277.984 143.772 278.678C143.712 279.371 143.804 280.069 144.043 280.723L136.036 288.087L139.325 294.045L150.486 283.486C151.558 283.012 152.418 282.161 152.904 281.095C153.391 280.029 153.469 278.821 153.124 277.701C152.78 276.581 152.037 275.627 151.035 275.018C150.034 274.41 148.844 274.19 147.691 274.4Z" fill="#FFB8B8"/>
<path d="M123.598 307.884C123.236 307.884 122.874 307.868 122.511 307.837C120.351 307.656 118.273 306.93 116.47 305.727C114.668 304.523 113.2 302.881 112.206 300.955L99.3782 276.264C98.5376 274.646 98.3531 272.766 98.8631 271.016C99.373 269.266 100.538 267.779 102.116 266.866C103.694 265.953 105.564 265.683 107.335 266.113C109.107 266.543 110.645 267.639 111.629 269.174L123.464 295.729L139.568 282.644L148.892 286.274L133.145 303.658C131.934 304.987 130.46 306.049 128.817 306.777C127.173 307.504 125.396 307.881 123.598 307.884Z" fill="#CCCCCC"/>
<path d="M171.05 269.732L156.783 255.465C156.284 254.966 155.607 254.686 154.901 254.686C154.196 254.686 153.519 254.966 153.02 255.465L140.185 268.3C139.686 268.799 139.406 269.476 139.406 270.182C139.406 270.887 139.686 271.564 140.185 272.063L153.515 285.394C153.991 285.869 154.628 286.147 155.3 286.172C155.972 286.196 156.628 285.965 157.137 285.526L170.908 273.628C171.173 273.4 171.39 273.121 171.547 272.809C171.703 272.497 171.797 272.157 171.823 271.808C171.848 271.459 171.805 271.109 171.695 270.778C171.585 270.446 171.411 270.139 171.182 269.874C171.14 269.826 171.096 269.778 171.05 269.732Z" fill="#3F3D56"/>
<path d="M169.031 272.234L154.345 257.549L142.226 269.668L156.341 283.783L169.031 272.234Z" fill="#F2F2F2"/>
<path d="M155.386 276.509C158.68 276.509 161.349 273.839 161.349 270.545C161.349 267.252 158.68 264.582 155.386 264.582C152.092 264.582 149.423 267.252 149.423 270.545C149.423 273.839 152.092 276.509 155.386 276.509Z" fill="#B1060F"/>
<path opacity="0.1" d="M158.04 275.628C159.038 274.691 159.683 273.439 159.866 272.082C160.05 270.726 159.761 269.347 159.049 268.178C158.336 267.01 157.244 266.121 155.954 265.663C154.664 265.205 153.256 265.204 151.965 265.661C152.663 265.173 153.456 264.839 154.293 264.683C155.129 264.527 155.989 264.552 156.816 264.756C157.642 264.96 158.415 265.339 159.083 265.866C159.75 266.394 160.297 267.058 160.687 267.815C161.077 268.571 161.3 269.402 161.342 270.252C161.384 271.102 161.243 271.951 160.93 272.743C160.616 273.534 160.137 274.249 159.524 274.839C158.912 275.43 158.18 275.882 157.377 276.166C157.611 276.003 157.832 275.823 158.04 275.628Z" fill="black"/>
<path d="M152.454 269.36C151.743 270.028 151.705 272.434 152.791 273.589C153.877 274.745 155.675 274.213 156.386 273.545C157.098 272.877 156.452 272.325 155.367 271.17C154.281 270.014 153.165 268.692 152.454 269.36Z" fill="#F2F2F2"/>
<path d="M158.508 272.409C159.484 272.409 160.275 271.618 160.275 270.642C160.275 269.667 159.484 268.875 158.508 268.875C157.532 268.875 156.741 269.667 156.741 270.642C156.741 271.618 157.532 272.409 158.508 272.409Z" fill="#2F2E41"/>
<path d="M155.332 269.029C156.308 269.029 157.099 268.238 157.099 267.262C157.099 266.286 156.308 265.495 155.332 265.495C154.356 265.495 153.565 266.286 153.565 267.262C153.565 268.238 154.356 269.029 155.332 269.029Z" fill="#2F2E41"/>
<path d="M158.508 271.084C158.752 271.084 158.95 270.886 158.95 270.642C158.95 270.398 158.752 270.201 158.508 270.201C158.264 270.201 158.066 270.398 158.066 270.642C158.066 270.886 158.264 271.084 158.508 271.084Z" fill="#F2F2F2"/>
<path d="M158.698 269.775C158.82 269.775 158.919 269.677 158.919 269.555C158.919 269.433 158.82 269.334 158.698 269.334C158.576 269.334 158.477 269.433 158.477 269.555C158.477 269.677 158.576 269.775 158.698 269.775Z" fill="#F2F2F2"/>
<path d="M155.522 266.395C155.644 266.395 155.743 266.296 155.743 266.174C155.743 266.052 155.644 265.953 155.522 265.953C155.4 265.953 155.301 266.052 155.301 266.174C155.301 266.296 155.4 266.395 155.522 266.395Z" fill="#F2F2F2"/>
<path d="M155.332 267.704C155.576 267.704 155.774 267.506 155.774 267.262C155.774 267.018 155.576 266.821 155.332 266.821C155.088 266.821 154.89 267.018 154.89 267.262C154.89 267.506 155.088 267.704 155.332 267.704Z" fill="#F2F2F2"/>
<path d="M219.321 332.385L222.015 326.774L201.656 313.711L197.679 321.992L219.321 332.385Z" fill="#FFB8B8"/>
<path d="M232.532 318.224C231.607 317.78 230.604 317.522 229.58 317.465C228.555 317.408 227.53 317.554 226.562 317.894C225.594 318.234 224.702 318.762 223.938 319.446C223.174 320.131 222.553 320.96 222.109 321.885L220.291 325.667L217.489 331.505L216.803 332.937L224.074 336.43L232.76 318.336L232.532 318.224Z" fill="#2F2E41"/>
<path d="M218.291 321.108L217.113 323.626L214.174 329.911L214.103 330.069C207.822 330.389 201.126 328.297 195.008 325.378C192.56 324.21 190.174 322.917 187.86 321.504C184.433 319.427 181.386 317.28 178.965 315.457C175.32 312.7 173.091 310.67 173.091 310.67C173.091 310.67 172.421 311.188 171.212 312.071C169.593 313.254 167.008 315.097 163.749 317.249C162.505 318.077 161.172 318.94 159.748 319.839C149.259 326.434 134.343 334.465 121.656 336.161C99.3729 339.141 104.617 309.405 104.617 309.405L122.351 300.196L129.881 301.724L138.263 303.42L141.233 304.024C141.233 304.024 141.796 303.811 142.766 303.44C145.888 302.247 153.224 299.429 159.561 296.911C162.825 295.611 165.82 294.388 167.836 293.509C174.974 290.387 182.965 297.952 182.965 297.952L218.291 321.108Z" fill="#2F2E41"/>
<path d="M72.1666 336.871C72.845 336.715 73.481 336.413 74.0298 335.985C74.5786 335.557 75.0268 335.014 75.343 334.394C75.6592 333.774 75.8356 333.092 75.8597 332.396C75.8839 331.701 75.7553 331.008 75.4829 330.368L83.0986 322.599L79.5064 316.82L68.9056 327.942C67.86 328.471 67.0447 329.365 66.6142 330.454C66.1837 331.544 66.168 332.754 66.57 333.855C66.9719 334.956 67.7637 335.871 68.7952 336.426C69.8267 336.982 71.0263 337.141 72.1666 336.871Z" fill="#FFB8B8"/>
<path d="M109.134 259.024C115.691 259.024 121.007 253.708 121.007 247.151C121.007 240.593 115.691 235.278 109.134 235.278C102.576 235.278 97.2606 240.593 97.2606 247.151C97.2606 253.708 102.576 259.024 109.134 259.024Z" fill="#FFB8B8"/>
<path d="M93.6872 280.109L104.03 309.432L103.968 309.534C102.529 311.912 102.059 313.831 102.608 315.082C102.753 315.4 102.965 315.683 103.23 315.911C103.494 316.139 103.805 316.307 104.141 316.404L128.616 299.296L127.759 292.439L127.807 292.363C130.173 288.577 130.939 285.149 130.084 282.174C128.975 278.314 125.451 276.561 125.416 276.544L125.33 276.477L113.123 261.619L96.8044 264.518L93.6872 280.109Z" fill="#CCCCCC"/>
<path d="M77.9587 331.578L71.0299 323.05L87.7329 295.477L95.5203 271.406C95.9457 270.091 96.6481 268.882 97.5801 267.861C98.512 266.841 99.652 266.032 100.923 265.489C102.194 264.946 103.567 264.682 104.949 264.715C106.33 264.747 107.689 265.076 108.933 265.678C110.177 266.28 111.278 267.142 112.161 268.205C113.043 269.268 113.688 270.509 114.051 271.842C114.414 273.176 114.487 274.572 114.265 275.936C114.043 277.3 113.531 278.601 112.764 279.75L98.4669 301.17L77.9587 331.578Z" fill="#CCCCCC"/>
<path d="M125.996 244.749H107.99L107.806 242.164L106.882 244.749H104.11L103.744 239.626L101.914 244.749H96.5496V244.496C96.5536 240.929 97.9724 237.509 100.495 234.987C103.017 232.464 106.437 231.046 110.004 231.042H112.542C116.109 231.046 119.529 232.464 122.051 234.987C124.573 237.509 125.992 240.929 125.996 244.496V244.749Z" fill="#2F2E41"/>
<path d="M107.843 260.827C107.707 260.827 107.572 260.815 107.439 260.791L94.254 258.465V236.674H108.768L108.408 237.093C103.409 242.924 107.175 252.378 109.866 257.495C110.064 257.87 110.152 258.293 110.121 258.716C110.089 259.138 109.939 259.544 109.687 259.885C109.476 260.176 109.199 260.414 108.878 260.578C108.558 260.741 108.203 260.827 107.843 260.827Z" fill="#2F2E41"/>
<path d="M298.597 222.722C330.562 222.722 356.475 196.809 356.475 164.844C356.475 132.879 330.562 106.967 298.597 106.967C266.632 106.967 240.72 132.879 240.72 164.844C240.72 196.809 266.632 222.722 298.597 222.722Z" fill="#D31818"/>
<path d="M283.799 142.348V191.59C283.787 191.818 283.836 192.045 283.942 192.247C284.048 192.45 284.206 192.62 284.401 192.74C284.595 192.859 284.819 192.924 285.047 192.928C285.275 192.931 285.5 192.872 285.698 192.758L324.732 168.137C324.923 168.01 325.079 167.837 325.188 167.635C325.296 167.432 325.353 167.206 325.353 166.977C325.353 166.747 325.296 166.521 325.188 166.319C325.079 166.116 324.923 165.944 324.732 165.816L285.698 141.195C285.502 141.078 285.278 141.016 285.049 141.017C284.821 141.018 284.597 141.081 284.402 141.199C284.206 141.318 284.047 141.487 283.941 141.69C283.835 141.892 283.786 142.119 283.799 142.348Z" fill="#F2F2F2"/>
</g>
<defs>
<clipPath id="clip0_25_2148">
<rect width="388.897" height="337" fill="white"/>
</clipPath>
</defs>
</svg>
