<svg width="23" height="18" viewBox="0 0 23 18" fill="none" xmlns="http://www.w3.org/2000/svg">
<path d="M18.1093 16.0317C18.1001 16.0408 18.088 16.0464 18.0752 16.0476L5.04464 16.0164V13.3396C5.04464 13.2075 5.1811 13.0007 5.319 12.9441C5.35457 12.9296 8.87766 11.3872 11.577 11.3872C14.2705 11.3872 17.7994 12.9296 17.8567 12.9542C17.975 13.0014 18.1093 13.2075 18.1093 13.3404V16.0317ZM9.41041 6.86901V4.49342C9.41041 3.82043 9.67731 3.1749 10.1526 2.69841C10.6278 2.22192 11.2727 1.95336 11.9457 1.95163C12.6187 1.95316 13.2635 2.22169 13.7387 2.69824C14.2139 3.17479 14.4806 3.82044 14.4802 4.49342V6.86901C14.4806 7.542 14.2139 8.18764 13.7387 8.6642C13.2635 9.14075 12.6187 9.40927 11.9457 9.41081C11.2726 9.40946 10.6275 9.14103 10.1522 8.66445C9.6768 8.18788 9.41002 7.54213 9.41041 6.86901ZM18.4207 11.6158C18.3074 11.5665 16.3194 10.6999 14.0883 10.231C14.653 9.87035 15.1179 9.37337 15.4401 8.78582C15.7623 8.19828 15.9314 7.53909 15.9318 6.86901V4.49342C15.9318 2.29131 14.1434 0.5 11.9457 0.5C9.74719 0.5 7.95878 2.29131 7.95878 4.49342V6.86901C7.95878 8.21031 8.62435 9.39702 9.63977 10.1207C7.18652 10.5453 4.85956 11.5607 4.75069 11.6086C4.09093 11.8808 3.59302 12.6247 3.59302 13.3411V16.2081H3.60536C3.65253 16.5654 3.82798 16.8935 4.09903 17.1312C4.37008 17.3689 4.71826 17.4999 5.07876 17.5H18.0752C18.7255 17.5 19.3069 17.0747 19.5224 16.4403L19.5609 16.3278V13.3396C19.5609 12.6182 19.0615 11.8728 18.4207 11.6158Z" fill="#AAAAAA"/>
<path d="M6.68643 9.87754C6.70965 9.87754 6.7307 9.88407 6.75393 9.88407C6.94643 9.88407 7.13104 9.8076 7.26716 9.67149C7.40327 9.53537 7.47974 9.35076 7.47974 9.15826C7.47974 8.96576 7.40327 8.78115 7.26716 8.64503C7.13104 8.50892 6.94643 8.43245 6.75393 8.43245C6.34069 8.43187 5.94459 8.26726 5.65267 7.97479C5.36074 7.68231 5.19687 7.28591 5.19706 6.87267V4.96161C5.19706 4.10297 5.89529 3.40329 6.75393 3.40329C6.94643 3.40329 7.13104 3.32682 7.26716 3.1907C7.40327 3.05458 7.47974 2.86997 7.47974 2.67747C7.47974 2.48498 7.40327 2.30036 7.26716 2.16425C7.13104 2.02813 6.94643 1.95166 6.75393 1.95166C5.956 1.95281 5.19112 2.27045 4.6271 2.83487C4.06309 3.39929 3.74601 4.16441 3.74543 4.96233V6.8734C3.74543 7.61591 4.0256 8.28801 4.4727 8.8135C3.0501 9.25116 1.80678 9.94069 1.57888 10.0713C1.06065 10.3167 0.689758 10.9038 0.689758 11.4881V13.5727C0.689758 13.7652 0.766228 13.9498 0.902344 14.0859C1.03846 14.222 1.22307 14.2985 1.41557 14.2985C1.60807 14.2985 1.79268 14.222 1.9288 14.0859C2.06492 13.9498 2.14138 13.7652 2.14138 13.5727V11.4917C2.15063 11.4528 2.16876 11.4165 2.19437 11.3858C2.22239 11.3739 2.24955 11.3601 2.27566 11.3444C2.96591 10.9423 5.08456 9.89932 6.57973 9.89932C6.61675 9.89932 6.65014 9.88335 6.68643 9.87754Z" fill="#AAAAAA"/>
<path d="M16.967 9.87754C16.9438 9.87754 16.9228 9.88407 16.8995 9.88407C16.707 9.88407 16.5224 9.8076 16.3863 9.67149C16.2502 9.53537 16.1737 9.35076 16.1737 9.15826C16.1737 8.96576 16.2502 8.78115 16.3863 8.64503C16.5224 8.50892 16.707 8.43245 16.8995 8.43245C17.3128 8.43187 17.7089 8.26726 18.0008 7.97479C18.2927 7.68231 18.4566 7.28591 18.4564 6.87267V4.96161C18.4564 4.10297 17.7582 3.40329 16.8995 3.40329C16.707 3.40329 16.5224 3.32682 16.3863 3.1907C16.2502 3.05458 16.1737 2.86997 16.1737 2.67747C16.1737 2.48498 16.2502 2.30036 16.3863 2.16425C16.5224 2.02813 16.707 1.95166 16.8995 1.95166C17.6975 1.95281 18.4624 2.27045 19.0264 2.83487C19.5904 3.39929 19.9075 4.16441 19.908 4.96233V6.8734C19.908 7.61591 19.6279 8.28801 19.1808 8.8135C20.6034 9.25116 21.8467 9.94069 22.0746 10.0713C22.5928 10.3167 22.9637 10.9038 22.9637 11.4881V13.5727C22.9637 13.7652 22.8872 13.9498 22.7511 14.0859C22.615 14.222 22.4304 14.2985 22.2379 14.2985C22.0454 14.2985 21.8608 14.222 21.7247 14.0859C21.5886 13.9498 21.5121 13.7652 21.5121 13.5727V11.4917C21.5028 11.4528 21.4847 11.4165 21.4591 11.3858C21.4311 11.3739 21.4039 11.3601 21.3778 11.3444C20.6876 10.9423 18.5689 9.89932 17.0737 9.89932C17.0367 9.89932 17.0033 9.88335 16.967 9.87754Z" fill="#AAAAAA"/>
</svg>
