<svg width="24" height="25" viewBox="0 0 24 25" fill="none" xmlns="http://www.w3.org/2000/svg">
<path d="M18.2857 3.35718C18.7404 3.35718 19.1764 3.53779 19.4979 3.85928C19.8194 4.18077 20 4.61681 20 5.07146V19.9286C20 20.3833 19.8194 20.8193 19.4979 21.1408C19.1764 21.4623 18.7404 21.6429 18.2857 21.6429H6.85714C6.63202 21.6429 6.4091 21.5986 6.20111 21.5124C5.99313 21.4262 5.80415 21.3 5.64496 21.1408C5.48577 20.9816 5.3595 20.7926 5.27335 20.5846C5.1872 20.3766 5.14286 20.1537 5.14286 19.9286V18.7857H4V17.0715H8V18.7857H6.85714V19.9286H18.2857V5.07146H6.85714V6.21432H8V7.92861H4V6.21432H5.14286V5.07146C5.14286 4.84634 5.1872 4.62342 5.27335 4.41543C5.3595 4.20745 5.48577 4.01847 5.64496 3.85928C5.80415 3.70009 5.99313 3.57382 6.20111 3.48767C6.4091 3.40152 6.63202 3.35718 6.85714 3.35718H18.2857ZM16.7697 6.21432V18.7857H15.0554V6.21432H16.7697ZM6.85714 9.07146V15.9286H5.14286V9.07146H6.85714Z" fill="#AAAAAA"/>
</svg>
