<svg width="24" height="25" viewBox="0 0 24 25" fill="none" xmlns="http://www.w3.org/2000/svg">
<path d="M4.76192 10.6428H19.2381C19.7018 10.6428 19.8834 10.7581 19.9555 10.8302C20.0276 10.9022 20.1429 11.0839 20.1429 11.5476V19.6904C20.1429 20.1541 20.0276 20.3357 19.9555 20.4078C19.8834 20.4799 19.7018 20.5952 19.2381 20.5952H4.76192C4.29821 20.5952 4.1166 20.4799 4.04454 20.4078C3.97247 20.3357 3.85715 20.1541 3.85715 19.6904V11.5476C3.85715 11.0839 3.97247 10.9022 4.04454 10.8302C4.1166 10.7581 4.29821 10.6428 4.76192 10.6428Z" stroke="#AAAAAA" stroke-width="1.80952"/>
<path d="M6.11904 6.11902H17.8809C18.1825 6.11902 18.3333 6.26981 18.3333 6.5714V7.47616C18.3333 7.77775 18.1825 7.92854 17.8809 7.92854H6.11904C5.81745 7.92854 5.66666 7.77775 5.66666 7.47616V6.5714C5.66666 6.26981 5.81745 6.11902 6.11904 6.11902Z" fill="#AAAAAA"/>
<path d="M7.92858 2.5H16.0714C16.373 2.5 16.5238 2.65079 16.5238 2.95238V3.85714C16.5238 4.15873 16.373 4.30952 16.0714 4.30952H7.92858C7.62699 4.30952 7.4762 4.15873 7.4762 3.85714V2.95238C7.4762 2.65079 7.62699 2.5 7.92858 2.5Z" fill="#AAAAAA"/>
</svg>
