<svg width="24" height="24" viewBox="0 0 24 24" fill="none" xmlns="http://www.w3.org/2000/svg">
<path d="M18.2857 2.85715C18.7404 2.85715 19.1764 3.03776 19.4979 3.35925C19.8194 3.68074 20 4.11678 20 4.57143V19.4286C20 19.8832 19.8194 20.3193 19.4979 20.6408C19.1764 20.9622 18.7404 21.1429 18.2857 21.1429H6.85714C6.63202 21.1429 6.4091 21.0985 6.20111 21.0124C5.99313 20.9262 5.80415 20.7999 5.64496 20.6408C5.48577 20.4816 5.3595 20.2926 5.27335 20.0846C5.1872 19.8766 5.14286 19.6537 5.14286 19.4286V18.2857H4V16.5714H8V15.4286H5.14286V8.57143H8V7.42858H4V5.71429H5.14286V4.57143C5.14286 4.34631 5.1872 4.12339 5.27335 3.9154C5.3595 3.70742 5.48577 3.51844 5.64496 3.35925C5.80415 3.20006 5.99313 3.07379 6.20111 2.98764C6.4091 2.90149 6.63202 2.85715 6.85714 2.85715H18.2857ZM16.7697 5.71429H15.0554V18.2857H16.7697V5.71429Z" fill="black"/>
</svg>
