<svg width="16" height="16" viewBox="0 0 16 16" fill="none" xmlns="http://www.w3.org/2000/svg">
<path d="M7.44094 1.33337C6.63102 1.33337 5.85427 1.65919 5.28157 2.23916C4.70886 2.81912 4.38712 3.60572 4.38712 4.42592C4.38712 5.24611 4.70886 6.03271 5.28157 6.61267C5.85427 7.19264 6.63102 7.51846 7.44094 7.51846C8.25086 7.51846 9.02761 7.19264 9.60031 6.61267C10.173 6.03271 10.4947 5.24611 10.4947 4.42592C10.4947 3.60572 10.173 2.81912 9.60031 2.23916C9.02761 1.65919 8.25086 1.33337 7.44094 1.33337ZM7.44094 9.06473C5.40252 9.06473 1.33331 10.093 1.33331 12.1573V13.7035H9.88146C9.84328 13.4484 9.7313 13.1933 9.7313 12.9304C9.7313 11.7707 9.7313 10.6362 11.3082 9.87579C10.1402 9.47376 8.34181 9.06473 7.44094 9.06473Z" fill="black" fill-opacity="0.7"/>
<path d="M12.425 14.0174C12.1081 14.0176 11.7982 13.9225 11.5347 13.7443C11.2711 13.5661 11.0656 13.3128 10.9443 13.0163C10.8229 12.7198 10.7911 12.3935 10.8529 12.0788C10.9147 11.764 11.0673 11.4748 11.2914 11.2479C11.5155 11.0209 11.801 10.8664 12.1119 10.8038C12.4227 10.7413 12.7449 10.7735 13.0377 10.8963C13.3304 11.0192 13.5806 11.2273 13.7566 11.4942C13.9326 11.7611 14.0264 12.0749 14.0263 12.3958C14.0255 12.8257 13.8565 13.2376 13.5564 13.5416C13.2563 13.8455 12.8494 14.0166 12.425 14.0174ZM12.425 10.125C11.9815 10.1248 11.5478 10.2579 11.179 10.5073C10.8101 10.7568 10.5226 11.1114 10.3527 11.5263C10.1829 11.9412 10.1384 12.3978 10.2248 12.8384C10.3113 13.2789 10.5248 13.6836 10.8383 14.0013C11.1519 14.319 11.5515 14.5353 11.9865 14.623C12.4215 14.7107 12.8724 14.6658 13.2822 14.4939C13.692 14.3221 14.0422 14.031 14.2887 13.6575C14.5351 13.2841 14.6666 12.845 14.6666 12.3958C14.666 11.7939 14.4297 11.2168 14.0094 10.7911C13.5892 10.3654 13.0194 10.1258 12.425 10.125Z" fill="black" fill-opacity="0.7"/>
<path d="M12.425 11.422C12.2348 11.422 12.0488 11.4791 11.8906 11.5862C11.7325 11.6932 11.6092 11.8454 11.5364 12.0234C11.4637 12.2014 11.4447 12.3972 11.4819 12.5862C11.519 12.7751 11.6107 12.9486 11.7453 13.0848C11.8798 13.221 12.0513 13.3137 12.2379 13.3512C12.4245 13.3886 12.6179 13.3692 12.7936 13.2954C12.9693 13.2216 13.1194 13.0966 13.225 12.9364C13.3306 12.7761 13.3868 12.5878 13.3867 12.3951C13.3868 12.2672 13.362 12.1406 13.3137 12.0224C13.2654 11.9043 13.1945 11.7969 13.1052 11.7065C13.0159 11.6161 12.9098 11.5445 12.7931 11.4956C12.6764 11.4468 12.5513 11.4218 12.425 11.422Z" fill="black" fill-opacity="0.7"/>
</svg>
