<svg width="24" height="24" viewBox="0 0 24 24" fill="none" xmlns="http://www.w3.org/2000/svg">
<path d="M11.1614 2C9.94655 2 8.78143 2.48873 7.92238 3.35868C7.06333 4.22862 6.58072 5.40852 6.58072 6.63881C6.58072 7.8691 7.06333 9.049 7.92238 9.91895C8.78143 10.7889 9.94655 11.2776 11.1614 11.2776C12.3763 11.2776 13.5414 10.7889 14.4005 9.91895C15.2595 9.049 15.7422 7.8691 15.7422 6.63881C15.7422 5.40852 15.2595 4.22862 14.4005 3.35868C13.5414 2.48873 12.3763 2 11.1614 2ZM11.1614 13.597C8.10381 13.597 2 15.1394 2 18.2358V20.5552H14.8222C14.765 20.1725 14.597 19.7898 14.597 19.3955C14.597 17.656 14.597 15.9543 16.9624 14.8136C15.2103 14.2106 12.5127 13.597 11.1614 13.597Z" fill="black" fill-opacity="0.7"/>
<path d="M18.6377 21.0261C18.1623 21.0264 17.6976 20.8838 17.3022 20.6165C16.9068 20.3492 16.5987 19.9691 16.4166 19.5244C16.2346 19.0797 16.1869 18.5903 16.2796 18.1181C16.3723 17.646 16.6012 17.2122 16.9373 16.8718C17.2735 16.5314 17.7018 16.2996 18.168 16.2058C18.6343 16.1119 19.1176 16.1602 19.5567 16.3445C19.9959 16.5289 20.3712 16.8409 20.6351 17.2413C20.8991 17.6417 21.0399 18.1124 21.0396 18.5938C21.0384 19.2385 20.785 19.8565 20.3348 20.3124C19.8846 20.7683 19.2744 21.0249 18.6377 21.0261ZM18.6377 15.1875C17.9724 15.1873 17.322 15.3868 16.7687 15.761C16.2154 16.1351 15.7841 16.667 15.5293 17.2894C15.2746 17.9118 15.2078 18.5968 15.3374 19.2576C15.4671 19.9184 15.7874 20.5255 16.2577 21.002C16.7281 21.4784 17.3274 21.803 17.9799 21.9345C18.6324 22.066 19.3088 21.9986 19.9235 21.7409C20.5382 21.4831 21.0636 21.0465 21.4332 20.4863C21.8029 19.9261 22.0002 19.2675 22.0002 18.5938C21.9993 17.6909 21.6447 16.8252 21.0144 16.1866C20.384 15.548 19.5293 15.1887 18.6377 15.1875Z" fill="black" fill-opacity="0.7"/>
<path d="M18.6378 17.1328C18.3525 17.1328 18.0735 17.2185 17.8363 17.3791C17.5991 17.5397 17.4142 17.7679 17.305 18.0349C17.1959 18.3019 17.1674 18.5957 17.2231 18.8791C17.2789 19.1625 17.4164 19.4228 17.6182 19.627C17.8201 19.8313 18.0772 19.9703 18.3571 20.0265C18.637 20.0828 18.9271 20.0537 19.1907 19.9429C19.4542 19.8322 19.6795 19.6448 19.8378 19.4044C19.9962 19.164 20.0806 18.8815 20.0804 18.5925C20.0805 18.4007 20.0433 18.2107 19.9709 18.0334C19.8984 17.8562 19.7921 17.6952 19.6581 17.5596C19.5241 17.424 19.3651 17.3165 19.19 17.2433C19.0149 17.17 18.8273 17.1325 18.6378 17.1328Z" fill="black" fill-opacity="0.7"/>
</svg>
