<svg width="24" height="24" viewBox="0 0 24 24" fill="none" xmlns="http://www.w3.org/2000/svg">
<path d="M19.657 14.1283L18.6168 18.8026C18.3796 19.8684 17.7862 20.8215 16.9344 21.5046C16.0826 22.1877 15.0234 22.56 13.9315 22.56H10.0685C8.9767 22.5599 7.91757 22.1875 7.06588 21.5044C6.21419 20.8213 5.62082 19.8683 5.38368 18.8026L4.34304 14.1283C4.30221 13.9444 4.31639 13.7525 4.38382 13.5766C4.45125 13.4007 4.56894 13.2485 4.72224 13.139C7.11696 11.4283 9.5472 10.56 12 10.56C14.4528 10.56 16.883 11.4283 19.2782 13.139C19.4315 13.2485 19.5492 13.4007 19.6167 13.5766C19.6841 13.7525 19.6983 13.9444 19.6574 14.1283H19.657ZM11.2099 14.952C11.1827 15.2233 11.0625 15.4769 10.8697 15.6697C10.6769 15.8625 10.4233 15.9827 10.152 16.0099L8.748 16.1506C8.58716 16.1669 8.43811 16.2424 8.32973 16.3624C8.22135 16.4824 8.16135 16.6383 8.16135 16.8C8.16135 16.9617 8.22135 17.1176 8.32973 17.2376C8.43811 17.3576 8.58716 17.4331 8.748 17.4494L10.152 17.5901C10.4233 17.6173 10.6769 17.7375 10.8697 17.9303C11.0625 18.1231 11.1827 18.3767 11.2099 18.648L11.3506 20.052C11.3669 20.2128 11.4424 20.3619 11.5624 20.4703C11.6824 20.5787 11.8383 20.6387 12 20.6387C12.1617 20.6387 12.3176 20.5787 12.4376 20.4703C12.5576 20.3619 12.6331 20.2128 12.6494 20.052L12.7901 18.648C12.8173 18.3767 12.9375 18.1231 13.1303 17.9303C13.3231 17.7375 13.5767 17.6173 13.848 17.5901L15.252 17.4494C15.4129 17.4331 15.5619 17.3576 15.6703 17.2376C15.7787 17.1176 15.8387 16.9617 15.8387 16.8C15.8387 16.6383 15.7787 16.4824 15.6703 16.3624C15.5619 16.2424 15.4129 16.1669 15.252 16.1506L13.848 16.0099C13.5767 15.9827 13.3231 15.8625 13.1303 15.6697C12.9375 15.4769 12.8173 15.2233 12.7901 14.952L12.6494 13.548C12.6331 13.3871 12.5576 13.2381 12.4376 13.1297C12.3176 13.0213 12.1617 12.9613 12 12.9613C11.8383 12.9613 11.6824 13.0213 11.5624 13.1297C11.4424 13.2381 11.3669 13.3871 11.3506 13.548L11.2099 14.952ZM11.2066 1.44H12.7934C13.1918 1.43995 13.5859 1.52256 13.9507 1.68259C14.3155 1.84263 14.6432 2.07661 14.913 2.36975C15.1827 2.66289 15.3888 3.00881 15.518 3.38565C15.6473 3.76248 15.6969 4.16203 15.6638 4.55904L15.5558 5.84784C15.4811 6.73947 15.0741 7.57047 14.4155 8.17615C13.7569 8.78183 12.8948 9.11798 12 9.11798C11.1052 9.11798 10.2431 8.78183 9.58454 8.17615C8.92595 7.57047 8.51893 6.73947 8.44416 5.84784L8.33664 4.55904C8.30358 4.16203 8.35324 3.76248 8.48248 3.38565C8.61173 3.00881 8.81775 2.66289 9.08752 2.36975C9.3573 2.07661 9.68495 1.84263 10.0498 1.68259C10.4146 1.52256 10.8087 1.43995 11.207 1.44H11.2066Z" fill="black" fill-opacity="0.7"/>
</svg>
