<svg width="94" height="94" viewBox="0 0 94 94" fill="none" xmlns="http://www.w3.org/2000/svg">
<path d="M46.9983 86.1663C68.3871 86.1663 86.1649 68.4262 86.1649 46.9997C86.1649 25.6109 68.3478 7.83301 46.959 7.83301C25.5341 7.83301 7.83325 25.6109 7.83325 46.9997C7.83325 68.4261 25.5718 86.1663 46.9983 86.1663ZM46.9983 79.6391C28.8731 79.6391 14.3949 65.1232 14.3949 46.9997C14.3949 28.9122 28.8338 14.3602 46.959 14.3602C65.0448 14.3602 79.5967 28.9138 79.6361 46.9997C79.6738 65.1249 65.0841 79.6391 46.9983 79.6391Z" fill="#AAAAAA" stroke="white" stroke-width="0.5"/>
<path d="M45.5812 46.9664C50.5973 47.0003 54.6111 42.7105 54.6111 37.0699C54.6111 31.8117 50.5973 27.417 45.5812 27.417C40.5636 27.417 36.5513 31.8117 36.5513 37.0714C36.5513 42.7105 40.5636 46.9324 45.5812 46.9664ZM29.4581 66.5837H61.6689C63.0536 66.5837 63.7459 65.6492 63.7459 64.4033C63.7459 60.5283 57.9326 50.5299 45.5812 50.5299C33.2298 50.5299 27.4165 60.5283 27.4165 64.4033C27.4165 65.6492 28.1088 66.5837 29.4581 66.5837Z" fill="#AAAAAA"/>
</svg>
