<svg width="32" height="32" viewBox="0 0 32 32" fill="none" xmlns="http://www.w3.org/2000/svg">
<path d="M8.00001 22.5847V25.4127L6.74534 26.6673H3.91868L7.99868 22.5847H8.00001ZM29.336 19.2473V22.0767L24.7467 26.6673H23.992V24.5913L29.336 19.2473ZM11.6667 18.6673H20.3267C20.9125 18.6674 21.4768 18.8878 21.9076 19.2847C22.3384 19.6817 22.6041 20.2261 22.652 20.81L22.66 21.0007V26.6673H9.33334V21.0007C9.33337 20.4151 9.55357 19.8509 9.95025 19.4201C10.3469 18.9894 10.8911 18.7235 11.4747 18.6753L11.6667 18.6673ZM10.6947 13.8887C10.7747 14.6607 11.0187 15.382 11.392 16.022L2.66668 24.7473V21.918L10.6947 13.8887ZM29.3347 13.2433V16.074L23.992 21.4207V21.0007L23.9867 20.7766C23.9515 20.1889 23.7745 19.6184 23.4707 19.114L29.3333 13.2433H29.3347ZM16.0747 5.33398L2.66668 18.7473V15.9193L13.248 5.33398H16.0747ZM29.336 7.24332V10.074L21.78 17.634C21.416 17.4762 21.0287 17.3789 20.6333 17.346L20.3267 17.334H19.5267C19.9827 16.9327 20.3693 16.454 20.6667 15.918L29.336 7.24332ZM16 9.33398C16.5253 9.33398 17.0454 9.43745 17.5307 9.63847C18.016 9.83949 18.457 10.1341 18.8284 10.5056C19.1999 10.877 19.4945 11.3179 19.6955 11.8033C19.8965 12.2886 20 12.8087 20 13.334C20 13.8593 19.8965 14.3794 19.6955 14.8647C19.4945 15.35 19.1999 15.791 18.8284 16.1624C18.457 16.5338 18.016 16.8285 17.5307 17.0295C17.0454 17.2305 16.5253 17.334 16 17.334C14.9391 17.334 13.9217 16.9126 13.1716 16.1624C12.4214 15.4123 12 14.3948 12 13.334C12 12.2731 12.4214 11.2557 13.1716 10.5056C13.9217 9.75541 14.9391 9.33398 16 9.33398ZM10.0787 5.33398L2.66534 12.7473V9.91798L7.25201 5.33398H10.0787ZM28.0747 5.33398L21.2133 12.1993C21.0599 11.4936 20.7641 10.8267 20.344 10.2393L25.2467 5.33398H28.076H28.0747ZM22.0773 5.33398L18.6867 8.72598C18.0334 8.34438 17.306 8.10706 16.5533 8.02998L19.2507 5.33398H22.0787H22.0773Z" fill="white"/>
</svg>
