<svg width="24" height="24" viewBox="0 0 24 24" fill="none" xmlns="http://www.w3.org/2000/svg">
<g clip-path="url(#clip0_423_3059)">
<path d="M2.86404 6.90735L1.99487 5.49068L7.60737 2.05151L8.47571 3.47318L2.86404 6.90735ZM20.5615 15.514L17.124 21.0832L18.5407 21.959L21.9782 16.389L20.5615 15.514ZM19.4365 14.1665L15.3332 20.819C15.1462 21.1358 14.8889 21.4053 14.5811 21.6067C14.2733 21.8081 13.9233 21.9361 13.5582 21.9807C13.4531 21.9934 13.3474 21.9998 13.2415 21.9998C12.9236 22.0001 12.6088 21.9373 12.3153 21.8152C12.0218 21.693 11.7554 21.5139 11.5315 21.2882L10.729 20.4857C9.9666 21.0193 9.04052 21.2673 8.11344 21.186C7.18636 21.1047 6.31757 20.6993 5.65966 20.0411C5.00175 19.3829 4.59679 18.5139 4.5159 17.5868C4.43502 16.6597 4.68338 15.7337 5.21737 14.9715L2.71071 12.464C2.45643 12.2097 2.26186 11.9021 2.1411 11.5634C2.02033 11.2246 1.97638 10.8633 2.01243 10.5055C2.04848 10.1477 2.16363 9.80241 2.34954 9.49459C2.53545 9.18676 2.78748 8.92413 3.08737 8.72568L9.55571 4.76735C10.7786 3.98357 12.2158 3.60151 13.6664 3.67457C15.1171 3.74763 16.5086 4.27217 17.6465 5.17485L19.2232 3.59818L20.4015 4.77651L18.8182 6.35985C19.6826 7.45368 20.2028 8.7795 20.3129 10.1693C20.4229 11.5591 20.1179 12.9502 19.4365 14.1665ZM9.50821 19.2648L6.43154 16.1857C6.20269 16.6163 6.1189 17.1093 6.19262 17.5914C6.26634 18.0735 6.49362 18.5189 6.84071 18.8615C7.1904 19.194 7.63383 19.411 8.11095 19.4832C8.58807 19.5553 9.07584 19.4791 9.50821 19.2648ZM17.1082 6.91651C16.2485 6.05011 15.1176 5.50481 13.9043 5.37165C12.691 5.2385 11.4687 5.52553 10.4415 6.18485L3.98154 10.1315C3.89316 10.1933 3.81948 10.2738 3.76575 10.3672C3.71202 10.4607 3.67957 10.5649 3.67071 10.6723C3.65867 10.7844 3.67205 10.8978 3.70985 11.0039C3.74765 11.1101 3.8089 11.2064 3.88904 11.2857L12.7107 20.1098C12.7917 20.1932 12.8911 20.2562 13.001 20.2939C13.1109 20.3315 13.2282 20.3427 13.3432 20.3265C13.4584 20.3126 13.5687 20.2722 13.6656 20.2084C13.7625 20.1446 13.8432 20.0593 13.9015 19.959L18.0015 13.3148C18.567 12.2958 18.7856 11.1205 18.6244 9.96635C18.4633 8.81216 17.9311 7.7417 17.1082 6.91651Z" fill="black"/>
</g>
<defs>
<clipPath id="clip0_423_3059">
<rect width="20" height="20" fill="white" transform="translate(2 2)"/>
</clipPath>
</defs>
</svg>
