<svg width="21" height="18" viewBox="0 0 21 18" fill="none" xmlns="http://www.w3.org/2000/svg">
<path d="M20.25 0.773438H14.8875C13.7367 0.773438 12.6117 1.10391 11.6437 1.72734L10.5 2.46094L9.35625 1.72734C8.38924 1.10403 7.26299 0.772823 6.1125 0.773438H0.75C0.335156 0.773438 0 1.10859 0 1.52344V14.8359C0 15.2508 0.335156 15.5859 0.75 15.5859H6.1125C7.26328 15.5859 8.38828 15.9164 9.35625 16.5398L10.3969 17.2102C10.4273 17.2289 10.4625 17.2406 10.4977 17.2406C10.5328 17.2406 10.568 17.2313 10.5984 17.2102L11.6391 16.5398C12.6094 15.9164 13.7367 15.5859 14.8875 15.5859H20.25C20.6648 15.5859 21 15.2508 21 14.8359V1.52344C21 1.10859 20.6648 0.773438 20.25 0.773438ZM6.1125 13.8984H1.6875V2.46094H6.1125C6.94219 2.46094 7.74844 2.69766 8.44453 3.14531L9.58828 3.87891L9.75 3.98438V14.8125C8.63437 14.2125 7.3875 13.8984 6.1125 13.8984ZM19.3125 13.8984H14.8875C13.6125 13.8984 12.3656 14.2125 11.25 14.8125V3.98438L11.4117 3.87891L12.5555 3.14531C13.2516 2.69766 14.0578 2.46094 14.8875 2.46094H19.3125V13.8984ZM7.80234 5.46094H3.44766C3.35625 5.46094 3.28125 5.54063 3.28125 5.63672V6.69141C3.28125 6.7875 3.35625 6.86719 3.44766 6.86719H7.8C7.89141 6.86719 7.96641 6.7875 7.96641 6.69141V5.63672C7.96875 5.54063 7.89375 5.46094 7.80234 5.46094ZM13.0312 5.63672V6.69141C13.0312 6.7875 13.1062 6.86719 13.1977 6.86719H17.55C17.6414 6.86719 17.7164 6.7875 17.7164 6.69141V5.63672C17.7164 5.54063 17.6414 5.46094 17.55 5.46094H13.1977C13.1062 5.46094 13.0312 5.54063 13.0312 5.63672ZM7.80234 8.74219H3.44766C3.35625 8.74219 3.28125 8.82188 3.28125 8.91797V9.97266C3.28125 10.0688 3.35625 10.1484 3.44766 10.1484H7.8C7.89141 10.1484 7.96641 10.0688 7.96641 9.97266V8.91797C7.96875 8.82188 7.89375 8.74219 7.80234 8.74219ZM17.5523 8.74219H13.1977C13.1062 8.74219 13.0312 8.82188 13.0312 8.91797V9.97266C13.0312 10.0688 13.1062 10.1484 13.1977 10.1484H17.55C17.6414 10.1484 17.7164 10.0688 17.7164 9.97266V8.91797C17.7188 8.82188 17.6438 8.74219 17.5523 8.74219Z" fill="white"/>
</svg>
