<svg width="14" height="19" viewBox="0 0 14 19" fill="none" xmlns="http://www.w3.org/2000/svg">
<path d="M12.25 0H1.75C1.35218 0 0.970644 0.158035 0.68934 0.43934C0.408035 0.720644 0.25 1.10218 0.25 1.5V18C0.250717 18.1335 0.286628 18.2645 0.354112 18.3797C0.421596 18.4949 0.518266 18.5903 0.634375 18.6562C0.745606 18.7198 0.871913 18.7522 1 18.75C1.13921 18.7503 1.27568 18.7113 1.39375 18.6375L7 15.1312L12.5969 18.6375C12.7124 18.7069 12.844 18.7452 12.9788 18.7485C13.1135 18.7518 13.2468 18.72 13.3656 18.6562C13.4817 18.5903 13.5784 18.4949 13.6459 18.3797C13.7134 18.2645 13.7493 18.1335 13.75 18V1.5C13.75 1.10218 13.592 0.720644 13.3107 0.43934C13.0294 0.158035 12.6478 0 12.25 0Z" fill="black"/>
</svg>
