<svg width="19" height="16" viewBox="0 0 19 16" fill="none" xmlns="http://www.w3.org/2000/svg">
<path d="M1.04811 3.21796C1.27257 2.98588 1.54223 2.8023 1.84045 2.67857C2.13867 2.55484 2.45909 2.49359 2.78192 2.49861H4.9215L5.41029 1.20748C5.56134 0.886186 5.79334 0.60969 6.08352 0.405137C6.36676 0.192737 6.70742 0.0706115 7.06109 0.0546875H11.9582C12.3162 0.0626346 12.6621 0.185499 12.945 0.405137C13.2326 0.609939 13.4616 0.886585 13.609 1.20748L14.1439 2.49861H16.3296C16.6517 2.49861 16.9707 2.56207 17.2683 2.68535C17.566 2.80863 17.8364 2.98933 18.0642 3.21713C18.292 3.44492 18.4727 3.71535 18.596 4.01298C18.7193 4.31061 18.7827 4.62961 18.7827 4.95176V13.5562C18.7827 13.878 18.7192 14.1965 18.5958 14.4936C18.4724 14.7907 18.2916 15.0606 18.0636 15.2876C17.8357 15.5147 17.5652 15.6945 17.2676 15.8168C16.9701 15.9391 16.6513 16.0014 16.3296 16.0002H2.78192C2.46029 16.0026 2.14139 15.9411 1.84377 15.8191C1.54615 15.6972 1.27576 15.5173 1.04833 15.2898C0.820896 15.0624 0.640972 14.792 0.519022 14.4944C0.397072 14.1968 0.335537 13.8779 0.337992 13.5562V4.95176C0.33123 4.62953 0.390774 4.30935 0.512934 4.01109C0.635092 3.71283 0.817255 3.44287 1.04811 3.21796ZM9.56035 13.1504C10.3629 13.1504 11.1475 12.9125 11.8148 12.4666C12.4821 12.0207 13.0022 11.387 13.3093 10.6455C13.6164 9.904 13.6968 9.08811 13.5402 8.30096C13.3836 7.51382 12.9972 6.79078 12.4297 6.22328C11.8622 5.65578 11.1391 5.26931 10.352 5.11274C9.56485 4.95616 8.74896 5.03652 8.00749 5.34365C7.26601 5.65078 6.63226 6.17088 6.18638 6.83819C5.7405 7.5055 5.50251 8.29004 5.50251 9.09261C5.50495 10.1681 5.93325 11.1988 6.69372 11.9592C7.45418 12.7197 8.48489 13.148 9.56035 13.1504Z" fill="black" fill-opacity="0.7"/>
<path d="M9.56018 6.42495C10.0987 6.42495 10.625 6.58475 11.0726 6.8841C11.5202 7.18345 11.8689 7.6089 12.0746 8.10656C12.2802 8.60422 12.3335 9.15171 12.2278 9.67971C12.1221 10.2077 11.8621 10.6924 11.4806 11.0726C11.0992 11.4527 10.6136 11.7111 10.0853 11.815C9.55691 11.9189 9.0096 11.8637 8.51264 11.6564C8.01568 11.4491 7.59142 11.0989 7.29359 10.6503C6.99576 10.2017 6.83775 9.67479 6.83958 9.13632C6.83711 8.77879 6.90586 8.42435 7.04183 8.09367C7.17779 7.763 7.37824 7.4627 7.63149 7.21032C7.88474 6.95793 8.18571 6.7585 8.51684 6.62366C8.84798 6.48882 9.20266 6.42127 9.56018 6.42495Z" fill="black" fill-opacity="0.7"/>
</svg>
