<svg width="13" height="12" viewBox="0 0 13 12" fill="none" xmlns="http://www.w3.org/2000/svg">
<path d="M1.17731 2.95749C1.31884 2.81115 1.48888 2.69539 1.67692 2.61738C1.86496 2.53936 2.06701 2.50074 2.27056 2.50391H3.61968L3.92788 1.68979C4.02313 1.48719 4.16942 1.31285 4.35239 1.18387C4.53098 1.04994 4.74579 0.972932 4.9688 0.962891H8.05665C8.28239 0.967902 8.50053 1.04537 8.67887 1.18387C8.86026 1.313 9.00462 1.48744 9.09756 1.68979L9.43484 2.50391H10.813C11.0162 2.50391 11.2173 2.54392 11.405 2.62165C11.5926 2.69939 11.7632 2.81333 11.9068 2.95696C12.0504 3.1006 12.1644 3.27112 12.2421 3.45879C12.3199 3.64646 12.3599 3.84761 12.3599 4.05074V9.47629C12.3599 9.67915 12.3198 9.88001 12.242 10.0674C12.1642 10.2547 12.0502 10.4248 11.9065 10.568C11.7627 10.7112 11.5922 10.8246 11.4045 10.9017C11.2169 10.9788 11.0159 11.0181 10.813 11.0173H2.27056C2.06776 11.0189 1.86668 10.9801 1.67902 10.9032C1.49135 10.8263 1.32086 10.7128 1.17745 10.5694C1.03404 10.426 0.920592 10.2555 0.843697 10.0678C0.766802 9.88017 0.728 9.67909 0.729548 9.47629V4.05074C0.725285 3.84756 0.762831 3.64566 0.839857 3.4576C0.916884 3.26953 1.03175 3.09931 1.17731 2.95749ZM6.5447 9.22042C7.05076 9.22042 7.54545 9.07036 7.96623 8.78921C8.387 8.50806 8.71495 8.10845 8.90861 7.64091C9.10227 7.17337 9.15294 6.65891 9.05421 6.16258C8.95548 5.66624 8.71179 5.21033 8.35396 4.85249C7.99612 4.49466 7.54021 4.25097 7.04388 4.15224C6.54754 4.05351 6.03308 4.10418 5.56555 4.29784C5.09801 4.4915 4.6984 4.81946 4.41725 5.24023C4.1361 5.661 3.98604 6.15569 3.98604 6.66175C3.98757 7.33988 4.25764 7.98979 4.73715 8.46931C5.21666 8.94882 5.86658 9.21888 6.5447 9.22042Z" fill="black" fill-opacity="0.7"/>
<path d="M6.5443 4.97958C6.88384 4.97958 7.21574 5.08034 7.49797 5.2691C7.7802 5.45786 8.00007 5.72612 8.12974 6.03992C8.25941 6.35372 8.29304 6.69894 8.22637 7.03187C8.15971 7.3648 7.99575 7.67045 7.75525 7.91013C7.51476 8.14981 7.20855 8.31273 6.87539 8.37827C6.54224 8.4438 6.19714 8.409 5.88378 8.27827C5.57042 8.14753 5.3029 7.92675 5.11511 7.64388C4.92731 7.36101 4.82768 7.02877 4.82883 6.68924C4.82727 6.4638 4.87062 6.2403 4.95636 6.0318C5.04209 5.82329 5.16848 5.63394 5.32817 5.4748C5.48785 5.31565 5.67763 5.1899 5.88643 5.10488C6.09523 5.01985 6.31887 4.97726 6.5443 4.97958Z" fill="#FF0000"/>
</svg>
