<svg width="24" height="24" viewBox="0 0 24 24" fill="none" xmlns="http://www.w3.org/2000/svg">
<path d="M15.7054 3C16.8754 3 17.823 3.94757 17.823 5.11757V11.4703H16.2351L13.5866 10.0586L10.9406 11.4703V14.646L12.5297 15.177L11.4703 15.4727V17.823H5.11886C3.94629 17.8243 3 16.8767 3 15.7054V5.11757C3 3.94757 3.94757 3 5.11757 3H15.7054ZM7.23257 10.0586L4.58914 11.4703V14.646L7.23771 15.7054L9.88371 14.6473V11.4716L7.23514 10.0573L7.23257 10.0586ZM10.4096 5.11757L8.29457 6.24643V8.99143L10.4121 10.0586L12.5297 8.99143V6.24643L10.4096 5.11757Z" fill="black" fill-opacity="0.7"/>
<g clip-path="url(#clip0_118_3417)">
<path d="M16.1989 12.6244L17.3012 12.8789C17.4315 12.9083 17.5466 12.9841 17.6251 13.0922C17.7036 13.2003 17.74 13.3332 17.7277 13.4662L17.6931 13.8174C17.6912 13.8375 17.6938 13.8578 17.7008 13.8767C17.7078 13.8956 17.719 13.9127 17.7336 13.9267L17.9837 14.165C17.9986 14.1792 18.0166 14.1898 18.0363 14.1959C18.0559 14.202 18.0767 14.2034 18.0971 14.2001L18.4874 14.1363C18.6186 14.1147 18.7532 14.1408 18.8667 14.2101C18.9803 14.2793 19.0652 14.3869 19.1061 14.5134L19.4427 15.5699C19.5274 15.8358 19.3964 16.1203 19.1402 16.2315L18.7375 16.4064C18.7184 16.4147 18.7015 16.4273 18.6882 16.4433C18.6749 16.4593 18.6655 16.4782 18.6608 16.4985L18.6103 16.7174C18.6056 16.7377 18.6058 16.7588 18.6107 16.779C18.6157 16.7992 18.6253 16.818 18.6388 16.8338L18.9244 17.1676C19.1057 17.3795 19.0988 17.6926 18.906 17.8948L18.1404 18.6964C18.0482 18.7922 17.9246 18.8517 17.7923 18.8642C17.6599 18.8766 17.5274 18.8411 17.419 18.7642L17.0961 18.5357C17.0793 18.5239 17.0599 18.5161 17.0395 18.513C17.0192 18.5099 16.9984 18.5116 16.9788 18.5179L16.6495 18.6225C16.6302 18.6287 16.6126 18.6391 16.598 18.6531C16.5834 18.6671 16.5722 18.6843 16.5651 18.7032L16.4422 19.0341C16.395 19.1589 16.3039 19.2623 16.186 19.325C16.0681 19.3877 15.9315 19.4053 15.8015 19.3747L14.6992 19.1202C14.5689 19.0908 14.4538 19.0149 14.3753 18.9069C14.2968 18.7988 14.2604 18.6658 14.2727 18.5329L14.3073 18.1816C14.3092 18.1615 14.3066 18.1413 14.2996 18.1224C14.2926 18.1034 14.2814 18.0864 14.2668 18.0724L14.0167 17.834C14.0018 17.8198 13.9838 17.8093 13.9641 17.8032C13.9445 17.7971 13.9237 17.7957 13.9033 17.799L13.513 17.8628C13.3818 17.8844 13.2472 17.8582 13.1337 17.789C13.0201 17.7198 12.9352 17.6121 12.8943 17.4856L12.5577 16.4291C12.5169 16.301 12.5253 16.1622 12.5813 16.04C12.6372 15.9177 12.7366 15.8206 12.8602 15.7676L13.2629 15.5927C13.282 15.5844 13.2989 15.5717 13.3122 15.5557C13.3255 15.5397 13.3349 15.5208 13.3396 15.5006L13.3901 15.2817C13.3948 15.2614 13.3946 15.2403 13.3897 15.2201C13.3847 15.1998 13.3751 15.1811 13.3616 15.1652L13.076 14.8315C12.9882 14.7296 12.9415 14.5987 12.9449 14.4643C12.9483 14.3299 13.0016 14.2016 13.0944 14.1043L13.86 13.3026C13.9522 13.2068 14.0758 13.1473 14.2081 13.1349C14.3405 13.1224 14.473 13.1579 14.5814 13.2348L14.9043 13.4633C14.9211 13.4752 14.9405 13.4829 14.9609 13.486C14.9812 13.4891 15.002 13.4875 15.0216 13.4812L15.3509 13.3766C15.3702 13.3704 15.3878 13.3599 15.4024 13.3459C15.417 13.3319 15.4283 13.3148 15.4353 13.2958L15.5582 12.965C15.6054 12.8401 15.6965 12.7367 15.8144 12.674C15.9323 12.6114 16.0689 12.5937 16.1989 12.6244ZM15.977 13.621C15.9454 13.7054 15.8949 13.7815 15.8294 13.8435C15.764 13.9054 15.6852 13.9516 15.5992 13.9785L15.152 14.1195C15.064 14.1471 14.9708 14.1541 14.8796 14.1398C14.7885 14.1256 14.7018 14.0906 14.6263 14.0375L14.3826 13.8663C14.3566 13.848 14.3248 13.8396 14.2931 13.8426C14.2614 13.8456 14.2319 13.8599 14.2098 13.8829L13.6915 14.4221C13.6685 14.446 13.6553 14.4777 13.6544 14.5109C13.6535 14.5441 13.665 14.5765 13.6867 14.6016L13.8957 14.8445C14.0194 14.9877 14.067 15.18 14.0246 15.3635L13.9458 15.7052C13.9034 15.8887 13.776 16.0406 13.6024 16.1151L13.308 16.2418C13.2775 16.2549 13.253 16.2789 13.2392 16.3091C13.2255 16.3394 13.2235 16.3737 13.2337 16.4053L13.4628 17.117C13.4726 17.1474 13.4929 17.1733 13.5202 17.1899C13.5474 17.2066 13.5797 17.2129 13.6112 17.2077L13.9053 17.1607C13.9964 17.1461 14.0896 17.1526 14.1778 17.1798C14.266 17.207 14.3467 17.2541 14.4137 17.3174L14.7539 17.6399C14.8869 17.7664 14.9542 17.9458 14.9367 18.1271L14.9136 18.3664C14.9105 18.3986 14.9191 18.4308 14.938 18.4571C14.9569 18.4833 14.9846 18.5018 15.0161 18.5091L15.7846 18.6866C15.8161 18.6938 15.8491 18.6893 15.8776 18.674C15.906 18.6586 15.928 18.6335 15.9393 18.6032L16.0234 18.378C16.0868 18.2073 16.2264 18.0753 16.4012 18.0205L16.8484 17.8795C16.9364 17.8519 17.0296 17.845 17.1208 17.8592C17.2119 17.8734 17.2986 17.9084 17.3741 17.9615L17.6178 18.1327C17.6438 18.1511 17.6756 18.1595 17.7073 18.1565C17.739 18.1534 17.7685 18.1391 17.7906 18.1162L18.3089 17.577C18.3319 17.553 18.3451 17.5213 18.346 17.4881C18.3469 17.4549 18.3354 17.4226 18.3137 17.3974L18.1047 17.1545C18.0439 17.0842 18.0006 17.0006 17.9782 16.9105C17.9558 16.8203 17.9549 16.7261 17.9758 16.6356L18.0546 16.2939C18.097 16.1104 18.2244 15.9585 18.398 15.8839L18.6924 15.7573C18.7229 15.7442 18.7474 15.7201 18.7612 15.6899C18.7749 15.6597 18.7769 15.6254 18.7667 15.5938L18.5376 14.882C18.5278 14.8516 18.5075 14.8258 18.4802 14.8091C18.453 14.7925 18.4207 14.7862 18.3892 14.7913L18.0951 14.8383C17.9103 14.8682 17.7222 14.8101 17.5867 14.6816L17.2465 14.3592C17.1809 14.2972 17.1304 14.2211 17.0987 14.1367C17.0671 14.0522 17.0551 13.9617 17.0637 13.8719L17.0868 13.6326C17.0899 13.6005 17.0813 13.5682 17.0624 13.542C17.0435 13.5157 17.0158 13.4972 16.9843 13.4899L16.2158 13.3125C16.1843 13.3053 16.1513 13.3097 16.1228 13.3251C16.0944 13.3404 16.0724 13.3655 16.0611 13.3958L15.977 13.621Z" fill="black" fill-opacity="0.7"/>
<ellipse cx="16.1" cy="16.06" rx="1.62" ry="1.62" fill="black" fill-opacity="0.7"/>
</g>
<defs>
<clipPath id="clip0_118_3417">
<rect width="8" height="8" fill="white" transform="translate(12 12)"/>
</clipPath>
</defs>
</svg>
