<svg width="19" height="19" viewBox="0 0 19 19" fill="none" xmlns="http://www.w3.org/2000/svg">
<path d="M9.49906 2.17462C5.45344 2.17462 2.17246 5.45555 2.17246 9.50109C2.17246 13.5465 5.45347 16.8275 9.49906 16.8275C13.5445 16.8275 16.8255 13.5465 16.8255 9.50109C16.8255 5.45558 13.5445 2.17462 9.49906 2.17462ZM15.1372 10.0128C15.1372 10.2401 14.9568 10.4205 14.7317 10.4205H9.4289V10.8304C9.4289 11.0533 9.24627 11.236 9.02109 11.236C8.79388 11.236 8.61336 11.0555 8.61336 10.8304V10.4205H8.2035C7.98057 10.4205 7.798 10.2379 7.798 10.0128C7.798 9.78563 7.97842 9.60511 8.2035 9.60511H8.61336V4.30239C8.61336 4.07944 8.79596 3.89687 9.02109 3.89687C9.24833 3.89687 9.4289 4.07741 9.4289 4.30239V9.60511H14.7317C14.9546 9.60511 15.1372 9.78771 15.1372 10.0128ZM9.49906 0C4.25354 0 0 4.25354 0 9.49893C0 14.7442 4.25149 19 9.49906 19C14.7465 19 18.998 14.7464 18.998 9.50112C18.998 4.25573 14.7444 0 9.49906 0ZM15.7552 15.7573C14.9418 16.5705 13.9969 17.2076 12.9436 17.6536C11.8541 18.1144 10.6946 18.348 9.49906 18.348C8.30337 18.348 7.14593 18.1144 6.05436 17.6536C5.00105 17.2076 4.05394 16.5705 3.24274 15.7573C2.42939 14.9439 1.79231 13.9988 1.34631 12.9455C0.885473 11.8561 0.651893 10.6966 0.651893 9.50109C0.651893 8.30541 0.885498 7.14811 1.34631 6.05654C1.79231 5.00323 2.42939 4.05612 3.24274 3.24482C4.05612 2.43365 5.00105 1.79449 6.05436 1.34852C7.1459 0.887681 8.30335 0.651918 9.49906 0.651918C10.6946 0.651918 11.852 0.885524 12.9436 1.34634C13.9969 1.79234 14.944 2.42941 15.7552 3.24277C16.5664 4.05612 17.2057 5.00108 17.6516 6.05438C18.1124 7.14595 18.3461 8.30543 18.3461 9.50112C18.3461 10.6967 18.1124 11.8539 17.6516 12.9455C17.2057 13.9988 16.5686 14.9459 15.7552 15.7573Z" fill="#2C2D2E"/>
</svg>
