<svg width="24" height="24" viewBox="0 0 24 24" fill="none" xmlns="http://www.w3.org/2000/svg">
<path fill-rule="evenodd" clip-rule="evenodd" d="M17.6076 7.70711C17.9981 7.31658 17.9981 6.68342 17.6076 6.29289C17.2171 5.90237 16.5839 5.90237 16.1934 6.29289L11.985 10.5013L7.89501 6.41125C7.49487 6.01111 6.84611 6.01111 6.44598 6.41125C6.04584 6.81139 6.04584 7.46014 6.44598 7.86028L10.536 11.9503L6.29387 16.1924C5.90335 16.5829 5.90335 17.2161 6.29387 17.6066C6.68439 17.9971 7.31756 17.9971 7.70808 17.6066L11.9502 13.3645L16.5892 18.0035C16.9893 18.4036 17.6381 18.4036 18.0382 18.0035C18.4383 17.6033 18.4383 16.9546 18.0382 16.5545L13.3992 11.9155L17.6076 7.70711Z" fill="#AAAAAA"/>
</svg>
