<svg width="24" height="24" viewBox="0 0 24 24" fill="none" xmlns="http://www.w3.org/2000/svg">
<path fill-rule="evenodd" clip-rule="evenodd" d="M6.78336 20.2142C6.86769 20.2532 6.95747 20.2727 7.04665 20.2727C7.18194 20.2727 7.31601 20.229 7.42582 20.1433L7.6129 19.9975V20L7.6603 19.9606L11.8096 16.7273H19.18C20.1834 16.7273 21 15.9319 21 14.9545V5.5C21 4.52264 20.1834 3.72727 19.18 3.72727H4.61999C3.61656 3.72727 2.79999 4.52264 2.79999 5.5V14.9545C2.79999 15.9319 3.61656 16.7273 4.61999 16.7273H6.43999V19.6818C6.43999 19.9093 6.57406 20.1155 6.78336 20.2142ZM16.7526 9.63645H7.04594C6.71045 9.63645 6.43927 9.37172 6.43927 9.04554C6.43927 8.71936 6.71045 8.45463 7.04594 8.45463H16.7526C17.0881 8.45463 17.3593 8.71936 17.3593 9.04554C17.3593 9.37172 17.0881 9.63645 16.7526 9.63645ZM7.04594 11.9995H11.8993C12.2348 11.9995 12.5059 11.7348 12.5059 11.4086C12.5059 11.0824 12.2348 10.8177 11.8993 10.8177H7.04594C6.71045 10.8177 6.43927 11.0824 6.43927 11.4086C6.43927 11.7348 6.71045 11.9995 7.04594 11.9995Z" fill="black"/>
</svg>
