<svg width="24" height="24" viewBox="0 0 24 24" fill="none" xmlns="http://www.w3.org/2000/svg">
<path d="M7.04665 20.2727C6.95747 20.2727 6.86769 20.2532 6.78336 20.2142C6.57406 20.1155 6.43999 19.9093 6.43999 19.6818V16.7273H4.61999C3.61656 16.7273 2.79999 15.9319 2.79999 14.9545V5.49999C2.79999 4.52263 3.61656 3.72726 4.61999 3.72726H19.18C20.1834 3.72726 21 4.52263 21 5.49999V14.9545C21 15.9319 20.1834 16.7273 19.18 16.7273H11.8096L7.42582 20.1433C7.31601 20.229 7.18194 20.2727 7.04665 20.2727ZM4.61999 4.90908C4.28511 4.90908 4.01332 5.1744 4.01332 5.49999V14.9545C4.01332 15.2801 4.28511 15.5454 4.61999 15.5454H7.04665C7.38214 15.5454 7.65332 15.8096 7.65332 16.1364V18.4527L11.2175 15.6749C11.3255 15.5909 11.4583 15.5454 11.5967 15.5454H19.18C19.5149 15.5454 19.7867 15.2801 19.7867 14.9545V5.49999C19.7867 5.1744 19.5149 4.90908 19.18 4.90908H4.61999Z" fill="black"/>
<path d="M16.7526 9.63644H7.04594C6.71045 9.63644 6.43927 9.37171 6.43927 9.04553C6.43927 8.71935 6.71045 8.45462 7.04594 8.45462H16.7526C17.0881 8.45462 17.3593 8.71935 17.3593 9.04553C17.3593 9.37171 17.0881 9.63644 16.7526 9.63644Z" fill="black"/>
<path d="M11.8993 11.9995H7.04594C6.71045 11.9995 6.43927 11.7348 6.43927 11.4086C6.43927 11.0824 6.71045 10.8177 7.04594 10.8177H11.8993C12.2348 10.8177 12.5059 11.0824 12.5059 11.4086C12.5059 11.7348 12.2348 11.9995 11.8993 11.9995Z" fill="black"/>
</svg>
