<svg width="24" height="24" viewBox="0 0 24 24" fill="none" xmlns="http://www.w3.org/2000/svg">
<g clip-path="url(#clip0_118_3531)">
<path d="M3 11.9992C3.00014 9.61231 3.94849 7.32325 5.63642 5.63558C7.32435 3.9479 9.61359 2.99986 12.0005 3C14.3875 3.00014 16.6766 3.94846 18.3643 5.63634C20.0521 7.32422 21.0001 9.61339 21 12.0003C21 14.3871 20.0518 16.6763 18.364 18.364C16.6761 20.0518 14.3869 21 12 21C9.61305 21 7.32387 20.0518 5.63604 18.364C3.94821 16.6763 3 14.3871 3 12.0003V11.9992ZM11.037 15.5336C11.0353 15.6574 11.058 15.7803 11.1038 15.8953C11.1496 16.0103 11.2177 16.1152 11.3041 16.2039C11.3904 16.2926 11.4935 16.3633 11.6072 16.4122C11.721 16.461 11.8433 16.487 11.9671 16.4885C12.4812 16.4885 12.8961 16.0597 12.8961 15.5325C12.8978 15.4088 12.8751 15.286 12.8293 15.1711C12.7836 15.0561 12.7156 14.9513 12.6294 14.8627C12.5431 14.774 12.4402 14.7032 12.3266 14.6543C12.2129 14.6054 12.0908 14.5793 11.9671 14.5776C11.7171 14.5813 11.4789 14.6841 11.3047 14.8634C11.1305 15.0426 11.0346 15.2837 11.038 15.5336H11.037ZM14.1048 11.1231C14.282 10.9449 14.4343 10.7332 14.5618 10.4858C14.6947 10.2191 14.7607 9.92395 14.7541 9.62598C14.7556 9.2164 14.639 8.81507 14.4181 8.47016C14.1831 8.10718 13.8522 7.81631 13.4621 7.62976C13.0505 7.42452 12.5752 7.31974 12.0351 7.31974C11.4572 7.31974 10.9495 7.4418 10.5152 7.69025C10.1088 7.90874 9.76651 8.22974 9.52248 8.62139C9.29563 8.9973 9.18328 9.36781 9.18328 9.734C9.18714 9.92022 9.26394 10.0975 9.39717 10.2277C9.46344 10.3011 9.54467 10.3596 9.63541 10.3991C9.72615 10.4386 9.82429 10.4582 9.92324 10.4567C10.2776 10.4567 10.5163 10.2385 10.6416 9.80421C10.7766 9.38617 10.9397 9.07291 11.1331 8.85903C11.3254 8.64515 11.6268 8.53821 12.0351 8.53821C12.3516 8.52633 12.6595 8.64083 12.8907 8.85687C13.2255 9.17013 13.3163 9.66487 13.1132 10.0753C13.0419 10.2093 12.9511 10.3324 12.8464 10.4415C12.6798 10.6097 12.508 10.7725 12.3311 10.9298C12.06 11.1761 11.845 11.3889 11.6851 11.5682C11.5231 11.7518 11.3913 11.9635 11.3005 12.1915C11.1982 12.4596 11.1487 12.7449 11.1547 13.0319C11.1547 13.2911 11.2217 13.4845 11.3524 13.6152C11.482 13.7448 11.657 13.8161 11.8396 13.8118C12.2123 13.8118 12.4337 13.613 12.5039 13.2123C12.5439 13.0232 12.5752 12.8914 12.5958 12.8147C12.6444 12.6398 12.7319 12.4777 12.8528 12.3416C12.9468 12.2314 13.0473 12.1256 13.1553 12.0273C13.6123 11.6028 13.9298 11.3025 14.1059 11.1221L14.1048 11.1231Z" fill="black" fill-opacity="0.7"/>
</g>
<defs>
<clipPath id="clip0_118_3531">
<rect width="18" height="18" fill="white" transform="translate(3 3)"/>
</clipPath>
</defs>
</svg>
