<svg width="24" height="24" viewBox="0 0 24 24" fill="none" xmlns="http://www.w3.org/2000/svg">
<g clip-path="url(#clip0_118_3530)">
<path d="M12 3C9.61305 3 7.32387 3.94821 5.63604 5.63604C3.94821 7.32387 3 9.61305 3 12C3 14.3869 3.94821 16.6761 5.63604 18.364C7.32387 20.0518 9.61305 21 12 21C14.3869 21 16.6761 20.0518 18.364 18.364C20.0518 16.6761 21 14.3869 21 12C21 9.61305 20.0518 7.32387 18.364 5.63604C16.6761 3.94821 14.3869 3 12 3V3ZM17.2819 14.52C17.1019 14.52 16.9309 14.5189 16.7779 14.475C16.4944 14.8519 15.8587 15.6596 15.2738 16.1479C14.6213 16.6912 13.44 17.2729 13.0609 17.4529C12.8111 17.6858 12.3892 17.8387 11.91 17.8387C11.1427 17.8387 10.5206 17.445 10.5206 16.9613C10.5206 16.4775 11.1427 16.0837 11.91 16.0837C12.4635 16.0837 12.9416 16.2885 13.1655 16.5833C13.6605 16.4899 14.4368 16.275 15.0128 15.7935C15.5528 15.3298 16.0118 14.7792 16.3706 14.1645C16.1929 13.8832 16.0871 13.3815 16.0871 12.4849C16.0871 11.3239 16.2581 10.8244 16.5259 10.6095H16.5011C15.9769 8.54287 14.1499 7.01175 11.9753 7.01175C9.80288 7.01175 7.97587 8.54063 7.4505 10.6061C7.73175 10.8176 7.91288 11.316 7.91288 12.4849C7.91288 14.5369 7.3785 14.5211 6.71813 14.5211C6.05775 14.5211 5.52338 13.6099 5.52338 12.4849C5.52338 11.4037 6.01837 10.5195 6.64275 10.452C7.2345 7.986 9.40687 6.16125 11.9955 6.16125C14.583 6.16125 16.7542 7.98488 17.3482 10.4509C17.9771 10.5094 18.4766 11.3981 18.4766 12.4849C18.4766 13.6099 17.9422 14.5211 17.2819 14.5211V14.52Z" fill="black" fill-opacity="0.7"/>
</g>
<defs>
<clipPath id="clip0_118_3530">
<rect width="18" height="18" fill="white" transform="translate(3 3)"/>
</clipPath>
</defs>
</svg>
