<svg width="24" height="24" viewBox="0 0 24 24" fill="none" xmlns="http://www.w3.org/2000/svg">
<path d="M13.395 21.315H6.58501C5.14501 21.315 3.97501 20.145 3.97501 18.705V9.075C3.97501 7.635 5.14501 6.465 6.58501 6.465H13.395C14.835 6.465 16.005 7.635 16.005 9.075V18.705C16.005 20.145 14.835 21.315 13.395 21.315ZM6.58501 7.965C5.97001 7.965 5.47501 8.46 5.47501 9.075V18.705C5.47501 19.32 5.97001 19.815 6.58501 19.815H13.395C14.01 19.815 14.505 19.32 14.505 18.705V9.075C14.505 8.46 14.01 7.965 13.395 7.965H6.58501Z" fill="#2C2D2E"/>
<path d="M18.18 17.4C17.76 17.4 17.43 17.07 17.43 16.65V7.815C17.43 6.255 16.17 4.995 14.61 4.995H8.61C8.19 4.995 7.86 4.665 7.86 4.245C7.86 3.825 8.19 3.495 8.61 3.495H14.61C16.995 3.495 18.93 5.43 18.93 7.815V16.65C18.93 17.055 18.6 17.4 18.18 17.4Z" fill="#2C2D2E"/>
</svg>
