<svg width="94" height="94" viewBox="0 0 94 94" fill="none" xmlns="http://www.w3.org/2000/svg">
<path d="M46.9983 86.1663C68.3871 86.1663 86.1649 68.4262 86.1649 46.9997C86.1649 25.6109 68.3478 7.83301 46.959 7.83301C25.5341 7.83301 7.83325 25.6109 7.83325 46.9997C7.83325 68.4261 25.5718 86.1663 46.9983 86.1663ZM46.9983 79.6391C28.8731 79.6391 14.3949 65.1232 14.3949 46.9997C14.3949 28.9122 28.8338 14.3602 46.959 14.3602C65.0448 14.3602 79.5967 28.9138 79.6361 46.9997C79.6738 65.1249 65.0841 79.6391 46.9983 79.6391Z" fill="#AAAAAA" stroke="white" stroke-width="0.5"/>
<path d="M45.5812 46.9664C50.5973 47.0003 54.6111 42.7105 54.6111 37.0699C54.6111 31.8117 50.5973 27.417 45.5812 27.417C40.5636 27.417 36.5513 31.8117 36.5513 37.0714C36.5513 42.7105 40.5636 46.9324 45.5812 46.9664ZM29.4581 66.5837H61.6689C63.0536 66.5837 63.7459 65.6492 63.7459 64.4033C63.7459 60.5283 57.9326 50.5299 45.5812 50.5299C33.2298 50.5299 27.4165 60.5283 27.4165 64.4033C27.4165 65.6492 28.1088 66.5837 29.4581 66.5837Z" fill="#AAAAAA"/>
<circle cx="77.2899" cy="73.7288" r="12.7103" fill="white"/>
<path d="M72.1771 70.9575C72.3186 70.8112 72.4886 70.6954 72.6767 70.6174C72.8647 70.5394 73.0668 70.5007 73.2703 70.5039H74.6194L74.9276 69.6898C75.0229 69.4872 75.1692 69.3128 75.3521 69.1839C75.5307 69.0499 75.7455 68.9729 75.9686 68.9629H79.0564C79.2821 68.9679 79.5003 69.0454 79.6786 69.1839C79.86 69.313 80.0044 69.4874 80.0973 69.6898L80.4346 70.5039H81.8128C82.0159 70.5039 82.2171 70.5439 82.4047 70.6217C82.5924 70.6994 82.7629 70.8133 82.9066 70.957C83.0502 71.1006 83.1641 71.2711 83.2419 71.4588C83.3196 71.6465 83.3596 71.8476 83.3596 72.0507V77.4763C83.3596 77.6791 83.3196 77.88 83.2418 78.0674C83.164 78.2547 83.0499 78.4248 82.9062 78.568C82.7625 78.7112 82.5919 78.8246 82.4043 78.9017C82.2167 78.9788 82.0156 79.0181 81.8128 79.0173H73.2703C73.0675 79.0189 72.8664 78.9801 72.6788 78.9032C72.4911 78.8263 72.3206 78.7128 72.1772 78.5694C72.0338 78.426 71.9203 78.2555 71.8435 78.0678C71.7666 77.8802 71.7278 77.6791 71.7293 77.4763V72.0507C71.725 71.8476 71.7626 71.6457 71.8396 71.4576C71.9166 71.2695 72.0315 71.0993 72.1771 70.9575ZM77.5445 77.2204C78.0505 77.2204 78.5452 77.0704 78.966 76.7892C79.3868 76.5081 79.7147 76.1084 79.9084 75.6409C80.102 75.1734 80.1527 74.6589 80.054 74.1626C79.9552 73.6662 79.7116 73.2103 79.3537 72.8525C78.9959 72.4947 78.54 72.251 78.0436 72.1522C77.5473 72.0535 77.0328 72.1042 76.5653 72.2978C76.0978 72.4915 75.6982 72.8195 75.417 73.2402C75.1359 73.661 74.9858 74.1557 74.9858 74.6617C74.9873 75.3399 75.2574 75.9898 75.7369 76.4693C76.2164 76.9488 76.8663 77.2189 77.5445 77.2204Z" fill="black" fill-opacity="0.7"/>
<path d="M77.5445 72.9796C77.8841 72.9796 78.216 73.0803 78.4982 73.2691C78.7804 73.4579 79.0003 73.7261 79.13 74.0399C79.2597 74.3537 79.2933 74.6989 79.2266 75.0319C79.16 75.3648 78.996 75.6705 78.7555 75.9101C78.515 76.1498 78.2088 76.3127 77.8756 76.3783C77.5425 76.4438 77.1974 76.409 76.884 76.2783C76.5707 76.1475 76.3031 75.9268 76.1154 75.6439C75.9276 75.361 75.8279 75.0288 75.8291 74.6892C75.8275 74.4638 75.8709 74.2403 75.9566 74.0318C76.0423 73.8233 76.1687 73.6339 76.3284 73.4748C76.4881 73.3157 76.6779 73.1899 76.8867 73.1049C77.0955 73.0199 77.3191 72.9773 77.5445 72.9796Z" fill="#FF0000"/>
</svg>
