<svg width="24" height="24" viewBox="0 0 24 24" fill="none" xmlns="http://www.w3.org/2000/svg">
<path d="M18 9C17.55 9 17.25 9.3 17.25 9.75V18.6C17.25 19.2 16.8 19.5 16.35 19.5H7.65C7.05 19.5 6.75 19.05 6.75 18.6V9.75C6.75 9.3 6.45 9 6 9C5.55 9 5.25 9.3 5.25 9.75V18.6C5.25 19.95 6.3 21 7.65 21H16.2C17.55 21 18.6 19.95 18.6 18.6V9.75C18.75 9.3 18.45 9 18 9Z" fill="#272636"/>
<path d="M10.8 17.25V9.75C10.8 9.3 10.5 9 10.2 9C9.89999 9 9.29999 9.3 9.29999 9.75V17.25C9.29999 17.7 9.59999 18 10.05 18C10.5 18 10.8 17.7 10.8 17.25Z" fill="#272636"/>
<path d="M14.7 17.25V9.75C14.7 9.3 14.25 9 13.8 9C13.35 9 13.2 9.3 13.2 9.75V17.25C13.2 17.7 13.5 18 13.8 18C14.1 18 14.7 17.7 14.7 17.25Z" fill="#272636"/>
<path d="M19.5 6H15.75V4.95C15.75 3.9 14.85 3 13.8 3H10.2C9.15 3 8.25 3.9 8.25 4.95V6H4.5C4.05 6 3.75 6.3 3.75 6.75C3.75 7.2 4.05 7.5 4.5 7.5H19.5C19.95 7.5 20.25 7.2 20.25 6.75C20.25 6.3 19.95 6 19.5 6ZM9.75 4.95C9.75 4.65 9.9 4.5 10.2 4.5H13.8C14.1 4.5 14.25 4.65 14.25 4.95V6H9.75V4.95Z" fill="#272636"/>
</svg>
