<svg width="18" height="15" viewBox="0 0 18 15" fill="none" xmlns="http://www.w3.org/2000/svg">
<path d="M0 12.2727V14.7273H2.45455C2.45455 13.3364 1.39091 12.2727 0 12.2727ZM0 9V10.6364C2.29091 10.6364 4.09091 12.4364 4.09091 14.7273H5.72727C5.72727 11.5364 3.19091 9 0 9ZM14.7273 3.27273H3.27273V4.58182C6.54545 5.64545 9.08182 8.18182 10.1455 11.4545H14.7273V3.27273ZM0 5.72727V7.36364C4.09091 7.36364 7.36364 10.6364 7.36364 14.7273H9C9 9.73636 4.99091 5.72727 0 5.72727ZM16.3636 0H1.63636C0.736364 0 0 0.736364 0 1.63636V4.09091H1.63636V1.63636H16.3636V13.0909H10.6364V14.7273H16.3636C17.2636 14.7273 18 13.9909 18 13.0909V1.63636C18 0.736364 17.2636 0 16.3636 0Z" fill="#2C2D2E"/>
</svg>
