<svg width="16" height="18" viewBox="0 0 16 18" fill="none" xmlns="http://www.w3.org/2000/svg">
<path d="M14.4378 1.75601H11.8125V2.63401C11.8125 3.60001 11.025 4.39001 10.0623 4.39001H5.68772C4.725 4.39001 3.9375 3.60001 3.9375 2.63401V1.75601H1.31217C0.568969 1.75601 0 2.32601 0 3.07301V16.683C0 17.429 0.568969 18 1.31217 18H14.4378C15.181 18 15.75 17.43 15.75 16.683V3.07301C15.75 2.32701 15.181 1.75601 14.4378 1.75601ZM12.2939 13.434H3.45516C3.19233 13.434 3.01809 13.259 3.01809 12.995C3.01809 12.732 3.19233 12.556 3.45516 12.556H12.2929C12.5557 12.556 12.7299 12.732 12.7299 12.996C12.7299 13.259 12.5557 13.434 12.2929 13.434H12.2939ZM12.2939 8.42901H3.45516C3.19233 8.42901 3.01809 8.25401 3.01809 7.99001C3.01809 7.72701 3.19233 7.55101 3.45516 7.55101H12.2929C12.5557 7.55101 12.7299 7.72701 12.7299 7.99101C12.7299 8.25401 12.5557 8.42901 12.2929 8.42901H12.2939ZM5.68772 3.51201H10.0623C10.2929 3.51308 10.5146 3.4213 10.6788 3.25675C10.8429 3.09221 10.9363 2.86829 10.9384 2.63401V0.878009C10.9384 0.395009 10.5446 9.20558e-06 10.0623 9.20558e-06H5.68772C5.45709 -0.0010581 5.23543 0.0907212 5.07124 0.255266C4.90705 0.41981 4.81371 0.643722 4.81163 0.878009V2.63401C4.81163 3.11701 5.20538 3.51201 5.68772 3.51201Z" fill="#007BE0"/>
</svg>
