<svg width="32" height="32" viewBox="0 0 32 32" fill="none" xmlns="http://www.w3.org/2000/svg">
<path d="M16.4425 15.9776C19.6929 15.9997 22.2938 13.2047 22.2938 9.52957C22.2938 6.10357 19.6929 3.24023 16.4425 3.24023C13.1911 3.24023 10.5912 6.10357 10.5912 9.53053C10.5912 13.2047 13.1911 15.9555 16.4425 15.9776ZM5.99489 28.7592H26.8671C27.7644 28.7592 28.213 28.1504 28.213 27.3386C28.213 24.8138 24.4461 18.2994 16.4425 18.2994C8.43892 18.2994 4.67197 24.8138 4.67197 27.3386C4.67197 28.1504 5.12059 28.7592 5.99489 28.7592Z" fill="white"/>
<path d="M27.0776 12.5569L25.7917 11.8711L26.0236 13.3285L24.9906 14.3573L26.4241 14.5716L27.0776 15.9004L27.71 14.5716L29.1646 14.3573L28.1105 13.3285L28.3635 11.8711L27.0776 12.5569Z" fill="white"/>
<path d="M22.6335 18.0353L23.0477 18.8543L23.4618 18.0353L24.373 17.892L23.7103 17.2573L23.876 16.3359L23.0477 16.7659L22.2194 16.3359L22.385 17.2573L21.7017 17.892L22.6335 18.0353Z" fill="white"/>
<path d="M7.77426 18.0353L8.18842 18.8543L8.60258 18.0353L9.51373 17.892L8.85108 17.2573L9.01674 16.3359L8.18842 16.7659L7.36011 16.3359L7.52577 17.2573L6.84241 17.892L7.77426 18.0353Z" fill="white"/>
<path d="M8.10827 5.61165L8.66857 6.76588L9.24962 5.61165L10.5155 5.42278L9.6024 4.52038L9.80992 3.24023L8.66857 3.84883L7.54797 3.24023L7.75549 4.52038L6.84241 5.42278L8.10827 5.61165Z" fill="white"/>
<path d="M4.10131 12.4359L4.66161 13.5901L5.24266 12.4359L6.50852 12.247L5.59544 11.3446L5.80296 10.0645L4.66161 10.673L3.54101 10.0645L3.74853 11.3446L2.83545 12.247L4.10131 12.4359Z" fill="white"/>
</svg>
