<svg width="21" height="20" viewBox="0 0 21 20" fill="none" xmlns="http://www.w3.org/2000/svg">
<path d="M20.0308 10.8169C19.9403 11.1597 19.8166 11.483 19.5516 11.7373C19.3139 11.9657 19.0347 12.1075 18.7153 12.1735C18.4698 12.2244 18.2062 12.0625 18.1314 11.8243C18.0576 11.5886 18.1881 11.3109 18.4214 11.2111C18.4693 11.1906 18.5207 11.1798 18.5701 11.1627C18.863 11.061 19.0053 10.8781 19.0112 10.567C19.0185 10.1895 19.018 9.81197 19.0117 9.43443C19.0058 9.09553 18.8381 8.88769 18.4992 8.81874C18.0781 8.73267 17.6546 8.65736 17.2296 8.59427C16.9299 8.54977 16.767 8.39328 16.6633 8.10866C16.4819 7.60936 16.277 7.11739 16.054 6.63521C15.9312 6.36966 15.9278 6.14666 16.1039 5.90899C16.3479 5.57987 16.5792 5.24097 16.813 4.90403C17.0516 4.56024 17.0272 4.2986 16.7313 3.99883C16.4975 3.76262 16.2628 3.52789 16.0261 3.29462C15.7205 2.99337 15.4613 2.97283 15.1033 3.22126C14.761 3.45893 14.4182 3.6966 14.0793 3.93916C13.8661 4.09174 13.6587 4.09174 13.4201 3.98611C12.9095 3.76018 12.3941 3.54549 11.8718 3.34792C11.618 3.25207 11.4722 3.09852 11.4292 2.83395C11.3647 2.43636 11.2918 2.03976 11.2248 1.64217C11.1485 1.18933 10.9441 1.01523 10.4834 1.01426C10.1572 1.01377 9.83153 1.01279 9.50534 1.01474C9.10727 1.01719 8.90188 1.17955 8.8251 1.57078C8.7449 1.97912 8.67056 2.38844 8.60944 2.79972C8.56493 3.09998 8.40257 3.25843 8.11845 3.36113C7.62403 3.53913 7.13647 3.73964 6.66015 3.96166C6.38825 4.08832 6.16084 4.09761 5.91584 3.91569C5.58672 3.67117 5.24635 3.44133 4.90843 3.20806C4.57149 2.97577 4.30692 2.99729 4.01594 3.2819C3.76898 3.52349 3.52447 3.76702 3.28288 4.0135C3.0056 4.29714 2.98262 4.5617 3.20806 4.88887C3.44818 5.23706 3.68976 5.58476 3.93868 5.9266C4.10299 6.15253 4.09663 6.36819 3.98318 6.61956C3.7592 7.11544 3.54941 7.61914 3.35917 8.1292C3.25892 8.39817 3.09705 8.54684 2.81537 8.58987C2.41632 8.651 2.01922 8.72338 1.62164 8.79331C1.19178 8.86862 1.01817 9.07646 1.0167 9.51463C1.01572 9.85305 1.01377 10.1915 1.01719 10.5299C1.0211 10.8952 1.18297 11.1035 1.54095 11.1759C1.962 11.261 2.38551 11.3358 2.81048 11.4008C3.10194 11.4453 3.26137 11.6009 3.36308 11.8767C3.54892 12.3813 3.75725 12.8787 3.98024 13.3677C4.0981 13.6264 4.10104 13.8455 3.93085 14.0768C3.6878 14.4069 3.45649 14.7458 3.22224 15.0823C2.97724 15.4349 3.00071 15.6955 3.30538 16.0026C3.53473 16.234 3.76507 16.4643 3.99687 16.6932C4.30545 16.9978 4.56611 17.0218 4.9187 16.7773C5.26102 16.5396 5.60384 16.3024 5.94225 16.0589C6.16133 15.9009 6.37358 15.9014 6.61907 16.011C7.12277 16.2354 7.63333 16.4472 8.14925 16.6418C8.40111 16.7367 8.55515 16.8834 8.59917 17.1494C8.6647 17.547 8.73756 17.9436 8.80407 18.3412C8.88183 18.8063 9.08233 18.9779 9.55669 18.9784C9.85011 18.9789 10.1435 18.9784 10.437 18.9784C10.9211 18.9784 11.0497 18.8884 11.2155 18.4361C11.3138 18.1676 11.5784 18.0214 11.8346 18.0942C12.0723 18.1617 12.2566 18.4312 12.1936 18.6684C12.1393 18.8728 12.0669 19.0826 11.9554 19.2601C11.6566 19.7349 11.2047 19.9716 10.6472 19.9897C10.2306 20.0034 9.81246 20.0024 9.39531 19.9907C8.58156 19.9677 7.97271 19.4332 7.82405 18.6248C7.76781 18.3177 7.7238 18.0087 7.65729 17.704C7.64164 17.6321 7.57073 17.546 7.50324 17.5157C7.15945 17.3612 6.81028 17.2184 6.45818 17.0834C6.3946 17.059 6.29288 17.0668 6.23665 17.103C5.97941 17.2687 5.73343 17.4512 5.48109 17.6248C4.74705 18.1299 3.95237 18.0654 3.31418 17.4458C3.05695 17.1964 2.80363 16.9431 2.55325 16.6863C1.93168 16.0496 1.86566 15.2554 2.37132 14.5233C2.54493 14.2715 2.72832 14.026 2.8941 13.7692C2.93078 13.713 2.93958 13.6113 2.91562 13.5482C2.78309 13.2029 2.63149 12.865 2.49798 12.5197C2.45495 12.4087 2.39627 12.3564 2.27743 12.3388C1.97472 12.2943 1.67298 12.241 1.37272 12.1828C0.672912 12.0468 0.222512 11.6395 0.0401022 10.946C0.0288545 10.9025 0.0127164 10.86 -0.000976562 10.8169C-0.000976562 10.2702 -0.000976562 9.72345 -0.000976562 9.17671C0.0127164 9.13368 0.0288545 9.09113 0.0401022 9.04761C0.222023 8.35367 0.673401 7.94728 1.37272 7.81084C1.67298 7.75216 1.97472 7.69934 2.27743 7.65484C2.39627 7.63723 2.45495 7.5854 2.49798 7.47439C2.63149 7.12962 2.78358 6.7917 2.91562 6.44595C2.94007 6.38286 2.93078 6.28115 2.89459 6.22491C2.72881 5.96816 2.54542 5.72267 2.37181 5.47082C1.86615 4.73873 1.93168 3.94503 2.55325 3.30782C2.80314 3.05157 3.05695 2.79825 3.31418 2.54835C3.95237 1.92875 4.74754 1.86322 5.48109 2.36839C5.73343 2.542 5.97941 2.72441 6.23665 2.89019C6.29288 2.92638 6.3946 2.93469 6.45818 2.91073C6.81028 2.77624 7.15945 2.63296 7.50324 2.47842C7.57073 2.4481 7.64115 2.36252 7.65778 2.29063C7.71499 2.04416 7.75167 1.7928 7.7903 1.54192C7.85779 1.10717 8.00401 0.7135 8.34193 0.409321C8.58743 0.189256 8.88476 0.0846028 9.19383 0C9.74155 0 10.2893 0 10.837 0C10.8732 0.0127149 10.9089 0.0278749 10.9465 0.0371665C11.6527 0.212241 12.0659 0.664596 12.2058 1.37027C12.265 1.67005 12.3178 1.97129 12.3623 2.27303C12.3799 2.39088 12.4303 2.45055 12.5422 2.49407C12.888 2.62709 13.2264 2.77869 13.5721 2.91122C13.6357 2.93567 13.7374 2.92735 13.7937 2.89117C14.0558 2.72147 14.3067 2.53417 14.5649 2.35812C15.2613 1.88376 16.0227 1.92386 16.6423 2.48429C16.9558 2.76793 17.2575 3.06771 17.5411 3.38069C18.1001 3.99736 18.1436 4.74705 17.6791 5.43756C17.501 5.70213 17.3084 5.95692 17.1352 6.22442C17.0986 6.28066 17.0893 6.38238 17.1137 6.44546C17.2487 6.79659 17.3925 7.14527 17.547 7.48808C17.5773 7.55557 17.6629 7.62599 17.7353 7.64261C17.9823 7.69934 18.2341 7.73602 18.485 7.77465C18.9207 7.84165 19.3144 7.98934 19.6195 8.32579C19.8411 8.57031 19.9457 8.86764 20.0308 9.17622C20.0308 9.72345 20.0308 10.2702 20.0308 10.8169Z" fill="white"/>
<path d="M6.07378 9.6315C6.02879 10.2213 6.11878 10.7934 6.34764 11.3387C6.98094 12.8464 8.37322 13.7565 10.009 13.71C10.8384 13.6866 11.6028 13.8386 12.2674 14.357C12.4107 14.4685 12.5457 14.5932 12.6728 14.7233C13.7008 15.7767 14.7272 16.8325 15.7508 17.8903C15.8305 17.9725 15.9102 18.0688 15.9488 18.1739C16.032 18.4008 15.941 18.6331 15.7488 18.7549C15.562 18.8733 15.3077 18.8527 15.1307 18.7016C15.0813 18.6595 15.0373 18.6111 14.9918 18.5642C14.0069 17.5504 13.0117 16.5459 12.0405 15.5195C11.5079 14.9561 10.8864 14.6827 10.1088 14.7258C9.06814 14.7835 8.09692 14.5287 7.24062 13.9384C5.6273 12.8264 4.90548 11.2795 5.08691 9.32683C5.12115 8.9581 5.35539 8.71016 5.69527 8.5791C6.04542 8.44363 6.38677 8.49107 6.66356 8.7439C7.00931 9.05982 7.32962 9.40361 7.6607 9.73566C7.83528 9.91073 8.00351 10.0936 8.18641 10.2599C8.4544 10.5025 8.85149 10.5284 9.11606 10.2888C9.53076 9.91318 9.93373 9.52195 10.3166 9.11459C10.591 8.82312 10.545 8.41038 10.2403 8.09691C9.80462 7.64847 9.36498 7.20393 8.92583 6.75842C8.66028 6.48897 8.54096 6.17256 8.63045 5.79845C8.7351 5.36028 9.06716 5.09376 9.54299 5.04974C11.5871 4.86146 13.6558 6.1486 14.4079 8.05583C14.7086 8.81823 14.7937 9.60069 14.7478 10.4091C14.7199 10.902 14.8656 11.347 15.162 11.7402C15.2481 11.8542 15.3473 11.9588 15.4471 12.0615C16.4721 13.1178 17.4981 14.1736 18.526 15.2275C18.6659 15.3708 18.7505 15.5263 18.7104 15.7322C18.6346 16.12 18.2052 16.278 17.8957 16.0285C17.8453 15.988 17.8003 15.94 17.7548 15.8931C16.7332 14.8421 15.7156 13.7873 14.6896 12.7413C14.025 12.0639 13.6812 11.2639 13.735 10.3127C13.7756 9.59237 13.6846 8.90284 13.3809 8.24068C12.755 6.87579 11.2106 5.95054 9.68823 6.0684C9.74056 6.12904 9.77626 6.1755 9.81734 6.21706C10.1958 6.60291 10.5797 6.98387 10.9538 7.37412C11.6903 8.14043 11.6947 9.16349 10.9597 9.92247C10.6198 10.2731 10.2697 10.6145 9.91172 10.947C9.14834 11.6566 8.12088 11.6331 7.37461 10.8932C6.99561 10.5171 6.62444 10.1328 6.2513 9.75033C6.20631 9.70436 6.16963 9.65008 6.12856 9.59971C6.11095 9.60998 6.09237 9.62074 6.07378 9.6315Z" fill="white"/>
</svg>
