<svg width="24" height="24" viewBox="0 0 24 24" fill="none" xmlns="http://www.w3.org/2000/svg">
<g clip-path="url(#clip0_423_3086)">
<path d="M13.25 7.41667C13.25 7.6639 13.1767 7.90557 13.0393 8.11113C12.902 8.3167 12.7068 8.47691 12.4784 8.57152C12.25 8.66613 11.9986 8.69088 11.7561 8.64265C11.5137 8.59442 11.2909 8.47537 11.1161 8.30055C10.9413 8.12574 10.8223 7.90301 10.774 7.66053C10.7258 7.41806 10.7505 7.16672 10.8452 6.93832C10.9398 6.70991 11.1 6.51469 11.3055 6.37733C11.5111 6.23998 11.7528 6.16667 12 6.16667C12.3315 6.16667 12.6495 6.29837 12.8839 6.53279C13.1183 6.76721 13.25 7.08515 13.25 7.41667ZM22 12C22 10.0222 21.4135 8.08879 20.3147 6.4443C19.2159 4.79981 17.6541 3.51809 15.8268 2.76121C13.9996 2.00433 11.9889 1.8063 10.0491 2.19215C8.10929 2.578 6.32746 3.53041 4.92894 4.92894C3.53041 6.32746 2.578 8.10929 2.19215 10.0491C1.8063 11.9889 2.00433 13.9996 2.76121 15.8268C3.51809 17.6541 4.79981 19.2159 6.4443 20.3147C8.08879 21.4135 10.0222 22 12 22H22V12ZM20.3333 12V20.3333H12C10.3518 20.3333 8.74066 19.8446 7.37025 18.9289C5.99984 18.0132 4.93174 16.7118 4.30101 15.189C3.67028 13.6663 3.50525 11.9908 3.82679 10.3743C4.14834 8.75774 4.94201 7.27289 6.10745 6.10745C7.27289 4.94201 8.75774 4.14834 10.3743 3.82679C11.9908 3.50525 13.6663 3.67028 15.189 4.30101C16.7118 4.93174 18.0132 5.99984 18.9289 7.37025C19.8446 8.74066 20.3333 10.3518 20.3333 12ZM13.6667 12C13.6667 11.558 13.4911 11.1341 13.1785 10.8215C12.866 10.5089 12.442 10.3333 12 10.3333H10.3333V12H12V17.8333H13.6667V12Z" fill="black"/>
</g>
<defs>
<clipPath id="clip0_423_3086">
<rect width="20" height="20" fill="white" transform="translate(2 2)"/>
</clipPath>
</defs>
</svg>
