<svg width="24" height="24" viewBox="0 0 24 24" fill="none" xmlns="http://www.w3.org/2000/svg">
<path d="M9 21C8.73478 21 8.48043 20.8946 8.29289 20.7071C8.10536 20.5196 8 20.2652 8 20V16H4C3.86868 16 3.73864 15.9741 3.61732 15.9239C3.49599 15.8736 3.38575 15.8 3.29289 15.7071C3.20003 15.6142 3.12638 15.504 3.07612 15.3827C3.02587 15.2614 3 15.1313 3 15C3 14.8687 3.02587 14.7386 3.07612 14.6173C3.12638 14.496 3.20003 14.3858 3.29289 14.2929C3.38575 14.2 3.49599 14.1264 3.61732 14.0761C3.73864 14.0259 3.86868 14 4 14H9C9.26522 14 9.51957 14.1054 9.70711 14.2929C9.89464 14.4804 10 14.7348 10 15V20C10 20.2652 9.89464 20.5196 9.70711 20.7071C9.51957 20.8946 9.26522 21 9 21Z" fill="black"/>
<path d="M15 21C14.7348 21 14.4804 20.8946 14.2929 20.7071C14.1054 20.5196 14 20.2652 14 20V15C14 14.7348 14.1054 14.4804 14.2929 14.2929C14.4804 14.1054 14.7348 14 15 14H20C20.1313 14 20.2614 14.0259 20.3827 14.0761C20.504 14.1264 20.6142 14.2 20.7071 14.2929C20.8 14.3858 20.8736 14.496 20.9239 14.6173C20.9741 14.7386 21 14.8687 21 15C21 15.1313 20.9741 15.2614 20.9239 15.3827C20.8736 15.504 20.8 15.6142 20.7071 15.7071C20.6142 15.8 20.504 15.8736 20.3827 15.9239C20.2614 15.9741 20.1313 16 20 16H16V20C16 20.2652 15.8946 20.5196 15.7071 20.7071C15.5196 20.8946 15.2652 21 15 21Z" fill="black"/>
<path d="M9.70711 9.70711C9.89464 9.51957 10 9.26522 10 9V4C10 3.73478 9.89464 3.48043 9.70711 3.29289C9.51957 3.10536 9.26522 3 9 3C8.73478 3 8.48043 3.10536 8.29289 3.29289C8.10536 3.48043 8 3.73478 8 4V8H4C3.73478 8 3.48043 8.10536 3.29289 8.29289C3.10536 8.48043 3 8.73478 3 9C3 9.26522 3.10536 9.51957 3.29289 9.70711C3.48043 9.89464 3.73478 10 4 10H9C9.26522 10 9.51957 9.89464 9.70711 9.70711Z" fill="black"/>
<path d="M20.7071 9.70711C20.8946 9.51957 21 9.26522 21 9C21 8.73478 20.8946 8.48043 20.7071 8.29289C20.5196 8.10536 20.2652 8 20 8H16V4C16 3.86868 15.9741 3.73864 15.9239 3.61732C15.8736 3.49599 15.8 3.38575 15.7071 3.29289C15.6142 3.20003 15.504 3.12638 15.3827 3.07612C15.2614 3.02587 15.1313 3 15 3C14.8687 3 14.7386 3.02587 14.6173 3.07612C14.496 3.12638 14.3858 3.20003 14.2929 3.29289C14.2 3.38575 14.1264 3.49599 14.0761 3.61732C14.0259 3.73864 14 3.86868 14 4V9C14 9.26522 14.1054 9.51957 14.2929 9.70711C14.4804 9.89464 14.7348 10 15 10H20C20.2652 10 20.5196 9.89464 20.7071 9.70711Z" fill="black"/>
</svg>
