<svg width="18" height="14" viewBox="0 0 18 14" fill="none" xmlns="http://www.w3.org/2000/svg">
<path d="M8.99999 0.809509C11.9452 0.809509 14.6305 2.60665 17.0552 6.20094C17.2047 6.42259 17.289 6.68175 17.2986 6.94895C17.3081 7.21614 17.2424 7.48064 17.109 7.71237L17.0552 7.79903L16.92 7.99665C14.5309 11.459 11.8905 13.1905 8.99999 13.1905C6.05476 13.1905 3.36952 11.3933 0.944756 7.79903C0.795251 7.57738 0.710948 7.31822 0.701436 7.05102C0.691923 6.78383 0.757583 6.51933 0.890947 6.2876L0.944756 6.20094L1.07999 6.00332C3.46904 2.54094 6.10952 0.809509 8.99999 0.809509ZM8.99999 2.23808C6.63904 2.23808 4.40095 3.7057 2.25999 6.80856L2.12904 6.99999L2.26047 7.19189C4.40333 10.2957 6.64095 11.7619 8.99999 11.7619C11.3609 11.7619 13.599 10.2943 15.74 7.19141L15.8709 6.99999L15.7395 6.80808C13.5967 3.70427 11.359 2.23808 8.99999 2.23808ZM8.99999 3.9676C9.41795 3.96247 9.83277 4.04036 10.2204 4.19676C10.608 4.35315 10.9608 4.58494 11.2581 4.87868C11.5555 5.17243 11.7916 5.52228 11.9527 5.90796C12.1139 6.29364 12.1969 6.70747 12.1969 7.12546C12.1969 7.54345 12.1139 7.95728 11.9527 8.34296C11.7916 8.72864 11.5555 9.0785 11.2581 9.37224C10.9608 9.66598 10.608 9.89777 10.2204 10.0542C9.83277 10.2106 9.41795 10.2885 8.99999 10.2833C8.16919 10.2731 7.37588 9.93592 6.79199 9.34482C6.2081 8.75372 5.88068 7.95632 5.88068 7.12546C5.88068 6.2946 6.2081 5.49721 6.79199 4.9061C7.37588 4.315 8.16919 3.97781 8.99999 3.9676ZM8.99999 5.39618C8.77049 5.39237 8.54252 5.43428 8.32937 5.51948C8.11623 5.60467 7.92218 5.73144 7.75853 5.8924C7.59488 6.05336 7.4649 6.24528 7.37618 6.45698C7.28747 6.66868 7.24177 6.89592 7.24177 7.12546C7.24177 7.355 7.28747 7.58224 7.37618 7.79394C7.4649 8.00564 7.59488 8.19757 7.75853 8.35852C7.92218 8.51948 8.11623 8.64625 8.32937 8.73144C8.54252 8.81664 8.77049 8.85856 8.99999 8.85475C9.45366 8.84722 9.8862 8.66172 10.2044 8.33823C10.5225 8.01475 10.7008 7.57919 10.7008 7.12546C10.7008 6.67173 10.5225 6.23618 10.2044 5.91269C9.8862 5.58921 9.45366 5.4037 8.99999 5.39618Z" fill="white"/>
</svg>
