<svg width="40" height="40" viewBox="0 0 40 40" fill="none" xmlns="http://www.w3.org/2000/svg">
<path d="M40 20.1222C40 9.00902 31.0457 0 20 0C8.9543 0 0 9.00902 0 20.1222C0 30.1657 7.31367 38.4904 16.875 40V25.9388H11.7969V20.1222H16.875V15.689C16.875 10.6459 19.8609 7.86024 24.4293 7.86024C26.6168 7.86024 28.9062 8.25326 28.9062 8.25326V13.2052H26.3844C23.9 13.2052 23.125 14.7564 23.125 16.3493V20.1222H28.6719L27.7852 25.9388H23.125V40C32.6863 38.4904 40 30.1657 40 20.1222Z" fill="#1877F2"/>
<path d="M28.02 25.6432L28.9269 19.8058H23.2534V16.0194C23.2534 14.4224 24.0461 12.8641 26.5872 12.8641H29.1667V7.89442C29.1667 7.89442 26.8257 7.5 24.5875 7.5C19.9148 7.5 16.8607 10.2956 16.8607 15.3568V19.8058H11.6667V25.6432H16.8607V39.7547C18.9787 40.0818 21.1354 40.0818 23.2534 39.7547V25.6432H28.02Z" fill="white"/>
</svg>
