<svg width="32" height="32" viewBox="0 0 32 32" fill="none" xmlns="http://www.w3.org/2000/svg">
<path d="M12.9 19.7934C13.15 19.8871 13.4 19.9621 13.6562 20.0309C13.9125 20.0996 14.1687 20.1559 14.425 20.2059C14.6875 20.2496 14.9437 20.2871 15.2062 20.3121C15.7301 20.362 16.2574 20.362 16.7812 20.3121C17.0437 20.2871 17.3062 20.2559 17.5625 20.2059C17.825 20.1621 18.0812 20.0996 18.3312 20.0309C18.5875 19.9621 18.8375 19.8809 19.0875 19.7934C19.0562 19.5184 19.0062 19.2434 18.95 18.9684C18.8937 18.6934 18.8187 18.4246 18.7312 18.1621C18.6437 17.8934 18.55 17.6371 18.4437 17.3809C18.3375 17.1246 18.2125 16.8746 18.0812 16.6309C17.95 16.3871 17.8062 16.1496 17.65 15.9121C17.4937 15.6809 17.3312 15.4559 17.1562 15.2371C16.9812 15.0184 16.7937 14.8121 16.6 14.6121C16.4062 14.4121 16.2 14.2246 15.9875 14.0434C15.775 14.2246 15.5687 14.4121 15.375 14.6121C15.1812 14.8121 14.9937 15.0184 14.8187 15.2371C14.6437 15.4559 14.4812 15.6809 14.325 15.9121C14.1687 16.1434 14.025 16.3809 13.8937 16.6309C13.7625 16.8746 13.6437 17.1246 13.5312 17.3809C13.425 17.6371 13.325 17.8996 13.2437 18.1621C13.1562 18.4309 13.0875 18.6996 13.025 18.9684C12.9812 19.2371 12.9375 19.5121 12.9 19.7934ZM19.0937 22.0121C18.5937 22.1559 18.0812 22.2684 17.5625 22.3434C17.0437 22.4184 16.525 22.4559 16 22.4559C15.475 22.4559 14.9562 22.4184 14.4375 22.3434C13.9187 22.2684 13.4125 22.1621 12.9062 22.0121C12.9437 22.2871 12.9875 22.5559 13.05 22.8246C13.1125 23.0934 13.1812 23.3621 13.2687 23.6246C13.3562 23.8871 13.45 24.1434 13.5625 24.3996C13.6687 24.6559 13.7937 24.8996 13.925 25.1434C14.0562 25.3871 14.2 25.6246 14.3562 25.8496C14.5125 26.0809 14.675 26.2996 14.85 26.5121C15.025 26.7246 15.2062 26.9309 15.4 27.1309C15.5937 27.3309 15.7937 27.5184 16.0062 27.6934C16.2187 27.5121 16.4187 27.3246 16.6125 27.1309C16.8062 26.9309 16.9875 26.7309 17.1625 26.5121C17.3375 26.2996 17.5 26.0746 17.6562 25.8496C17.8125 25.6184 17.95 25.3871 18.0875 25.1434C18.2187 24.8996 18.3375 24.6496 18.45 24.3996C18.5562 24.1434 18.6562 23.8871 18.7437 23.6246C18.8312 23.3621 18.9 23.0934 18.9625 22.8246C19.0062 22.5559 19.0562 22.2871 19.0937 22.0121ZM10.9312 18.7684C11.0375 18.2059 11.1937 17.6559 11.3875 17.1121C11.5812 16.5746 11.8187 16.0496 12.0937 15.5496C12.3687 15.0496 12.6812 14.5684 13.0312 14.1121C13.3812 13.6559 13.7625 13.2309 14.1812 12.8371C13.9062 12.6996 13.6312 12.5809 13.3437 12.4746C13.0562 12.3684 12.7687 12.2746 12.475 12.1996C12.1812 12.1246 11.8812 12.0621 11.5812 12.0121C11.2812 11.9621 10.9812 11.9309 10.675 11.9184C10.3687 11.8996 10.0687 11.8996 9.76249 11.9184C9.45624 11.9309 9.15624 11.9621 8.85624 12.0059C8.55624 12.0496 8.25624 12.1121 7.96249 12.1871C7.66874 12.2621 7.37499 12.3559 7.09374 12.4559C7.13124 12.7684 7.18749 13.0809 7.25624 13.3934C7.32499 13.7059 7.41249 14.0059 7.51874 14.3059C7.62499 14.6059 7.74374 14.8996 7.87499 15.1871C8.00624 15.4746 8.16249 15.7559 8.32499 16.0246C8.48749 16.2934 8.66874 16.5559 8.86249 16.8121C9.05624 17.0621 9.2625 17.3059 9.47499 17.5371C9.69374 17.7684 9.92499 17.9871 10.1625 18.1934C10.4187 18.3934 10.6687 18.5871 10.9312 18.7684ZM10.7312 21.1184C10.375 20.9246 10.025 20.7121 9.69374 20.4746C9.35625 20.2434 9.03749 19.9934 8.73124 19.7246C8.42499 19.4559 8.13124 19.1746 7.85624 18.8746C7.58124 18.5746 7.31874 18.2621 7.08124 17.9309C6.83749 17.5996 6.61874 17.2621 6.41249 16.9059C6.20624 16.5496 6.02499 16.1871 5.86249 15.8121C5.69999 15.4371 5.55624 15.0559 5.43124 14.6684C5.31249 14.2809 5.21249 13.8809 5.13124 13.4809C4.98124 13.5809 4.83749 13.6871 4.69374 13.7996C4.54999 13.9121 4.41249 14.0246 4.27499 14.1434C4.13749 14.2621 4.00624 14.3871 3.88124 14.5121C3.74999 14.6371 3.63124 14.7684 3.50624 14.9059C3.38124 15.0434 3.26874 15.1809 3.15624 15.3246C3.04374 15.4684 2.93749 15.6121 2.83124 15.7621C2.73124 15.9121 2.63124 16.0621 2.53749 16.2184C2.44374 16.3746 2.35624 16.5309 2.26874 16.6934C2.18124 16.8559 2.10624 17.0184 2.03124 17.1809C1.95624 17.3434 1.88749 17.5121 1.82499 17.6809C1.76249 17.8496 1.69999 18.0184 1.64999 18.1934C1.59374 18.3684 1.54999 18.5434 1.50624 18.7184C1.46249 18.8934 1.42499 19.0684 1.39374 19.2496C1.36249 19.4246 1.33124 19.6059 1.31249 19.7871C1.28749 19.9684 1.27499 20.1496 1.26249 20.3246C1.24999 20.5059 1.24374 20.6871 1.24374 20.8684C1.24374 25.8121 5.26249 29.8309 10.2062 29.8309C10.9 29.8309 11.5812 29.7559 12.25 29.5934C12.925 29.4371 13.5687 29.1996 14.1875 28.8934C13.925 28.6434 13.6687 28.3809 13.4312 28.1059C13.1937 27.8309 12.9687 27.5434 12.7562 27.2434C12.5437 26.9434 12.35 26.6371 12.1687 26.3184C11.9875 25.9996 11.825 25.6746 11.675 25.3434C11.525 25.0121 11.3937 24.6684 11.2812 24.3246C11.1687 23.9809 11.0687 23.6246 10.9937 23.2746C10.9125 22.9184 10.85 22.5621 10.8062 22.1996C10.7625 21.8434 10.7375 21.4809 10.7312 21.1184ZM17.8187 12.8434C18.2375 13.2371 18.6187 13.6621 18.9687 14.1184C19.3187 14.5746 19.6312 15.0496 19.9062 15.5559C20.1812 16.0559 20.4187 16.5809 20.6125 17.1184C20.8062 17.6559 20.9625 18.2121 21.0687 18.7746C21.3312 18.5934 21.5812 18.3996 21.825 18.1934C22.0687 17.9871 22.2937 17.7684 22.5125 17.5371C22.7312 17.3059 22.9375 17.0684 23.125 16.8121C23.3187 16.5621 23.4937 16.2996 23.6625 16.0246C23.825 15.7559 23.975 15.4746 24.1125 15.1871C24.25 14.8996 24.3687 14.6059 24.4687 14.3059C24.575 14.0059 24.6625 13.6996 24.7312 13.3934C24.8 13.0871 24.8562 12.7746 24.8937 12.4559C24.6062 12.3496 24.3187 12.2621 24.025 12.1871C23.7312 12.1121 23.4312 12.0496 23.1312 12.0059C22.8312 11.9621 22.5312 11.9309 22.225 11.9184C21.9187 11.9059 21.6187 11.9059 21.3125 11.9184C21.0062 11.9371 20.7062 11.9684 20.4062 12.0121C20.1062 12.0621 19.8062 12.1246 19.5125 12.1996C19.2187 12.2746 18.9312 12.3684 18.6437 12.4746C18.3687 12.5871 18.0875 12.7059 17.8187 12.8434ZM21.275 21.1184C21.2687 21.4809 21.2437 21.8434 21.2 22.2059C21.1562 22.5684 21.0937 22.9246 21.0125 23.2809C20.9312 23.6371 20.8375 23.9871 20.725 24.3309C20.6125 24.6746 20.4812 25.0184 20.3312 25.3496C20.1812 25.6809 20.0187 26.0059 19.8375 26.3246C19.6562 26.6434 19.4625 26.9496 19.25 27.2496C19.0375 27.5496 18.8125 27.8309 18.575 28.1121C18.3375 28.3871 18.0875 28.6496 17.8187 28.8996C18.4375 29.2059 19.0812 29.4434 19.7562 29.5996C20.4312 29.7559 21.1125 29.8371 21.8 29.8371C26.7437 29.8371 30.7625 25.8184 30.7625 20.8746C30.7625 20.6934 30.7562 20.5121 30.7437 20.3309C30.7312 20.1496 30.7187 19.9684 30.6937 19.7934C30.6687 19.6121 30.6437 19.4371 30.6125 19.2559C30.5812 19.0809 30.5437 18.8996 30.5 18.7246C30.4562 18.5496 30.4062 18.3746 30.3562 18.1996C30.3 18.0246 30.2437 17.8559 30.1812 17.6871C30.1187 17.5184 30.05 17.3496 29.975 17.1871C29.9 17.0246 29.8187 16.8621 29.7375 16.6996C29.65 16.5371 29.5625 16.3809 29.4687 16.2246C29.375 16.0684 29.275 15.9184 29.175 15.7684C29.0687 15.6184 28.9625 15.4746 28.85 15.3309C28.7375 15.1871 28.625 15.0496 28.5 14.9121C28.3812 14.7746 28.2562 14.6434 28.125 14.5184C27.9937 14.3934 27.8625 14.2684 27.7312 14.1496C27.5937 14.0309 27.4562 13.9121 27.3125 13.8059C27.1687 13.6934 27.025 13.5871 26.875 13.4871C26.8 13.8871 26.7 14.2809 26.575 14.6746C26.4562 15.0621 26.3125 15.4434 26.15 15.8184C25.9875 16.1934 25.8 16.5559 25.6 16.9059C25.3937 17.2621 25.175 17.5996 24.9312 17.9309C24.6875 18.2621 24.4312 18.5746 24.1562 18.8746C23.8812 19.1746 23.5875 19.4621 23.2812 19.7309C22.975 19.9996 22.65 20.2496 22.3187 20.4809C21.9812 20.7059 21.6312 20.9246 21.275 21.1184ZM16 11.4434C16.325 11.2434 16.6687 11.0559 17.0125 10.8871C17.3625 10.7184 17.7125 10.5746 18.075 10.4434C18.4375 10.3121 18.8062 10.2059 19.1812 10.1121C19.5562 10.0184 19.9312 9.94961 20.3125 9.89961C20.6937 9.84961 21.075 9.81836 21.4625 9.80586C21.85 9.79336 22.2312 9.79961 22.6187 9.83086C23 9.86211 23.3875 9.90586 23.7625 9.97461C24.1437 10.0434 24.5187 10.1309 24.8875 10.2371C24.325 5.83086 20.55 2.41211 15.9937 2.41211C11.4375 2.41211 7.66874 5.83086 7.10624 10.2371C7.47499 10.1309 7.84999 10.0434 8.23124 9.97461C8.61249 9.90586 8.99374 9.85586 9.37499 9.83086C9.75624 9.79961 10.1437 9.79336 10.5312 9.80586C10.9187 9.81836 11.3 9.84961 11.6812 9.89961C12.0625 9.94961 12.4437 10.0246 12.8125 10.1121C13.1875 10.2059 13.5562 10.3121 13.9187 10.4434C14.2812 10.5746 14.6375 10.7246 14.9812 10.8871C15.3312 11.0559 15.675 11.2434 16 11.4434Z" fill="white"/>
</svg>
