<svg width="24" height="24" viewBox="0 0 24 24" fill="none" xmlns="http://www.w3.org/2000/svg">
<g clip-path="url(#clip0_7135_18194)">
<path d="M20.4483 7.55172C20.2069 6.7931 19.7586 6.10345 19.2069 5.58621C18.7931 3.51724 16.9655 2 14.8621 2H9.17241C7.03448 2 5.24138 3.51724 4.82759 5.55172C4.24138 6.06897 3.82759 6.75862 3.58621 7.51724C2.62069 8.37931 2 9.58621 2 10.931V17.5517C2 20 4 22 6.44828 22H17.5517C20 22 22 20 22 17.5517V10.931C22 9.58621 21.3793 8.37931 20.4483 7.55172ZM9.17241 3.37931H14.8276C15.7931 3.37931 16.6552 3.82759 17.2069 4.55172C16.8621 4.48276 16.5172 4.41379 16.1724 4.41379H7.7931C7.44828 4.41379 7.10345 4.44828 6.75862 4.55172C7.34483 3.82759 8.2069 3.37931 9.17241 3.37931ZM16.7931 11.4483L11.1034 17.1379C10.9655 17.2759 10.7931 17.3448 10.6207 17.3448C10.4483 17.3448 10.2759 17.2759 10.1379 17.1379L7.2069 14.2069C6.93103 13.931 6.93103 13.5172 7.2069 13.2414C7.48276 12.9655 7.89655 12.9655 8.17241 13.2414L10.6207 15.6897L15.8276 10.4828C16.1034 10.2069 16.5172 10.2069 16.7931 10.4828C17.069 10.7586 17.069 11.1724 16.7931 11.4483ZM6.44828 6.48276C6.24138 6.48276 6.03448 6.51724 5.86207 6.51724C5.93103 6.48276 5.96552 6.44828 6 6.37931C6.51724 6 7.13793 5.7931 7.82759 5.7931H16.2069C16.9655 5.7931 17.6552 6.06896 18.2069 6.51724C18 6.48276 17.7931 6.48276 17.5862 6.48276H6.44828Z" fill="black" fill-opacity="0.7"/>
</g>
<defs>
<clipPath id="clip0_7135_18194">
<rect width="20" height="20" fill="white" transform="translate(2 2)"/>
</clipPath>
</defs>
</svg>
