<svg width="264" height="254" viewBox="0 0 264 254" fill="none" xmlns="http://www.w3.org/2000/svg">
<g opacity="0.57">
<path d="M208.713 168.442C234.964 168.442 256.244 135.164 256.244 94.1138C256.244 53.0638 234.964 19.7861 208.713 19.7861C182.462 19.7861 161.181 53.0638 161.181 94.1138C161.181 135.164 182.462 168.442 208.713 168.442Z" fill="url(#paint0_linear_833_16245)"/>
</g>
<g opacity="0.57">
<path d="M180.856 188.749C207.107 188.749 228.387 155.472 228.387 114.421C228.387 73.3714 207.107 40.0938 180.856 40.0938C154.605 40.0938 133.324 73.3714 133.324 114.421C133.324 155.472 154.605 188.749 180.856 188.749Z" fill="url(#paint1_linear_833_16245)"/>
</g>
<path d="M38.9557 120.853H20.6416C18.6819 120.853 17.0928 122.442 17.0928 124.401V211.313C17.0928 213.272 18.6819 214.861 20.6416 214.861H38.9557C40.9154 214.861 42.5045 213.272 42.5045 211.313V124.401C42.5045 122.442 40.9154 120.853 38.9557 120.853ZM27.1307 154.179H23.3424V146.403H27.1307V154.179ZM27.1307 138.626H23.3424V130.85H27.1307V138.626Z" fill="url(#paint2_linear_833_16245)"/>
<path d="M86.8015 105.161L74.0268 119.047V213.056H99.4385V119.047L86.8015 105.161ZM83.7463 134.401H79.5808V125.851H83.7463V134.401Z" fill="url(#paint3_linear_833_16245)"/>
<path d="M72.2824 90.165H41.1936C39.2339 90.165 37.6448 91.7542 37.6448 93.7139V192.845C37.6448 194.804 39.2339 196.394 41.1936 196.394H72.2824C74.2421 196.394 75.8313 194.804 75.8313 192.845V93.7125C75.8313 91.7529 74.2421 90.165 72.2824 90.165ZM43.7539 100.857H49.031V111.688H43.7539V100.857ZM54.169 136.543H48.8919V125.712H54.169V136.543Z" fill="url(#paint4_linear_833_16245)"/>
<path d="M39.5228 63.9678C39.5228 59.7274 36.093 56.2882 31.8566 56.2735C30.5511 51.8578 26.4645 48.6367 21.6261 48.6367C17.4044 48.6367 13.7553 51.09 12.0257 54.6482C7.47891 54.8221 3.84579 58.5622 3.84579 63.1518C3.84579 67.8524 7.65682 71.6634 12.3574 71.6634C12.3775 71.6634 12.3962 71.6634 12.4163 71.6621V71.7798H31.9449V71.6621C36.1412 71.5992 39.5228 68.1788 39.5228 63.9678Z" fill="url(#paint5_linear_833_16245)"/>
<g opacity="0.79">
<path d="M171.637 12.0925C171.637 9.88004 169.843 8.08622 167.63 8.08622C167.356 8.08622 167.089 8.11431 166.829 8.16648C165.915 6.55459 164.186 5.46572 162.201 5.46572C162.149 5.46572 162.098 5.4684 162.047 5.46974C161.951 2.43189 159.458 0 156.398 0C153.336 0 150.844 2.4359 150.749 5.47509C147.95 5.62758 145.727 7.94577 145.727 10.783C145.727 13.568 147.869 15.8514 150.595 16.0788V16.0989H167.669V16.0975C169.863 16.0775 171.637 14.293 171.637 12.0925Z" fill="url(#paint6_linear_833_16245)"/>
</g>
<path d="M207.932 177.714H206.017V185.914H207.932V177.714Z" fill="url(#paint7_linear_833_16245)"/>
<path d="M211.019 169.217C210.424 167.559 208.837 166.372 206.974 166.372C204.904 166.372 203.178 167.834 202.77 169.782C200.886 170.237 199.487 171.934 199.487 173.958C199.487 176.331 201.41 178.255 203.783 178.255C203.868 178.255 203.952 178.252 204.036 178.247C204.78 178.865 205.736 179.236 206.779 179.236C208.093 179.236 209.271 178.645 210.06 177.714C210.079 177.714 210.099 177.716 210.117 177.716C212.49 177.716 214.414 175.792 214.414 173.419C214.414 171.355 212.959 169.632 211.019 169.217Z" fill="url(#paint8_linear_833_16245)"/>
<path d="M66.1906 185.655H64.576V192.57H66.1906V185.655Z" fill="url(#paint9_linear_833_16245)"/>
<path d="M68.7937 178.49C68.2921 177.092 66.9544 176.092 65.3827 176.092C63.6383 176.092 62.1816 177.325 61.8378 178.968C60.25 179.352 59.0688 180.783 59.0688 182.489C59.0688 184.49 60.6901 186.111 62.6913 186.111C62.7622 186.111 62.8331 186.108 62.904 186.104C63.5313 186.626 64.3379 186.939 65.2168 186.939C66.3257 186.939 67.3183 186.44 67.9831 185.655C67.9991 185.655 68.0152 185.655 68.0326 185.655C70.0337 185.655 71.655 184.034 71.655 182.032C71.6563 180.292 70.4297 178.839 68.7937 178.49Z" fill="url(#paint10_linear_833_16245)"/>
<path d="M29.4635 225.584H27.0397V235.964H29.4635V225.584Z" fill="url(#paint11_linear_833_16245)"/>
<path d="M33.3722 214.827C32.6191 212.726 30.6112 211.226 28.2516 211.226C25.6324 211.226 23.4453 213.077 22.929 215.542C20.5439 216.119 18.7729 218.267 18.7729 220.829C18.7729 223.833 21.2074 226.268 24.2118 226.268C24.3188 226.268 24.4259 226.264 24.5315 226.258C25.4733 227.041 26.6838 227.512 28.0041 227.512C29.6695 227.512 31.1597 226.763 32.1576 225.584C32.1817 225.584 32.2058 225.585 32.2312 225.585C35.2356 225.585 37.6701 223.151 37.6701 220.147C37.6688 217.533 35.8282 215.351 33.3722 214.827Z" fill="url(#paint12_linear_833_16245)"/>
<g opacity="0.68">
<path d="M257.443 253.488C261.612 246.254 263.865 238.533 263.865 230.515C263.865 189.465 204.796 156.188 131.932 156.188C59.0675 156.188 0 189.465 0 230.515C0 238.533 2.25398 246.254 6.42216 253.488H257.443Z" fill="url(#paint13_linear_833_16245)"/>
</g>
<g opacity="0.68">
<path d="M150.946 153.893C136.257 153.893 121.568 153.893 106.879 153.893C105.219 153.974 103.199 153.92 101.867 155.106C100.306 155.586 99.7096 156.411 100.515 157.351C108.729 166.945 116.942 176.537 125.157 186.131C127.343 188.43 131.727 188.806 134.683 188.813C149.373 188.813 164.061 188.813 178.751 188.813C180.41 188.732 182.43 188.786 183.762 187.599C185.324 187.12 185.92 186.294 185.115 185.355C176.9 175.761 168.687 166.168 160.473 156.574C158.287 154.275 153.902 153.899 150.946 153.893Z" fill="url(#paint14_linear_833_16245)"/>
</g>
<path d="M153.54 155.895H101.376C98.3179 155.895 95.8386 153.416 95.8386 150.358V61.9657C95.8386 58.908 98.3179 56.4287 101.376 56.4287H153.54C156.597 56.4287 159.077 58.908 159.077 61.9657V150.358C159.077 153.416 156.597 155.895 153.54 155.895Z" fill="url(#paint15_linear_833_16245)"/>
<path d="M155.805 158.159H103.64C100.583 158.159 98.1034 155.679 98.1034 152.622V64.2294C98.1034 61.1717 100.583 58.6924 103.64 58.6924H155.805C158.862 58.6924 161.342 61.1717 161.342 64.2294V152.622C161.342 155.681 158.862 158.159 155.805 158.159Z" fill="url(#paint16_linear_833_16245)"/>
<path d="M152.407 155.237H107.682C104.625 155.237 102.145 152.757 102.145 149.7V67.788C102.145 64.7303 104.625 62.251 107.682 62.251H152.407C155.465 62.251 157.944 64.7303 157.944 67.788V149.7C157.944 152.759 155.465 155.237 152.407 155.237Z" fill="url(#paint17_linear_833_16245)"/>
<path d="M130.046 152.336C131.967 152.336 133.523 150.78 133.523 148.859C133.523 146.939 131.967 145.382 130.046 145.382C128.126 145.382 126.569 146.939 126.569 148.859C126.569 150.78 128.126 152.336 130.046 152.336Z" fill="url(#paint18_linear_833_16245)"/>
<path d="M149.678 69.2051H125.131C123.602 69.2051 122.364 70.4447 122.364 71.9722V78.2438C122.364 79.7726 123.604 81.0109 125.131 81.0109H144.046L145.252 83.1005C145.753 83.9695 147.008 83.9695 147.509 83.1005L148.714 81.0109H149.677C151.206 81.0109 152.444 79.7713 152.444 78.2438V71.9722C152.445 70.4447 151.207 69.2051 149.678 69.2051Z" fill="#E9F1FF"/>
<path d="M147.566 111.283C146.365 111.279 145.396 110.302 145.4 109.102C145.404 107.902 146.38 106.932 147.581 106.937C148.781 106.941 149.75 107.917 149.746 109.117C149.741 110.316 148.766 111.284 147.566 111.283ZM147.578 107.705C146.803 107.702 146.171 108.33 146.168 109.105C146.166 109.88 146.793 110.512 147.568 110.514C148.344 110.517 148.975 109.89 148.978 109.114C148.979 108.339 148.353 107.709 147.578 107.705Z" fill="#E9F1FF"/>
<path d="M145.055 119.657L116.338 119.558C114.534 119.551 113.077 118.085 113.084 116.28L113.1 111.476C113.107 109.672 114.573 108.215 116.378 108.222L144.022 108.317C144.234 108.318 144.406 108.491 144.405 108.702C144.403 108.914 144.231 109.087 144.019 109.085L116.368 108.99C114.989 108.985 113.867 110.099 113.862 111.479L113.845 116.283C113.84 117.662 114.955 118.784 116.334 118.789L145.051 118.888C145.714 118.891 146.349 118.629 146.82 118.163C147.29 117.696 147.556 117.062 147.557 116.4L147.57 112.689C147.571 112.477 147.743 112.305 147.955 112.306C148.167 112.307 148.338 112.48 148.338 112.691L148.326 116.404C148.319 118.204 146.855 119.66 145.055 119.657Z" fill="#E9F1FF"/>
<path d="M116.979 114.142L116.295 113.988L116.424 113.42L117.138 113.579L117.139 113.006L117.722 113.007L117.72 113.58L118.44 113.425L118.565 113.993L117.879 114.142L118.338 114.668L117.901 115.053L117.428 114.513L116.952 115.049L116.513 114.661L116.979 114.142Z" fill="#E9F1FF"/>
<path d="M122.314 114.162L121.629 114.007L121.758 113.44L122.473 113.598L122.474 113.025L123.056 113.027L123.055 113.6L123.775 113.445L123.9 114.012L123.214 114.162L123.673 114.687L123.236 115.073L122.763 114.533L122.287 115.069L121.848 114.681L122.314 114.162Z" fill="#E9F1FF"/>
<path d="M127.648 114.179L126.964 114.025L127.093 113.457L127.807 113.616L127.809 113.043L128.391 113.044L128.39 113.617L129.109 113.463L129.234 114.03L128.549 114.179L129.007 114.705L128.57 115.09L128.098 114.55L127.621 115.086L127.183 114.698L127.648 114.179Z" fill="#E9F1FF"/>
<path d="M132.983 114.198L132.299 114.043L132.428 113.476L133.142 113.635L133.143 113.062L133.726 113.063L133.724 113.636L134.444 113.481L134.569 114.049L133.883 114.198L134.342 114.723L133.905 115.109L133.432 114.569L132.956 115.105L132.517 114.717L132.983 114.198Z" fill="#E9F1FF"/>
<path d="M138.318 114.217L137.633 114.062L137.762 113.494L138.477 113.653L138.478 113.08L139.06 113.081L139.059 113.654L139.779 113.5L139.904 114.067L139.218 114.217L139.677 114.742L139.24 115.128L138.767 114.587L138.291 115.124L137.852 114.735L138.318 114.217Z" fill="#E9F1FF"/>
<path d="M143.652 114.234L142.968 114.079L143.097 113.512L143.811 113.671L143.813 113.098L144.395 113.099L144.394 113.672L145.113 113.517L145.238 114.085L144.553 114.234L145.011 114.76L144.574 115.145L144.102 114.605L143.625 115.141L143.187 114.753L143.652 114.234Z" fill="#E9F1FF"/>
<path d="M147.566 94.3462C146.365 94.3422 145.396 93.3659 145.4 92.1657C145.404 90.9654 146.38 89.9959 147.581 90C148.781 90.0041 149.75 90.9803 149.746 92.1806C149.741 93.3795 148.766 94.3476 147.566 94.3462ZM147.578 90.7685C146.803 90.7658 146.171 91.3931 146.168 92.1684C146.166 92.9437 146.793 93.575 147.568 93.5778C148.344 93.5805 148.975 92.9532 148.978 92.1779C148.979 91.4026 148.353 90.7726 147.578 90.7685Z" fill="#E9F1FF"/>
<path d="M145.055 102.72L116.338 102.621C114.534 102.614 113.077 101.148 113.084 99.3435L113.1 94.5398C113.107 92.7353 114.573 91.2784 116.378 91.2852L144.022 91.3802C144.234 91.3816 144.406 91.554 144.405 91.7658C144.403 91.9776 144.231 92.1501 144.019 92.1487L116.368 92.0537C114.989 92.0482 113.867 93.163 113.862 94.5425L113.845 99.3463C113.84 100.726 114.955 101.847 116.334 101.853L145.051 101.952C145.714 101.955 146.349 101.692 146.82 101.227C147.29 100.76 147.556 100.126 147.557 99.463L147.57 95.7522C147.571 95.5404 147.743 95.368 147.955 95.3693C148.167 95.3707 148.338 95.5431 148.338 95.755L148.326 99.4671C148.319 101.268 146.855 102.723 145.055 102.72Z" fill="#E9F1FF"/>
<path d="M127.673 74.1833H125.627C125.253 74.1833 124.952 73.8805 124.952 73.5085V72.9531C124.952 72.5797 125.255 72.2783 125.627 72.2783H127.673C128.046 72.2783 128.348 72.5811 128.348 72.9531V73.5085C128.348 73.8818 128.045 74.1833 127.673 74.1833Z" fill="url(#paint19_linear_833_16245)"/>
<path d="M132.363 74.1833H130.316C129.943 74.1833 129.642 73.8805 129.642 73.5085V72.9531C129.642 72.5797 129.944 72.2783 130.316 72.2783H132.363C132.736 72.2783 133.037 72.5811 133.037 72.9531V73.5085C133.037 73.8818 132.736 74.1833 132.363 74.1833Z" fill="url(#paint20_linear_833_16245)"/>
<path d="M164.632 135.747C165.312 135.811 165.942 136.135 166.392 136.652C166.532 136.807 166.649 136.981 166.742 137.169L166.748 137.182L166.73 137.089C166.945 137.151 167.038 137.535 167.044 138.002L167.044 138.022C167.563 137.881 167.933 139.467 166.804 139.509C166.764 139.614 166.719 139.705 166.672 139.774C166.387 140.19 166.075 140.722 165.633 141.044L165.637 142.208L163.328 142.24L163.338 140.873C163.152 140.721 162.99 140.535 162.862 140.319C162.694 140.063 162.555 139.791 162.446 139.508L162.491 139.506C161.144 139.6 161.596 137.753 162.165 138.044C162.164 137.982 162.164 137.92 162.166 137.858C162.22 137.343 162.429 136.858 162.766 136.467C163.231 135.931 163.93 135.662 164.632 135.747ZM166.8 137.446L166.801 137.465C166.804 137.557 166.809 137.648 166.856 137.731L166.8 137.446ZM166.748 137.182L166.8 137.446L166.799 137.43C166.797 137.372 166.793 137.315 166.779 137.259L166.769 137.226L166.748 137.182Z" fill="#EBB0B0"/>
<path d="M167.503 138.691C168.274 137.917 168.555 135.333 167.096 134.679C166.933 134.473 166.586 134.418 166.119 134.411C165.781 134.402 165.743 134.536 165.57 134.504C165.397 134.473 165.142 134.048 164.484 133.963C164.128 133.911 163.053 134.189 162.819 134.504C162.36 134.861 161.764 135.73 161.631 136.82C161.493 137.911 162.036 138.453 162.487 139.282C162.904 139.009 163.006 138.377 163.301 137.967C163.71 137.469 164.226 137.076 164.807 136.82C166.057 136.629 166.656 136.629 167.219 137.802C167.219 137.802 167.314 138.098 167.503 138.691Z" fill="#131322"/>
<path d="M163.398 141.649C163.766 141.876 164.199 142.257 164.614 142.265C164.928 142.283 165.356 141.836 165.629 141.649C166.888 141.708 169.171 142.344 171.104 143.806C171.104 149.459 170.534 150.467 169.796 153.649C169.776 153.788 167.685 157.411 167.285 157.614C165.717 158.406 164.505 158.258 162.787 158.057C162.452 158.016 160.542 156.361 160.29 156.115C160.089 155.917 159.088 153.742 158.861 153.143C158.633 152.544 158.287 151.461 158.261 150.812C158.191 149.086 158.073 146.162 158.049 143.997C159.489 141.906 161.838 142.081 163.398 141.649Z" fill="#5A91F7"/>
<path d="M165.491 142.832H163.068C162.59 142.832 162.202 143.22 162.202 143.698V147.292C162.202 147.77 162.59 148.157 163.068 148.157H165.491C165.969 148.157 166.356 147.77 166.356 147.292V143.698C166.356 143.22 165.969 142.832 165.491 142.832Z" fill="url(#paint21_linear_833_16245)"/>
<path d="M161.498 147.834C161.747 147.087 162.074 146.491 162.479 146.048C162.887 145.801 162.882 145.983 162.709 146.17C162.948 146.102 164.015 145.733 164.287 147.373C164.099 147.984 163.405 149.057 162.359 149.171C161.754 149.148 161.467 148.703 161.498 147.834Z" fill="#EFBA9E"/>
<path d="M158.065 143.731C158.899 142.645 159.705 142.543 160.483 143.424C161.366 144.335 160.997 150.213 160.483 153.846C159.284 155.419 157.784 154.47 157.382 153.169C156.508 149.163 156.736 146.017 158.065 143.731Z" fill="url(#paint22_linear_833_16245)"/>
<path d="M167.788 147.834C167.539 147.087 167.212 146.491 166.806 146.048C166.399 145.801 166.403 145.983 166.576 146.17C166.338 146.102 165.271 145.733 164.999 147.373C165.187 147.984 165.881 149.057 166.927 149.171C167.532 149.148 167.819 148.703 167.788 147.834Z" fill="#EFBA9E"/>
<path d="M171.681 143.731C170.847 142.645 170.041 142.543 169.263 143.424C168.38 144.335 168.749 150.213 169.263 153.846C170.462 155.419 171.961 154.47 172.364 153.169C173.238 149.163 173.01 146.017 171.681 143.731Z" fill="url(#paint23_linear_833_16245)"/>
<path d="M157.122 153.687C157.615 151.287 159.043 149.1 161.408 147.125C162.262 146.788 163.232 147.11 163.461 148.341C163.704 149.089 162.457 155.065 159.564 156.601C157.481 157.051 156.667 156.08 157.122 153.687Z" fill="#6D83F3"/>
<path d="M173.368 154.687C172.876 152.287 171.447 150.1 169.083 148.125C168.228 147.788 167.259 148.11 167.03 149.341C166.786 150.089 168.034 156.065 170.927 157.601C173.009 158.051 173.823 157.08 173.368 154.687Z" fill="#6D83F3"/>
<path d="M156.889 160.424C155.759 156.526 156.172 154.607 158.13 154.667L163.212 157.352C164.403 158.132 165.516 158.132 166.553 157.352C168.107 156.102 169.796 155.207 171.618 154.667C174.027 154.88 174.095 157.049 171.822 161.175C169.34 161.092 164.565 161.092 157.497 161.175C157.232 161.061 157.029 160.811 156.889 160.424Z" fill="url(#paint24_linear_833_16245)"/>
<path d="M161.103 169.04C161.641 169.016 161.901 168.878 162.174 169.034C162.447 169.19 162.737 169.899 162.586 170.264C162.394 170.728 162.011 171.506 161.908 171.727C161.805 171.948 161.058 173.451 160.526 173.524C159.994 173.598 159.776 172.772 160.078 171.76C160.38 170.748 160.936 169.329 160.936 169.329L161.103 169.04Z" fill="#333333"/>
<path d="M167.722 169.04C167.184 169.016 166.924 168.878 166.651 169.034C166.378 169.19 166.088 169.899 166.239 170.264C166.431 170.728 166.814 171.506 166.917 171.727C167.02 171.948 167.767 173.451 168.299 173.524C168.831 173.598 169.049 172.772 168.747 171.76C168.445 170.748 167.889 169.329 167.889 169.329L167.722 169.04Z" fill="#333333"/>
<path d="M155.162 157.521C155.162 157.521 154.539 154.376 156.759 153.671C158.979 152.965 159.905 154.385 160.597 155.596C160.814 156.752 161.547 161.092 162.796 168.618C162.011 169.337 160.998 169.595 159.755 169.39C159.248 167.738 155.162 157.521 155.162 157.521Z" fill="black"/>
<path d="M173.397 157.521C173.397 157.521 174.02 154.376 171.8 153.671C169.58 152.965 168.654 154.385 167.962 155.596C167.745 156.752 167.012 161.092 165.763 168.618C166.547 169.337 167.561 169.595 168.804 169.39C169.31 167.738 173.397 157.521 173.397 157.521Z" fill="black"/>
<defs>
<linearGradient id="paint0_linear_833_16245" x1="208.713" y1="164.07" x2="208.713" y2="-146.831" gradientUnits="userSpaceOnUse">
<stop offset="0.2597" stop-color="white"/>
<stop offset="1" stop-color="#6397F7"/>
</linearGradient>
<linearGradient id="paint1_linear_833_16245" x1="180.856" y1="184.376" x2="180.856" y2="-126.524" gradientUnits="userSpaceOnUse">
<stop offset="0.2597" stop-color="white"/>
<stop offset="1" stop-color="#6397F7"/>
</linearGradient>
<linearGradient id="paint2_linear_833_16245" x1="29.7986" y1="212.096" x2="29.7986" y2="15.4851" gradientUnits="userSpaceOnUse">
<stop offset="0.2597" stop-color="white"/>
<stop offset="1" stop-color="#6397F7"/>
</linearGradient>
<linearGradient id="paint3_linear_833_16245" x1="86.7315" y1="209.882" x2="86.7315" y2="-15.7705" gradientUnits="userSpaceOnUse">
<stop offset="0.2597" stop-color="white"/>
<stop offset="1" stop-color="#6397F7"/>
</linearGradient>
<linearGradient id="paint4_linear_833_16245" x1="56.7376" y1="193.268" x2="56.7376" y2="-28.8993" gradientUnits="userSpaceOnUse">
<stop offset="0.2597" stop-color="white"/>
<stop offset="1" stop-color="#6397F7"/>
</linearGradient>
<linearGradient id="paint5_linear_833_16245" x1="21.4302" y1="73.0257" x2="22.9309" y2="17.1962" gradientUnits="userSpaceOnUse">
<stop stop-color="white"/>
<stop offset="1" stop-color="#6397F7"/>
</linearGradient>
<linearGradient id="paint6_linear_833_16245" x1="158.681" y1="15.3565" x2="158.681" y2="-21.4426" gradientUnits="userSpaceOnUse">
<stop stop-color="white"/>
<stop offset="1" stop-color="#6397F7"/>
</linearGradient>
<linearGradient id="paint7_linear_833_16245" x1="206.975" y1="185.672" x2="206.975" y2="168.524" gradientUnits="userSpaceOnUse">
<stop stop-color="white"/>
<stop offset="1" stop-color="#6397F7"/>
</linearGradient>
<linearGradient id="paint8_linear_833_16245" x1="207.026" y1="164.177" x2="206.746" y2="199.614" gradientUnits="userSpaceOnUse">
<stop stop-color="white"/>
<stop offset="1" stop-color="#6397F7"/>
</linearGradient>
<linearGradient id="paint9_linear_833_16245" x1="65.3835" y1="193.708" x2="65.3835" y2="176.8" gradientUnits="userSpaceOnUse">
<stop stop-color="white"/>
<stop offset="1" stop-color="#6397F7"/>
</linearGradient>
<linearGradient id="paint10_linear_833_16245" x1="65.4261" y1="174.239" x2="65.1903" y2="204.121" gradientUnits="userSpaceOnUse">
<stop stop-color="white"/>
<stop offset="1" stop-color="#6397F7"/>
</linearGradient>
<linearGradient id="paint11_linear_833_16245" x1="28.2517" y1="235.66" x2="28.2517" y2="213.949" gradientUnits="userSpaceOnUse">
<stop stop-color="white"/>
<stop offset="1" stop-color="#6397F7"/>
</linearGradient>
<linearGradient id="paint12_linear_833_16245" x1="28.3156" y1="208.445" x2="27.9616" y2="253.31" gradientUnits="userSpaceOnUse">
<stop stop-color="white"/>
<stop offset="1" stop-color="#6397F7"/>
</linearGradient>
<linearGradient id="paint13_linear_833_16245" x1="131.933" y1="250.626" x2="131.933" y2="47.1291" gradientUnits="userSpaceOnUse">
<stop offset="0.2597" stop-color="white"/>
<stop offset="1" stop-color="#6397F7"/>
</linearGradient>
<linearGradient id="paint14_linear_833_16245" x1="142.815" y1="154.05" x2="142.815" y2="189.719" gradientUnits="userSpaceOnUse">
<stop stop-color="#5A91F7"/>
<stop offset="0.2039" stop-color="#A2C1FB" stop-opacity="0.8034"/>
<stop offset="0.9749" stop-color="white" stop-opacity="0.54"/>
</linearGradient>
<linearGradient id="paint15_linear_833_16245" x1="127.458" y1="149.865" x2="127.458" y2="53.8218" gradientUnits="userSpaceOnUse">
<stop stop-color="#91D3F8"/>
<stop offset="0.9311" stop-color="#D9F3FF"/>
</linearGradient>
<linearGradient id="paint16_linear_833_16245" x1="98.1036" y1="108.426" x2="161.341" y2="108.426" gradientUnits="userSpaceOnUse">
<stop stop-color="#5A91F7"/>
<stop offset="1" stop-color="#2B62BA"/>
</linearGradient>
<linearGradient id="paint17_linear_833_16245" x1="130.046" y1="68.9628" x2="130.046" y2="152.415" gradientUnits="userSpaceOnUse">
<stop stop-color="#91D3F8"/>
<stop offset="0.9944" stop-color="#5A91F7"/>
</linearGradient>
<linearGradient id="paint18_linear_833_16245" x1="130.046" y1="145.884" x2="130.046" y2="152.125" gradientUnits="userSpaceOnUse">
<stop stop-color="#91D3F8"/>
<stop offset="0.9944" stop-color="#5A91F7"/>
</linearGradient>
<linearGradient id="paint19_linear_833_16245" x1="124.951" y1="73.2314" x2="128.348" y2="73.2314" gradientUnits="userSpaceOnUse">
<stop stop-color="#91D3F8"/>
<stop offset="0.9944" stop-color="#5A91F7"/>
</linearGradient>
<linearGradient id="paint20_linear_833_16245" x1="129.641" y1="73.2314" x2="133.038" y2="73.2314" gradientUnits="userSpaceOnUse">
<stop stop-color="#91D3F8"/>
<stop offset="0.9944" stop-color="#5A91F7"/>
</linearGradient>
<linearGradient id="paint21_linear_833_16245" x1="106.836" y1="606.168" x2="425.163" y2="384.528" gradientUnits="userSpaceOnUse">
<stop stop-color="#868686"/>
<stop offset="1" stop-color="#3F3F3F"/>
</linearGradient>
<linearGradient id="paint22_linear_833_16245" x1="572.246" y1="107.687" x2="159.277" y2="107.687" gradientUnits="userSpaceOnUse">
<stop stop-color="#05E6D9"/>
<stop offset="1" stop-color="#599BFF"/>
</linearGradient>
<linearGradient id="paint23_linear_833_16245" x1="-242.501" y1="107.687" x2="170.468" y2="107.687" gradientUnits="userSpaceOnUse">
<stop stop-color="#05E6D9"/>
<stop offset="1" stop-color="#599BFF"/>
</linearGradient>
<linearGradient id="paint24_linear_833_16245" x1="1640.96" y1="136.409" x2="156.268" y2="136.409" gradientUnits="userSpaceOnUse">
<stop stop-color="#010101"/>
<stop offset="0.3" stop-color="#2C2422"/>
<stop offset="0.5" stop-color="#42352C"/>
<stop offset="0.7" stop-color="#57352C"/>
<stop offset="1" stop-color="#923629"/>
</linearGradient>
</defs>
</svg>
