<svg width="24" height="24" viewBox="0 0 24 24" fill="none" xmlns="http://www.w3.org/2000/svg">
<path d="M4 14C4.26522 14 4.51957 14.1054 4.70711 14.2929C4.89464 14.4804 5 14.7348 5 15L5 19H9C9.13132 19 9.26136 19.0259 9.38268 19.0761C9.50401 19.1264 9.61425 19.2 9.70711 19.2929C9.79997 19.3858 9.87362 19.496 9.92388 19.6173C9.97413 19.7386 10 19.8687 10 20C10 20.1313 9.97413 20.2614 9.92388 20.3827C9.87362 20.504 9.79997 20.6142 9.70711 20.7071C9.61425 20.8 9.50401 20.8736 9.38268 20.9239C9.26136 20.9741 9.13132 21 9 21H4C3.73478 21 3.48043 20.8946 3.29289 20.7071C3.10536 20.5196 3 20.2652 3 20L3 15C3 14.7348 3.10536 14.4804 3.29289 14.2929C3.48043 14.1054 3.73478 14 4 14Z" fill="black"/>
<path d="M20 14C20.2652 14 20.5196 14.1054 20.7071 14.2929C20.8946 14.4804 21 14.7348 21 15V20C21 20.2652 20.8946 20.5196 20.7071 20.7071C20.5196 20.8946 20.2652 21 20 21H15C14.8687 21 14.7386 20.9741 14.6173 20.9239C14.496 20.8736 14.3858 20.8 14.2929 20.7071C14.2 20.6142 14.1264 20.504 14.0761 20.3827C14.0259 20.2614 14 20.1313 14 20C14 19.8687 14.0259 19.7386 14.0761 19.6173C14.1264 19.496 14.2 19.3858 14.2929 19.2929C14.3858 19.2 14.496 19.1264 14.6173 19.0761C14.7386 19.0259 14.8687 19 15 19H19V15C19 14.7348 19.1054 14.4804 19.2929 14.2929C19.4804 14.1054 19.7348 14 20 14Z" fill="black"/>
<path d="M3.29292 3.29292C3.10539 3.48046 3.00003 3.73481 3.00003 4.00003L3.00003 9.00003C3.00003 9.26525 3.10539 9.5196 3.29292 9.70714C3.48046 9.89467 3.73481 10 4.00003 10C4.26525 10 4.5196 9.89467 4.70714 9.70714C4.89467 9.5196 5.00003 9.26525 5.00003 9.00003L5.00003 5.00003L9.00003 5.00003C9.26525 5.00003 9.5196 4.89467 9.70714 4.70714C9.89467 4.5196 10 4.26525 10 4.00003C10 3.73481 9.89467 3.48046 9.70714 3.29292C9.5196 3.10539 9.26525 3.00003 9.00003 3.00003L4.00003 3.00003C3.73481 3.00003 3.48046 3.10539 3.29292 3.29292Z" fill="black"/>
<path d="M14.2929 3.29289C14.1054 3.48043 14 3.73478 14 4C14 4.26522 14.1054 4.51957 14.2929 4.70711C14.4804 4.89464 14.7348 5 15 5L19 5V9C19 9.13132 19.0259 9.26136 19.0761 9.38268C19.1264 9.50401 19.2 9.61425 19.2929 9.70711C19.3858 9.79997 19.496 9.87362 19.6173 9.92388C19.7386 9.97413 19.8687 10 20 10C20.1313 10 20.2614 9.97413 20.3827 9.92388C20.504 9.87362 20.6142 9.79997 20.7071 9.70711C20.8 9.61425 20.8736 9.50401 20.9239 9.38268C20.9741 9.26136 21 9.13132 21 9V4C21 3.73478 20.8946 3.48043 20.7071 3.29289C20.5196 3.10536 20.2652 3 20 3L15 3C14.7348 3 14.4804 3.10536 14.2929 3.29289Z" fill="black"/>
</svg>
