<svg width="40" height="40" viewBox="0 0 40 40" fill="none" xmlns="http://www.w3.org/2000/svg">
<g clip-path="url(#clip0_321_6786)">
<path d="M39.61 20.4604C39.61 19.1009 39.4998 17.734 39.2646 16.3965H20.4V24.0981H31.2029C30.7546 26.582 29.3142 28.7794 27.2051 30.1756V35.1729H33.6501C37.4348 31.6895 39.61 26.5453 39.61 20.4604Z" fill="#4285F4"/>
<path d="M20.4 40.0015C25.7941 40.0015 30.343 38.2305 33.6574 35.1733L27.2124 30.1761C25.4193 31.396 23.1044 32.0868 20.4073 32.0868C15.1896 32.0868 10.7656 28.5667 9.17823 23.834H2.52748V28.9856C5.92267 35.7392 12.838 40.0015 20.4 40.0015Z" fill="#34A853"/>
<path d="M9.17089 23.8335C8.33312 21.3496 8.33312 18.6599 9.17089 16.176V11.0244H2.5275C-0.309174 16.6757 -0.309174 23.3338 2.5275 28.9851L9.17089 23.8335Z" fill="#FBBC04"/>
<path d="M20.4 7.9161C23.2513 7.87201 26.0072 8.94494 28.0722 10.9144L33.7823 5.20436C30.1666 1.80917 25.3678 -0.0574433 20.4 0.00134778C12.838 0.00134778 5.92267 4.2637 2.52748 11.0247L9.17088 16.1763C10.7509 11.4362 15.1823 7.9161 20.4 7.9161Z" fill="#EA4335"/>
</g>
<defs>
<clipPath id="clip0_321_6786">
<rect width="40" height="40" fill="white"/>
</clipPath>
</defs>
</svg>
