<svg width="20" height="20" viewBox="0 0 20 20" fill="none" xmlns="http://www.w3.org/2000/svg">
<g clip-path="url(#clip0_745_3347)">
<path d="M14.5835 0.764648C13.6451 0.779244 12.7272 1.04119 11.9224 1.52404C11.1177 2.00689 10.4546 2.69354 10.0001 3.51465C9.54566 2.69354 8.88257 2.00689 8.07783 1.52404C7.27308 1.04119 6.35517 0.779244 5.41679 0.764648C3.92091 0.829641 2.51155 1.48403 1.49661 2.58484C0.481678 3.68566 -0.0563308 5.14342 0.000128002 6.63965C0.000128002 12.2855 9.13013 18.8063 9.51846 19.083L10.0001 19.4238L10.4818 19.083C10.8701 18.808 20.0001 12.2855 20.0001 6.63965C20.0566 5.14342 19.5186 3.68566 18.5036 2.58484C17.4887 1.48403 16.0793 0.829641 14.5835 0.764648ZM10.0001 17.3722C7.28929 15.3471 1.66679 10.3721 1.66679 6.63965C1.60983 5.58525 1.9721 4.55109 2.6746 3.76273C3.37709 2.97437 4.36282 2.49577 5.41679 2.43132C6.47077 2.49577 7.45649 2.97437 8.15899 3.76273C8.86149 4.55109 9.22376 5.58525 9.16679 6.63965H10.8335C10.7765 5.58525 11.1388 4.55109 11.8413 3.76273C12.5438 2.97437 13.5295 2.49577 14.5835 2.43132C15.6374 2.49577 16.6232 2.97437 17.3257 3.76273C18.0282 4.55109 18.3904 5.58525 18.3335 6.63965C18.3335 10.3738 12.711 15.3471 10.0001 17.3722Z" fill="black"/>
</g>
<defs>
<clipPath id="clip0_745_3347">
<rect width="20" height="20" fill="white"/>
</clipPath>
</defs>
</svg>
