<svg width="20" height="22" viewBox="0 0 20 22" fill="none" xmlns="http://www.w3.org/2000/svg">
<path d="M15.7509 21.5002H2.24914C1.00742 21.5002 -0.000488281 20.4924 -0.000488281 19.2506V4.25315C-0.000488281 3.01143 1.00742 2.00354 2.24914 2.00354H12.7474C13.1626 2.00354 13.4973 2.33816 13.4973 2.7534C13.4973 3.16865 13.1626 3.50329 12.7474 3.50329H2.24914C1.83793 3.50329 1.49928 3.84193 1.49928 4.25315V19.2506C1.49928 19.6659 1.83793 20.0005 2.24914 20.0005H15.7469C16.1621 20.0005 16.4967 19.6659 16.4967 19.2506V7.2486C16.4967 6.83333 16.8314 6.49872 17.2466 6.49872C17.6619 6.49872 17.9965 6.83333 17.9965 7.2486V19.2466C18.0005 20.4883 16.9886 21.5002 15.7509 21.5002ZM11.3444 9.49827C11.1509 9.49827 10.9614 9.42568 10.8122 9.27653C10.7423 9.20709 10.6868 9.1245 10.6489 9.03351C10.611 8.94252 10.5915 8.84493 10.5915 8.74637C10.5915 8.64781 10.611 8.55023 10.6489 8.45924C10.6868 8.36825 10.7423 8.28565 10.8122 8.21622L18.2666 0.765834C18.5609 0.471529 19.0326 0.471529 19.3269 0.765834C19.6212 1.06014 19.6212 1.53184 19.3269 1.82615L11.8725 9.28054C11.7274 9.42566 11.5339 9.49825 11.3444 9.49825V9.49827ZM8.24813 9.49827H3.7489C3.33364 9.49827 2.99902 9.16365 2.99902 8.74839C2.99902 8.33312 3.33364 7.99851 3.7489 7.99851H8.24813C8.66339 7.99851 8.99801 8.33315 8.99801 8.74839C8.99801 9.16365 8.66339 9.49827 8.24813 9.49827ZM12.7514 13.9975H3.7489C3.33364 13.9975 2.99902 13.6629 2.99902 13.2476C2.99902 12.8324 3.33364 12.4978 3.7489 12.4978H12.7474C13.1626 12.4978 13.4973 12.8324 13.4973 13.2476C13.4973 13.6629 13.1626 13.9975 12.7514 13.9975Z" fill="black"/>
</svg>
