<svg width="24" height="24" viewBox="0 0 24 24" fill="none" xmlns="http://www.w3.org/2000/svg">
<path d="M12 6.40039C13.4852 6.40039 14.9096 6.99039 15.9598 8.04059C17.01 9.0908 17.6 10.5152 17.6 12.0004C17.6 13.4856 17.01 14.91 15.9598 15.9602C14.9096 17.0104 13.4852 17.6004 12 17.6004C10.5148 17.6004 9.09043 17.0104 8.04023 15.9602C6.99002 14.91 6.40002 13.4856 6.40002 12.0004C6.40002 10.5152 6.99002 9.0908 8.04023 8.04059C9.09043 6.99039 10.5148 6.40039 12 6.40039ZM11.3024 13.1052L10.0584 11.8604C10.0138 11.8158 9.96088 11.7804 9.90261 11.7563C9.84435 11.7321 9.78189 11.7197 9.71882 11.7197C9.65576 11.7197 9.5933 11.7321 9.53503 11.7563C9.47677 11.7804 9.42382 11.8158 9.37922 11.8604C9.28916 11.9505 9.23856 12.0726 9.23856 12.2C9.23856 12.3274 9.28916 12.4495 9.37922 12.5396L10.9632 14.1236C11.0077 14.1684 11.0606 14.204 11.1189 14.2283C11.1772 14.2525 11.2397 14.265 11.3028 14.265C11.366 14.265 11.4285 14.2525 11.4868 14.2283C11.545 14.204 11.598 14.1684 11.6424 14.1236L14.9224 10.8428C14.9676 10.7984 15.0036 10.7455 15.0282 10.6871C15.0528 10.6287 15.0657 10.566 15.066 10.5027C15.0663 10.4393 15.054 10.3765 15.0299 10.3179C15.0058 10.2593 14.9704 10.2061 14.9256 10.1612C14.8808 10.1164 14.8276 10.0809 14.769 10.0567C14.7105 10.0325 14.6477 10.0202 14.5843 10.0204C14.521 10.0207 14.4583 10.0334 14.3999 10.058C14.3415 10.0826 14.2885 10.1185 14.244 10.1636L11.3024 13.1052Z" fill="black"/>
</svg>
