<svg width="64" height="64" viewBox="0 0 64 64" fill="none" xmlns="http://www.w3.org/2000/svg">
<circle opacity="0.1" cx="32" cy="32" r="32" fill="#B1060F"/>
<path d="M37.0538 38.8713C36.3802 38.3658 35.9604 37.6047 35.9024 36.7827C35.8557 36.1256 36.0434 35.4745 36.4245 34.9356H30.3949C28.7474 34.9356 27.4073 33.5954 27.4073 31.948C27.4073 30.3006 28.7474 28.9604 30.3949 28.9604H36.5897C35.952 27.8221 36.1162 26.3529 37.0819 25.3861C37.8403 24.6285 38.9065 24.3666 39.8804 24.5947V22.2403H39.8747C39.8167 20.2403 38.1809 18.6357 36.1668 18.6357H23.107C21.056 18.6357 19.3931 20.2986 19.3931 22.3496V41.6504C19.3931 43.7014 21.0556 45.364 23.1066 45.364H36.1665C38.2175 45.364 39.88 43.7014 39.88 41.6504V39.3424C39.5728 39.4352 39.2532 39.4834 38.9326 39.4834C38.2678 39.4841 37.6026 39.2827 37.0538 38.8713Z" fill="#B1060F"/>
<path d="M44.3152 32.6179L39.7643 37.1689C39.373 37.5602 38.6909 37.6087 38.2483 37.2768C37.8057 36.9449 37.7635 36.3533 38.1548 35.962L41.1733 32.9435H30.3944C29.8446 32.9435 29.3984 32.4977 29.3984 31.9475C29.3984 31.3976 29.8442 30.9515 30.3944 30.9515H41.2422L41.2 30.9111L38.4909 28.2019C38.1021 27.8131 38.1021 27.1824 38.4909 26.7936C38.8797 26.4047 39.5104 26.4047 39.8993 26.7936L44.3152 31.2095C44.7041 31.5987 44.7041 32.2291 44.3152 32.6179Z" fill="#FF0000"/>
<path d="M39.8993 26.7936C39.5104 26.4047 38.8797 26.4047 38.4909 26.7936C38.1021 27.1824 38.1021 27.8131 38.4909 28.2019L41.2 30.9111L41.2422 30.9515H30.3944C29.8446 30.9515 29.3984 31.3973 29.3984 31.9475C29.3984 32.4973 29.8442 32.9435 30.3944 32.9435H41.173L38.1545 35.962C37.7632 36.3533 37.8054 36.9449 38.248 37.2768C38.6906 37.6087 39.3726 37.5602 39.7639 37.1689L44.3152 32.6179C44.7041 32.2291 44.7041 31.5984 44.3152 31.2095L39.8993 26.7936Z" fill="#B1060F"/>
</svg>
