<svg width="24" height="24" viewBox="0 0 24 24" fill="none" xmlns="http://www.w3.org/2000/svg">
<path d="M12.7143 11.0476V16.7619C12.7143 16.8882 12.6641 17.0093 12.5748 17.0986C12.4855 17.1879 12.3644 17.2381 12.2381 17.2381H11.7619C11.6356 17.2381 11.5145 17.1879 11.4252 17.0986C11.3359 17.0093 11.2857 16.8882 11.2857 16.7619V11.0476C11.2857 10.9213 11.3359 10.8002 11.4252 10.7109C11.5145 10.6216 11.6356 10.5714 11.7619 10.5714H12.2381C12.3644 10.5714 12.4855 10.6216 12.5748 10.7109C12.6641 10.8002 12.7143 10.9213 12.7143 11.0476ZM11.7619 7.2381H12.2381C12.3644 7.2381 12.4855 7.28826 12.5748 7.37757C12.6641 7.46687 12.7143 7.58799 12.7143 7.71429V8.66667C12.7143 8.79296 12.6641 8.91408 12.5748 9.00338C12.4855 9.09269 12.3644 9.14286 12.2381 9.14286H11.7619C11.6356 9.14286 11.5145 9.09269 11.4252 9.00338C11.3359 8.91408 11.2857 8.79296 11.2857 8.66667V7.71429C11.2857 7.58799 11.3359 7.46687 11.4252 7.37757C11.5145 7.28826 11.6356 7.2381 11.7619 7.2381ZM12 20.5714C16.7338 20.5714 20.5714 16.7338 20.5714 12C20.5714 7.26619 16.7338 3.42857 12 3.42857C7.26619 3.42857 3.42857 7.26619 3.42857 12C3.42857 16.7338 7.26619 20.5714 12 20.5714ZM12 22C6.47714 22 2 17.5229 2 12C2 6.47714 6.47714 2 12 2C17.5229 2 22 6.47714 22 12C22 17.5229 17.5229 22 12 22Z" fill="white"/>
</svg>
