<svg width="20" height="20" viewBox="0 0 20 20" fill="none" xmlns="http://www.w3.org/2000/svg">
<path d="M10 0.587891C8.13855 0.587891 6.31889 1.13988 4.77113 2.17406C3.22337 3.20824 2.01704 4.67815 1.30469 6.39793C0.592335 8.1177 0.40595 10.0101 0.769105 11.8358C1.13226 13.6615 2.02864 15.3385 3.3449 16.6548C4.66116 17.971 6.33818 18.8674 8.16388 19.2306C9.98958 19.5937 11.882 19.4073 13.6018 18.695C15.3215 17.9826 16.7914 16.7763 17.8256 15.2285C18.8598 13.6808 19.4118 11.8611 19.4118 9.99965C19.4118 7.5035 18.4202 5.10958 16.6551 3.34453C14.8901 1.57948 12.4962 0.587891 10 0.587891ZM11.1765 14.7055C11.1765 15.0176 11.0525 15.3168 10.8319 15.5374C10.6113 15.7581 10.312 15.882 10 15.882C9.68801 15.882 9.38877 15.7581 9.16813 15.5374C8.9475 15.3168 8.82355 15.0176 8.82355 14.7055V9.99965C8.82355 9.68764 8.9475 9.3884 9.16813 9.16776C9.38877 8.94713 9.68801 8.82318 10 8.82318C10.312 8.82318 10.6113 8.94713 10.8319 9.16776C11.0525 9.3884 11.1765 9.68764 11.1765 9.99965V14.7055ZM10 6.47024C9.76734 6.47024 9.53988 6.40124 9.34641 6.27197C9.15294 6.1427 9.00215 5.95896 8.91311 5.74399C8.82406 5.52902 8.80077 5.29247 8.84616 5.06425C8.89155 4.83604 9.0036 4.62641 9.16813 4.46188C9.33267 4.29735 9.54229 4.1853 9.77051 4.13991C9.99872 4.09451 10.2353 4.11781 10.4502 4.20686C10.6652 4.2959 10.849 4.44669 10.9782 4.64016C11.1075 4.83363 11.1765 5.06109 11.1765 5.29377C11.1765 5.60579 11.0525 5.90503 10.8319 6.12566C10.6113 6.34629 10.312 6.47024 10 6.47024Z" fill="black" fill-opacity="0.7"/>
</svg>
