<svg width="24" height="24" viewBox="0 0 24 24" fill="none" xmlns="http://www.w3.org/2000/svg">
<path d="M12.0236 10.5515C12.0297 10.5478 12.0465 10.5425 12.0526 10.5395C12.0242 10.5027 11.9986 10.4638 11.9762 10.4232C11.9961 10.4652 12.0098 10.5095 12.0228 10.5508L12.0236 10.5515ZM15.5604 14.2845C15.5528 14.277 15.5146 14.277 15.507 14.2695C15.5222 14.277 15.5528 14.277 15.5604 14.2845ZM15.6292 14.283C15.5986 14.271 15.5299 14.2935 15.5016 14.2447C15.4863 14.3813 15.5108 14.4346 15.6292 14.283ZM12.1627 3C7.10302 3 3 7.03019 3 12C3 16.9691 7.10302 21 12.1627 21C17.2215 21 21.3253 16.9698 21.3253 12C21.3253 7.03019 17.2253 3 12.1627 3ZM18.0161 6.51534C17.7013 6.52585 17.4813 6.52585 17.2269 6.69847C17.1252 6.76901 17.055 6.85832 16.9266 6.8951C16.8097 6.92662 16.6844 6.89885 16.5682 6.93712C16.1511 7.07597 16.2191 7.9518 15.6682 7.81971C15.4107 7.75817 15.2281 7.45797 15.0989 7.26284C14.9843 7.09023 14.775 6.94988 14.9163 6.73374C14.8537 6.74875 14.7842 6.73149 14.72 6.74425C14.8078 6.55662 15.1028 6.57163 15.1509 6.47482C15.2747 6.2324 14.8162 6.20764 14.6841 6.17462C14.8399 6.00951 14.9186 6.2294 15.0737 6.19188C15.2227 6.1551 14.9973 5.96523 14.9056 5.94271C14.8735 5.93371 14.3509 6.08531 14.6535 5.81738L13.5334 5.11641C13.4707 5.37458 14.0308 5.52393 14.2119 5.61699C14.1828 5.72432 14.0132 5.88117 13.8826 5.83689C13.7588 5.79336 13.8092 5.59448 13.6243 5.61399C13.4921 5.91419 13.9055 5.82638 13.9414 6.01251C13.9842 6.22415 13.7855 6.13409 13.7084 6.13034C13.6908 6.13034 13.5479 5.98474 13.5403 6.09356C13.5296 6.22415 13.7679 6.17462 13.784 6.30445C13.5089 6.31496 13.3668 6.21815 13.1414 6.07105C12.8801 5.90068 12.7441 5.91644 12.4232 5.91644C12.5202 5.87742 12.6524 5.8474 12.7349 5.78586C12.78 5.75284 12.955 5.58397 12.968 5.5472C13.0161 5.38359 12.9657 5.3971 12.8083 5.29203C12.6669 5.19747 12.4973 5.0286 12.3269 4.99483C11.7119 4.874 12.1374 5.54194 11.6698 5.63276H11.6958H11.6737H11.6775C11.5682 5.62975 11.3665 5.60274 11.2962 5.65977C11.2481 5.7003 11.2427 5.8564 11.1869 5.91494C11.0891 6.01626 10.944 6.03727 10.8278 6.11157C10.7132 6.18362 10.4611 6.36825 10.3961 6.49433C10.1493 6.95664 10.9531 7.10073 11.2549 7.23657C11.3925 7.29661 11.7959 7.38067 11.8693 7.48424C11.9686 7.62158 11.7829 7.74917 11.9923 7.84598C12.061 7.876 12.1963 7.88351 12.2536 7.81971C12.3483 7.71614 12.2146 7.69363 12.1925 7.57205C12.1497 7.34164 12.2215 7.43321 12.3376 7.3469C12.5798 7.17278 12.5241 7.16228 12.4385 6.88309C12.3972 6.75475 12.2467 6.39226 12.3789 6.2962C12.5523 6.17086 12.9229 6.36374 13.0574 6.38025C13.2132 6.39752 13.3003 6.60841 13.3852 6.69546C13.4402 6.7525 13.5426 6.87408 13.6404 6.86207C13.7962 6.84256 13.7305 6.70747 13.8214 6.64593C14.0629 6.48082 14.1271 6.70372 14.2241 6.92887C14.3135 7.13901 14.3998 7.21856 14.5641 7.35215C14.639 7.41369 14.9691 7.63884 14.9362 7.77769C14.9163 7.87075 14.5389 8.01334 14.4388 8.04336C14.0705 8.15744 13.3813 7.85649 13.308 8.42837C13.4509 8.37583 13.8551 8.05012 13.9788 8.20472C14.0346 8.27527 13.936 8.37734 13.959 8.44563C14.0293 8.65502 14.192 8.58297 14.3639 8.5477C14.3523 8.55562 14.3394 8.56146 14.3257 8.56496C14.5603 8.44713 14.5374 8.4704 14.6428 8.27977C14.6772 8.21898 14.7307 8.06588 14.7803 8.02235C14.9507 7.86699 14.9775 7.97432 15.0829 8.09214C15.1119 8.12367 15.371 8.49141 15.28 8.4734C14.9775 8.41336 14.6841 8.42086 14.4334 8.58447C14.2883 8.67904 14.1507 8.80587 13.9773 8.86741C13.936 8.88167 13.6281 8.91169 13.664 8.85841C13.7175 8.78486 13.8986 8.73382 13.9697 8.65127C13.7695 8.57021 13.6029 8.74958 13.4455 8.8539C13.2789 8.9327 13.2415 9.07455 13.0986 9.20138C13.0375 9.25617 12.9175 9.26668 12.8587 9.33873C12.7999 9.40852 12.7922 9.5196 12.7349 9.58639C12.696 9.63142 12.5959 9.60365 12.5546 9.6742C12.5011 9.76726 12.6028 9.85207 12.5814 9.91661C12.5401 10.0382 12.3078 10.1403 12.2177 10.2266C12.2307 10.2138 12.2429 10.2041 12.252 10.1928C12.1627 10.2859 12.048 10.3527 11.9785 10.4615C12.0106 10.6131 12.1122 10.9733 12.084 11.0574C11.9892 11.3298 11.8089 10.908 11.7348 10.8007C11.4803 10.4255 10.9745 10.6761 10.6292 10.7076C10.1868 10.7482 9.75356 11.3125 10.0256 11.7711C10.1562 11.991 10.3786 12.0773 10.6292 12.0248C10.8546 11.979 10.9203 11.6713 11.1335 11.6645C11.5216 11.6533 11.1426 12.0398 11.1082 12.1809C11.0777 12.3107 11.1571 12.3235 11.2947 12.355C11.3963 12.3798 11.5392 12.313 11.6278 12.3692C11.6828 12.406 11.6813 12.6027 11.7562 12.5396C11.6079 12.6627 11.6416 12.9509 11.7959 13.056C11.9655 13.1723 12.1665 13.065 12.343 13.1085C12.6815 13.1933 12.5187 13.083 12.8159 12.9089C13.0146 12.791 13.0482 12.9314 13.1842 12.9314C13.2759 12.9314 13.337 12.8015 13.4898 12.8383C13.6174 12.8698 13.6656 12.9651 13.8184 12.9884C13.8787 12.9959 13.9452 12.9651 14.0018 12.9719C14.2829 13.0019 14.4946 13.1775 14.7162 13.3359C14.8988 13.4657 15.0172 13.4395 15.2296 13.4995C15.3855 13.543 15.6697 13.7629 15.656 13.9543C15.6537 13.9881 15.5184 14.1637 15.4947 14.241C15.5337 14.2673 15.8095 14.208 15.8905 14.2005C15.863 14.2305 15.6751 14.3588 15.6751 14.2905C15.6751 14.3273 15.808 14.3994 15.8416 14.4204C15.9409 14.1089 16.0999 14.3093 16.2947 14.3866C16.4575 14.4541 16.6615 14.4571 16.8372 14.4977C16.9854 14.5314 17.3132 14.6298 17.424 14.7506C17.5562 14.8947 17.4653 15.1288 17.3667 15.2714C17.2376 15.4576 17.0427 15.5296 16.964 15.751C16.9014 15.9251 16.948 16.1022 16.9121 16.2974C16.8639 16.5615 16.8242 16.4685 16.6523 16.6298C16.5071 16.7649 16.6508 16.7409 16.4521 16.8265C16.2534 16.9128 16.08 16.8865 15.9417 17.0989C15.9471 17.0854 15.9532 17.0726 15.957 17.0591C15.8989 17.1394 15.8707 17.3015 15.8424 17.3541C15.7721 17.4914 15.6789 17.577 15.5673 17.6895C15.5268 17.7338 15.1402 18.2509 15.1188 18.2081C15.0905 18.1541 14.788 18.2629 14.7719 18.1856C14.7842 18.2509 14.7696 18.2277 14.843 18.2667C14.7735 18.69 14.5893 18.7545 14.1668 18.7583C14.205 18.9639 14.0132 18.9219 13.9238 19.0307C13.8719 19.096 13.8482 19.2754 13.8107 19.3579C13.7878 19.4104 13.6228 19.6198 13.6228 19.6619C13.6228 19.7009 13.6786 19.7572 13.732 19.8082C13.4333 19.866 13.1269 19.9058 12.8175 19.9313C12.8748 19.8592 12.8893 19.7962 12.7044 19.7887C12.7533 19.6566 12.8709 19.5816 12.9198 19.4532C12.9428 19.3932 12.9229 19.3684 12.9443 19.3084C13.0131 19.1012 12.984 19.1808 12.9443 19.0187C12.8549 18.6427 12.9771 18.5406 13.0818 18.1976C13.188 17.8449 13.1789 17.3856 13.2492 17.0043C13.2812 16.8212 13.3347 16.4437 13.2683 16.2711C13.1949 16.076 12.8763 15.9229 12.7296 15.793C12.5233 15.6084 12.4133 15.408 12.2589 15.1776C12.1825 15.062 12.0908 14.948 12.032 14.8211C11.9013 14.551 12.032 14.7101 12.0549 14.5525C12.0748 14.3978 12.0373 14.2598 12.0985 14.0984C12.1672 13.919 12.3399 13.8072 12.3965 13.6293C12.4492 13.4695 12.4094 13.2653 12.2414 13.2128C12.1466 13.1828 12.0442 13.2511 11.951 13.2376C11.8211 13.2181 11.6706 13.1212 11.569 13.0424C11.4253 12.9329 11.3703 12.7595 11.2198 12.6597C11.0899 12.5749 11.0013 12.6259 10.863 12.5846C10.7201 12.5434 10.6322 12.3707 10.5176 12.316C10.3442 12.2357 10.2479 12.3535 10.063 12.3287C9.9079 12.3092 9.6718 12.1411 9.5251 12.0758C9.22941 11.9452 9.05062 11.8026 8.93219 11.5092C8.83286 11.2563 8.6854 11.1407 8.51196 10.929C8.33622 10.7166 8.28121 10.5358 8.01073 10.4787C7.97864 10.4742 8.0772 10.7024 8.08561 10.7204C8.18264 10.8975 8.32782 11.0581 8.44548 11.221C8.6174 11.4619 8.54405 11.5077 8.3706 11.2758C8.16965 11.0086 7.93891 10.7429 7.76547 10.46C7.69976 10.3527 7.71198 10.2829 7.60501 10.1823C7.5011 10.084 7.3628 10.0367 7.25736 9.94288C6.87992 9.6074 6.80962 9.16086 6.85241 8.68279C6.86769 8.52819 6.92423 8.4036 6.89978 8.252C6.87992 8.12742 6.80275 8.02535 6.71182 7.93379C6.68126 7.88876 6.60562 7.77093 6.60027 7.76343C6.51469 7.62308 6.44669 7.48424 6.31069 7.37016C6.23428 7.30262 6.02798 7.14802 5.8385 7.01818C6.70358 5.95816 7.82855 5.13129 9.10792 4.61508C9.12075 4.68275 9.1481 4.74697 9.18815 4.80345C9.29359 4.95806 9.39445 4.94605 9.60151 4.98808C9.57859 5.22373 9.29894 5.22523 9.10945 5.20047C8.88253 5.17045 8.64643 5.0969 8.4493 5.29053C8.55856 5.35507 8.85578 5.60349 8.81605 5.34306C9.03228 5.33256 9.24393 5.3273 9.45634 5.35207C9.54268 5.36258 9.82691 5.45564 9.90408 5.41361C9.93617 5.3956 9.97208 5.23949 10.0065 5.18996C9.94534 5.18996 9.88116 5.15994 9.82003 5.16594C9.96138 4.98808 10.1012 5.12692 10.28 5.20947C10.0829 5.3273 10.199 5.60874 10.3923 5.37984C10.5505 5.19221 10.3533 5.05487 10.1532 4.94605C10.3549 4.69613 10.4802 4.67587 10.6697 4.95655C10.7002 4.78394 10.8439 4.85299 10.9936 4.86649V4.82372C10.9279 4.82522 10.8599 4.78619 10.7934 4.7952C10.9463 4.55804 10.8492 4.504 11.0655 4.42595C11.2374 4.36441 11.7294 4.42295 11.7921 4.26309C11.4467 4.32989 11.0318 4.34565 10.7201 4.49875C10.5856 4.56554 10.4252 4.77418 10.2922 4.63909C10.1547 4.49875 10.3916 4.2751 10.5107 4.2068H10.4748C11.3931 4.01529 12.3383 3.98202 13.2683 4.10849C13.1429 4.17303 13.2362 4.21731 13.1452 4.28185C12.971 4.40719 12.6616 4.51226 12.4561 4.59181C12.7189 4.59181 13.3561 4.83422 13.4776 4.47023C13.392 4.45822 13.308 4.44396 13.2239 4.4312C13.3829 4.32989 13.5586 4.24508 13.7443 4.18354C15.3874 4.50582 16.8886 5.32016 18.0414 6.51459C18.0322 6.51609 18.023 6.51609 18.0161 6.51609V6.51534ZM19.4984 9.67645C19.5122 9.64493 19.5496 9.63442 19.5641 9.60891C19.5947 9.55412 19.5893 9.51509 19.6253 9.46931C19.6658 9.41828 19.72 9.40402 19.7643 9.36725C19.7793 9.35425 19.7922 9.33906 19.8025 9.32222C19.9401 9.69596 20.0455 10.0795 20.1227 10.4697C20.1204 10.4712 20.1188 10.478 20.1173 10.4802C20.0614 10.4995 20.003 10.5106 19.9439 10.5133C19.8522 10.517 19.7827 10.457 19.7147 10.3992C19.6399 10.3376 19.5736 10.2667 19.5175 10.1883C19.4656 10.1072 19.4977 10.0247 19.5015 9.93537C19.503 9.85432 19.4656 9.74775 19.4977 9.67645H19.4984ZM19.6031 13.8027C19.4457 13.6676 19.2593 13.4897 19.1493 13.3134C19.0308 13.1288 19.1042 12.9381 19.111 12.725C19.1202 12.5449 19.0293 12.2927 19.108 12.1306C19.1416 12.057 19.2241 12.0323 19.2562 11.973C19.328 11.8454 19.312 11.7598 19.3991 11.6488C19.4946 11.5309 19.6176 11.5032 19.7231 11.4101C19.8323 11.3133 19.8293 11.2375 19.8988 11.1129C19.9508 11.0228 20.0684 10.8727 20.1815 10.7909C20.3495 11.8774 20.2873 12.9863 19.9989 14.0481C19.8484 14.0136 19.7238 13.9078 19.6031 13.802" fill="black" fill-opacity="0.7"/>
</svg>
