<svg width="24" height="24" viewBox="0 0 24 24" fill="none" xmlns="http://www.w3.org/2000/svg">
<path d="M6.99999 20L7.99999 20L17.43 20C18.5 20 19.41 19.33 19.62 18.39L20.96 12.39C21.23 11.15 20.18 10 18.77 10L14.54 10L16.06 5.06C16.38 4.03 15.54 3 14.38 3C13.8 3 13.24 3.24 12.86 3.65L6.99999 10L2.99999 10L2.99999 20L6.99999 20ZM13.6 4.33C13.79 4.12 14.08 4 14.38 4C14.64 4 14.88 4.11 15.01 4.3C15.08 4.4 15.16 4.56 15.1 4.77L13.58 9.71L13.18 11L14.54 11L18.77 11C19.18 11 19.57 11.17 19.8 11.46C19.92 11.61 20.05 11.86 19.98 12.18L18.64 18.18C18.54 18.65 18.03 19 17.43 19L7.99999 19L7.99999 10.39L13.6 4.33ZM3.99999 11L6.99999 11L6.99999 19L3.99999 19L3.99999 11Z" fill="black"/>
</svg>
