<svg width="22" height="16" viewBox="0 0 22 16" fill="none" xmlns="http://www.w3.org/2000/svg">
<path d="M5.343 0.939687C5.53047 1.12721 5.63579 1.38152 5.63579 1.64669C5.63579 1.91185 5.53047 2.16616 5.343 2.35369C3.84244 3.8545 2.99945 5.88989 2.99945 8.01219C2.99945 10.1345 3.84244 12.1699 5.343 13.6707C5.43851 13.7629 5.51469 13.8733 5.5671 13.9953C5.61951 14.1173 5.6471 14.2485 5.64825 14.3813C5.6494 14.5141 5.6241 14.6457 5.57382 14.7686C5.52354 14.8915 5.44929 15.0032 5.35539 15.0971C5.2615 15.191 5.14985 15.2652 5.02695 15.3155C4.90406 15.3658 4.77238 15.3911 4.6396 15.3899C4.50682 15.3888 4.3756 15.3612 4.25359 15.3088C4.13159 15.2564 4.02125 15.1802 3.929 15.0847C0.0219987 11.1787 0.0219987 4.84569 3.929 0.939687C4.11653 0.752216 4.37083 0.646901 4.636 0.646901C4.90116 0.646901 5.15547 0.752216 5.343 0.939687ZM18.075 0.939687C21.981 4.84569 21.981 11.1797 18.075 15.0847C17.8875 15.2723 17.6331 15.3778 17.3679 15.3779C17.1026 15.378 16.8481 15.2727 16.6605 15.0852C16.4729 14.8977 16.3674 14.6433 16.3673 14.378C16.3672 14.1128 16.4725 13.8583 16.66 13.6707C18.1606 12.1699 19.0035 10.1345 19.0035 8.01219C19.0035 5.88989 18.1606 3.8545 16.66 2.35369C16.4725 2.16605 16.3672 1.9116 16.3673 1.64633C16.3674 1.38106 16.4729 1.1267 16.6605 0.939187C16.8481 0.751679 17.1026 0.646391 17.3679 0.646484C17.6331 0.646578 17.8875 0.752046 18.075 0.939687ZM8.31 3.81269C8.49747 4.00022 8.60279 4.25452 8.60279 4.51969C8.60279 4.78485 8.49747 5.03916 8.31 5.22669C7.94595 5.5907 7.65717 6.02285 7.46015 6.49848C7.26312 6.9741 7.16172 7.48387 7.16172 7.99869C7.16172 8.5135 7.26312 9.02328 7.46015 9.4989C7.65717 9.97452 7.94595 10.4067 8.31 10.7707C8.49764 10.9583 8.60306 11.2128 8.60306 11.4782C8.60306 11.7436 8.49764 11.998 8.31 12.1857C8.12236 12.3733 7.86786 12.4787 7.6025 12.4787C7.33714 12.4787 7.08264 12.3733 6.895 12.1857C6.34515 11.6359 5.90898 10.9833 5.61139 10.265C5.31381 9.54663 5.16064 8.77672 5.16064 7.99919C5.16064 7.22166 5.31381 6.45175 5.61139 5.73342C5.90898 5.0151 6.34515 4.36243 6.895 3.81269C6.98787 3.71971 7.09816 3.64595 7.21956 3.59563C7.34096 3.5453 7.47108 3.5194 7.6025 3.5194C7.73391 3.5194 7.86404 3.5453 7.98544 3.59563C8.10684 3.64595 8.21713 3.71971 8.31 3.81269ZM15.268 3.81269C15.8179 4.36243 16.254 5.0151 16.5516 5.73342C16.8492 6.45175 17.0024 7.22166 17.0024 7.99919C17.0024 8.77672 16.8492 9.54663 16.5516 10.265C16.254 10.9833 15.8179 11.6359 15.268 12.1857C15.0804 12.3732 14.8259 12.4785 14.5606 12.4784C14.2954 12.4783 14.041 12.3728 13.8535 12.1852C13.666 11.9975 13.5607 11.7431 13.5608 11.4778C13.5609 11.2126 13.6664 10.9582 13.854 10.7707C14.218 10.4067 14.5068 9.97452 14.7039 9.4989C14.9009 9.02328 15.0023 8.5135 15.0023 7.99869C15.0023 7.48387 14.9009 6.9741 14.7039 6.49848C14.5068 6.02285 14.218 5.5907 13.854 5.22669C13.6718 5.03808 13.571 4.78548 13.5733 4.52329C13.5756 4.26109 13.6808 4.01028 13.8662 3.82487C14.0516 3.63946 14.3024 3.53429 14.5646 3.53201C14.8268 3.52973 15.0794 3.63053 15.268 3.81269ZM11.082 6.58269C11.4798 6.58269 11.8614 6.74072 12.1427 7.02203C12.424 7.30333 12.582 7.68486 12.582 8.08269C12.582 8.48051 12.424 8.86204 12.1427 9.14335C11.8614 9.42465 11.4798 9.58269 11.082 9.58269C10.6842 9.58269 10.3026 9.42465 10.0213 9.14335C9.74004 8.86204 9.582 8.48051 9.582 8.08269C9.582 7.68486 9.74004 7.30333 10.0213 7.02203C10.3026 6.74072 10.6842 6.58269 11.082 6.58269Z" fill="black" fill-opacity="0.7"/>
</svg>
