<svg width="21" height="21" viewBox="0 0 21 21" fill="none" xmlns="http://www.w3.org/2000/svg">
<path d="M5.55012 4.32101C5.71416 4.48509 5.80631 4.70761 5.80631 4.93963C5.80631 5.17165 5.71416 5.39417 5.55012 5.55826C4.23713 6.87147 3.49952 8.65244 3.49952 10.5094C3.49952 12.3665 4.23713 14.1474 5.55012 15.4606C5.63369 15.5413 5.70035 15.6379 5.74621 15.7447C5.79207 15.8514 5.81621 15.9662 5.81721 16.0824C5.81822 16.1986 5.79609 16.3138 5.75209 16.4213C5.70809 16.5289 5.64312 16.6266 5.56097 16.7087C5.47881 16.7909 5.38112 16.8559 5.27358 16.8998C5.16605 16.9438 5.05083 16.966 4.93464 16.965C4.81846 16.964 4.70365 16.9398 4.59689 16.894C4.49014 16.8481 4.39359 16.7815 4.31287 16.6979C0.894245 13.2801 0.894245 7.73876 4.31287 4.32101C4.47696 4.15697 4.69948 4.06482 4.9315 4.06482C5.16351 4.06482 5.38603 4.15697 5.55012 4.32101ZM16.6906 4.32101C20.1084 7.73876 20.1084 13.281 16.6906 16.6979C16.5266 16.8621 16.304 16.9544 16.0719 16.9544C15.8398 16.9545 15.6171 16.8624 15.4529 16.6983C15.2887 16.5342 15.1965 16.3117 15.1964 16.0796C15.1963 15.8475 15.2884 15.6248 15.4525 15.4606C16.7655 14.1474 17.5031 12.3665 17.5031 10.5094C17.5031 8.65244 16.7655 6.87147 15.4525 5.55826C15.2884 5.39407 15.1963 5.17143 15.1964 4.93932C15.1965 4.70721 15.2887 4.48464 15.4529 4.32057C15.6171 4.1565 15.8398 4.06437 16.0719 4.06445C16.304 4.06454 16.5266 4.15682 16.6906 4.32101ZM8.14625 6.83488C8.31028 6.99897 8.40243 7.22149 8.40243 7.45351C8.40243 7.68552 8.31028 7.90804 8.14625 8.07213C7.8277 8.39064 7.57502 8.76878 7.40263 9.18495C7.23023 9.60112 7.1415 10.0472 7.1415 10.4976C7.1415 10.9481 7.23023 11.3941 7.40263 11.8103C7.57502 12.2265 7.8277 12.6046 8.14625 12.9231C8.31043 13.0873 8.40267 13.31 8.40267 13.5422C8.40267 13.7744 8.31043 13.9971 8.14625 14.1613C7.98206 14.3254 7.75938 14.4177 7.52718 14.4177C7.29499 14.4177 7.07231 14.3254 6.90812 14.1613C6.427 13.6802 6.04535 13.1091 5.78497 12.4806C5.52458 11.8521 5.39056 11.1784 5.39056 10.4981C5.39056 9.81773 5.52458 9.14406 5.78497 8.51552C6.04535 7.88699 6.427 7.3159 6.90812 6.83488C6.98939 6.75353 7.08589 6.68899 7.19211 6.64495C7.29833 6.60092 7.4122 6.57825 7.52718 6.57825C7.64217 6.57825 7.75603 6.60092 7.86226 6.64495C7.96848 6.68899 8.06498 6.75353 8.14625 6.83488ZM14.2345 6.83488C14.7156 7.3159 15.0973 7.88699 15.3577 8.51552C15.618 9.14406 15.7521 9.81773 15.7521 10.4981C15.7521 11.1784 15.618 11.8521 15.3577 12.4806C15.0973 13.1091 14.7156 13.6802 14.2345 14.1613C14.0703 14.3253 13.8477 14.4175 13.6156 14.4174C13.3835 14.4173 13.1609 14.325 12.9968 14.1608C12.8327 13.9966 12.7406 13.774 12.7407 13.5419C12.7408 13.3098 12.8331 13.0872 12.9972 12.9231C13.3158 12.6046 13.5685 12.2265 13.7409 11.8103C13.9133 11.3941 14.002 10.9481 14.002 10.4976C14.002 10.0472 13.9133 9.60112 13.7409 9.18495C13.5685 8.76878 13.3158 8.39064 12.9972 8.07213C12.8379 7.9071 12.7497 7.68608 12.7517 7.45665C12.7537 7.22723 12.8457 7.00777 13.0079 6.84554C13.1701 6.68331 13.3896 6.59128 13.619 6.58929C13.8484 6.5873 14.0695 6.67549 14.2345 6.83488ZM10.5717 9.25863C10.9198 9.25863 11.2537 9.39691 11.4998 9.64305C11.746 9.88919 11.8842 10.223 11.8842 10.5711C11.8842 10.9192 11.746 11.2531 11.4998 11.4992C11.2537 11.7454 10.9198 11.8836 10.5717 11.8836C10.2236 11.8836 9.88981 11.7454 9.64367 11.4992C9.39753 11.2531 9.25925 10.9192 9.25925 10.5711C9.25925 10.223 9.39753 9.88919 9.64367 9.64305C9.88981 9.39691 10.2236 9.25863 10.5717 9.25863Z" fill="#FF0000"/>
</svg>
