<svg width="48" height="48" viewBox="0 0 48 48" fill="none" xmlns="http://www.w3.org/2000/svg">
<g clip-path="url(#clip0_5208_34625)">
<path d="M24 48C24 48 44 41.113 44 20.452V3.652L24 0L4 3.652V20.452C4 40.904 24 48 24 48ZM8 6.988V20.452C8 29.197 12.22 35.062 16.619 38.872C18.8569 40.7977 21.346 42.4104 24.018 43.666C26.6813 42.438 29.1624 40.8484 31.391 38.942C35.77 35.172 40 29.312 40 20.453V6.988L24 4.066L8 6.988Z" fill="#FF7E20"/>
<path d="M34.9653 16.481C34.2732 15.7889 33.1511 15.7889 32.459 16.481L21.1804 27.7596L15.5411 22.1203C14.8489 21.4282 13.7268 21.4282 13.0347 22.1203C12.3426 22.8124 12.3426 23.9346 13.0347 24.6266L19.9272 31.5191C19.9471 31.539 19.9665 31.5574 19.9855 31.5746C20.681 32.2105 21.7605 32.1921 22.4335 31.5191L34.9652 18.9874C35.6574 18.2952 35.6574 17.1731 34.9653 16.481H34.9653Z" fill="white"/>
</g>
<defs>
<clipPath id="clip0_5208_34625">
<rect width="48" height="48" fill="white"/>
</clipPath>
</defs>
</svg>
