<svg width="55" height="55" viewBox="0 0 55 55" fill="none" xmlns="http://www.w3.org/2000/svg">
<path d="M12.4164 43.0703H4.06592V51.5301H12.4164V43.0703Z" fill="#EE7326"/>
<path d="M3.42489 51.5303H0V55H3.42489V51.5303Z" fill="#EE7326"/>
<path d="M28.3198 8.66577C23.5117 8.66948 18.9017 10.6061 15.5019 14.0504C12.102 17.4948 10.1904 22.1652 10.1868 27.0362C10.1854 29.0784 10.5257 31.106 11.1931 33.0331H24.5709V45.0068C27.0561 45.5391 29.624 45.5364 32.1082 44.9989C34.5923 44.4614 36.9372 43.4011 38.991 41.8867C41.0448 40.3723 42.7616 38.4376 44.0301 36.208C45.2986 33.9785 46.0905 31.5037 46.3545 28.9443C46.6186 26.3848 46.3488 23.7976 45.5628 21.3505C44.7767 18.9034 43.4919 16.6509 41.7916 14.7391C40.0912 12.8272 38.0134 11.2986 35.6926 10.2524C33.3718 9.20615 30.86 8.6656 28.3198 8.66577ZM36.745 26.9962L36.311 27.2561L36.1334 27.356C34.7325 28.1756 33.3513 28.9952 31.9503 29.8148L26.7018 32.8732C26.3619 33.021 25.9912 33.0811 25.6227 33.048C25.2543 33.015 24.8997 32.8898 24.5908 32.6838C24.2818 32.4778 24.0282 32.1973 23.8525 31.8676C23.6769 31.5378 23.5847 31.169 23.5843 30.7943V30.1347C23.5843 30.0547 23.604 29.9748 23.604 29.8748L23.5843 29.9148V18.8805C23.6151 18.5085 23.7352 18.1497 23.9343 17.8355C24.1334 17.5213 24.4053 17.2612 24.7263 17.0778C25.0474 16.8945 25.4078 16.7935 25.7762 16.7837C26.1446 16.7739 26.5098 16.8555 26.84 17.0215L31.9503 20.0199L36.528 22.6986L36.8437 22.8985C37.2091 23.1026 37.5122 23.4044 37.72 23.771C37.9278 24.1377 38.0323 24.555 38.0221 24.9776C38.012 25.4003 37.8875 25.812 37.6623 26.1679C37.4372 26.5238 37.1198 26.8104 36.745 26.9962Z" fill="#EE7326"/>
<path d="M55 27.0315C54.9968 30.9009 54.1744 34.7246 52.5882 38.2446C51.002 41.7645 48.689 44.8988 45.8052 47.4359C42.9213 49.973 39.5339 51.8538 35.8714 52.9515C32.2089 54.0492 28.3565 54.3382 24.5744 53.799V48.537C25.8101 48.76 27.0628 48.8719 28.3179 48.8713C32.5807 48.8721 36.7481 47.5923 40.293 45.1937C43.8379 42.7952 46.6011 39.3855 48.2332 35.3959C49.8653 31.4063 50.293 27.016 49.4622 22.7802C48.6314 18.5444 46.5794 14.6532 43.5657 11.5989C40.552 8.54454 36.712 6.46414 32.5312 5.62077C28.3505 4.7774 24.0167 5.20894 20.0781 6.86082C16.1394 8.5127 12.7727 11.3107 10.4037 14.9011C8.03466 18.4914 6.76976 22.7128 6.76891 27.0315C6.76454 29.0618 7.0453 31.0824 7.60275 33.0325H2.2958C1.46249 29.3227 1.41154 25.4764 2.14626 21.7452C2.88099 18.014 4.38484 14.4819 6.55949 11.38C8.73414 8.27803 11.5306 5.67605 14.766 3.74418C18.0014 1.81232 21.6029 0.594088 25.3349 0.169146C29.067 -0.255795 32.8455 0.122127 36.4235 1.2782C40.0015 2.43427 43.2983 4.34245 46.0984 6.87797C48.8984 9.41349 51.1387 12.5192 52.6726 15.9921C54.2066 19.465 54.9996 23.2268 55 27.0315Z" fill="#EE7326"/>
<path d="M8.78045 39.6642H3.40479C3.56855 40.3883 3.779 41.1007 4.03478 41.7969H14.0144V51.5348C14.944 51.849 15.8998 52.0768 16.8702 52.2155V39.6641L8.78045 39.6642Z" fill="#EE7326"/>
<path d="M10.9187 34.7925H2.99854C3.23987 35.8592 3.54998 36.9088 3.92687 37.9345H18.6299V52.2815C19.9994 52.7445 21.4077 53.0802 22.8373 53.2845V34.7925H10.9187Z" fill="#EE7326"/>
</svg>
