<svg width="196" height="65" viewBox="0 0 196 65" fill="none" xmlns="http://www.w3.org/2000/svg">
<path d="M55.0507 33.0983C55.7591 33.2358 56.4353 33.5039 57.0447 33.8887C57.6329 34.2589 58.1587 34.7192 58.6027 35.2525C59.0411 35.784 59.3836 36.3871 59.615 37.0351C59.8548 37.7014 59.9761 38.4041 59.9735 39.1118C59.9786 39.9335 59.8088 40.747 59.4751 41.4986C58.8286 42.9734 57.6422 44.148 56.1568 44.7841C55.3853 45.1172 54.5523 45.2861 53.7113 45.28H50.4085C49.389 45.2843 48.382 45.0563 47.4647 44.6137C46.5531 44.1795 45.7497 43.5497 45.1122 42.7695L48.1034 40.3515C48.3771 40.6974 48.7277 40.9754 49.1277 41.1637C49.5277 41.3519 49.9661 41.4453 50.4085 41.4365H53.7113C54.0259 41.4423 54.3384 41.3848 54.6302 41.2676C54.9219 41.1504 55.1869 40.9759 55.4092 40.7544C55.6343 40.544 55.8128 40.2893 55.9335 40.0066C56.0542 39.7238 56.1144 39.4191 56.1103 39.1119C56.1119 38.5792 55.9242 38.0631 55.5805 37.6547C55.2472 37.233 54.7709 36.9465 54.2407 36.8489L49.7858 35.888C48.2999 35.5718 46.9688 34.7564 46.016 33.5788C45.5559 33.0057 45.1928 32.3618 44.9409 31.6724C44.6789 30.9575 44.547 30.2017 44.5514 29.4407C44.5453 28.5607 44.7258 27.6894 45.0812 26.8835C45.4238 26.1034 45.9099 25.3939 46.5144 24.7914C47.1366 24.1751 47.8756 23.6879 48.6885 23.358C49.5014 23.0281 50.3721 22.8621 51.25 22.8696H53.7113C54.9105 22.8632 56.0929 23.1506 57.154 23.7063C58.2057 24.2485 59.101 25.0486 59.7553 26.031L56.5777 28.2011C56.2707 27.73 55.8467 27.3457 55.3468 27.0852C54.8436 26.8181 54.2816 26.6797 53.7113 26.6823H51.25C50.8777 26.6748 50.5078 26.7423 50.1624 26.8808C49.8171 27.0193 49.5035 27.2259 49.2405 27.4881C48.9745 27.739 48.7638 28.0421 48.6217 28.3782C48.4797 28.7144 48.4092 29.0762 48.415 29.4407C48.4045 30.0726 48.6197 30.6877 49.0223 31.1766C49.4281 31.6733 49.9956 32.0132 50.6268 32.1375L55.0507 33.0983Z" fill="#EE7326"/>
<path d="M76.8597 28.9141V44.8771H72.9965V43.2654C72.5246 43.7569 71.9645 44.1564 71.3451 44.4433C70.7414 44.7283 70.0817 44.8764 69.4135 44.8771C68.4557 44.8811 67.5089 44.6746 66.6405 44.2725C65.7812 43.8792 65.0084 43.3211 64.3664 42.6299C63.7108 41.9196 63.1932 41.0945 62.8398 40.1965C62.4626 39.2497 62.2722 38.2395 62.279 37.221V28.9141H66.1422V37.221C66.1405 37.7287 66.2302 38.2326 66.4069 38.709C66.5664 39.1549 66.8037 39.5693 67.1079 39.9332C67.3941 40.2705 67.7432 40.5494 68.1361 40.7544C68.5297 40.961 68.9686 41.0675 69.4135 41.0645C69.8647 41.0656 70.3108 40.9706 70.7219 40.7857C71.1337 40.6021 71.5044 40.3386 71.8125 40.0107C72.1353 39.6631 72.3985 39.2652 72.5915 38.8327C72.801 38.3707 72.9376 37.8794 72.9966 37.376V28.9141H76.8597Z" fill="#EE7326"/>
<path d="M96.549 36.973C96.556 38.0542 96.3386 39.1253 95.9103 40.119C95.0822 42.0537 93.5369 43.5967 91.5952 44.4275C90.6022 44.8547 89.5305 45.0711 88.4487 45.0629C87.624 45.0558 86.8089 44.8873 86.0496 44.5671C85.3129 44.291 84.6665 43.8193 84.1804 43.2033V50.6114H80.3169V28.914H84.1805V31.2074C84.6374 30.4743 85.2822 29.8755 86.0488 29.4724C86.8153 29.0693 87.6759 28.8766 88.5421 28.914C89.6104 28.907 90.6677 29.129 91.6421 29.5648C93.5584 30.4165 95.0821 31.9547 95.9103 33.8733C96.3374 34.8512 96.5549 35.9068 96.549 36.973ZM88.4487 41.2194C89.0155 41.2223 89.5771 41.1117 90.1001 40.894C90.6092 40.6834 91.0703 40.3724 91.4553 39.9798C91.8415 39.5836 92.1528 39.1215 92.3742 38.6156C92.6002 38.0971 92.7168 37.5379 92.7168 36.9728C92.7168 36.4076 92.6002 35.8485 92.3742 35.33C91.935 34.3142 91.1211 33.5044 90.1 33.0675C89.5789 32.8423 89.0168 32.7262 88.4486 32.7262C87.8805 32.7262 87.3184 32.8423 86.7972 33.0675C86.2887 33.2877 85.8244 33.5973 85.4264 33.9817C85.0315 34.3646 84.7189 34.8233 84.5076 35.33C84.2337 35.9758 84.125 36.6791 84.1911 37.3769C84.2573 38.0747 84.4963 38.7453 84.8867 39.3288C85.2771 39.9122 85.8069 40.3903 86.4284 40.7202C87.05 41.0502 87.7442 41.2217 88.4487 41.2194Z" fill="#EE7326"/>
<path d="M114.121 37.0039C114.124 37.098 114.114 37.1921 114.09 37.2831V37.8719C114.065 37.9628 114.055 38.0569 114.058 38.151H102.531C102.825 39.0787 103.437 39.8741 104.26 40.3982C105.092 40.9438 106.09 41.1798 107.08 41.0645C107.673 41.0053 108.247 40.8203 108.762 40.522C109.28 40.2234 109.727 39.8162 110.07 39.3286L113.186 41.5915C112.53 42.513 111.68 43.2801 110.694 43.8387C109.718 44.4001 108.636 44.7537 107.516 44.8771C106.366 45.0045 105.202 44.8829 104.104 44.5208C103.044 44.1763 102.063 43.6228 101.222 42.8932C100.384 42.1599 99.7049 41.2632 99.2284 40.2585C98.725 39.2033 98.4694 38.0481 98.4808 36.8801C98.4728 35.742 98.6953 34.614 99.135 33.5633C99.5529 32.5532 100.181 31.6428 100.979 30.8921C101.776 30.1413 102.725 29.5674 103.762 29.2082C104.886 28.8194 106.081 28.6767 107.266 28.7898C107.926 28.8302 108.574 28.9823 109.182 29.2394C109.797 29.4991 110.378 29.8321 110.912 30.2311C111.979 31.0326 112.835 32.0804 113.404 33.2841C113.468 33.403 113.52 33.5276 113.56 33.6562C113.785 34.182 113.942 34.7341 114.027 35.2992C114.11 35.8634 114.142 36.434 114.121 37.0039ZM109.853 34.4313C109.81 34.3693 109.738 34.2558 109.634 34.0905C109.507 33.896 109.361 33.7143 109.198 33.548C108.983 33.3292 108.743 33.1368 108.482 32.9747C108.164 32.7773 107.817 32.6308 107.454 32.5405C107.255 32.4854 107.051 32.4491 106.846 32.4322C106.55 32.4013 106.252 32.4065 105.958 32.4476C105.311 32.5443 104.691 32.771 104.135 33.1138C103.587 33.4532 103.115 33.9018 102.749 34.4314L109.853 34.4313Z" fill="#EE7326"/>
<path d="M124.869 28.9141C126.046 28.9126 127.207 29.1775 128.265 29.6887L126.489 33.0984C126.236 32.9937 125.976 32.9058 125.71 32.835C125.436 32.762 125.153 32.7255 124.869 32.7263C124.347 32.723 123.83 32.8177 123.343 33.0054C122.874 33.1858 122.441 33.4483 122.065 33.7805C121.689 34.1138 121.378 34.5129 121.146 34.958C120.905 35.422 120.751 35.9265 120.695 36.446V44.8771H116.831V28.9141H120.695V30.7116C121.246 30.1732 121.889 29.7376 122.595 29.4253C123.307 29.0925 124.083 28.9181 124.869 28.9141Z" fill="#EE7326"/>
<path d="M134.421 41.1528H144.141V44.9654H130.557V23.2681H134.421L134.421 41.1528Z" fill="#EE7326"/>
<path d="M149.936 29.0024H146.072V44.9655H149.936V29.0024Z" fill="#EE7326"/>
<path d="M166.23 29.0024L161.027 44.9655H157.257L152.085 29.0024H156.135L159.158 38.3323L162.18 29.0024H166.23Z" fill="#EE7326"/>
<path d="M182.805 37.0922C182.808 37.1863 182.798 37.2804 182.774 37.3714V37.9602C182.749 38.0511 182.739 38.1453 182.742 38.2394H171.215C171.509 39.167 172.121 39.9624 172.944 40.4865C173.776 41.0321 174.774 41.2681 175.764 41.1528C176.357 41.0936 176.931 40.9086 177.446 40.6103C177.964 40.3118 178.411 39.9045 178.754 39.4169L181.87 41.6799C181.214 42.6014 180.364 43.3685 179.378 43.927C178.402 44.4884 177.32 44.842 176.2 44.9654C175.05 45.0928 173.886 44.9713 172.788 44.6092C171.728 44.2647 170.748 43.7111 169.906 42.9816C169.068 42.2483 168.389 41.3516 167.913 40.3469C167.409 39.2917 167.153 38.1364 167.165 36.9685C167.157 35.8304 167.379 34.7024 167.819 33.6517C168.237 32.6416 168.865 31.7312 169.663 30.9804C170.46 30.2297 171.409 29.6558 172.446 29.2966C173.57 28.9078 174.766 28.7651 175.95 28.8782C176.61 28.9186 177.258 29.0707 177.867 29.3278C178.481 29.5875 179.062 29.9205 179.596 30.3195C180.663 31.121 181.519 32.1688 182.088 33.3725C182.152 33.4914 182.204 33.616 182.244 33.7446C182.469 34.2704 182.626 34.8225 182.711 35.3876C182.794 35.9518 182.826 36.5224 182.805 37.0922ZM178.537 34.5197C178.494 34.4576 178.422 34.3442 178.318 34.1788C178.191 33.9844 178.045 33.8027 177.882 33.6363C177.667 33.4176 177.427 33.2251 177.166 33.063C176.848 32.8656 176.501 32.7191 176.138 32.6288C175.939 32.5737 175.735 32.5374 175.53 32.5205C175.234 32.4896 174.936 32.4948 174.642 32.5359C173.995 32.6326 173.375 32.8593 172.819 33.2021C172.271 33.5415 171.799 33.9901 171.433 34.5197L178.537 34.5197Z" fill="#EE7326"/>
<path d="M189.307 36.2542C189.203 36.3104 189.085 36.3365 188.966 36.3297C188.848 36.3229 188.734 36.2834 188.636 36.2156C188.539 36.1478 188.463 36.0544 188.416 35.9459C188.369 35.8374 188.353 35.718 188.371 35.6012C188.687 33.4856 188.304 31.3252 187.28 29.4446C186.255 27.5641 184.645 26.0652 182.692 25.1732C182.615 25.1383 182.547 25.0889 182.489 25.0276C182.432 24.9664 182.388 24.8946 182.359 24.8162C182.3 24.6581 182.306 24.4831 182.377 24.3298C182.448 24.1764 182.577 24.0573 182.736 23.9987C182.895 23.94 183.071 23.9466 183.225 24.017C185.43 25.0239 187.248 26.7159 188.404 28.8386C189.56 30.9613 189.992 33.4 189.636 35.7881C189.621 35.8858 189.584 35.9789 189.527 36.0598C189.47 36.1407 189.395 36.2073 189.307 36.2542Z" fill="#EE7326"/>
<path d="M186.137 35.5201C186.033 35.5763 185.915 35.6024 185.796 35.5956C185.678 35.5888 185.563 35.5492 185.466 35.4815C185.369 35.4137 185.292 35.3203 185.246 35.2118C185.199 35.1033 185.183 34.984 185.2 34.8671C185.402 33.5179 185.158 32.14 184.505 30.9407C183.851 29.7414 182.825 28.7854 181.579 28.2165C181.502 28.1817 181.433 28.1323 181.376 28.0711C181.319 28.0099 181.274 27.938 181.245 27.8596C181.215 27.7812 181.202 27.6978 181.205 27.6143C181.208 27.5307 181.228 27.4485 181.263 27.3725C181.298 27.2965 181.348 27.2281 181.409 27.1712C181.471 27.1144 181.543 27.0702 181.622 27.0412C181.701 27.0122 181.785 26.9989 181.869 27.0022C181.953 27.0055 182.036 27.0252 182.112 27.0603C183.61 27.7441 184.844 28.8931 185.629 30.3346C186.414 31.7761 186.707 33.4322 186.465 35.054C186.451 35.1517 186.414 35.2447 186.357 35.3257C186.3 35.4066 186.224 35.4732 186.137 35.5201Z" fill="#EE7326"/>
<path d="M149.76 25.2207L146.6 23.4058C146.547 23.3751 146.486 23.3589 146.424 23.3589C146.362 23.3589 146.302 23.3751 146.248 23.4058C146.195 23.4365 146.15 23.4807 146.119 23.534C146.089 23.5872 146.072 23.6476 146.072 23.709V27.3389C146.072 27.4004 146.089 27.4608 146.119 27.514C146.15 27.5672 146.195 27.6114 146.248 27.6421C146.302 27.6729 146.362 27.689 146.424 27.689C146.486 27.689 146.547 27.6729 146.6 27.6421L149.76 25.8272C149.813 25.7965 149.858 25.7523 149.889 25.699C149.92 25.6458 149.936 25.5854 149.936 25.524C149.936 25.4625 149.92 25.4021 149.889 25.3489C149.858 25.2957 149.813 25.2515 149.76 25.2207Z" fill="#EE7326"/>
<path d="M13.4715 37.0156H8.22656C8.38638 37.7094 8.59175 38.392 8.84134 39.059H18.5782V48.3894C19.4851 48.6905 20.4177 48.9089 21.3645 49.0417V37.0156H13.4715Z" fill="#EE7326"/>
<path d="M12.0555 40.1837H8.49561C8.60406 40.6546 8.74343 41.1179 8.91281 41.5707H15.5216V47.9036C16.1372 48.1079 16.7702 48.2561 17.4128 48.3463V40.1836L12.0555 40.1837Z" fill="#EE7326"/>
<path d="M42.6632 31.9683C42.6611 34.4847 42.1165 36.9714 41.0661 39.2606C40.0156 41.5498 38.4839 43.5881 36.5741 45.2381C34.6643 46.888 32.4211 48.1112 29.9956 48.8251C27.5702 49.539 25.0191 49.7269 22.5144 49.3762V45.9541C23.3327 46.0992 24.1623 46.172 24.9935 46.1716C27.8165 46.1721 30.5762 45.3398 32.9238 43.7799C35.2713 42.22 37.1012 40.0026 38.182 37.408C39.2628 34.8134 39.5461 31.9582 38.9959 29.2035C38.4457 26.4488 37.0868 23.9182 35.0911 21.9319C33.0953 19.9455 30.5523 18.5926 27.7837 18.0441C25.0151 17.4956 22.1451 17.7762 19.5368 18.8505C16.9285 19.9248 14.6989 21.7445 13.1301 24.0794C11.5613 26.4144 10.7236 29.1597 10.7231 31.9683C10.7202 33.2887 10.9061 34.6027 11.2753 35.871H7.76082C7.20898 33.4583 7.17523 30.9569 7.66179 28.5304C8.14835 26.1039 9.14425 23.8068 10.5844 21.7895C12.0245 19.7722 13.8764 18.08 16.019 16.8237C18.1616 15.5673 20.5466 14.775 23.0181 14.4987C25.4896 14.2223 27.9918 14.4681 30.3613 15.2199C32.7307 15.9718 34.914 17.2127 36.7683 18.8617C38.6226 20.5106 40.1061 22.5304 41.122 24.789C42.1378 27.0475 42.663 29.4939 42.6632 31.9683Z" fill="#EE7326"/>
<path d="M24.9951 20.0242C21.811 20.0266 18.7581 21.2861 16.5066 23.526C14.2552 25.766 12.9892 28.8034 12.9868 31.9712C12.9859 33.2993 13.2113 34.618 13.6532 35.8712H22.5124V43.6582C24.1582 44.0043 25.8588 44.0026 27.5039 43.653C29.1489 43.3034 30.7018 42.6139 32.0619 41.629C33.422 40.6442 34.5589 39.386 35.3989 37.936C36.239 36.486 36.7634 34.8766 36.9383 33.2121C37.1131 31.5475 36.9345 29.865 36.4139 28.2736C35.8934 26.6821 35.0425 25.2172 33.9165 23.9739C32.7905 22.7305 31.4145 21.7364 29.8776 21.056C28.3407 20.3756 26.6773 20.0241 24.9951 20.0242ZM30.5746 31.9452L30.2871 32.1142L30.1695 32.1792C29.2418 32.7122 28.3271 33.2452 27.3994 33.7782L23.9236 35.7672C23.6985 35.8634 23.453 35.9024 23.209 35.8809C22.965 35.8594 22.7302 35.778 22.5256 35.644C22.321 35.51 22.153 35.3277 22.0367 35.1132C21.9204 34.8987 21.8594 34.6589 21.8591 34.4152V33.9862C21.8591 33.9342 21.8722 33.8822 21.8722 33.8172L21.8591 33.8432V26.6672C21.8795 26.4253 21.959 26.1919 22.0909 25.9876C22.2227 25.7832 22.4028 25.6141 22.6154 25.4949C22.828 25.3756 23.0667 25.31 23.3107 25.3036C23.5546 25.2972 23.7965 25.3503 24.0151 25.4582L27.3994 27.4082L30.4308 29.1502L30.6399 29.2802C30.8819 29.413 31.0826 29.6093 31.2202 29.8477C31.3578 30.0861 31.427 30.3576 31.4203 30.6324C31.4135 30.9073 31.3311 31.175 31.182 31.4065C31.0329 31.6379 30.8228 31.8243 30.5746 31.9452Z" fill="#EE7326"/>
<path d="M14.4636 42.3989H8.93359V47.9007H14.4636V42.3989Z" fill="#EE7326"/>
<path d="M8.5088 47.9006H6.24072V50.1571H8.5088V47.9006Z" fill="#EE7326"/>
</svg>
