<svg width="24" height="24" viewBox="0 0 24 24" fill="none" xmlns="http://www.w3.org/2000/svg">
<path d="M15.3692 16.5802C14.9201 16.2432 14.6403 15.7358 14.6016 15.1878C14.5704 14.7498 14.6956 14.3157 14.9496 13.9564H10.9299C9.83159 13.9564 8.93815 13.063 8.93815 11.9647C8.93815 10.8664 9.83159 9.97297 10.9299 9.97297H15.0598C14.6346 9.21406 14.7441 8.23461 15.3879 7.59008C15.8935 7.085 16.6043 6.91039 17.2535 7.0625V5.49289H17.2498C17.2111 4.15953 16.1206 3.08984 14.7778 3.08984H6.07127C4.70393 3.08984 3.59534 4.19844 3.59534 5.56578V18.433C3.59534 19.8003 4.7037 20.9087 6.07104 20.9087H14.7776C16.1449 20.9087 17.2533 19.8003 17.2533 18.433V16.8943C17.0485 16.9562 16.8354 16.9883 16.6217 16.9883C16.1785 16.9887 15.735 16.8545 15.3692 16.5802Z" fill="black" fill-opacity="0.7"/>
<path d="M20.2102 12.4123L17.1762 15.4462C16.9153 15.7071 16.4606 15.7395 16.1655 15.5182C15.8705 15.297 15.8423 14.9025 16.1032 14.6416L18.1155 12.6293H10.9296C10.563 12.6293 10.2656 12.3321 10.2656 11.9653C10.2656 11.5987 10.5628 11.3013 10.9296 11.3013H18.1615L18.1334 11.2744L16.3273 9.46828C16.068 9.20906 16.068 8.78859 16.3273 8.52938C16.5865 8.27016 17.007 8.27016 17.2662 8.52938L20.2102 11.4734C20.4694 11.7328 20.4694 12.153 20.2102 12.4123Z" fill="#666666"/>
<path d="M17.2662 8.52938C17.007 8.27016 16.5865 8.27016 16.3273 8.52938C16.068 8.78859 16.068 9.20906 16.3273 9.46828L18.1334 11.2744L18.1615 11.3013H10.9296C10.563 11.3013 10.2656 11.5985 10.2656 11.9653C10.2656 12.3319 10.5628 12.6293 10.9296 12.6293H18.1153L16.103 14.6416C15.8421 14.9025 15.8702 15.297 16.1653 15.5182C16.4604 15.7395 16.9151 15.7071 17.1759 15.4462L20.2102 12.4123C20.4694 12.153 20.4694 11.7326 20.2102 11.4734L17.2662 8.52938Z" fill="#FF0000"/>
</svg>
