<svg width="24" height="24" viewBox="0 0 24 24" fill="none" xmlns="http://www.w3.org/2000/svg">
<path d="M13.75 2C14.3467 2 14.919 2.23705 15.341 2.65901C15.7629 3.08097 16 3.65326 16 4.25V11.174C14.493 11.5322 13.1633 12.4166 12.2503 13.668C11.3374 14.9194 10.9011 16.4556 11.02 18H8.75C8.55998 18.0001 8.37706 18.0722 8.23821 18.202C8.09936 18.3317 8.01493 18.5093 8.00197 18.6989C7.98902 18.8885 8.04852 19.0759 8.16843 19.2233C8.28835 19.3707 8.45975 19.4671 8.648 19.493L8.75 19.5H11.25L11.312 19.497C11.6151 20.4341 12.1274 21.29 12.81 22H6.25C5.65326 22 5.08097 21.7629 4.65901 21.341C4.23705 20.919 4 20.3467 4 19.75V4.25C4 3.65326 4.23705 3.08097 4.65901 2.65901C5.08097 2.23705 5.65326 2 6.25 2H13.75Z" fill="black" fill-opacity="0.7"/>
<path d="M17.64 11.8809C20.7418 11.8809 23.28 14.4188 23.28 17.5209C23.28 20.6229 20.7421 23.1609 17.64 23.1609C14.5379 23.1609 12 20.6227 12 17.5209C12 14.419 14.5364 11.8809 17.64 11.8809ZM18.4133 14.5378L18.3397 14.6203C18.1519 14.8065 17.8994 14.9196 17.6203 14.9196C17.3411 14.9196 17.0861 14.8052 16.8983 14.6176L16.8272 14.5378C16.7295 14.4274 16.5379 14.3782 16.4021 14.4301C16.4021 14.4301 16.2803 14.4766 16.0011 14.6442L15.9773 14.6588C15.7164 14.8195 15.6243 14.9023 15.6243 14.9023C15.5139 14.9994 15.4593 15.1962 15.5012 15.3412L15.5317 15.4463C15.5913 15.711 15.5596 15.9983 15.42 16.2524C15.2805 16.5064 15.0584 16.6794 14.8098 16.7565L14.7083 16.7805C14.5687 16.8137 14.4317 16.9627 14.4063 17.1117C14.4063 17.1117 14.3841 17.241 14.3835 17.5686V17.5826C14.3835 17.9204 14.4063 18.0534 14.4063 18.0534C14.4317 18.2024 14.5674 18.3514 14.7083 18.3846L14.8073 18.4086C15.056 18.4857 15.2793 18.6587 15.4189 18.914C15.5584 19.1681 15.5914 19.4568 15.5305 19.7214L15.5014 19.8239C15.4595 19.9676 15.5141 20.1657 15.6244 20.2642C15.6244 20.2642 15.7205 20.3494 15.9905 20.5136L16.0026 20.5209C16.2493 20.6702 16.3721 20.7229 16.3973 20.7331L16.3995 20.734L16.4022 20.735C16.538 20.7869 16.7283 20.7377 16.8273 20.6273L16.8971 20.5488C17.0861 20.3612 17.3399 20.2469 17.6203 20.2469C17.9008 20.2469 18.1558 20.3626 18.3436 20.5501L18.4134 20.6286C18.5111 20.739 18.7027 20.7882 18.8384 20.7364C18.8384 20.7364 18.9603 20.6898 19.2394 20.5222C19.5186 20.3533 19.6163 20.2655 19.6163 20.2655C19.7266 20.1684 19.7812 19.9702 19.7394 19.8252L19.7089 19.7188C19.6492 19.4554 19.681 19.1681 19.8205 18.9153C19.9601 18.6613 20.1834 18.487 20.4321 18.4099L20.5311 18.386C20.6707 18.3527 20.8077 18.2037 20.8331 18.0548C20.8331 18.0548 20.8559 17.9217 20.8559 17.5839C20.8546 17.2447 20.8318 17.1116 20.8318 17.1116C20.8064 16.964 20.6706 16.8137 20.5297 16.7805L20.4245 16.7552C20.177 16.6767 19.9575 16.5051 19.8179 16.2524C19.6784 15.9983 19.6454 15.7097 19.7063 15.445L19.7393 15.3412C19.7811 15.1976 19.7266 14.9994 19.6162 14.901C19.6162 14.901 19.5172 14.8132 19.2381 14.6442C18.9589 14.4766 18.8383 14.4301 18.8383 14.4301C18.7026 14.3782 18.5122 14.4274 18.4133 14.5378ZM17.6197 15.9963C18.5123 15.9963 19.2378 16.7066 19.2378 17.584C19.2362 18.4598 18.5123 19.1701 17.6197 19.1701C16.7271 19.1701 16.0016 18.4598 16.0016 17.5825C16.0016 16.7066 16.7255 15.9963 17.6197 15.9963Z" fill="black" fill-opacity="0.7"/>
</svg>
