<svg width="24" height="24" viewBox="0 0 24 24" fill="none" xmlns="http://www.w3.org/2000/svg">
<path d="M17.25 7.125C17.25 7.72174 17.4871 8.29403 17.909 8.71599C18.331 9.13795 18.9033 9.375 19.5 9.375C20.0967 9.375 20.669 9.13795 21.091 8.71599C21.5129 8.29403 21.75 7.72174 21.75 7.125C21.75 6.52826 21.5129 5.95597 21.091 5.53401C20.669 5.11205 20.0967 4.875 19.5 4.875C18.9033 4.875 18.331 5.11205 17.909 5.53401C17.4871 5.95597 17.25 6.52826 17.25 7.125Z" fill="black"/>
<path d="M19.5 10.2422C19.2469 10.2422 19.0031 10.2094 18.7687 10.1531L16.5469 12.4172C16.5094 12.4547 16.5094 12.5109 16.5469 12.5484L20.0766 16.3078C20.3156 16.5469 20.3156 16.9312 20.0766 17.1703C19.9594 17.2875 19.8 17.3484 19.6453 17.3484C19.4906 17.3484 19.3312 17.2875 19.2141 17.1703L15.6984 13.425C15.6609 13.3875 15.6 13.3875 15.5625 13.425L14.7047 14.2969C13.9875 15.0234 13.0359 15.4266 12.0141 15.4312C10.9781 15.4359 9.99375 15 9.26719 14.2641L8.44219 13.425C8.40469 13.3875 8.34375 13.3875 8.30625 13.425L4.79062 17.1703C4.67344 17.2875 4.51406 17.3484 4.35938 17.3484C4.20469 17.3484 4.04531 17.2875 3.92813 17.1703C3.68906 16.9312 3.68906 16.5469 3.92813 16.3078L7.45781 12.5484C7.49063 12.5109 7.49063 12.4547 7.45781 12.4172L2.40938 7.27968C2.34844 7.21875 2.25 7.26093 2.25 7.34531V17.625C2.25 18.45 2.925 19.125 3.75 19.125H20.25C21.075 19.125 21.75 18.45 21.75 17.625V9.28125C21.1828 9.87187 20.3859 10.2422 19.5 10.2422Z" fill="black"/>
<path d="M16.383 7.125C16.383 6.58125 16.5236 6.07031 16.7674 5.625H3.74551C3.39395 5.625 3.07051 5.74687 2.81738 5.95312L10.1721 13.4391C10.6596 13.9359 11.3111 14.2078 12.0049 14.2078C12.6986 14.2078 13.3502 13.9359 13.8377 13.4391L17.6111 9.6C16.8611 9.02812 16.383 8.13281 16.383 7.125Z" fill="black"/>
</svg>
