<svg width="24" height="24" viewBox="0 0 24 24" fill="none" xmlns="http://www.w3.org/2000/svg">
<path d="M18.5 7C17.4391 7 16.4217 6.57857 15.6716 5.82843C14.9214 5.07828 14.5 4.06087 14.5 3H12.5V12.76C11.6658 12.2026 10.6692 11.94 9.66869 12.0139C8.66813 12.0877 7.72095 12.4939 6.97764 13.1677C6.23433 13.8415 5.73752 14.7445 5.56614 15.733C5.39477 16.7215 5.55866 17.739 6.03177 18.6237C6.50489 19.5084 7.26009 20.2097 8.17739 20.616C9.0947 21.0224 10.1215 21.1105 11.0946 20.8665C12.0678 20.6224 12.9315 20.0602 13.5485 19.269C14.1655 18.4779 14.5004 17.5033 14.5 16.5V7.465C15.599 8.4515 17.0232 8.99804 18.5 9V7ZM10 19C9.50555 19 9.0222 18.8534 8.61108 18.5787C8.19996 18.304 7.87953 17.9135 7.69031 17.4567C7.50109 16.9999 7.45158 16.4972 7.54804 16.0123C7.64451 15.5273 7.88261 15.0819 8.23224 14.7322C8.58187 14.3826 9.02733 14.1445 9.51228 14.048C9.99723 13.9516 10.4999 14.0011 10.9567 14.1903C11.4135 14.3795 11.804 14.7 12.0787 15.1111C12.3534 15.5222 12.5 16.0055 12.5 16.5C12.5 17.163 12.2366 17.7989 11.7678 18.2678C11.2989 18.7366 10.663 19 10 19Z" fill="black"/>
</svg>
