<svg width="274" height="291" viewBox="0 0 274 291" fill="none" xmlns="http://www.w3.org/2000/svg">
<g opacity="0.68">
<path d="M267.443 290.301C271.612 283.067 273.865 275.346 273.865 267.328C273.865 226.277 214.796 193 141.932 193C69.0675 193 10 226.277 10 267.328C10 275.346 12.254 283.067 16.4222 290.301H267.443Z" fill="url(#paint0_linear_1176_18305)"/>
</g>
<g opacity="0.5">
<path fill-rule="evenodd" clip-rule="evenodd" d="M193.313 219.991C193.313 219.991 194.958 222.209 195.407 223.455C195.855 224.701 199.344 226.719 200.017 226.943H200.141C200.141 226.943 197.874 224.078 197.525 223.467C197.176 222.857 195.431 220.115 193.313 219.991Z" fill="#45BF2F"/>
<path fill-rule="evenodd" clip-rule="evenodd" d="M195.83 214.257C195.83 214.257 196.042 218.879 196.864 220.798C197.687 222.717 198.584 225.446 200.403 226.941C200.615 226.904 200.789 226.692 200.789 226.692C200.789 226.692 199.518 224.349 199.344 222.331C199.17 220.312 199.967 218.892 195.83 214.257Z" fill="#45BF2F"/>
<path fill-rule="evenodd" clip-rule="evenodd" d="M200.141 208.352C200.141 208.352 201.312 212.787 200.44 216.525C199.568 220.263 199.792 224.824 200.341 227.366C200.64 227.316 200.789 227.216 200.789 227.216C200.789 227.216 200.49 224.4 201.711 220.288C202.932 216.176 203.854 211.741 200.141 208.352Z" fill="#45BF2F"/>
<path fill-rule="evenodd" clip-rule="evenodd" d="M208.743 215C208.743 215 205.254 216.811 202.762 219.369C200.27 221.928 199.955 227.377 200.005 227.576C200.221 227.593 200.453 227.576 200.453 227.576C200.453 227.576 200.736 224.353 202.43 222.709C204.125 221.064 205.022 221.18 206.102 219.585C207.182 217.99 208.743 215 208.743 215Z" fill="#45BF2F"/>
<path fill-rule="evenodd" clip-rule="evenodd" d="M207.729 218.764C207.729 218.764 206.446 222.116 204.428 222.826C202.409 223.536 200.777 226.277 200.789 226.776C201.014 226.971 201.151 227.037 201.151 227.037C201.151 227.037 201.886 226.003 203.929 225.43C205.973 224.857 208.036 221.343 207.729 218.764Z" fill="#45BF2F"/>
</g>
<g opacity="0.5">
<path fill-rule="evenodd" clip-rule="evenodd" d="M53 219.991C53 219.991 54.6447 222.209 55.0933 223.455C55.5418 224.701 59.0306 226.719 59.7035 226.943H59.8281C59.8281 226.943 57.5604 224.078 57.2115 223.467C56.8626 222.857 55.1182 220.115 53 219.991Z" fill="#3B6A33"/>
<path fill-rule="evenodd" clip-rule="evenodd" d="M55.517 214.257C55.517 214.257 55.7288 218.879 56.5511 220.798C57.3735 222.717 58.2706 225.446 60.0898 226.941C60.3016 226.904 60.4761 226.692 60.4761 226.692C60.4761 226.692 59.2052 224.349 59.0306 222.331C58.8563 220.312 59.6537 218.892 55.517 214.257Z" fill="#3B6A33"/>
<path fill-rule="evenodd" clip-rule="evenodd" d="M59.828 208.352C59.828 208.352 60.9991 212.787 60.127 216.525C59.2548 220.263 59.4791 224.824 60.0273 227.366C60.3263 227.316 60.4759 227.216 60.4759 227.216C60.4759 227.216 60.1769 224.4 61.398 220.288C62.619 216.176 63.5411 211.741 59.828 208.352Z" fill="#3B6A33"/>
<path fill-rule="evenodd" clip-rule="evenodd" d="M68.43 215C68.43 215 64.9412 216.811 62.4491 219.369C59.9572 221.928 59.6415 227.377 59.6914 227.576C59.9074 227.593 60.1399 227.576 60.1399 227.576C60.1399 227.576 60.4223 224.353 62.1169 222.709C63.8115 221.064 64.7086 221.18 65.7884 219.585C66.8684 217.99 68.43 215 68.43 215Z" fill="#3B6A33"/>
<path fill-rule="evenodd" clip-rule="evenodd" d="M67.4162 218.764C67.4162 218.764 66.1329 222.116 64.1143 222.826C62.0958 223.536 60.4636 226.277 60.476 226.776C60.7003 226.971 60.8374 227.037 60.8374 227.037C60.8374 227.037 61.5725 226.003 63.6159 225.43C65.6594 224.857 67.723 221.343 67.4162 218.764Z" fill="#3B6A33"/>
</g>
<line x1="60.8586" y1="228.328" x2="236.131" y2="228.328" stroke="#CFCFCF"/>
<line x1="75.4646" y1="240.5" x2="114.414" y2="240.5" stroke="#CFCFCF"/>
<g opacity="0.4">
<path d="M166.307 190.222C164.494 190.126 162.771 189.403 161.431 188.178C156.619 183.668 150.309 181.1 143.716 180.967C137.123 180.835 130.714 183.148 125.725 187.46C125.016 188.157 124.172 188.702 123.245 189.061C122.318 189.42 121.328 189.586 120.334 189.548C119.341 189.51 118.366 189.269 117.469 188.841C116.572 188.413 115.772 187.805 115.118 187.056C114.464 186.308 113.97 185.433 113.667 184.486C113.364 183.54 113.257 182.541 113.354 181.551C113.45 180.562 113.748 179.603 114.229 178.733C114.71 177.863 115.364 177.1 116.15 176.492C123.832 169.754 133.744 166.113 143.961 166.274C154.178 166.436 163.97 170.389 171.436 177.366C172.457 178.415 173.152 179.738 173.437 181.174C173.723 182.61 173.586 184.098 173.043 185.458C172.501 186.818 171.576 187.992 170.381 188.837C169.185 189.682 167.77 190.163 166.307 190.222Z" fill="black"/>
<path d="M187.261 170.081C185.383 169.98 183.591 169.262 182.162 168.038C172.036 158.091 158.491 152.391 144.3 152.105C130.109 151.818 116.345 156.966 105.826 166.495C104.371 167.829 102.446 168.531 100.474 168.446C98.5019 168.36 96.6447 167.495 95.3106 166.04C93.9765 164.586 93.275 162.661 93.3603 160.689C93.4456 158.717 94.3108 156.859 95.7655 155.525C109.102 143.42 126.599 136.932 144.604 137.415C162.575 137.79 179.739 144.948 192.653 157.451C193.351 158.112 193.909 158.909 194.291 159.792C194.674 160.675 194.874 161.626 194.878 162.588C194.883 163.55 194.692 164.504 194.318 165.39C193.944 166.277 193.395 167.079 192.702 167.747C191.26 169.202 189.309 170.039 187.261 170.081Z" fill="black"/>
<path d="M210.461 147.78C208.584 147.688 206.794 146.961 205.384 145.718C189.388 129.531 167.704 120.227 144.951 119.787C122.242 119.349 100.238 127.678 83.5102 143.043C82.1199 144.377 80.2564 145.104 78.3297 145.065C76.4031 145.025 74.5711 144.222 73.2368 142.831C71.9025 141.441 71.1751 139.577 71.2148 137.651C71.2544 135.724 72.0578 133.892 73.4481 132.558C92.8949 114.413 118.631 104.533 145.224 105.003C171.817 105.474 197.187 116.258 215.98 135.08C217.34 136.441 218.106 138.286 218.112 140.21C218.118 142.135 217.363 143.984 216.011 145.354C215.334 146.129 214.492 146.743 213.547 147.15C212.601 147.557 211.577 147.747 210.548 147.707L210.461 147.78Z" fill="black"/>
<path d="M141.776 199.616C134.76 199.616 129.02 205.356 129.02 212.372C129.02 219.388 134.76 225.128 141.776 225.128C148.792 225.128 154.532 219.388 154.532 212.372C154.532 205.356 148.792 199.616 141.776 199.616ZM147.091 216.199C147.516 216.624 147.516 217.262 147.091 217.687C146.666 218.112 146.028 218.112 145.603 217.687L141.776 213.86L137.949 217.687C137.524 218.112 136.886 218.112 136.461 217.687C136.036 217.262 136.036 216.624 136.461 216.199L140.288 212.372L136.461 208.545C136.036 208.12 136.036 207.482 136.461 207.057C136.886 206.632 137.524 206.632 137.949 207.057L141.776 210.884L145.603 207.057C146.028 206.632 146.666 206.632 147.091 207.057C147.516 207.482 147.516 208.12 147.091 208.545L143.264 212.372L147.091 216.199Z" fill="black"/>
</g>
<g opacity="0.6">
<g opacity="0.6">
<path opacity="0.6" d="M52.5169 11.2997C49.4034 11.2997 46.8671 8.7682 46.8671 5.64986C46.8671 2.53152 49.3986 0 52.5169 0C55.6353 0 58.1668 2.53152 58.1668 5.64986C58.1668 8.7682 55.6304 11.2997 52.5169 11.2997ZM52.5169 3.14258C51.1348 3.14258 50.0096 4.26771 50.0096 5.64986C50.0096 7.03202 51.1348 8.15714 52.5169 8.15714C53.8991 8.15714 55.0242 7.03202 55.0242 5.64986C55.0242 4.26771 53.8991 3.14258 52.5169 3.14258Z" fill="black"/>
</g>
<g opacity="0.6">
<path opacity="0.6" d="M51.4986 97.6573C53.7511 97.6573 55.5772 95.8312 55.5772 93.5787C55.5772 91.3262 53.7511 89.5001 51.4986 89.5001C49.2461 89.5001 47.42 91.3262 47.42 93.5787C47.42 95.8312 49.2461 97.6573 51.4986 97.6573Z" fill="black"/>
</g>
<g opacity="0.6">
<path opacity="0.6" d="M209.545 167.091C214.264 167.091 218.09 163.265 218.09 158.546C218.09 153.827 214.264 150.001 209.545 150.001C204.826 150.001 201 153.827 201 158.546C201 163.265 204.826 167.091 209.545 167.091Z" fill="black"/>
</g>
<g opacity="0.6">
<path opacity="0.6" d="M201.203 60.1714C203.065 60.1714 204.574 58.6623 204.574 56.8008C204.574 54.9393 203.065 53.4303 201.203 53.4303C199.342 53.4303 197.833 54.9393 197.833 56.8008C197.833 58.6623 199.342 60.1714 201.203 60.1714Z" fill="black"/>
</g>
<g opacity="0.6">
<path opacity="0.6" d="M249.787 33.0143C251.391 33.0143 252.692 31.7137 252.692 30.1093C252.692 28.5049 251.391 27.2043 249.787 27.2043C248.183 27.2043 246.882 28.5049 246.882 30.1093C246.882 31.7137 248.183 33.0143 249.787 33.0143Z" fill="black"/>
</g>
<g opacity="0.6">
<path opacity="0.6" d="M260.016 100.031C262.233 100.031 264.031 98.2332 264.031 96.0155C264.031 93.7978 262.233 92 260.016 92C257.798 92 256 93.7978 256 96.0155C256 98.2332 257.798 100.031 260.016 100.031Z" fill="black"/>
</g>
<g opacity="0.6">
<path opacity="0.6" d="M193.676 214.515C195.773 214.515 197.473 212.815 197.473 210.718C197.473 208.621 195.773 206.92 193.676 206.92C191.579 206.92 189.879 208.621 189.879 210.718C189.879 212.815 191.579 214.515 193.676 214.515Z" fill="black"/>
</g>
<g opacity="0.6">
<path opacity="0.6" d="M170.126 15.3804C167.013 15.3804 164.477 12.8489 164.477 9.73055C164.477 6.61221 167.008 4.08069 170.126 4.08069C173.245 4.08069 175.776 6.61221 175.776 9.73055C175.776 12.8489 173.24 15.3804 170.126 15.3804ZM170.126 7.22813C168.744 7.22813 167.619 8.35325 167.619 9.7354C167.619 11.1176 168.744 12.2427 170.126 12.2427C171.509 12.2427 172.634 11.1176 172.634 9.7354C172.634 8.35325 171.509 7.22813 170.126 7.22813Z" fill="black"/>
</g>
<g opacity="0.6">
<path opacity="0.6" d="M125.576 243.3C122.462 243.3 119.926 240.769 119.926 237.65C119.926 234.532 122.457 232 125.576 232C128.694 232 131.225 234.532 131.225 237.65C131.225 240.769 128.689 243.3 125.576 243.3ZM125.576 235.143C124.193 235.143 123.068 236.268 123.068 237.65C123.068 239.032 124.193 240.158 125.576 240.158C126.958 240.158 128.083 239.032 128.083 237.65C128.083 236.268 126.958 235.143 125.576 235.143Z" fill="black"/>
</g>
<g opacity="0.6">
<path opacity="0.6" d="M12.6237 143.865H1.72163C0.771099 143.865 0 143.094 0 142.143C0 141.193 0.771099 140.422 1.72163 140.422H12.6237C13.5742 140.422 14.3453 141.193 14.3453 142.143C14.3453 143.094 13.5742 143.865 12.6237 143.865Z" fill="black"/>
</g>
<g opacity="0.6">
<path opacity="0.6" d="M5.38306 147.518V136.752C5.38306 135.762 6.18325 134.962 7.17259 134.962C8.16192 134.962 8.96212 135.762 8.96212 136.752V147.518C8.96212 148.507 8.16192 149.307 7.17259 149.307C6.18325 149.307 5.38306 148.507 5.38306 147.518Z" fill="black"/>
</g>
<g opacity="0.6">
<path opacity="0.6" d="M12.6625 70.5459H5.58198C4.96607 70.5459 4.46655 70.0464 4.46655 69.4305C4.46655 68.8146 4.96607 68.3151 5.58198 68.3151H12.6625C13.2784 68.3151 13.7779 68.8146 13.7779 69.4305C13.7779 70.0464 13.2784 70.5459 12.6625 70.5459Z" fill="black"/>
</g>
<g opacity="0.6">
<path opacity="0.6" d="M7.95825 72.9287V65.9403C7.95825 65.3001 8.47717 64.7764 9.12218 64.7764C9.76234 64.7764 10.2861 65.2953 10.2861 65.9403V72.9287C10.2861 73.5688 9.76719 74.0926 9.12218 74.0926C8.48202 74.0926 7.95825 73.5688 7.95825 72.9287Z" fill="black"/>
</g>
<g opacity="0.6">
<path opacity="0.6" d="M105.354 49.2354C102.119 44.5361 98.8846 39.8416 95.6499 35.1422C96.1979 34.0996 96.7459 33.0569 97.2939 32.019C99.7042 32.1451 102.119 32.2761 104.53 32.4022C104.806 38.0132 105.078 43.6243 105.354 49.2354Z" fill="black"/>
</g>
<g opacity="0.6">
<path opacity="0.6" d="M101.761 51.3651C97.2748 50.5407 92.7937 49.7114 88.3077 48.887C88.0313 47.9898 87.75 47.0877 87.4688 46.1905C88.9043 44.9005 90.3398 43.6057 91.7753 42.3157C95.107 45.3322 98.4339 48.3487 101.761 51.3651Z" fill="black"/>
</g>
<g opacity="0.6">
<path opacity="0.6" d="M107.58 46.9966C107.915 42.9714 108.254 38.9462 108.589 34.921C109.355 34.596 110.126 34.2711 110.893 33.9462C112.158 35.1004 113.419 36.2546 114.685 37.404C112.318 40.5999 109.947 43.7958 107.58 46.9966Z" fill="black"/>
</g>
</g>
<g opacity="0.8">
<path d="M152.077 53.5555H116.51C109.973 53.5555 104.677 58.8514 104.677 65.3887C104.677 71.9261 109.973 77.2219 116.51 77.2219H128.954L133.775 83.7011C134.032 84.0503 134.556 84.0503 134.813 83.7011L139.633 77.2219H152.077C158.615 77.2219 163.911 71.9261 163.911 65.3887C163.911 58.8514 158.615 53.5555 152.077 53.5555Z" fill="black" stroke="url(#paint1_linear_1176_18305)" stroke-miterlimit="10"/>
<path d="M125.104 68.0481C126.574 68.0481 127.766 66.856 127.766 65.3856C127.766 63.9152 126.574 62.7231 125.104 62.7231C123.633 62.7231 122.441 63.9152 122.441 65.3856C122.441 66.856 123.633 68.0481 125.104 68.0481Z" fill="url(#paint2_linear_1176_18305)"/>
<path d="M134.463 68.0478C135.934 68.0478 137.126 66.8558 137.126 65.3854C137.126 63.9149 135.934 62.7229 134.463 62.7229C132.993 62.7229 131.801 63.9149 131.801 65.3854C131.801 66.8558 132.993 68.0478 134.463 68.0478Z" fill="url(#paint3_linear_1176_18305)"/>
<path d="M143.489 68.0478C144.959 68.0478 146.151 66.8558 146.151 65.3854C146.151 63.9149 144.959 62.7229 143.489 62.7229C142.018 62.7229 140.826 63.9149 140.826 65.3854C140.826 66.8558 142.018 68.0478 143.489 68.0478Z" fill="url(#paint4_linear_1176_18305)"/>
</g>
<path d="M125.497 105.856C125.666 105.666 130.563 98.8648 131.409 97.6908C131.483 97.5956 131.462 97.4581 131.378 97.3841C131.103 97.1619 130.542 96.7072 130.278 96.4956C130.193 96.4322 130.066 96.4533 130.003 96.5485L124.185 104.619L123.699 105.602L125.497 105.856Z" fill="black"/>
<path fill-rule="evenodd" clip-rule="evenodd" d="M93.057 80.9214C91.2272 80.9214 89.7358 82.5291 89.7358 84.5176V95.5811C89.7358 97.5696 91.2166 99.1774 93.057 99.1774C94.8974 99.1774 96.3782 97.5696 96.3782 95.5811V84.5176C96.3782 82.5397 94.8868 80.9214 93.057 80.9214Z" fill="#F5986A"/>
<path fill-rule="evenodd" clip-rule="evenodd" d="M97.4782 74.8259C91.5551 74.424 90.6455 78.3692 90.8041 81.4048C90.4868 81.1404 90.0955 80.8865 89.7359 80.9077C88.509 80.9817 88.6253 82.5683 88.6253 82.5683C88.6253 82.5683 88.4666 83.2241 89.1753 84.2289C89.7042 84.9904 91.1849 85.6039 91.7349 85.8154L91.9465 86.4501C91.9465 86.4501 92.8244 88.3222 93.6071 89.2106C94.7071 90.4693 95.2676 90.8712 95.2676 90.8712C95.2676 90.8712 96.3254 91.6856 97.4782 91.9818C98.5359 92.2462 99.6888 91.9818 99.6888 91.9818C99.6888 91.9818 101.085 91.8126 101.349 89.7712C101.508 88.5126 101.572 86.9366 101.572 85.3712V84.9798C101.55 82.0077 101.349 79.2577 101.349 79.2577C101.349 79.2577 101 75.0586 97.4782 74.8259Z" fill="#F8AD72"/>
<path fill-rule="evenodd" clip-rule="evenodd" d="M95.2674 79.8029C95.2674 79.8029 98.8847 80.4904 100.799 79.8029C102.756 79.1048 103.01 77.0423 103.01 77.0423C103.01 77.0423 103.063 75.498 102.46 74.2817C101.984 73.3192 100.799 72.6211 100.799 72.6211C100.799 72.6211 99.7943 71.8807 98.5885 72.0711C97.626 72.2192 96.928 73.1817 96.928 73.1817C96.928 73.1817 95.6693 74.4298 94.7174 74.8423C93.7337 75.2653 92.5068 74.8423 92.5068 74.8423C92.5068 74.8423 90.5817 74.398 89.1856 75.9528C87.0702 78.3115 87.525 81.4846 87.525 81.4846C87.525 81.4846 87.874 83.5471 88.6356 85.3558C89.2491 86.8366 90.2962 87.5664 90.2962 87.5664C90.2962 87.5664 90.8462 87.9683 91.4068 87.5664C92.0308 87.1116 91.4068 86.4558 91.4068 86.4558L90.8568 85.3452C90.8568 85.3452 88.6779 85.3452 88.6462 82.024C88.6356 81.474 89.7567 81.474 89.7567 81.474C89.7567 81.474 90.3914 81.4634 90.8674 82.024C91.1318 82.3307 91.4173 83.6846 91.4173 83.6846C91.4173 83.6846 91.65 80.9875 92.5279 80.3634C93.5433 79.6019 95.2674 79.8029 95.2674 79.8029Z" fill="black"/>
<path fill-rule="evenodd" clip-rule="evenodd" d="M80.4705 210.322L77.181 215.441L91.132 224.421C91.132 224.421 92.2532 222.961 91.5339 220.73C90.8147 218.498 87.483 216.806 87.483 216.806C87.483 216.806 86.3618 216.16 85.9176 215.145C85.5791 214.362 85.5897 213.611 85.5897 213.611L80.4705 210.322Z" fill="black"/>
<path fill-rule="evenodd" clip-rule="evenodd" d="M105.781 146.164L108.542 173.273C108.542 173.273 108.658 174.098 108.542 174.933C108.383 176.012 107.992 177.144 107.992 177.144L88.0755 215.306L81.4331 210.884C81.4331 210.884 85.8437 192.946 89.7255 183.226C91.3332 179.196 95.2572 176.583 95.2572 176.583C95.2572 176.583 90.1274 166.778 87.5149 157.777C86.1081 152.944 86.4043 146.164 86.4043 146.164H105.781Z" fill="#302B2B"/>
<path fill-rule="evenodd" clip-rule="evenodd" d="M100.799 145.061C100.799 145.061 100.292 161.973 98.5887 178.801C96.4733 199.701 93.0569 221.395 93.0569 221.395H86.9751C86.9751 221.395 83.9819 201.341 83.654 187.654C83.453 179.055 85.3146 174.38 85.3146 174.38C85.3146 174.38 83.4107 166.109 81.9934 157.785C80.9886 151.872 80.8828 145.061 80.8828 145.061H100.799Z" fill="#424242"/>
<path fill-rule="evenodd" clip-rule="evenodd" d="M86.9648 221.392V227.473H103.56C103.56 227.473 103.719 225.644 101.9 224.152C100.091 222.671 96.3678 223.042 96.3678 223.042C96.3678 223.042 95.0774 223.105 94.1572 222.492C93.4485 222.016 93.0466 221.381 93.0466 221.381H86.9648V221.392Z" fill="black"/>
<path fill-rule="evenodd" clip-rule="evenodd" d="M121.647 106.465C121.647 106.465 123.212 104.127 124.048 103.376C124.735 102.752 124.735 104.402 124.735 104.402C124.735 104.402 125.201 104.434 125.761 103.715C126.004 103.408 126.512 102.223 126.65 101.927C126.882 101.451 127.126 101.314 127.126 101.314C127.126 101.314 129.072 100.224 129.664 103.789C129.992 105.767 126.65 110.854 126.65 110.854L121.647 106.465Z" fill="#F48D67"/>
<path fill-rule="evenodd" clip-rule="evenodd" d="M105.781 103.021L110.763 118.505L121.276 106.331L126.258 110.752L111.873 129.008C111.873 129.008 111.017 129.558 110.213 129.558C109.356 129.558 108.552 129.008 108.552 129.008L101.36 122.926L105.781 103.021Z" fill="black"/>
<path fill-rule="evenodd" clip-rule="evenodd" d="M96.378 95.2835C96.378 95.2835 96.2828 96.5845 95.828 97.4941C95.4684 98.2134 94.7174 98.6047 94.7174 98.6047C94.7174 98.6047 92.7818 97.3778 91.3963 95.8441C90.3386 94.6701 89.7357 93.0835 89.7357 93.0835L82.5433 96.9547C82.5433 96.9547 80.3539 97.9701 79.2221 99.7153C78.0798 101.482 78.1115 103.586 78.1115 103.586V146.18H105.77V103.036C105.77 103.036 105.39 100.265 103.01 98.0547C100.408 95.6431 96.378 95.2835 96.378 95.2835Z" fill="black"/>
<path fill-rule="evenodd" clip-rule="evenodd" d="M85.3146 109.677L81.4328 120.18L90.8463 135.115L86.4145 140.096L78.1222 136.775V131.243V109.677H85.3146Z" fill="#3D3F42"/>
<path fill-rule="evenodd" clip-rule="evenodd" d="M91.185 135.675C91.185 135.675 93.3956 137.41 94.0831 138.298C94.6543 139.028 93.0043 138.912 93.0043 138.912C93.0043 138.912 92.9408 139.377 93.6177 139.99C93.9033 140.255 95.0562 140.847 95.3312 141.006C95.7966 141.27 95.9129 141.535 95.9129 141.535C95.9129 141.535 96.8649 143.566 93.2687 143.883C91.2696 144.063 86.4465 140.35 86.4465 140.35L91.185 135.675Z" fill="#EF8D61"/>
<path fill-rule="evenodd" clip-rule="evenodd" d="M78.6723 100.263L68.7194 120.179C68.7194 120.179 68.2117 121.216 68.1694 121.84C68.0848 122.993 68.7194 123.501 68.7194 123.501L86.4147 140.646L91.3965 135.114L78.1223 120.729L85.3147 109.116" fill="black"/>
<defs>
<linearGradient id="paint0_linear_1176_18305" x1="141.933" y1="287.439" x2="141.933" y2="83.9416" gradientUnits="userSpaceOnUse">
<stop offset="0.2597" stop-color="white"/>
<stop offset="1" stop-color="#6397F7"/>
</linearGradient>
<linearGradient id="paint1_linear_1176_18305" x1="134.296" y1="84.2037" x2="134.296" y2="53.3127" gradientUnits="userSpaceOnUse">
<stop stop-color="white" stop-opacity="0"/>
<stop offset="1" stop-color="#1C355E"/>
</linearGradient>
<linearGradient id="paint2_linear_1176_18305" x1="122.439" y1="65.3855" x2="127.767" y2="65.3855" gradientUnits="userSpaceOnUse">
<stop offset="4.52862e-07" stop-color="#D0DDF8"/>
<stop offset="1" stop-color="white"/>
</linearGradient>
<linearGradient id="paint3_linear_1176_18305" x1="131.801" y1="65.3853" x2="137.13" y2="65.3853" gradientUnits="userSpaceOnUse">
<stop offset="4.52862e-07" stop-color="#D0DDF8"/>
<stop offset="1" stop-color="white"/>
</linearGradient>
<linearGradient id="paint4_linear_1176_18305" x1="140.824" y1="65.3853" x2="146.153" y2="65.3853" gradientUnits="userSpaceOnUse">
<stop offset="4.52862e-07" stop-color="#D0DDF8"/>
<stop offset="1" stop-color="white"/>
</linearGradient>
</defs>
</svg>
