<svg width="165" height="165" viewBox="0 0 165 165" fill="none" xmlns="http://www.w3.org/2000/svg">
<path d="M82.5 165C128.063 165 165 128.063 165 82.5C165 36.9365 128.063 0 82.5 0C36.9365 0 0 36.9365 0 82.5C0 128.063 36.9365 165 82.5 165Z" fill="url(#paint0_linear_772_13583)"/>
<path fill-rule="evenodd" clip-rule="evenodd" d="M107.537 115.053C107.483 115.02 107.42 115 107.351 115C107.157 115 107 115.157 107 115.351V148.014C107 148.208 107.157 148.365 107.351 148.365C107.545 148.365 107.702 148.208 107.702 148.014V141.74C112.21 135.913 117.178 134.453 121.017 134.437C122.961 134.43 124.624 134.792 125.801 135.157C126.389 135.339 126.854 135.521 127.171 135.658C127.33 135.726 127.451 135.782 127.532 135.821C127.567 135.838 127.594 135.851 127.613 135.861L131.869 140.117C131.985 140.233 132.173 140.233 132.29 140.117C132.406 140 132.406 139.812 132.29 139.696L128.058 135.464L134.11 115.658L134.124 115.648H140.877C141.041 115.648 141.174 115.515 141.174 115.351C141.174 115.187 141.041 115.053 140.877 115.053H107.537ZM134.11 115.658C128.228 120.181 126.725 125.129 126.677 128.937C126.653 130.858 126.999 132.498 127.351 133.658C127.527 134.237 127.704 134.695 127.837 135.007C127.903 135.163 127.958 135.283 127.996 135.362C128.011 135.395 128.024 135.421 128.034 135.44L121.53 128.937C121.511 128.909 121.487 128.885 121.459 128.866L121.267 128.673C121.261 128.643 121.256 128.611 121.25 128.577C121.206 128.312 121.152 127.926 121.117 127.451C121.047 126.499 121.051 125.19 121.346 123.762C121.933 120.926 123.666 117.606 128.297 115.648H134.114L134.11 115.658ZM126.52 134.768L121.135 129.382L121.121 129.38C121.049 129.367 120.942 129.349 120.804 129.33C120.527 129.291 120.125 129.246 119.631 129.221C118.641 129.171 117.283 129.204 115.811 129.53C112.921 130.17 109.584 131.941 107.702 136.488V140.785C112.204 135.294 117.137 133.858 121.015 133.843C123.033 133.834 124.757 134.21 125.977 134.589C126.171 134.649 126.352 134.709 126.52 134.768ZM120.524 127.494C120.537 127.666 120.551 127.826 120.568 127.974L116.589 123.996C116.579 123.954 116.566 123.895 116.551 123.82C116.518 123.655 116.477 123.414 116.448 123.116C116.391 122.519 116.382 121.699 116.575 120.802C116.956 119.026 118.134 116.917 121.393 115.648H126.903C122.922 117.734 121.33 120.901 120.764 123.641C120.455 125.137 120.451 126.503 120.524 127.494ZM120.439 128.687L116.168 124.416C116.125 124.405 116.063 124.391 115.984 124.375C115.813 124.34 115.564 124.297 115.257 124.266C114.641 124.203 113.795 124.187 112.873 124.373C111.085 124.733 108.982 125.855 107.702 128.952V135.079C109.734 131.181 112.909 129.563 115.683 128.949C117.22 128.608 118.633 128.575 119.661 128.627C119.953 128.642 120.214 128.663 120.439 128.687ZM112.756 123.789C111.037 124.136 109.078 125.13 107.702 127.585V115.95L115.44 123.687C115.4 123.683 115.359 123.678 115.317 123.674C114.659 123.607 113.751 123.589 112.756 123.789ZM119.963 115.648H108.242L115.866 123.273C115.863 123.24 115.859 123.207 115.856 123.173C115.795 122.533 115.784 121.649 115.993 120.677C116.361 118.968 117.402 117.013 119.963 115.648Z" fill="url(#paint1_linear_772_13583)"/>
<path fill-rule="evenodd" clip-rule="evenodd" d="M82.6652 23.2217C82.3328 23.0845 81.9766 23.0143 81.617 23.0149L81.614 23.0149C80.888 23.0155 80.1918 23.3042 79.6784 23.8176C79.1653 24.3307 78.8767 25.0263 78.8757 25.752V29.1974H72.0664L72.0664 25.7473C72.0686 23.2174 73.0746 20.7917 74.8635 19.0027C76.6522 17.2141 79.0773 16.2081 81.6068 16.2056L81.6082 16.2056C82.862 16.2038 84.1039 16.4491 85.2629 16.9274C86.4228 17.4061 87.4769 18.1088 88.365 18.9953C89.2531 19.8819 89.9576 20.9348 90.4383 22.0939C90.919 23.253 91.1664 24.4955 91.1664 25.7503V29.0699H84.3571V25.7503C84.3571 25.3907 84.2862 25.0346 84.1484 24.7024C84.0107 24.3702 83.8088 24.0684 83.5543 23.8144C83.2998 23.5603 82.9976 23.3589 82.6652 23.2217ZM81.6082 16.2056L81.6068 16.2056L81.6082 16.2056Z" fill="#C2C2C2"/>
<path d="M82.0305 140.467C96.1432 140.467 107.584 129.026 107.584 114.913C107.584 100.8 96.1432 89.3598 82.0305 89.3598C67.9177 89.3598 56.4771 100.8 56.4771 114.913C56.4771 129.026 67.9177 140.467 82.0305 140.467Z" fill="#EBEBEB"/>
<path d="M122.35 86.7409V67.1364C122.35 56.443 118.102 46.1877 110.54 38.6263C102.979 31.065 92.7237 26.8171 82.0304 26.8171C71.3371 26.8171 61.0817 31.065 53.5204 38.6263C45.9591 46.1877 41.7111 56.443 41.7111 67.1364V86.7409C41.7116 91.2449 40.4375 95.6571 38.036 99.4675C35.6346 103.278 32.2038 106.331 28.1404 108.274C27.2064 108.718 26.418 109.419 25.867 110.295C25.316 111.17 25.025 112.184 25.0279 113.219V113.325C25.0272 113.698 25.1001 114.068 25.2426 114.414C25.3851 114.759 25.5943 115.073 25.8583 115.338C26.1222 115.602 26.4357 115.812 26.7808 115.955C27.1259 116.098 27.4959 116.172 27.8695 116.172H136.186C136.56 116.172 136.93 116.098 137.275 115.955C137.62 115.812 137.933 115.602 138.197 115.338C138.461 115.073 138.67 114.759 138.813 114.414C138.955 114.068 139.028 113.698 139.028 113.325V113.219C139.028 112.187 138.736 111.177 138.186 110.305C137.637 109.433 136.851 108.734 135.92 108.29C131.855 106.346 128.422 103.29 126.021 99.4767C123.619 95.6632 122.346 91.2477 122.35 86.7409Z" fill="url(#paint2_linear_772_13583)"/>
<path fill-rule="evenodd" clip-rule="evenodd" d="M66.3177 71.0102L66.322 71.0145L80.8307 85.5255C80.8767 85.5538 80.914 85.592 80.9412 85.636L99.7002 104.398C99.8329 104.531 99.8329 104.746 99.7002 104.879C99.5674 105.011 99.3522 105.011 99.2194 104.879L90.0424 95.7002C82.4952 93.9347 76.5825 95.8691 72.5474 98.2493C70.5198 99.4454 68.9663 100.754 67.9207 101.763C67.398 102.268 67.0028 102.697 66.7392 102.998C66.6074 103.149 66.5086 103.268 66.4432 103.348L66.4172 103.381V104.814C66.4172 105.001 66.2651 105.154 66.0773 105.154C65.8896 105.154 65.7374 105.001 65.7374 104.814V103.38C65.7295 103.371 65.7209 103.36 65.7116 103.348C65.6462 103.268 65.5474 103.149 65.4156 102.998C65.152 102.697 64.7567 102.268 64.234 101.763C63.1883 100.754 61.6347 99.4454 59.6067 98.2493C55.5722 95.8698 49.6605 93.9359 42.1139 95.6987L32.845 104.969C32.7122 105.102 32.497 105.102 32.3642 104.969C32.2315 104.836 32.2315 104.621 32.3642 104.488L41.6682 95.1828C41.6857 95.1602 41.7061 95.1398 41.7289 95.1221L51.213 85.6365C51.2404 85.5916 51.2784 85.5528 51.3254 85.5241L56.4114 80.4373C56.4234 80.4231 56.4367 80.4098 56.4511 80.3976L65.8325 71.0147C65.8475 70.9991 65.8641 70.9849 65.882 70.9723C65.9238 70.9429 65.9708 70.9239 66.0193 70.9156C66.1245 70.8974 66.2365 70.929 66.3177 71.0102ZM42.9979 94.8145C50.2555 93.4064 55.9872 95.3253 59.9521 97.6637C62.0352 98.8923 63.6306 100.236 64.7061 101.274C65.1315 101.685 65.4759 102.048 65.7374 102.337V96.7539L65.7226 96.7198C65.6951 96.6574 65.6522 96.5639 65.592 96.4444C65.4716 96.2053 65.2823 95.8623 65.01 95.455C64.4651 94.6401 63.5891 93.5695 62.2688 92.5574C59.6504 90.5505 55.2483 88.7464 48.1272 89.6844L42.9979 94.8145ZM84.0275 89.6844L89.158 94.8157C81.8999 93.4054 76.1673 95.3247 72.202 97.6637C70.1192 98.8923 68.524 100.236 67.4486 101.274C67.0231 101.685 66.6787 102.048 66.4172 102.337V96.7541L66.4322 96.7198C66.4596 96.6574 66.5025 96.5639 66.5627 96.4444C66.6831 96.2053 66.8724 95.8623 67.1448 95.455C67.6896 94.6401 68.5656 93.5695 69.8859 92.5574C72.5043 90.5505 76.9064 88.7464 84.0275 89.6844ZM48.9033 88.9081C55.6892 88.1992 60.021 89.978 62.6824 92.0178C64.0715 93.0826 64.9964 94.2115 65.5751 95.0771C65.6326 95.163 65.6866 95.2463 65.7374 95.3268V90.1686L65.7371 90.1681C65.6976 90.1123 65.6377 90.0296 65.5578 89.9249C65.3979 89.7154 65.1579 89.4185 64.8412 89.0734C64.2072 88.3825 63.2694 87.503 62.0542 86.7452C59.6488 85.2452 56.1511 84.2155 51.72 86.091L48.9033 88.9081ZM65.7374 83.369V89.0632C65.6214 88.9254 65.4896 88.7744 65.3421 88.6137C64.6784 87.8905 63.6944 86.9667 62.4139 86.1683C60.12 84.7379 56.8789 83.7149 52.8595 84.9513L56.868 80.9421C59.9221 79.6316 62.134 80.2667 63.5877 81.2062C64.3273 81.6841 64.8784 82.2466 65.2447 82.6907C65.4275 82.9123 65.5633 83.1031 65.6526 83.2372C65.6884 83.2909 65.7166 83.3354 65.7374 83.369ZM57.9805 79.8295C60.5735 79.1149 62.5641 79.7351 63.9568 80.6352C64.7481 81.1466 65.3393 81.7431 65.7374 82.2197V72.0714L57.9805 79.8295ZM83.2514 88.9081L80.4357 86.092C76.0042 84.216 72.5063 85.2458 70.1007 86.7458C68.8854 87.5036 67.9477 88.3831 67.3136 89.0741C66.9969 89.4191 66.757 89.716 66.5971 89.9255C66.5171 90.0302 66.4572 90.1129 66.4178 90.1688L66.4172 90.1696V95.3269C66.468 95.2464 66.5221 95.163 66.5796 95.0771C67.1583 94.2115 68.0832 93.0826 69.4724 92.0178C72.1337 89.978 76.4655 88.1992 83.2514 88.9081ZM66.8127 88.6144C66.6652 88.7751 66.5333 88.9262 66.4172 89.0641V83.369C66.438 83.3354 66.4662 83.2908 66.502 83.237C66.5912 83.1029 66.7267 82.9121 66.9093 82.6905C67.2752 82.2465 67.8256 81.684 68.5645 81.2061C70.0182 80.2657 72.2317 79.6303 75.2906 80.9461L79.2961 84.9522C75.2763 83.7155 72.035 84.7385 69.7409 86.1689C68.4605 86.9674 67.4765 87.8911 66.8127 88.6144ZM74.1762 79.8315L66.4172 72.0713V82.2188C66.8149 81.7424 67.405 81.1463 68.1952 80.6352C69.5881 79.7343 71.58 79.1138 74.1762 79.8315Z" fill="url(#paint3_linear_772_13583)"/>
<path fill-rule="evenodd" clip-rule="evenodd" d="M104.04 70.3063V10H104.72V70.3063H104.04Z" fill="url(#paint4_linear_772_13583)"/>
<path fill-rule="evenodd" clip-rule="evenodd" d="M98.5056 70.0212C98.6626 69.9596 98.8399 70.0369 98.9014 70.194L99.5458 71.8369L101.651 72.5644C102.205 71.2116 103.22 70.3055 104.38 70.3055C105.542 70.3055 106.558 71.2138 107.112 72.5693L109.231 71.8369L109.875 70.194C109.936 70.0369 110.114 69.9596 110.271 70.0212C110.428 70.0828 110.505 70.26 110.444 70.417L109.748 72.191C109.715 72.2742 109.648 72.339 109.563 72.3682L107.311 73.1466C107.436 73.5823 107.517 74.0518 107.545 74.5432L109.483 74.1011C109.602 74.0741 109.725 74.1123 109.808 74.2013L111.449 75.97C111.577 76.1077 111.569 76.3227 111.431 76.4504C111.294 76.5781 111.079 76.5701 110.951 76.4325L109.443 74.8076L107.549 75.2396C107.528 75.7146 107.457 76.1701 107.345 76.5953L108.803 76.2626C108.931 76.2335 109.064 76.2803 109.146 76.383L110.5 78.0933C110.616 78.2405 110.592 78.4543 110.444 78.5708C110.297 78.6874 110.084 78.6625 109.967 78.5154L108.746 76.9731L107.088 77.3513C106.916 77.7594 106.701 78.1256 106.453 78.4369C106.565 78.7115 106.627 79.0131 106.627 79.3295C106.627 80.6056 105.621 81.64 104.38 81.64C103.139 81.64 102.133 80.6056 102.133 79.3295C102.133 79.0132 102.195 78.7117 102.307 78.4371C102.058 78.1247 101.843 77.757 101.671 77.3471L100.031 76.9731L98.8094 78.5154C98.6929 78.6625 98.4791 78.6874 98.3319 78.5708C98.1847 78.4543 98.1599 78.2405 98.2764 78.0933L99.6309 76.383C99.7122 76.2803 99.8453 76.2335 99.973 76.2626L101.414 76.5914C101.302 76.1662 101.232 75.7108 101.211 75.2358L99.3332 74.8076L97.8254 76.4325C97.6977 76.5701 97.4827 76.5781 97.345 76.4504C97.2074 76.3227 97.1994 76.1077 97.3271 75.97L98.9683 74.2013C99.0509 74.1123 99.1747 74.0741 99.2931 74.1011L101.215 74.5395C101.243 74.0476 101.325 73.5775 101.45 73.1415L99.2131 72.3682C99.1287 72.339 99.0612 72.2742 99.0286 72.191L98.3328 70.417C98.2712 70.26 98.3486 70.0828 98.5056 70.0212Z" fill="url(#paint5_linear_772_13583)"/>
<path d="M40.0067 134.022C40.0067 135.48 38.8245 136.662 37.3661 136.662C35.9078 136.662 34.7255 135.48 34.7255 134.022C34.7255 132.563 35.9078 131.381 37.3661 131.381C38.8245 131.381 40.0067 132.563 40.0067 134.022Z" stroke="#306E3E" stroke-width="1.44031"/>
<circle cx="41.4267" cy="30.1836" r="2.64058" stroke="#306E3E" stroke-width="1.44031"/>
<circle cx="146.425" cy="128.801" r="2.64058" stroke="#306E3E" stroke-width="1.44031"/>
<defs>
<linearGradient id="paint0_linear_772_13583" x1="83.16" y1="775.871" x2="83.16" y2="5.89282" gradientUnits="userSpaceOnUse">
<stop stop-color="#CECECE"/>
<stop offset="1" stop-color="#CFCCCC" stop-opacity="0"/>
</linearGradient>
<linearGradient id="paint1_linear_772_13583" x1="124.087" y1="115" x2="124.087" y2="148.365" gradientUnits="userSpaceOnUse">
<stop stop-opacity="0.306"/>
<stop offset="1" stop-color="#545454" stop-opacity="0"/>
</linearGradient>
<linearGradient id="paint2_linear_772_13583" x1="82.4837" y1="116.172" x2="82.4837" y2="-18.0003" gradientUnits="userSpaceOnUse">
<stop stop-color="#CECECE"/>
<stop offset="1" stop-color="#CFCCCC" stop-opacity="0"/>
</linearGradient>
<linearGradient id="paint3_linear_772_13583" x1="66.0322" y1="70.9106" x2="66.0322" y2="105.154" gradientUnits="userSpaceOnUse">
<stop stop-opacity="0.306"/>
<stop offset="1" stop-color="#545454" stop-opacity="0"/>
</linearGradient>
<linearGradient id="paint4_linear_772_13583" x1="104.139" y1="68" x2="105.139" y2="10" gradientUnits="userSpaceOnUse">
<stop stop-opacity="0.306"/>
<stop offset="1" stop-color="#545454" stop-opacity="0"/>
</linearGradient>
<linearGradient id="paint5_linear_772_13583" x1="104.388" y1="70" x2="104.139" y2="93.4785" gradientUnits="userSpaceOnUse">
<stop stop-opacity="0.306"/>
<stop offset="1" stop-color="#545454" stop-opacity="0"/>
</linearGradient>
</defs>
</svg>
