<svg width="13" height="13" viewBox="0 0 13 13" fill="none" xmlns="http://www.w3.org/2000/svg">
<path d="M8.67966 8.88379C8.67966 9.20175 8.93587 9.45795 9.25382 9.45795C10.9417 9.45795 12.3175 8.08375 12.3175 6.39375C12.3166 5.58147 11.9936 4.80272 11.4192 4.22836C10.8449 3.65399 10.0661 3.33094 9.25382 3.33008C8.93587 3.33008 8.67966 3.58629 8.67966 3.90424C8.67966 4.22166 8.93587 4.47841 9.25382 4.47841C9.76163 4.47899 10.2485 4.68096 10.6075 5.04003C10.9666 5.3991 11.1686 5.88594 11.1692 6.39375C11.1687 6.90164 10.9668 7.38862 10.6077 7.74781C10.2486 8.10699 9.76172 8.30905 9.25382 8.30962C8.93587 8.30962 8.67966 8.56637 8.67966 8.88379Z" fill="#E8E8E8"/>
<path d="M9.25382 7.44675C8.93587 7.44675 8.67966 7.19054 8.67966 6.87258V5.91545C8.67966 5.59804 8.93587 5.34129 9.25382 5.34129C9.83503 5.34129 10.3063 5.81416 10.3063 6.39375C10.3063 6.97387 9.83341 7.44675 9.25382 7.44675Z" fill="#E8E8E8"/>
<path fill-rule="evenodd" clip-rule="evenodd" d="M7.7025 8.49387V1.80001C7.7025 1.68464 7.6738 1.58172 7.61584 1.48585C7.55675 1.38955 7.46537 1.31737 7.358 1.28218C7.26436 1.23567 7.16082 1.21262 7.0563 1.21501C6.94591 1.21333 6.83869 1.25183 6.75459 1.32335L4.26679 3.45483L7.7025 8.49387ZM3.85295 3.8094L3.79709 3.85726C3.56525 3.98889 3.38163 4.04035 3.25975 4.05876H2.34975C2.01531 4.05977 1.69494 4.19348 1.45901 4.43052C1.22308 4.66757 1.09089 4.98857 1.09146 5.32301V7.21885C1.09146 7.9176 1.6548 8.48255 2.34975 8.48255H3.08642V8.48418L3.1043 8.48255H3.17417C3.28142 8.48851 3.48292 8.52264 3.7543 8.66997L6.75513 11.1996C6.8418 11.2862 6.95555 11.3279 7.09963 11.3279C7.215 11.3279 7.30005 11.3155 7.358 11.2868C7.58713 11.1421 7.7025 10.9542 7.7025 10.7234V9.4554L3.85295 3.8094Z" fill="#E8E8E8"/>
<path fill-rule="evenodd" clip-rule="evenodd" d="M9.95872 12.3169C9.89086 12.3631 9.79833 12.3456 9.75206 12.2778L1.79463 0.60685C1.74835 0.538985 1.76586 0.44646 1.83372 0.400188V0.400188C1.90159 0.353917 1.99411 0.371422 2.04039 0.439287L9.99782 12.1102C10.0441 12.1781 10.0266 12.2706 9.95872 12.3169V12.3169Z" fill="#E8E8E8"/>
</svg>
