<svg width="29" height="28" viewBox="0 0 29 28" fill="none" xmlns="http://www.w3.org/2000/svg">
<path d="M12.0063 22.4522C12.0063 23.1299 12.2682 23.7797 12.7342 24.2589C13.2002 24.7381 13.8322 25.0072 14.4913 25.0072C15.1503 25.0072 15.7824 24.7381 16.2484 24.2589C16.7144 23.7797 16.9762 23.1299 16.9762 22.4522C16.9762 21.7746 16.7144 21.1247 16.2484 20.6456C15.7824 20.1664 15.1503 19.8972 14.4913 19.8972C13.8322 19.8972 13.2002 20.1664 12.7342 20.6456C12.2682 21.1247 12.0063 21.7746 12.0063 22.4522Z" fill="white"/>
<path d="M7.68449 19.7485C7.51086 19.7484 7.341 19.6964 7.19564 19.5988C7.05028 19.5012 6.93571 19.3621 6.86592 19.1986C6.79614 19.0352 6.77415 18.8543 6.80266 18.6782C6.83116 18.5021 6.90891 18.3384 7.02642 18.2069C7.14695 18.0723 10.0256 14.9069 14.2416 14.7609C16.9275 14.6675 19.5083 15.8126 21.9142 18.1628C22.0861 18.3307 22.1861 18.562 22.1921 18.8058C22.1982 19.0495 22.1099 19.2858 21.9465 19.4626C21.7832 19.6393 21.5582 19.7421 21.3212 19.7484C21.0841 19.7546 20.8543 19.6638 20.6824 19.4958C18.6367 17.4976 16.4897 16.5227 14.3017 16.5985C10.8264 16.7183 8.36724 19.4245 8.34256 19.4517C8.25893 19.5454 8.15722 19.6202 8.04392 19.6713C7.93062 19.7224 7.80821 19.7487 7.68449 19.7485Z" fill="white"/>
<path d="M5.63368 15.5842C5.46001 15.5841 5.29011 15.5321 5.14474 15.4344C4.99936 15.3367 4.88479 15.1976 4.81504 15.0341C4.74528 14.8705 4.72336 14.6897 4.75194 14.5135C4.78052 14.3374 4.85836 14.1736 4.97597 14.0423C5.01496 13.9989 5.94877 12.963 7.53636 11.9094C9.64826 10.5072 11.944 9.72506 14.1757 9.64784C17.5962 9.52869 20.8887 10.9934 23.9652 13.9989C24.1371 14.1668 24.2371 14.3981 24.2432 14.6418C24.2492 14.8856 24.1609 15.1218 23.9976 15.2986C23.8342 15.4754 23.6093 15.5782 23.3722 15.5844C23.1351 15.5907 22.9054 15.4998 22.7335 15.3319C20.0175 12.6783 17.1581 11.3839 14.2358 11.4854C9.60177 11.6439 6.32466 15.2506 6.29211 15.287C6.20842 15.3808 6.10666 15.4557 5.99331 15.5068C5.87995 15.558 5.75748 15.5843 5.63368 15.5842Z" fill="white"/>
<path d="M1.8246 12.1429C1.65093 12.1428 1.48103 12.0908 1.33565 11.9931C1.19028 11.8954 1.07571 11.7563 1.00596 11.5928C0.936202 11.4292 0.914275 11.2484 0.942854 11.0722C0.971433 10.8961 1.04928 10.7323 1.16689 10.6009C1.22125 10.5403 2.52595 9.09508 4.75444 7.61458C6.02547 6.76476 7.38424 6.06251 8.80585 5.52071C10.5412 4.86614 12.3065 4.50393 14.0525 4.44325C18.835 4.2785 23.4522 6.33487 27.774 10.5568C27.9459 10.7248 28.0459 10.9561 28.052 11.1998C28.058 11.4436 27.9697 11.6798 27.8063 11.8566C27.643 12.0333 27.4181 12.1362 27.181 12.1424C26.9439 12.1486 26.7142 12.0578 26.5422 11.8899C22.5824 8.01982 18.3979 6.13335 14.1126 6.28118C7.32699 6.51579 2.5306 11.7909 2.48267 11.8457C2.39902 11.9395 2.29732 12.0143 2.18403 12.0655C2.07074 12.1166 1.94834 12.143 1.8246 12.1429Z" fill="white"/>
<path fill-rule="evenodd" clip-rule="evenodd" d="M26.2889 0.510308C26.5678 0.734374 26.6173 1.14851 26.3994 1.4353L6.781 27.2539C6.56308 27.5407 6.16031 27.5915 5.88138 27.3675C5.60246 27.1434 5.553 26.7293 5.77092 26.4425L25.3893 0.623883C25.6072 0.337091 26.01 0.286242 26.2889 0.510308Z" fill="white"/>
</svg>
