<svg width="24" height="24" viewBox="0 0 24 24" fill="none" xmlns="http://www.w3.org/2000/svg">
<path fill-rule="evenodd" clip-rule="evenodd" d="M3.27355 13.7544V13.5394C3.30509 12.9033 3.50896 12.287 3.86414 11.754C4.45534 11.1137 4.86004 10.3291 5.0358 9.48242C5.0358 8.82806 5.0358 8.16435 5.09295 7.50999C5.38825 4.35972 8.50315 2.18164 11.58 2.18164H11.6562C14.733 2.18164 17.8479 4.35972 18.1527 7.50999C18.2098 8.16435 18.1527 8.82806 18.2003 9.48242C18.3784 10.331 18.7827 11.1181 19.372 11.7633C19.7298 12.2916 19.934 12.9057 19.9626 13.5394V13.7451C19.9838 14.5997 19.6895 15.4331 19.1338 16.0914C18.3996 16.8613 17.4032 17.3402 16.3333 17.4376C13.196 17.7741 10.0306 17.7741 6.89331 17.4376C5.82462 17.336 4.82966 16.8578 4.09276 16.0914C3.54568 15.4326 3.2553 14.6042 3.27355 13.7544Z" fill="#4D4D4D" stroke="#4D4D4D" stroke-width="1.5" stroke-linecap="round" stroke-linejoin="round"/>
<path d="M9.21759 20.6914C9.70779 21.3067 10.4276 21.7049 11.2178 21.7979C12.008 21.8909 12.8034 21.671 13.4279 21.1868C13.62 21.0437 13.7929 20.8772 13.9423 20.6914" stroke="#4D4D4D" stroke-width="1.5" stroke-linecap="round" stroke-linejoin="round"/>
</svg>
