<svg width="19" height="22" viewBox="0 0 19 22" fill="none" xmlns="http://www.w3.org/2000/svg">
<path fill-rule="evenodd" clip-rule="evenodd" d="M1.27376 12.7546V12.5396C1.3053 11.9035 1.50917 11.2872 1.86435 10.7542C2.45555 10.1139 2.86026 9.32925 3.03601 8.4826C3.03601 7.82824 3.03601 7.16454 3.09317 6.51018C3.38846 3.3599 6.50337 1.18182 9.58017 1.18182H9.65637C12.7332 1.18182 15.8481 3.3599 16.1529 6.51018C16.2101 7.16454 16.1529 7.82824 16.2005 8.4826C16.3786 9.33121 16.7829 10.1183 17.3722 10.7635C17.73 11.2918 17.9342 11.9059 17.9628 12.5396V12.7453C17.984 13.5999 17.6897 14.4332 17.134 15.0916C16.3998 15.8615 15.4034 16.3404 14.3335 16.4377C11.1962 16.7743 8.03084 16.7743 4.89352 16.4377C3.82484 16.3362 2.82988 15.8579 2.09297 15.0916C1.54589 14.4327 1.25551 13.6044 1.27376 12.7546Z" stroke="#AAAAAA" stroke-width="1.5" stroke-linecap="round" stroke-linejoin="round"/>
<path d="M7.21777 19.6908C7.70797 20.3061 8.42783 20.7043 9.21802 20.7973C10.0082 20.8903 10.8036 20.6704 11.4281 20.1863C11.6202 20.0431 11.7931 19.8766 11.9425 19.6908" stroke="#AAAAAA" stroke-width="1.5" stroke-linecap="round" stroke-linejoin="round"/>
</svg>
