<svg width="24" height="24" viewBox="0 0 24 24" fill="none" xmlns="http://www.w3.org/2000/svg">
<circle cx="12" cy="12" r="12" fill="#007BE0"/>
<path d="M5.51793 16C5.41549 16 5.31535 15.9724 5.23018 15.9208C5.14501 15.8691 5.07863 15.7958 5.03943 15.7099C5.00023 15.6241 4.98997 15.5296 5.00995 15.4385C5.02993 15.3473 5.07925 15.2636 5.15168 15.1979L7.75484 12.8367C7.85199 12.7486 7.98373 12.6991 8.12109 12.6991C8.25846 12.6991 8.3902 12.7486 8.48735 12.8367L9.4162 13.6789L12.9353 10.4872C13.0324 10.3991 13.1642 10.3496 13.3015 10.3496C13.4389 10.3496 13.5706 10.3991 13.6678 10.4872L14.5966 11.3295L17.2314 8.93979H17.1868C17.0494 8.93979 16.9177 8.89029 16.8205 8.80216C16.7234 8.71404 16.6688 8.59452 16.6688 8.4699C16.6688 8.34527 16.7234 8.22575 16.8205 8.13763C16.9177 8.04951 17.0494 8 17.1868 8H18.485C18.5531 8.00031 18.6205 8.0128 18.6833 8.03676C18.746 8.06073 18.803 8.09569 18.8508 8.13965C18.8986 8.18361 18.9364 8.2357 18.962 8.29293C18.9876 8.35017 19.0005 8.41142 19 8.47319V9.64464C19 9.76926 18.9454 9.88879 18.8483 9.97691C18.7511 10.065 18.6193 10.1145 18.4819 10.1145C18.3445 10.1145 18.2128 10.065 18.1156 9.97691C18.0185 9.88879 17.9639 9.76926 17.9639 9.64464V9.60446L14.9629 12.3263C14.8657 12.4144 14.734 12.4639 14.5966 12.4639C14.4593 12.4639 14.3275 12.4144 14.2304 12.3263L13.3015 11.4841L9.78246 14.6758C9.68531 14.7639 9.55357 14.8134 9.4162 14.8134C9.27883 14.8134 9.14709 14.7639 9.04994 14.6758L8.12109 13.8335L5.88419 15.8623C5.78317 15.9539 5.65055 16 5.51793 16Z" fill="white"/>
</svg>
