<svg width="24" height="24" viewBox="0 0 24 24" fill="none" xmlns="http://www.w3.org/2000/svg">
<g clip-path="url(#clip0_1077_15594)">
<path d="M12.0002 6.95C9.2502 6.95 6.9502 9.2 6.9502 12C6.9502 14.75 9.2002 17.05 12.0002 17.05C14.8002 17.05 17.0502 14.75 17.0502 12C17.0502 9.25 14.7502 6.95 12.0002 6.95ZM14.7502 11.15L11.8502 14.25C11.7502 14.35 11.6502 14.4 11.5002 14.4C11.3502 14.4 11.2502 14.35 11.1502 14.25L9.2502 12.35C9.0502 12.15 9.0502 11.85 9.2502 11.65C9.4502 11.45 9.7502 11.45 9.9502 11.65L11.5002 13.2L14.1002 10.45C14.3002 10.25 14.6002 10.25 14.8002 10.45C14.9502 10.65 14.9502 10.95 14.7502 11.15Z" fill="#007BE0"/>
<path d="M12 0C5.35 0 0 5.35 0 12C0 18.65 5.35 24 12 24C18.65 24 24 18.65 24 12C24 5.35 18.65 0 12 0ZM12 18C8.7 18 6 15.3 6 12C6 8.7 8.7 6 12 6C15.3 6 18 8.7 18 12C18 15.3 15.3 18 12 18Z" fill="#007BE0"/>
</g>
<defs>
<clipPath id="clip0_1077_15594">
<rect width="24" height="24" fill="white"/>
</clipPath>
</defs>
</svg>
