<svg width="24" height="24" viewBox="0 0 24 24" fill="none" xmlns="http://www.w3.org/2000/svg">
<path d="M15.5997 19.2768C16.0628 19.7399 16.6908 20 17.3457 20C18.0005 20 18.6286 19.7399 19.0916 19.2768C19.5547 18.8138 19.8148 18.1857 19.8148 17.5309V5.46914C19.8148 4.81428 19.5547 4.18625 19.0916 3.72319C18.6286 3.26014 18.0005 3 17.3457 3C16.6908 3 16.0628 3.26014 15.5997 3.72319C15.1367 4.18625 14.8765 4.81428 14.8765 5.46914V17.5309C14.8765 18.1857 15.1367 18.8138 15.5997 19.2768Z" fill="black"/>
<path d="M5.72319 19.2768C6.18625 19.7399 6.81428 20 7.46914 20C8.12399 20 8.75203 19.7399 9.21508 19.2768C9.67813 18.8138 9.93827 18.1857 9.93827 17.5309V5.46914C9.93827 4.81428 9.67813 4.18625 9.21508 3.72319C8.75203 3.26014 8.12399 3 7.46914 3C6.81428 3 6.18625 3.26014 5.72319 3.72319C5.26014 4.18625 5 4.81428 5 5.46914V17.5309C5 18.1857 5.26014 18.8138 5.72319 19.2768Z" fill="black"/>
</svg>
