<svg width="23" height="22" viewBox="0 0 23 22" fill="none" xmlns="http://www.w3.org/2000/svg">
<path d="M18.1614 15.5837V2.75033C18.1614 2.50957 18.114 2.27117 18.0218 2.04874C17.9297 1.82631 17.7946 1.6242 17.6244 1.45396C17.4542 1.28372 17.2521 1.14868 17.0296 1.05655C16.8072 0.964413 16.5688 0.916992 16.328 0.916992H3.49471C3.00848 0.916992 2.54216 1.11015 2.19835 1.45396C1.85453 1.79778 1.66138 2.2641 1.66138 2.75033V15.5837C1.66138 15.8244 1.7088 16.0628 1.80093 16.2852C1.89306 16.5077 2.02811 16.7098 2.19835 16.88C2.36859 17.0503 2.57069 17.1853 2.79312 17.2774C3.01555 17.3696 3.25395 17.417 3.49471 17.417H16.328C16.5688 17.417 16.8072 17.3696 17.0296 17.2774C17.2521 17.1853 17.4542 17.0503 17.6244 16.88C17.7946 16.7098 17.9297 16.5077 18.0218 16.2852C18.114 16.0628 18.1614 15.8244 18.1614 15.5837ZM7.61971 5.50033C7.89166 5.50033 8.1575 5.58097 8.38362 5.73206C8.60974 5.88314 8.78597 6.09789 8.89005 6.34914C8.99412 6.60038 9.02135 6.87685 8.96829 7.14358C8.91524 7.4103 8.78428 7.6553 8.59198 7.8476C8.39969 8.0399 8.15468 8.17085 7.88796 8.22391C7.62124 8.27696 7.34477 8.24973 7.09352 8.14566C6.84227 8.04159 6.62753 7.86535 6.47644 7.63924C6.32535 7.41312 6.24471 7.14728 6.24471 6.87533C6.24471 6.51065 6.38958 6.16092 6.64744 5.90305C6.9053 5.64519 7.25504 5.50033 7.61971 5.50033ZM15.4114 14.2087C15.4114 14.2688 15.3995 14.3284 15.3765 14.3841C15.3535 14.4397 15.3197 14.4902 15.2771 14.5328C15.2346 14.5753 15.184 14.6091 15.1284 14.6321C15.0728 14.6551 15.0132 14.667 14.953 14.667H4.86971C4.80952 14.667 4.74992 14.6551 4.69431 14.6321C4.63871 14.6091 4.58818 14.5753 4.54562 14.5328C4.50306 14.4902 4.4693 14.4397 4.44627 14.3841C4.42323 14.3284 4.41138 14.2688 4.41138 14.2087V13.9062C4.41202 13.8071 4.44412 13.7108 4.50304 13.6312L6.67554 10.7253C6.71919 10.6683 6.77538 10.6221 6.83976 10.5903C6.90414 10.5585 6.97499 10.542 7.04679 10.542C7.1186 10.542 7.18945 10.5585 7.25383 10.5903C7.31821 10.6221 7.3744 10.6683 7.41804 10.7253L8.33471 11.972C8.37755 12.0272 8.43245 12.0719 8.49521 12.1026C8.55796 12.1333 8.62692 12.1493 8.69679 12.1493C8.76667 12.1493 8.83562 12.1333 8.89838 12.1026C8.96114 12.0719 9.01604 12.0272 9.05888 11.972L11.158 9.33199C11.201 9.27846 11.2554 9.23526 11.3173 9.20557C11.3792 9.17589 11.4469 9.16047 11.5155 9.16047C11.5842 9.16047 11.6519 9.17589 11.7138 9.20557C11.7757 9.23526 11.8301 9.27846 11.873 9.33199L15.3014 13.6128C15.3668 13.6966 15.4022 13.7999 15.4022 13.9062L15.4114 14.2087ZM19.9947 4.58366V17.417C19.9947 17.9032 19.8016 18.3695 19.4577 18.7134C19.1139 19.0572 18.6476 19.2503 18.1614 19.2503H5.32804C5.32804 19.4911 5.37546 19.7295 5.4676 19.9519C5.55973 20.1743 5.69477 20.3764 5.86502 20.5467C6.03526 20.7169 6.23736 20.852 6.45979 20.9441C6.68222 21.0362 6.92062 21.0837 7.16138 21.0837H18.1614C19.1338 21.0837 20.0665 20.6974 20.7541 20.0097C21.4417 19.3221 21.828 18.3895 21.828 17.417V6.41699C21.828 6.17624 21.7806 5.93784 21.6885 5.71541C21.5964 5.49298 21.4613 5.29087 21.2911 5.12063C21.1208 4.95039 20.9187 4.81535 20.6963 4.72321C20.4739 4.63108 20.2355 4.58366 19.9947 4.58366Z" fill="black" fill-opacity="0.7"/>
</svg>
