<svg width="16" height="20" viewBox="0 0 16 20" fill="none" xmlns="http://www.w3.org/2000/svg">
<path d="M7.85714 0C3.525 0 0 3.525 0 7.85714C0 12.0393 7.04071 19.465 7.34 19.7786C7.475 19.9207 7.66214 20 7.85714 20C7.86214 20 7.86786 20 7.87286 20C8.07357 20 8.26286 19.9064 8.395 19.7557L10.8329 16.9629C14.0721 12.995 15.7143 9.93143 15.7143 7.85714C15.7143 3.525 12.1893 0 7.85714 0ZM7.85714 11.4286C5.88429 11.4286 4.28571 9.83 4.28571 7.85714C4.28571 5.88429 5.88429 4.28571 7.85714 4.28571C9.83 4.28571 11.4286 5.88429 11.4286 7.85714C11.4286 9.83 9.83 11.4286 7.85714 11.4286Z" fill="#2C2D2E"/>
</svg>
