<svg width="24" height="24" viewBox="0 0 24 24" fill="none" xmlns="http://www.w3.org/2000/svg">
<path d="M18.4378 4.75601H15.8125V5.63401C15.8125 6.60001 15.025 7.39001 14.0623 7.39001H9.68772C8.725 7.39001 7.9375 6.60001 7.9375 5.63401V4.75601H5.31217C4.56897 4.75601 4 5.32601 4 6.07301V19.683C4 20.429 4.56897 21 5.31217 21H18.4378C19.181 21 19.75 20.43 19.75 19.683V6.07301C19.75 5.32701 19.181 4.75601 18.4378 4.75601ZM16.2939 16.434H7.45516C7.19233 16.434 7.01809 16.259 7.01809 15.995C7.01809 15.732 7.19233 15.556 7.45516 15.556H16.2929C16.5557 15.556 16.7299 15.732 16.7299 15.996C16.7299 16.259 16.5557 16.434 16.2929 16.434H16.2939ZM16.2939 11.429H7.45516C7.19233 11.429 7.01809 11.254 7.01809 10.99C7.01809 10.727 7.19233 10.551 7.45516 10.551H16.2929C16.5557 10.551 16.7299 10.727 16.7299 10.991C16.7299 11.254 16.5557 11.429 16.2929 11.429H16.2939ZM9.68772 6.51201H14.0623C14.2929 6.51308 14.5146 6.4213 14.6788 6.25675C14.8429 6.09221 14.9363 5.86829 14.9384 5.63401V3.87801C14.9384 3.39501 14.5446 3.00001 14.0623 3.00001H9.68772C9.45709 2.99894 9.23543 3.09072 9.07124 3.25527C8.90705 3.41981 8.81371 3.64372 8.81163 3.87801V5.63401C8.81163 6.11701 9.20538 6.51201 9.68772 6.51201Z" fill="black" fill-opacity="0.7"/>
</svg>
