<svg width="24" height="24" viewBox="0 0 24 24" fill="none" xmlns="http://www.w3.org/2000/svg">
<path d="M10.9505 19.6911V15.2374C10.9505 13.8045 12.0855 12.6429 13.4855 12.6429H15.7592C16.9909 11.1321 17.1831 9.17143 17.1831 7.51029C17.1831 5.44929 16.3232 3 12.2274 3H12.0603C7.96516 3 7.13922 5.44929 7.13922 7.51029C7.13922 10.2366 7.80939 12.3356 9.69367 13.6194V14.0115C7.80939 14.3291 4 15.3261 4 17.2926C4 20.5648 8.79048 20.9454 11.3016 20.9891C11.0843 20.6059 10.9505 20.1662 10.9505 19.6911ZM19.1157 13.9286H14.091C13.0502 13.9286 12.2067 14.7919 12.2067 15.8571V19.0714C12.2067 20.1366 13.0502 21 14.091 21H19.1157C20.1565 21 21 20.1366 21 19.0714V15.8571C21 14.7919 20.1565 13.9286 19.1157 13.9286ZM16.5952 19.0714H15.339C14.9917 19.0714 14.7109 18.7841 14.7109 18.4286C14.7109 18.0731 14.9917 17.7857 15.339 17.7857H16.5952C16.9425 17.7857 17.2233 18.0731 17.2233 18.4286C17.2233 18.7841 16.9425 19.0714 16.5952 19.0714ZM17.8514 17.1429H15.339C14.9917 17.1429 14.7109 16.8555 14.7109 16.5C14.7109 16.1445 14.9917 15.8571 15.339 15.8571H17.8514C18.1987 15.8571 18.4795 16.1445 18.4795 16.5C18.4795 16.8555 18.1987 17.1429 17.8514 17.1429Z" fill="black" fill-opacity="0.7"/>
</svg>
