<svg width="18" height="18" viewBox="0 0 18 18" fill="none" xmlns="http://www.w3.org/2000/svg">
<path d="M12 12C12.6652 12.0001 13.3114 12.2211 13.8373 12.6284C14.3632 13.0356 14.739 13.606 14.9055 14.25H17.25C17.4489 14.25 17.6397 14.329 17.7803 14.4697C17.921 14.6103 18 14.8011 18 15C18 15.1989 17.921 15.3897 17.7803 15.5303C17.6397 15.671 17.4489 15.75 17.25 15.75H14.9055C14.7387 16.3937 14.3628 16.9637 13.8369 17.3707C13.3111 17.7777 12.6649 17.9985 12 17.9985C11.3351 17.9985 10.6889 17.7777 10.1631 17.3707C9.63718 16.9637 9.26133 16.3937 9.0945 15.75H0.75C0.551088 15.75 0.360322 15.671 0.21967 15.5303C0.0790178 15.3897 0 15.1989 0 15C0 14.8011 0.0790178 14.6103 0.21967 14.4697C0.360322 14.329 0.551088 14.25 0.75 14.25H9.0945C9.4275 12.9563 10.602 12 12 12ZM5.25 6C5.91515 6.00009 6.56143 6.22112 7.08734 6.62837C7.61324 7.03563 7.98896 7.60603 8.1555 8.25H17.25C17.4489 8.25 17.6397 8.32902 17.7803 8.46967C17.921 8.61032 18 8.80109 18 9C18 9.19891 17.921 9.38968 17.7803 9.53033C17.6397 9.67098 17.4489 9.75 17.25 9.75H8.1555C7.98867 10.3937 7.61282 10.9637 7.08695 11.3707C6.56107 11.7777 5.91495 11.9985 5.25 11.9985C4.58505 11.9985 3.93893 11.7777 3.41305 11.3707C2.88718 10.9637 2.51133 10.3937 2.3445 9.75H0.75C0.551088 9.75 0.360322 9.67098 0.21967 9.53033C0.0790178 9.38968 0 9.19891 0 9C0 8.80109 0.0790178 8.61032 0.21967 8.46967C0.360322 8.32902 0.551088 8.25 0.75 8.25H2.3445C2.6775 6.95625 3.852 6 5.25 6ZM12.75 0C13.4152 8.84608e-05 14.0614 0.221118 14.5873 0.628372C15.1132 1.03563 15.489 1.60603 15.6555 2.25H17.25C17.4489 2.25 17.6397 2.32902 17.7803 2.46967C17.921 2.61032 18 2.80109 18 3C18 3.19891 17.921 3.38968 17.7803 3.53033C17.6397 3.67098 17.4489 3.75 17.25 3.75H15.6555C15.4887 4.39368 15.1128 4.96374 14.5869 5.3707C14.0611 5.77765 13.4149 5.99846 12.75 5.99846C12.0851 5.99846 11.4389 5.77765 10.9131 5.3707C10.3872 4.96374 10.0113 4.39368 9.8445 3.75H0.75C0.551088 3.75 0.360322 3.67098 0.21967 3.53033C0.0790178 3.38968 0 3.19891 0 3C0 2.80109 0.0790178 2.61032 0.21967 2.46967C0.360322 2.32902 0.551088 2.25 0.75 2.25H9.8445C10.1775 0.95625 11.352 0 12.75 0Z" fill="#2C2D2E"/>
</svg>
