<svg width="239" height="165" viewBox="0 0 239 165" fill="none" xmlns="http://www.w3.org/2000/svg">
<g filter="url(#filter0_d_833_18186)">
<rect x="78" y="42.2246" width="82" height="82" rx="41" fill="#32B768"/>
</g>
<path d="M106.472 83.7936L115.204 92.3353L132.667 75.252" stroke="white" stroke-width="6" stroke-linecap="round" stroke-linejoin="round"/>
<path d="M72.3793 44.7284L74.0726 43.8041C74.3828 43.6349 74.3352 43.1791 73.9995 43.0758L72.1569 42.5093L71.7982 40.6114C71.7329 40.265 71.2827 40.1686 71.0825 40.4571L69.975 42.0354L68.0636 41.7925C67.7171 41.7473 67.485 42.1461 67.6954 42.425L68.8469 43.9653L68.0212 45.7077C67.8692 46.0242 68.1753 46.3681 68.5087 46.2538L70.3363 45.6286L71.7387 46.9513C71.9943 47.1922 72.4142 47.0086 72.4082 46.6553L72.3793 44.7284Z" fill="#FBCD83" fill-opacity="0.2"/>
<path d="M50.2372 67.2019L54.7394 70.3779C55.5638 70.9599 56.672 70.2636 56.5141 69.2731L55.6448 63.8365L60.0578 60.5263C60.8634 59.9226 60.5434 58.6473 59.5518 58.4976L54.1112 57.647L52.3259 52.4419C52.0054 51.4969 50.6909 51.4042 50.2408 52.2949L47.7435 57.1865L42.2374 57.2651C41.2346 57.2741 40.7387 58.4918 41.4516 59.2026L45.3563 63.0995L43.7325 68.3603C43.4371 69.3188 44.4367 70.1637 45.3347 69.7032L50.2372 67.2019Z" fill="#FBCD83" fill-opacity="0.6"/>
<path d="M33.5079 42.1253L39.5227 40.0829C40.6245 39.7092 40.7272 38.2038 39.6968 37.679L34.0391 34.8013L33.947 28.442C33.9307 27.2815 32.5248 26.7148 31.7126 27.5376L27.2289 32.0322L21.1657 30.1654C20.0673 29.8232 19.0891 30.9856 19.6142 32.0094L22.48 37.6558L18.8181 42.8418C18.1462 43.7827 18.945 45.071 20.0912 44.8887L26.3726 43.8923L30.1751 48.9747C30.8683 49.9003 32.334 49.5417 32.5138 48.3922L33.5079 42.1253Z" fill="#FBCD83"/>
<path d="M26.7434 76.8419L34.4243 74.2338C35.8313 73.7565 35.9626 71.8341 34.6466 71.164L27.4218 67.4892L27.3041 59.3683C27.2833 57.8863 25.488 57.1626 24.4508 58.2134L18.7251 63.953L10.9823 61.5691C9.57961 61.132 8.33051 62.6165 9.00098 63.9238L12.6606 71.1343L7.98435 77.757C7.12634 78.9585 8.1464 80.6037 9.61011 80.3708L17.6316 79.0984L22.4874 85.5887C23.3726 86.7707 25.2443 86.3128 25.474 84.8448L26.7434 76.8419Z" fill="#FFC362"/>
<path opacity="0.2" d="M209.965 81.0155L209.23 79.6215C206.617 74.6844 204.893 71.4198 205.925 68.5714C206.77 66.2368 209.258 65.078 211.585 65.9205C212.899 66.3965 213.939 67.4653 214.416 68.723C215.586 68.0617 217.07 67.9065 218.384 68.3825C220.711 69.225 221.881 71.7079 221.035 74.0424C220.004 76.8908 216.59 78.2953 211.421 80.4148L209.965 81.0155Z" fill="#FF7AD5"/>
<path opacity="0.15" d="M193.607 89.1547L192.74 88.7622C189.664 87.3765 187.632 86.4586 187.068 84.718C186.606 83.2914 187.363 81.8167 188.785 81.3559C189.588 81.0956 190.48 81.2197 191.173 81.643C191.487 80.8936 192.136 80.2698 192.94 80.0095C194.362 79.5487 195.84 80.2994 196.302 81.726C196.866 83.4666 195.758 85.4018 194.079 88.3283L193.607 89.1547Z" fill="#FF7AD5"/>
<path opacity="0.4" d="M194.331 62.6071L192.792 62.2711C187.332 61.0905 183.724 60.3062 182.21 57.6828C180.968 55.5325 181.684 52.8832 183.827 51.6458C185.038 50.9467 186.526 50.8394 187.794 51.2853C188.043 49.9636 188.879 48.729 190.09 48.0299C192.233 46.7925 194.886 47.4973 196.127 49.6475C197.642 52.271 196.517 55.7872 194.81 61.106L194.331 62.6071Z" fill="#FF7AD5"/>
<path opacity="0.6" d="M210.355 48.0118L210.918 45.4326C212.896 36.2844 214.21 30.2402 218.605 27.7024C222.208 25.6223 226.647 26.8216 228.72 30.4127C229.892 32.4414 230.071 34.9338 229.324 37.0596C231.539 37.4755 233.608 38.8774 234.779 40.9061C236.852 44.4972 235.671 48.9411 232.069 51.0212C227.673 53.559 221.781 51.6748 212.87 48.8139L210.355 48.0118Z" fill="#FF7AD5"/>
<g opacity="0.5">
<path d="M122.142 10.1192L122.142 3.37309C122.142 2.4785 121.838 1.62056 121.296 0.98799C120.754 0.355425 120.02 5.13129e-05 119.254 5.1246e-05C118.488 5.1179e-05 117.754 0.355424 117.212 0.98799C116.671 1.62056 116.366 2.4785 116.366 3.37309L116.366 10.1192C116.366 11.0137 116.671 11.8717 117.212 12.5042C117.754 13.1368 118.488 13.4922 119.254 13.4922C120.02 13.4922 120.754 13.1368 121.296 12.5042C121.838 11.8717 122.142 11.0137 122.142 10.1192Z" fill="#007BE0"/>
<path d="M104.239 15.1422L99.469 10.3721C98.8364 9.73949 98.0146 9.34796 97.1844 9.28361C96.3542 9.21926 95.5835 9.48734 95.042 10.0289C94.5004 10.5705 94.2323 11.3411 94.2967 12.1713C94.361 13.0016 94.7525 13.8234 95.3851 14.4559L100.155 19.2261C100.788 19.8587 101.61 20.2502 102.44 20.3146C103.27 20.3789 104.041 20.1108 104.582 19.5693C105.124 19.0277 105.392 18.2571 105.328 17.4268C105.263 16.5966 104.872 15.7748 104.239 15.1422Z" fill="#007BE0"/>
<path d="M139.04 10.3724L134.27 15.1426C133.637 15.7752 133.245 16.5969 133.181 17.4272C133.117 18.2574 133.385 19.0281 133.926 19.5696C134.468 20.1112 135.239 20.3793 136.069 20.3149C136.899 20.2506 137.721 19.859 138.353 19.2265L143.124 14.4563C143.756 13.8237 144.148 13.0019 144.212 12.1717C144.276 11.3415 144.008 10.5708 143.467 10.0292C142.925 9.48768 142.155 9.2196 141.324 9.28395C140.494 9.34831 139.672 9.73983 139.04 10.3724Z" fill="#007BE0"/>
</g>
<defs>
<filter id="filter0_d_833_18186" x="48" y="22.2246" width="142" height="142" filterUnits="userSpaceOnUse" color-interpolation-filters="sRGB">
<feFlood flood-opacity="0" result="BackgroundImageFix"/>
<feColorMatrix in="SourceAlpha" type="matrix" values="0 0 0 0 0 0 0 0 0 0 0 0 0 0 0 0 0 0 127 0" result="hardAlpha"/>
<feOffset dy="10"/>
<feGaussianBlur stdDeviation="15"/>
<feColorMatrix type="matrix" values="0 0 0 0 0.25098 0 0 0 0 0.74902 0 0 0 0 1 0 0 0 0.24 0"/>
<feBlend mode="normal" in2="BackgroundImageFix" result="effect1_dropShadow_833_18186"/>
<feBlend mode="normal" in="SourceGraphic" in2="effect1_dropShadow_833_18186" result="shape"/>
</filter>
</defs>
</svg>
