<svg width="20" height="20" viewBox="0 0 20 20" fill="none" xmlns="http://www.w3.org/2000/svg">
<path d="M10.0012 3.74977C11.112 3.74999 12.2026 4.04625 13.1609 4.60805C14.1192 5.16986 14.9104 5.97689 15.4531 6.94608C15.9958 7.91528 16.2705 9.0116 16.2487 10.1222C16.2269 11.2328 15.9096 12.3175 15.3293 13.2647C14.749 14.2119 13.9268 14.9873 12.9473 15.5112C11.9678 16.035 10.8663 16.2883 9.75636 16.245C8.6464 16.2017 7.56803 15.8634 6.63226 15.2649C5.6965 14.6664 4.93716 13.8293 4.43241 12.8398C4.35682 12.6922 4.22573 12.5808 4.06796 12.5299C3.9102 12.479 3.73868 12.4929 3.59116 12.5685C3.44363 12.6441 3.33217 12.7752 3.2813 12.933C3.23043 13.0907 3.24432 13.2622 3.31991 13.4098C4.04488 14.8301 5.20369 15.9823 6.62807 16.6993C8.05246 17.4162 9.66828 17.6605 11.2409 17.3966C12.8136 17.1328 14.2612 16.3746 15.3736 15.232C16.4861 14.0895 17.2054 12.6221 17.4271 11.043C17.6489 9.46384 17.3615 7.85512 16.6068 6.45039C15.8521 5.04566 14.6693 3.91804 13.2301 3.23125C11.791 2.54446 10.1704 2.33425 8.60363 2.63114C7.03688 2.92803 5.60553 3.71657 4.51741 4.88227L3.56741 3.93227C3.47993 3.84506 3.36858 3.78573 3.2474 3.76177C3.12623 3.73781 3.00067 3.75029 2.88659 3.79764C2.77251 3.84498 2.67501 3.92507 2.60641 4.02779C2.53781 4.13051 2.50118 4.25125 2.50116 4.37477V6.87477C2.50083 6.95694 2.51677 7.03836 2.54806 7.11434C2.57935 7.19031 2.62538 7.25934 2.68348 7.31745C2.74158 7.37555 2.81061 7.42157 2.88659 7.45287C2.96257 7.48416 3.04399 7.5001 3.12616 7.49977H5.62616C5.75047 7.50121 5.87238 7.4654 5.97616 7.39695C6.07994 7.32849 6.16085 7.23053 6.20846 7.11568C6.25607 7.00083 6.26819 6.87436 6.24328 6.75255C6.21836 6.63075 6.15754 6.5192 6.06866 6.43227L5.40241 5.76602C5.98759 5.12987 6.6985 4.62219 7.49012 4.27512C8.28173 3.92805 9.1368 3.74915 10.0012 3.74977Z" fill="white"/>
</svg>
