<svg width="24" height="24" viewBox="0 0 24 24" fill="none" xmlns="http://www.w3.org/2000/svg">
<path d="M21 12C20.7348 12 20.4804 12.1054 20.2929 12.2929C20.1054 12.4804 20 12.7348 20 13V19C20 19.2652 19.8946 19.5196 19.7071 19.7071C19.5196 19.8946 19.2652 20 19 20H5C4.73478 20 4.48043 19.8946 4.29289 19.7071C4.10536 19.5196 4 19.2652 4 19V13C4 12.7348 3.89464 12.4804 3.70711 12.2929C3.51957 12.1054 3.26522 12 3 12C2.73478 12 2.48043 12.1054 2.29289 12.2929C2.10536 12.4804 2 12.7348 2 13V19C2 19.7956 2.31607 20.5587 2.87868 21.1213C3.44129 21.6839 4.20435 22 5 22H19C19.7956 22 20.5587 21.6839 21.1213 21.1213C21.6839 20.5587 22 19.7956 22 19V13C22 12.8687 21.9741 12.7386 21.9239 12.6173C21.8736 12.496 21.8 12.3858 21.7071 12.2929C21.6142 12.2 21.504 12.1264 21.3827 12.0761C21.2614 12.0259 21.1313 12 21 12Z" fill="black"/>
<path d="M11.0002 12.595L8.71019 10.295C8.61695 10.2017 8.50626 10.1278 8.38443 10.0773C8.26261 10.0269 8.13204 10.0009 8.00019 10.0009C7.86833 10.0009 7.73776 10.0269 7.61594 10.0773C7.49411 10.1278 7.38342 10.2017 7.29019 10.295C7.19695 10.3882 7.12299 10.4989 7.07253 10.6207C7.02207 10.7426 6.99609 10.8731 6.99609 11.005C6.99609 11.1368 7.02207 11.2674 7.07253 11.3892C7.12299 11.5111 7.19695 11.6217 7.29019 11.715L11.2902 15.715C11.3853 15.806 11.4974 15.8774 11.6202 15.925C11.8636 16.025 12.1367 16.025 12.3802 15.925C12.5029 15.8774 12.6151 15.806 12.7102 15.715L16.7102 11.715C16.8039 11.622 16.8783 11.5114 16.9291 11.3896C16.9798 11.2677 17.006 11.137 17.006 11.005C17.006 10.873 16.9798 10.7423 16.9291 10.6204C16.8783 10.4986 16.8039 10.3879 16.7102 10.295C16.6172 10.2013 16.5066 10.1269 16.3848 10.0761C16.2629 10.0253 16.1322 9.99919 16.0002 9.99919C15.8682 9.99919 15.7375 10.0253 15.6156 10.0761C15.4937 10.1269 15.3831 10.2013 15.2902 10.295L13.0002 12.595V3.00499C13.0002 2.73977 12.8948 2.48542 12.7073 2.29788C12.5198 2.11034 12.2654 2.00499 12.0002 2.00499C11.735 2.00499 11.4806 2.11034 11.2931 2.29788C11.1055 2.48542 11.0002 2.73977 11.0002 3.00499V12.595Z" fill="black"/>
</svg>
