<svg width="21" height="21" viewBox="0 0 21 21" fill="none" xmlns="http://www.w3.org/2000/svg">
<path d="M4.34509 14.7506C1.44031 11.8459 1.44031 7.13628 4.34509 4.23153C7.24987 1.32677 11.9594 1.32675 14.8642 4.23153C17.769 7.1363 17.769 11.8459 14.8642 14.7506C11.9594 17.6555 7.24987 17.6555 4.34509 14.7506ZM13.6267 5.46904C11.4053 3.24775 7.80391 3.24775 5.58262 5.46904C3.36132 7.69038 3.36132 11.2918 5.58262 13.5131C7.80393 15.7344 11.4053 15.7344 13.6267 13.5131C15.848 11.2918 15.848 7.69038 13.6267 5.46904Z" fill="#AAAAAA"/>
<path d="M4.34509 14.7506C1.44031 11.8459 1.44031 7.13628 4.34509 4.23153C7.24987 1.32677 11.9594 1.32675 14.8642 4.23153C17.769 7.1363 17.769 11.8459 14.8642 14.7506C11.9594 17.6555 7.24987 17.6555 4.34509 14.7506ZM13.6267 5.46904C11.4053 3.24775 7.80391 3.24775 5.58262 5.46904C3.36132 7.69038 3.36132 11.2918 5.58262 13.5131C7.80393 15.7344 11.4053 15.7344 13.6267 13.5131C15.848 11.2918 15.848 7.69038 13.6267 5.46904Z" stroke="#EDEDED" stroke-width="0.6"/>
<path d="M16.9938 18.1177C17.3356 18.4595 17.8896 18.4595 18.2314 18.1177C18.5731 17.776 18.5731 17.2218 18.2314 16.8802L16.9938 15.6426C16.6521 15.3009 16.0981 15.3009 15.7563 15.6426C15.4146 15.9843 15.4146 16.5384 15.7563 16.8802L16.9938 18.1177Z" fill="#AAAAAA"/>
</svg>
