<svg width="288" height="267" viewBox="0 0 288 267" fill="none" xmlns="http://www.w3.org/2000/svg">
<path d="M144 266.01C223.087 266.01 287.2 232.618 287.2 191.427C287.2 150.236 223.087 116.844 144 116.844C64.9129 116.844 0.800049 150.236 0.800049 191.427C0.800049 232.618 64.9129 266.01 144 266.01Z" fill="url(#paint0_linear_1483_22111)"/>
<path d="M59.512 157.417C61.621 157.417 63.3307 156.882 63.3307 156.223C63.3307 155.564 61.621 155.03 59.512 155.03C57.403 155.03 55.6934 155.564 55.6934 156.223C55.6934 156.882 57.403 157.417 59.512 157.417Z" fill="#CCDCF6"/>
<path d="M55.4576 155.756C55.9776 147.072 58.1561 142.046 61.993 140.678C63.5036 140.476 65.1872 140.173 64.0133 142.131C62.8394 144.088 59.6959 143.326 56.5525 155.751C56.2682 156.282 55.9032 156.284 55.4576 155.756Z" fill="url(#paint1_linear_1483_22111)"/>
<path d="M55.3859 155.647C54.3651 147.537 53.5295 142.436 52.8793 140.345C51.904 137.209 49.8274 131.174 54.1493 133.457C58.4713 135.741 58.9823 147.453 56.9845 154.58C56.3635 156.384 55.8307 156.74 55.3859 155.647Z" fill="url(#paint2_linear_1483_22111)"/>
<path d="M225.14 145.146C224.389 141.726 222.195 139.336 218.558 137.975C214.406 136.64 212.13 135.053 214.729 133.902C216.923 133.728 221.603 132.019 225.14 142.227C225.386 143.216 225.386 144.189 225.14 145.146Z" fill="url(#paint3_linear_1483_22111)"/>
<path d="M225.325 145.689C223.138 137.525 220.653 131.564 217.871 127.807C215.828 125.24 215.971 121.566 217.871 120.736C219.815 120.52 223.399 120.185 226.097 134.255C226.268 135.223 227.219 140.885 226.097 144.539C225.931 145.04 225.674 145.423 225.325 145.689Z" fill="url(#paint4_linear_1483_22111)"/>
<path d="M225.83 143.845C226.819 140.192 226.693 135.425 225.453 129.545C223.556 123.846 220.317 116.834 226.22 116.672C228.615 116.998 231.506 119.508 230.414 132.018C229.748 137.067 228.59 140.049 227.375 143.845C226.951 144.081 226.436 144.081 225.83 143.845Z" fill="url(#paint5_linear_1483_22111)"/>
<path d="M226.985 145.264C226.589 134.934 228.48 127.521 232.657 123.024C233.785 121.522 238.076 120.115 238.06 124.825C237.612 126.85 236.653 131.174 231.125 137.771C229.304 140.152 228.108 143.631 228.096 144.447C228.088 144.991 227.718 145.263 226.985 145.264Z" fill="url(#paint6_linear_1483_22111)"/>
<path d="M205.493 146.627C209.629 145.856 211.91 145.202 212.336 144.664C212.975 143.857 218.603 140.392 222.113 143.311C222.877 142.329 225.327 141.565 226.729 143.311C227.371 140.555 231.373 138.79 233.113 139.076C235.073 138.922 240.86 138.986 241.293 146.627C239.714 146.664 227.78 146.664 205.493 146.627Z" fill="url(#paint7_linear_1483_22111)"/>
<path opacity="0.3" d="M82.5091 138.535L173.401 135.458L236.489 169.051L161.303 215.331L82.5091 138.535Z" fill="url(#paint8_linear_1483_22111)"/>
<path d="M167.259 137.13H89.714C83.7757 137.13 78.9634 132.336 78.9634 126.42V20.7499C78.9634 14.8341 83.7757 10.04 89.714 10.04H167.259C173.198 10.04 178.01 14.8341 178.01 20.7499V126.42C178.01 132.336 173.198 137.13 167.259 137.13Z" fill="#4077D5"/>
<path d="M162.525 140.113H88.482C82.565 140.113 77.77 135.3 77.77 129.36V24.97C77.77 19.0303 82.565 14.2168 88.482 14.2168H162.525C168.442 14.2168 173.237 19.0303 173.237 24.97V129.363C173.237 135.3 168.442 140.113 162.525 140.113Z" fill="#5A90F6"/>
<path d="M161.579 126.987H90.6214C89.7846 126.987 89.1067 126.31 89.1067 125.475V24.0813C89.1067 23.2464 89.7846 22.5701 90.6214 22.5701H161.579C162.415 22.5701 163.093 23.2464 163.093 24.0813V125.475C163.09 126.31 162.412 126.987 161.579 126.987Z" fill="#FAFAFA"/>
<path d="M122.36 126.389C115.751 125.941 79.4001 123.183 56.8912 104.959C55.7784 104.056 56.2992 102.201 57.7258 102.071C92.6602 98.9078 88.4063 36.3838 88.6521 24.3954C88.6715 23.3788 89.3185 22.5701 90.3311 22.5701H160.87C161.769 22.5701 162.497 23.3009 162.497 24.2038L158.802 91.3464C158.666 91.7167 158.408 92.4345 158.152 92.7333L130.989 123.112C130.656 123.501 122.872 126.425 122.36 126.389Z" fill="white"/>
<path d="M132.404 103.094C136.458 103.349 148.536 103.443 158.917 91.7834C156.457 104.049 140.66 126.239 120.133 126.39C131.928 120.307 131.477 109.045 131.104 103.994C131.062 103.401 131.815 103.056 132.404 103.094Z" fill="url(#paint9_linear_1483_22111)"/>
<path d="M150.563 38.0835H106.41C105.422 38.0835 104.62 38.8849 104.62 39.8735C104.62 40.8621 105.422 41.6635 106.41 41.6635H150.563C151.552 41.6635 152.353 40.8621 152.353 39.8735C152.353 38.8849 151.552 38.0835 150.563 38.0835Z" fill="#DCDCDC"/>
<path d="M149.37 50.0168H105.217C104.228 50.0168 103.427 50.8183 103.427 51.8068C103.427 52.7954 104.228 53.5968 105.217 53.5968H149.37C150.359 53.5968 151.16 52.7954 151.16 51.8068C151.16 50.8183 150.359 50.0168 149.37 50.0168Z" fill="#DCDCDC"/>
<path d="M124.31 61.9502H104.023C103.035 61.9502 102.233 62.7516 102.233 63.7402C102.233 64.7288 103.035 65.5302 104.023 65.5302H124.31C125.299 65.5302 126.1 64.7288 126.1 63.7402C126.1 62.7516 125.299 61.9502 124.31 61.9502Z" fill="url(#paint10_linear_1483_22111)"/>
<path d="M133.26 63.7402C133.26 62.7516 132.459 61.9502 131.47 61.9502C130.481 61.9502 129.68 62.7516 129.68 63.7402C129.68 64.7288 130.481 65.5302 131.47 65.5302C132.459 65.5302 133.26 64.7288 133.26 63.7402Z" fill="url(#paint11_linear_1483_22111)"/>
<path d="M146.436 74.6552L102.309 73.1142C101.321 73.0797 100.492 73.8527 100.458 74.8407C100.423 75.8287 101.196 76.6576 102.184 76.6921L146.311 78.233C147.299 78.2675 148.128 77.4945 148.162 76.5065C148.197 75.5186 147.424 74.6897 146.436 74.6552Z" fill="#DCDCDC"/>
<path d="M142.878 87.3611L98.832 84.2811C97.8458 84.2122 96.9905 84.9557 96.9215 85.9419C96.8526 86.9281 97.5961 87.7834 98.5823 87.8524L142.628 90.9324C143.614 91.0014 144.47 90.2578 144.539 89.2716C144.608 88.2854 143.864 87.4301 142.878 87.3611Z" fill="#DCDCDC"/>
<path d="M114.933 98.5633L94.7972 96.0909C93.8159 95.9705 92.9228 96.6682 92.8024 97.6495C92.6819 98.6307 93.3797 99.5238 94.3609 99.6443L114.496 102.117C115.478 102.237 116.371 101.539 116.491 100.558C116.612 99.5769 115.914 98.6838 114.933 98.5633Z" fill="url(#paint12_linear_1483_22111)"/>
<path d="M123.598 101.431C123.718 100.45 123.02 99.5564 122.039 99.4359C121.058 99.3154 120.165 100.013 120.044 100.994C119.924 101.976 120.622 102.869 121.603 102.989C122.584 103.11 123.477 102.412 123.598 101.431Z" fill="#D8D8D8"/>
<path d="M142.807 14.2168H111.78V24.9568H142.807V14.2168Z" fill="url(#paint13_linear_1483_22111)"/>
<path d="M113.57 10.04H144.597L142.21 14.2167H111.183L113.57 10.04Z" fill="url(#paint14_linear_1483_22111)"/>
<path d="M127.89 0.493408C130.856 0.493408 133.26 2.89764 133.26 5.86341C133.26 8.82917 130.856 11.2334 127.89 11.2334C124.924 11.2334 122.52 8.82917 122.52 5.86341C122.52 2.89764 124.924 0.493408 127.89 0.493408ZM127.89 2.88007C126.242 2.88007 124.907 4.21576 124.907 5.86341C124.907 7.51106 126.242 8.84674 127.89 8.84674C129.538 8.84674 130.873 7.51106 130.873 5.86341C130.873 4.21576 129.538 2.88007 127.89 2.88007Z" fill="url(#paint15_linear_1483_22111)"/>
<path d="M128.798 85.4707C115.596 98.6501 115.596 120.018 128.798 133.197C140.663 145.042 159.152 146.242 172.359 136.797L189.059 153.468C191.327 155.732 195.001 155.732 197.269 153.468C199.532 151.209 199.536 147.542 197.276 145.279L197.269 145.272L180.508 128.539C189.647 115.385 188.347 97.1904 176.607 85.4707C163.405 72.2913 142 72.2913 128.798 85.4707ZM168.262 93.5345C176.789 102.062 176.781 115.896 168.243 124.433C159.705 132.971 145.872 132.979 137.344 124.452C128.817 115.925 128.826 102.091 137.363 93.5533C145.901 85.0156 159.735 85.0073 168.262 93.5345Z" fill="url(#paint16_linear_1483_22111)"/>
<path d="M131.665 84.4006C118.594 97.4712 118.594 118.663 131.665 131.733C143.34 143.409 161.495 144.655 174.554 135.473L192.552 153.471C194.812 155.73 198.475 155.73 200.735 153.471C202.994 151.211 202.994 147.548 200.735 145.288L182.737 127.289C191.919 114.231 190.673 96.0759 178.998 84.4006C165.927 71.33 144.735 71.33 131.665 84.4006ZM170.906 92.8735C179.433 101.401 179.425 115.235 170.887 123.772C162.35 132.31 148.516 132.318 139.989 123.791C131.461 115.264 131.47 101.43 140.007 92.8922C148.545 84.3546 162.379 84.3462 170.906 92.8735Z" fill="url(#paint17_linear_1483_22111)"/>
<path d="M155.759 147.543L155.539 148.885C156.328 149.169 157.119 149.685 157.911 150.433C158.388 151.015 158.358 151.199 158.269 151.538C158.21 151.764 156.507 151.211 153.162 149.879L154.249 146.534L155.759 147.543Z" fill="url(#paint18_linear_1483_22111)"/>
<path d="M159.669 148.842L159.686 150.202C160.512 150.345 161.38 150.716 162.29 151.315C162.861 151.805 162.863 151.992 162.835 152.341C162.816 152.574 161.043 152.325 157.517 151.594L158.006 148.111L159.669 148.842Z" fill="url(#paint19_linear_1483_22111)"/>
<path d="M156 122.305C159.283 123.072 161.434 124.043 162.453 125.218C163.337 126.205 163.173 127.758 162.724 129.274C162.425 130.285 160.204 136.752 156.062 148.674L152.946 147.559C154.964 139.138 156.211 134.386 156.686 133.304C157.399 131.681 157.141 128.385 156 127.002C155.239 126.08 154.022 124.695 152.349 122.845L156 122.305Z" fill="#304A9E"/>
<path d="M148.994 124.072C148.325 126.961 148.583 128.997 149.767 130.179C150.909 130.314 153.039 130.483 156.158 130.684C156.277 136.786 156.429 141.026 156.612 143.405C156.796 145.784 156.998 147.844 157.218 149.583L160.394 149.413L161.162 131.345C161.147 128.559 160.61 126.623 159.549 125.538C158.488 124.452 157.333 123.804 156.085 123.593L148.994 124.072Z" fill="black"/>
<path fill-rule="evenodd" clip-rule="evenodd" d="M145.176 115.436L143.529 118.343C143.529 118.343 143.373 118.606 143.415 118.856C143.459 119.119 143.699 119.312 143.699 119.312L149.204 122.061L149.238 119.655L146.539 118.4L148.074 116.063L145.176 115.436Z" fill="#FEE0BC"/>
<path fill-rule="evenodd" clip-rule="evenodd" d="M165.509 115.436L167.154 118.343C167.154 118.343 167.309 118.606 167.267 118.856C167.224 119.119 166.984 119.312 166.984 119.312L161.5 122.191L161.451 119.655L164.147 118.4L162.615 116.063L165.509 115.436Z" fill="#FEE0BC"/>
<path d="M156.755 106.739H153.781V109.713H156.755V106.739Z" fill="url(#paint20_linear_1483_22111)"/>
<path d="M158.707 105.185C159.012 105.308 159.416 105.022 159.608 104.547C159.8 104.071 159.708 103.585 159.403 103.462C159.097 103.338 158.694 103.624 158.502 104.1C158.309 104.575 158.401 105.061 158.707 105.185Z" fill="#FEE0BC"/>
<path d="M151.612 105.178C151.309 105.307 150.901 105.029 150.7 104.556C150.5 104.084 150.583 103.597 150.886 103.468C151.19 103.339 151.598 103.618 151.799 104.09C151.999 104.562 151.916 105.05 151.612 105.178Z" fill="#FEE0BC"/>
<path d="M155.268 107.483C157.321 107.483 158.985 105.818 158.985 103.766C158.985 101.713 157.321 100.049 155.268 100.049C153.215 100.049 151.551 101.713 151.551 103.766C151.551 105.818 153.215 107.483 155.268 107.483Z" fill="url(#paint21_linear_1483_22111)"/>
<path d="M154.966 98.562C155.89 98.562 156.639 97.9795 156.639 97.2611C156.639 96.5426 155.89 95.9602 154.966 95.9602C154.042 95.9602 153.294 96.5426 153.294 97.2611C153.294 97.9795 154.042 98.562 154.966 98.562Z" fill="#483029"/>
<path fill-rule="evenodd" clip-rule="evenodd" d="M151.024 104.137C153.601 102.739 154.99 101.579 155.191 100.657C155.626 101.908 158.297 103.844 159.358 103.826C159.945 102.134 160.108 100.541 158.254 98.9871C156.401 97.4335 154.264 97.4247 151.923 98.9871C150.349 100.31 150.049 102.027 151.024 104.137Z" fill="#483029"/>
<path fill-rule="evenodd" clip-rule="evenodd" d="M153.766 108.294C153.964 108.508 154.439 109.02 155.191 109.828C156.218 108.75 156.732 108.211 156.732 108.211L159.691 108.863C159.691 108.863 160.503 109 160.998 109.491C162.367 110.848 164.637 113.485 164.637 113.485L166.229 115.254C165.833 115.732 165.374 116.155 164.864 116.509C164.065 117.058 162.988 117.48 162.988 117.48L161.738 116.281V124.669H149.002V116.167L148.262 117.08C148.262 117.08 147.167 116.866 146.215 116.395C145.583 116.068 144.991 115.665 144.453 115.197L148.206 110.576C148.439 110.334 148.686 110.105 148.945 109.891C149.18 109.704 149.427 109.532 149.684 109.377C149.998 109.242 150.321 109.127 150.65 109.035C151.81 108.714 153.766 108.294 153.766 108.294Z" fill="#FC9F42"/>
<path fill-rule="evenodd" clip-rule="evenodd" d="M161.904 124.917H148.778V116.973C148.778 116.572 149.107 116.247 149.514 116.247H161.168C161.575 116.247 161.904 116.572 161.904 116.973V124.917Z" fill="#483029"/>
<path fill-rule="evenodd" clip-rule="evenodd" d="M162.501 124.6H148.181V124.852C148.181 124.939 148.259 125.01 148.356 125.01H162.327C162.423 125.01 162.501 124.939 162.501 124.852V124.6Z" fill="#483029"/>
<defs>
<linearGradient id="paint0_linear_1483_22111" x1="144" y1="72.2642" x2="144" y2="182.552" gradientUnits="userSpaceOnUse">
<stop stop-color="#CFDFFA"/>
<stop offset="1" stop-color="#EAF0FC" stop-opacity="0"/>
</linearGradient>
<linearGradient id="paint1_linear_1483_22111" x1="59.9322" y1="142.326" x2="61.8903" y2="155.963" gradientUnits="userSpaceOnUse">
<stop stop-color="#BFD4FA"/>
<stop offset="1" stop-color="#5792F0"/>
</linearGradient>
<linearGradient id="paint2_linear_1483_22111" x1="54.8114" y1="135.634" x2="56.4067" y2="163.614" gradientUnits="userSpaceOnUse">
<stop stop-color="#BFD4FA"/>
<stop offset="1" stop-color="#5792F0"/>
</linearGradient>
<linearGradient id="paint3_linear_1483_22111" x1="219.475" y1="135.189" x2="222.203" y2="148.434" gradientUnits="userSpaceOnUse">
<stop stop-color="#BFD4FA"/>
<stop offset="1" stop-color="#5792F0"/>
</linearGradient>
<linearGradient id="paint4_linear_1483_22111" x1="221.514" y1="123.553" x2="223.987" y2="153.492" gradientUnits="userSpaceOnUse">
<stop stop-color="#BFD4FA"/>
<stop offset="1" stop-color="#5792F0"/>
</linearGradient>
<linearGradient id="paint5_linear_1483_22111" x1="226.747" y1="119.817" x2="228.638" y2="152.642" gradientUnits="userSpaceOnUse">
<stop stop-color="#BFD4FA"/>
<stop offset="1" stop-color="#5792F0"/>
</linearGradient>
<linearGradient id="paint6_linear_1483_22111" x1="232.497" y1="124.314" x2="235.18" y2="152.612" gradientUnits="userSpaceOnUse">
<stop stop-color="#BFD4FA"/>
<stop offset="1" stop-color="#5792F0"/>
</linearGradient>
<linearGradient id="paint7_linear_1483_22111" x1="223.393" y1="142.716" x2="227.717" y2="147.275" gradientUnits="userSpaceOnUse">
<stop stop-color="#BFD4FA"/>
<stop offset="1" stop-color="#213A8C"/>
</linearGradient>
<linearGradient id="paint8_linear_1483_22111" x1="10.1191" y1="28.6918" x2="201.679" y2="197.279" gradientUnits="userSpaceOnUse">
<stop stop-color="#5792F0"/>
<stop offset="1" stop-color="#BFD4FA" stop-opacity="0"/>
</linearGradient>
<linearGradient id="paint9_linear_1483_22111" x1="225.939" y1="88.4094" x2="173.769" y2="110.672" gradientUnits="userSpaceOnUse">
<stop stop-color="#5792F0"/>
<stop offset="1" stop-color="#BFD4FA"/>
</linearGradient>
<linearGradient id="paint10_linear_1483_22111" x1="154.548" y1="63.8514" x2="98.8203" y2="56.8147" gradientUnits="userSpaceOnUse">
<stop stop-color="#5792F0"/>
<stop offset="1" stop-color="#BFD4FA"/>
</linearGradient>
<linearGradient id="paint11_linear_1483_22111" x1="137.527" y1="68.6837" x2="129.038" y2="61.5374" gradientUnits="userSpaceOnUse">
<stop stop-color="#5792F0"/>
<stop offset="1" stop-color="#BFD4FA"/>
</linearGradient>
<linearGradient id="paint12_linear_1483_22111" x1="144.714" y1="104.135" x2="90.2587" y2="90.3597" gradientUnits="userSpaceOnUse">
<stop stop-color="#5792F0"/>
<stop offset="1" stop-color="#BFD4FA"/>
</linearGradient>
<linearGradient id="paint13_linear_1483_22111" x1="127.294" y1="14.992" x2="127.294" y2="24.6309" gradientUnits="userSpaceOnUse">
<stop stop-color="#91D3F8"/>
<stop offset="0.9944" stop-color="#5A91F7"/>
</linearGradient>
<linearGradient id="paint14_linear_1483_22111" x1="127.891" y1="10.3415" x2="127.891" y2="14.0899" gradientUnits="userSpaceOnUse">
<stop stop-color="#91D3F8"/>
<stop offset="0.9944" stop-color="#5A91F7"/>
</linearGradient>
<linearGradient id="paint15_linear_1483_22111" x1="135.082" y1="6.82124" x2="120.593" y2="-0.744813" gradientUnits="userSpaceOnUse">
<stop stop-color="#5792F0"/>
<stop offset="1" stop-color="#BFD4FA"/>
</linearGradient>
<linearGradient id="paint16_linear_1483_22111" x1="-13.7709" y1="273.237" x2="192.647" y2="77.8034" gradientUnits="userSpaceOnUse">
<stop stop-color="#213A8C"/>
<stop offset="1" stop-color="#BFD4FA"/>
</linearGradient>
<linearGradient id="paint17_linear_1483_22111" x1="162.145" y1="80.4131" x2="162.145" y2="152.72" gradientUnits="userSpaceOnUse">
<stop stop-color="#91D3F8"/>
<stop offset="0.9944" stop-color="#5A91F7"/>
</linearGradient>
<linearGradient id="paint18_linear_1483_22111" x1="158.489" y1="148.367" x2="154.246" y2="150.665" gradientUnits="userSpaceOnUse">
<stop stop-color="#BFD4FA"/>
<stop offset="1" stop-color="#5792F0"/>
</linearGradient>
<linearGradient id="paint19_linear_1483_22111" x1="162.501" y1="149.179" x2="158.721" y2="152.18" gradientUnits="userSpaceOnUse">
<stop stop-color="#BFD4FA"/>
<stop offset="1" stop-color="#5792F0"/>
</linearGradient>
<linearGradient id="paint20_linear_1483_22111" x1="155.268" y1="106.174" x2="155.268" y2="109.713" gradientUnits="userSpaceOnUse">
<stop stop-color="#FFCDA5"/>
<stop offset="1" stop-color="#FFE8D1"/>
</linearGradient>
<linearGradient id="paint21_linear_1483_22111" x1="155.268" y1="100.049" x2="155.268" y2="107.483" gradientUnits="userSpaceOnUse">
<stop stop-color="#FFF2DF"/>
<stop offset="1" stop-color="#FEE0BC"/>
</linearGradient>
</defs>
</svg>
