<svg width="108" height="108" viewBox="0 0 108 108" fill="none" xmlns="http://www.w3.org/2000/svg">
<g opacity="0.5">
<circle cx="54" cy="54" r="52" fill="black" stroke="white" stroke-width="4"/>
</g>
<path fill-rule="evenodd" clip-rule="evenodd" d="M58.3064 80.066V82.2624L58.3034 82.2616C58.3034 82.4918 58.3943 82.7126 58.556 82.8753C58.7177 83.0381 58.937 83.1296 59.1657 83.1296C59.3944 83.1296 59.6137 83.0381 59.7754 82.8753C59.9371 82.7126 60.0279 82.4918 60.0279 82.2616V80.0652L61.9174 81.1634C62.0153 81.2227 62.124 81.2617 62.2371 81.2782C62.3502 81.2947 62.4655 81.2883 62.5761 81.2595C62.6867 81.2307 62.7906 81.18 62.8816 81.1104C62.9725 81.0408 63.0488 80.9536 63.106 80.854C63.1631 80.7543 63.2 80.6443 63.2144 80.5301C63.2289 80.416 63.2206 80.3001 63.1901 80.1893C63.1595 80.0784 63.1074 79.9748 63.0367 79.8844C62.9659 79.794 62.878 79.7188 62.7781 79.663L60.8887 78.5648L62.7781 77.4666C62.8761 77.4097 62.9619 77.334 63.0308 77.2437C63.0997 77.1534 63.1502 77.0503 63.1796 76.9403C63.2089 76.8303 63.2164 76.7156 63.2017 76.6028C63.1869 76.4899 63.1503 76.381 63.0937 76.2824C63.0372 76.1838 62.962 76.0973 62.8723 76.028C62.7826 75.9586 62.6802 75.9078 62.5709 75.8783C62.3503 75.8187 62.1152 75.8497 61.9174 75.9646L60.0309 77.0643V74.868C60.0309 74.6378 59.9401 74.417 59.7784 74.2542C59.6167 74.0914 59.3974 74 59.1687 74C58.94 74 58.7207 74.0914 58.559 74.2542C58.3973 74.417 58.3064 74.6378 58.3064 74.868V77.0628L56.417 75.9646C56.2192 75.8497 55.9841 75.8187 55.7635 75.8783C55.5428 75.9378 55.3548 76.0832 55.2406 76.2824C55.1265 76.4816 55.0956 76.7182 55.1548 76.9403C55.214 77.1624 55.3584 77.3517 55.5563 77.4666L57.4465 78.5648L55.5563 79.663C55.3585 79.7779 55.2142 79.9671 55.1551 80.1892C55.096 80.4112 55.1269 80.6477 55.241 80.8468C55.3551 81.0459 55.5432 81.1912 55.7637 81.2507C55.9843 81.3102 56.2193 81.2791 56.417 81.1642L58.3064 80.066ZM48.2438 80.066V82.2624L48.237 82.2616C48.237 82.3756 48.2593 82.4884 48.3026 82.5938C48.346 82.6991 48.4095 82.7947 48.4895 82.8753C48.5696 82.9559 48.6647 83.0199 48.7693 83.0635C48.8739 83.1071 48.986 83.1296 49.0992 83.1296C49.2125 83.1296 49.3246 83.1071 49.4292 83.0635C49.5338 83.0199 49.6289 82.9559 49.7089 82.8753C49.789 82.7947 49.8525 82.6991 49.8958 82.5938C49.9392 82.4884 49.9615 82.3756 49.9615 82.2616V80.0652L51.8509 81.1634C51.9489 81.2227 52.0576 81.2617 52.1707 81.2782C52.2838 81.2947 52.399 81.2883 52.5097 81.2595C52.6203 81.2307 52.7241 81.18 52.8151 81.1104C52.9061 81.0408 52.9824 80.9536 53.0395 80.854C53.0967 80.7543 53.1335 80.6443 53.148 80.5301C53.1624 80.416 53.1541 80.3001 53.1236 80.1893C53.0931 80.0784 53.0409 79.9748 52.9702 79.8844C52.8995 79.794 52.8116 79.7188 52.7116 79.663L50.8222 78.5648L52.7116 77.4666C52.8133 77.412 52.9031 77.3373 52.9756 77.2471C53.0481 77.1568 53.1018 77.0529 53.1336 76.9413C53.1654 76.8298 53.1746 76.7129 53.1607 76.5977C53.1468 76.4825 53.1101 76.3713 53.0527 76.2707C52.9953 76.1701 52.9183 76.0821 52.8265 76.0119C52.7347 75.9418 52.6298 75.8909 52.518 75.8624C52.4063 75.8339 52.29 75.8282 52.176 75.8458C52.0621 75.8633 51.9528 75.9037 51.8547 75.9646L49.9675 77.0643V74.868C49.9675 74.6378 49.8766 74.417 49.7149 74.2542C49.5532 74.0914 49.3339 74 49.1052 74C48.8766 74 48.6572 74.0914 48.4955 74.2542C48.3338 74.417 48.243 74.6378 48.243 74.868V77.0628L46.3543 75.9646C46.1565 75.8497 45.9214 75.8187 45.7008 75.8783C45.4801 75.9378 45.2921 76.0832 45.1779 76.2824C45.0638 76.4816 45.0329 76.7182 45.0921 76.9403C45.1513 77.1624 45.2957 77.3517 45.4936 77.4666L47.383 78.5648L45.4936 79.663C45.2958 79.7779 45.1515 79.9671 45.0924 80.1892C45.0333 80.4112 45.0642 80.6477 45.1783 80.8468C45.2924 81.0459 45.4805 81.1912 45.701 81.2507C45.9216 81.3102 46.1566 81.2791 46.3543 81.1642L48.2438 80.066ZM38.1811 80.066V82.2624H38.1781C38.1781 82.4926 38.2689 82.7133 38.4306 82.8761C38.5923 83.0389 38.8116 83.1303 39.0403 83.1303C39.269 83.1303 39.4883 83.0389 39.65 82.8761C39.8117 82.7133 39.9025 82.4926 39.9025 82.2624V80.066L41.7927 81.1634C41.8907 81.2227 41.9994 81.2617 42.1125 81.2782C42.2256 81.2947 42.3408 81.2883 42.4515 81.2595C42.5621 81.2307 42.6659 81.18 42.7569 81.1104C42.8479 81.0408 42.9242 80.9536 42.9813 80.854C43.0385 80.7543 43.0753 80.6443 43.0898 80.5301C43.1042 80.416 43.0959 80.3001 43.0654 80.1893C43.0349 80.0784 42.9827 79.9748 42.912 79.8844C42.8413 79.794 42.7534 79.7188 42.6534 79.663L40.7633 78.5655L42.6534 77.4666C42.8513 77.3517 42.9957 77.1624 43.0549 76.9403C43.1141 76.7182 43.0832 76.4816 42.9691 76.2824C42.855 76.0832 42.6669 75.9378 42.4463 75.8783C42.2257 75.8187 41.9906 75.8497 41.7927 75.9646L39.9048 77.0643V74.868C39.9048 74.6378 39.8139 74.417 39.6522 74.2542C39.4905 74.0914 39.2712 74 39.0425 74C38.8139 74 38.5946 74.0914 38.4329 74.2542C38.2712 74.417 38.1803 74.6378 38.1803 74.868V77.0628L36.2916 75.9646C36.0938 75.8497 35.8587 75.8187 35.6381 75.8783C35.4174 75.9378 35.2294 76.0832 35.1152 76.2824C35.0011 76.4816 34.9702 76.7182 35.0294 76.9403C35.0886 77.1624 35.233 77.3517 35.4309 77.4666L37.3203 78.5648L35.4309 79.663C35.2331 79.7779 35.0888 79.9671 35.0297 80.1892C34.9706 80.4112 35.0015 80.6477 35.1156 80.8468C35.2298 81.0459 35.4178 81.1912 35.6383 81.2507C35.8589 81.3102 36.0939 81.2791 36.2916 81.1642L38.1811 80.066ZM68.1811 80.066V82.2624L68.1781 82.2616C68.1781 82.4918 68.2689 82.7126 68.4306 82.8753C68.5923 83.0381 68.8116 83.1296 69.0403 83.1296C69.269 83.1296 69.4883 83.0381 69.65 82.8753C69.8117 82.7126 69.9025 82.4918 69.9025 82.2616V80.0652L71.792 81.1634C71.8899 81.2227 71.9986 81.2617 72.1117 81.2782C72.2248 81.2947 72.3401 81.2883 72.4507 81.2595C72.5614 81.2307 72.6652 81.18 72.7562 81.1104C72.8471 81.0408 72.9234 80.9536 72.9806 80.854C73.0377 80.7543 73.0746 80.6443 73.089 80.5301C73.1035 80.416 73.0952 80.3001 73.0647 80.1893C73.0341 80.0784 72.982 79.9748 72.9113 79.8844C72.8405 79.794 72.7526 79.7188 72.6527 79.663L70.7633 78.5648L72.6527 77.4666C72.7507 77.4097 72.8365 77.334 72.9054 77.2437C72.9743 77.1534 73.0249 77.0503 73.0542 76.9403C73.0835 76.8303 73.091 76.7156 73.0763 76.6028C73.0615 76.4899 73.0249 76.381 72.9684 76.2824C72.9118 76.1838 72.8366 76.0973 72.7469 76.028C72.6572 75.9586 72.5548 75.9078 72.4455 75.8783C72.2249 75.8187 71.9898 75.8497 71.792 75.9646L69.9055 77.0643V74.868C69.9055 74.6378 69.8147 74.417 69.653 74.2542C69.4913 74.0914 69.272 74 69.0433 74C68.8146 74 68.5953 74.0914 68.4336 74.2542C68.2719 74.417 68.1811 74.6378 68.1811 74.868V77.0628L66.2916 75.9646C66.0938 75.8497 65.8587 75.8187 65.6381 75.8783C65.4174 75.9378 65.2294 76.0832 65.1152 76.2824C65.0011 76.4816 64.9702 76.7182 65.0294 76.9403C65.0886 77.1624 65.233 77.3517 65.4309 77.4666L67.3211 78.5648L65.4309 79.663C65.2331 79.7779 65.0888 79.9671 65.0297 80.1892C64.9706 80.4112 65.0015 80.6477 65.1156 80.8468C65.2298 81.0459 65.4178 81.1912 65.6383 81.2507C65.8589 81.3102 66.0939 81.2791 66.2916 81.1642L68.1811 80.066Z" fill="white"/>
<g clip-path="url(#clip0_833_17816)">
<path d="M64.5486 39.5957H62.8784V36.2826C62.8784 34.0859 61.9986 31.9792 60.4326 30.4259C58.8665 28.8726 56.7425 28 54.5277 28C52.313 28 50.189 28.8726 48.6229 30.4259C47.0568 31.9792 46.177 34.0859 46.177 36.2826V39.5957H44.5069C43.6218 39.5983 42.7737 39.9482 42.1479 40.5689C41.522 41.1897 41.1693 42.0309 41.1666 42.9087V59.474C41.1693 60.3519 41.522 61.193 42.1479 61.8138C42.7737 62.4345 43.6218 62.7844 44.5069 62.787H64.5486C65.4337 62.7844 66.2817 62.4345 66.9076 61.8138C67.5334 61.193 67.8862 60.3519 67.8888 59.474V42.9087C67.8862 42.0309 67.5334 41.1897 66.9076 40.5689C66.2817 39.9482 65.4337 39.5983 64.5486 39.5957ZM54.5277 54.5044C53.8671 54.5044 53.2213 54.3101 52.672 53.9461C52.1227 53.582 51.6945 53.0646 51.4417 52.4592C51.1889 51.8538 51.1228 51.1877 51.2516 50.545C51.3805 49.9023 51.6987 49.312 52.1658 48.8487C52.6329 48.3853 53.2281 48.0698 53.8761 47.942C54.524 47.8141 55.1957 47.8797 55.806 48.1305C56.4164 48.3813 56.938 48.8059 57.3051 49.3507C57.6721 49.8956 57.868 50.5361 57.868 51.1914C57.8654 52.0692 57.5126 52.9104 56.8868 53.5311C56.2609 54.1519 55.4128 54.5018 54.5277 54.5044ZM49.5173 39.5957V36.2826C49.5173 34.9646 50.0452 33.7006 50.9848 32.7686C51.9245 31.8366 53.1989 31.3131 54.5277 31.3131C55.8566 31.3131 57.131 31.8366 58.0706 32.7686C59.0103 33.7006 59.5382 34.9646 59.5382 36.2826V39.5957H49.5173Z" fill="white"/>
</g>
<defs>
<clipPath id="clip0_833_17816">
<rect width="37" height="34" fill="white" transform="translate(35 28)"/>
</clipPath>
</defs>
</svg>
