<svg width="48" height="48" viewBox="0 0 48 48" fill="none" xmlns="http://www.w3.org/2000/svg">
<g clip-path="url(#clip0_5179_34283)">
<path d="M24 48C24 48 44 41.113 44 20.452V3.652L24 0L4 3.652V20.452C4 40.904 24 48 24 48ZM8 6.988V20.452C8 29.197 12.22 35.062 16.619 38.872C18.8569 40.7977 21.346 42.4104 24.018 43.666C26.6813 42.438 29.1624 40.8484 31.391 38.942C35.77 35.172 40 29.312 40 20.453V6.988L24 4.066L8 6.988Z" fill="#FF7E20"/>
<path d="M21 11.973C21 10.332 22.332 9 24 9C24.791 8.99997 25.55 9.31233 26.1118 9.86911C26.6737 10.4259 26.9929 11.182 27 11.973V24.0285C26.999 24.4209 26.9206 24.8093 26.7691 25.1713C26.6177 25.5333 26.3962 25.8619 26.1175 26.1381C25.8388 26.4143 25.5082 26.6328 25.1448 26.781C24.7815 26.9291 24.3924 27.0041 24 27.0015C23.209 27.0015 22.45 26.6892 21.8882 26.1324C21.3263 25.5756 21.0071 24.8195 21 24.0285V11.973ZM24 36C24.3995 36.009 24.7968 35.9382 25.1685 35.7915C25.5403 35.6449 25.879 35.4255 26.1648 35.1462C26.4505 34.8669 26.6776 34.5333 26.8327 34.165C26.9878 33.7967 27.0677 33.4011 27.0678 33.0015C27.0679 32.6019 26.9882 32.2063 26.8333 31.8379C26.6784 31.4696 26.4515 31.1359 26.1658 30.8564C25.8802 30.5769 25.5416 30.3573 25.1699 30.2105C24.7983 30.0637 24.401 29.9927 24.0015 30.0015C23.2177 30.0188 22.4717 30.3423 21.9234 30.9028C21.3751 31.4632 21.068 32.216 21.0678 33C21.0676 33.7841 21.3744 34.537 21.9224 35.0977C22.4704 35.6584 23.2162 35.9823 24 36Z" fill="white"/>
</g>
<defs>
<clipPath id="clip0_5179_34283">
<rect width="48" height="48" fill="white"/>
</clipPath>
</defs>
</svg>
