<svg width="24" height="24" viewBox="0 0 24 24" fill="none" xmlns="http://www.w3.org/2000/svg">
<path d="M19.8834 12.3325C19.9364 11.8344 19.8834 4.22322 19.8834 4.22322C13.9924 4.47786 12.3043 2.01367 12.3043 2.01367C10.6804 4.37518 4.73887 4.22118 4.73887 4.22118C4.73887 4.22118 4.58484 7.30141 4.73887 12.8972C4.89289 18.493 12.3111 20.2384 12.3111 20.2384C20.2299 17.9154 19.8192 12.9357 19.8834 12.3325ZM11.6181 14.6426L7.87042 11.227L8.84584 10.433L10.8737 11.9731C10.8737 11.9731 13.6202 9.04685 16.3411 7.71209L16.7518 8.17413C16.7518 8.17413 13.1582 11.1517 11.6181 14.6426Z" fill="black" fill-opacity="0.7"/>
</svg>
