<svg width="18" height="22" viewBox="0 0 18 22" fill="none" xmlns="http://www.w3.org/2000/svg">
<path d="M14.2 5.3C13.85 4.95 13.25 4.9 12.85 5.25L12.8 5.3L9.8 8.3L9.75 8.35C9.4 8.75 9.45 9.35 9.8 9.7C10.15 10.05 10.75 10.1 11.15 9.75L11.2 9.7L14.2 6.7L14.25 6.65C14.6 6.25 14.6 5.65 14.2 5.3ZM7.5 8H5.5C4.95 8 4.5 8.45 4.5 9C4.5 9.55 4.9 9.95 5.45 10H7.5C8.05 10 8.5 9.55 8.5 9C8.5 8.45 8.1 8.05 7.55 8H7.5ZM12.5 12H5.5C4.95 12 4.5 12.45 4.5 13C4.5 13.55 4.9 13.95 5.45 14H12.5C13.05 14 13.5 13.55 13.5 13C13.5 12.45 13.1 12.05 12.55 12H12.5ZM15 0.5C16.65 0.5 18 1.85 18 3.5V18.5C18 20.15 16.65 21.5 15 21.5H3C1.35 21.5 0 20.15 0 18.5V3.5C0 1.85 1.35 0.5 3 0.5H15Z" fill="black" fill-opacity="0.7"/>
</svg>
