<svg width="24" height="24" viewBox="0 0 24 24" fill="none" xmlns="http://www.w3.org/2000/svg">
<g clip-path="url(#clip0_156_3768)">
<path d="M21.0595 10.5885C21.3393 10.7424 21.5722 10.9693 21.7333 11.245C21.8945 11.5207 21.978 11.8349 21.9748 12.1543C21.9703 12.8054 21.6097 13.4051 21.0344 13.7169L17.5306 15.615C17.3713 15.7007 17.1845 15.7195 17.0113 15.6675C16.8381 15.6154 16.6926 15.4966 16.607 15.3373C16.5213 15.178 16.5024 14.9912 16.5545 14.818C16.6066 14.6448 16.7253 14.4993 16.8846 14.4137L20.3891 12.5149C20.4554 12.4805 20.5108 12.4284 20.5494 12.3644C20.588 12.3004 20.6081 12.2271 20.6076 12.1524C20.609 12.0781 20.5899 12.0049 20.5523 11.9409C20.5148 11.8768 20.4603 11.8243 20.3949 11.7892L7.0437 4.45317C6.97381 4.41313 6.89351 4.39497 6.81318 4.40104C6.73286 4.40712 6.6562 4.43714 6.59312 4.48723C6.52823 4.53507 6.47908 4.60117 6.45195 4.67708C6.42481 4.75299 6.42092 4.83527 6.44078 4.9134L7.27768 8.42939C7.31928 8.60648 7.28918 8.79282 7.19393 8.9478C7.09868 9.10277 6.94602 9.21379 6.76924 9.25665C6.68229 9.27781 6.59203 9.28163 6.50361 9.26787C6.41519 9.25412 6.33034 9.22308 6.25393 9.17652C6.17752 9.12995 6.11103 9.06878 6.05828 8.9965C6.00552 8.92422 5.96753 8.84225 5.94648 8.75528L5.11023 5.23864C5.02742 4.90176 5.04555 4.54796 5.16236 4.2213C5.27917 3.89465 5.4895 3.60957 5.76715 3.40158C6.04042 3.18855 6.37042 3.06078 6.71591 3.03426C7.06139 3.00774 7.40703 3.08363 7.70962 3.25246L21.0595 10.5885ZM13.5075 16.243C13.8417 16.063 14.2563 16.1845 14.4337 16.5175C14.6118 16.8498 14.4871 17.265 14.1535 17.4456L7.63827 20.9758C7.33635 21.1432 6.99182 21.2181 6.64764 21.191C6.30346 21.1639 5.97487 21.0361 5.70287 20.8234C5.42838 20.615 5.2216 20.3301 5.1085 20.0045C4.9954 19.6789 4.98101 19.3272 5.06716 18.9935L6.79623 11.9936C6.83314 11.8448 6.91858 11.7125 7.03906 11.6176C7.15953 11.5227 7.30817 11.4707 7.46151 11.4697L14.9698 11.446C15.0594 11.4455 15.1482 11.4629 15.231 11.497C15.3139 11.531 15.3892 11.5812 15.4525 11.6446C15.5159 11.7079 15.5661 11.7832 15.6002 11.8661C15.6342 11.9489 15.6516 12.0377 15.6512 12.1273C15.6505 12.3092 15.5779 12.4834 15.4493 12.612C15.3207 12.7406 15.1465 12.8131 14.9647 12.8138L7.99437 12.8369L6.39514 19.3136C6.37426 19.391 6.37713 19.4729 6.40338 19.5486C6.42963 19.6244 6.47804 19.6905 6.54234 19.7384C6.60517 19.7885 6.68152 19.8186 6.76158 19.8249C6.84164 19.8312 6.92176 19.8134 6.99164 19.7738L13.5075 16.243Z" fill="#200E32"/>
</g>
<defs>
<clipPath id="clip0_156_3768">
<rect width="24" height="24" fill="white"/>
</clipPath>
</defs>
</svg>
