<svg width="24" height="24" viewBox="0 0 24 24" fill="none" xmlns="http://www.w3.org/2000/svg">
<path d="M12.0019 8.14742C9.87731 8.14742 8.14866 9.87607 8.14866 11.9994C8.14866 14.1239 9.87731 15.8526 12.0019 15.8526C12.4297 15.8514 12.7789 15.5022 12.7789 15.0743C12.7801 14.8665 12.699 14.6698 12.5514 14.5235C12.4051 14.376 12.2096 14.2948 12.0019 14.2948C10.7355 14.2948 9.70641 13.2658 9.70641 11.9994C9.70641 10.7342 10.7355 9.70517 12.0019 9.70517C13.267 9.70517 14.2961 10.7342 14.2961 11.9994C14.2973 12.4285 14.6465 12.7776 15.0743 12.7776H15.0756C15.2833 12.7776 15.4788 12.6965 15.6251 12.5502C15.7727 12.4027 15.8538 12.2072 15.8538 11.9994C15.8538 9.87607 14.1252 8.14742 12.0019 8.14742ZM12.0019 8.14742C9.87731 8.14742 8.14866 9.87607 8.14866 11.9994C8.14866 14.1239 9.87731 15.8526 12.0019 15.8526C12.4297 15.8514 12.7789 15.5022 12.7789 15.0743C12.7801 14.8665 12.699 14.6698 12.5514 14.5235C12.4051 14.376 12.2096 14.2948 12.0019 14.2948C10.7355 14.2948 9.70641 13.2658 9.70641 11.9994C9.70641 10.7342 10.7355 9.70517 12.0019 9.70517C13.267 9.70517 14.2961 10.7342 14.2961 11.9994C14.2973 12.4285 14.6465 12.7776 15.0743 12.7776H15.0756C15.2833 12.7776 15.4788 12.6965 15.6251 12.5502C15.7727 12.4027 15.8538 12.2072 15.8538 11.9994C15.8538 9.87607 14.1252 8.14742 12.0019 8.14742ZM12.0019 8.14742C9.87731 8.14742 8.14866 9.87607 8.14866 11.9994C8.14866 14.1239 9.87731 15.8526 12.0019 15.8526C12.4297 15.8514 12.7789 15.5022 12.7789 15.0743C12.7801 14.8665 12.699 14.6698 12.5514 14.5235C12.4051 14.376 12.2096 14.2948 12.0019 14.2948C10.7355 14.2948 9.70641 13.2658 9.70641 11.9994C9.70641 10.7342 10.7355 9.70517 12.0019 9.70517C13.267 9.70517 14.2961 10.7342 14.2961 11.9994C14.2973 12.4285 14.6465 12.7776 15.0743 12.7776H15.0756C15.2833 12.7776 15.4788 12.6965 15.6251 12.5502C15.7727 12.4027 15.8538 12.2072 15.8538 11.9994C15.8538 9.87607 14.1252 8.14742 12.0019 8.14742ZM12.0019 8.14742C9.87731 8.14742 8.14866 9.87607 8.14866 11.9994C8.14866 14.1239 9.87731 15.8526 12.0019 15.8526C12.4297 15.8514 12.7789 15.5022 12.7789 15.0743C12.7801 14.8665 12.699 14.6698 12.5514 14.5235C12.4051 14.376 12.2096 14.2948 12.0019 14.2948C10.7355 14.2948 9.70641 13.2658 9.70641 11.9994C9.70641 10.7342 10.7355 9.70517 12.0019 9.70517C13.267 9.70517 14.2961 10.7342 14.2961 11.9994C14.2973 12.4285 14.6465 12.7776 15.0743 12.7776H15.0756C15.2833 12.7776 15.4788 12.6965 15.6251 12.5502C15.7727 12.4027 15.8538 12.2072 15.8538 11.9994C15.8538 9.87607 14.1252 8.14742 12.0019 8.14742ZM12.0019 8.14742C9.87731 8.14742 8.14866 9.87607 8.14866 11.9994C8.14866 14.1239 9.87731 15.8526 12.0019 15.8526C12.4297 15.8514 12.7789 15.5022 12.7789 15.0743C12.7801 14.8665 12.699 14.6698 12.5514 14.5235C12.4051 14.376 12.2096 14.2948 12.0019 14.2948C10.7355 14.2948 9.70641 13.2658 9.70641 11.9994C9.70641 10.7342 10.7355 9.70517 12.0019 9.70517C13.267 9.70517 14.2961 10.7342 14.2961 11.9994C14.2973 12.4285 14.6465 12.7776 15.0743 12.7776H15.0756C15.2833 12.7776 15.4788 12.6965 15.6251 12.5502C15.7727 12.4027 15.8538 12.2072 15.8538 11.9994C15.8538 9.87607 14.1252 8.14742 12.0019 8.14742ZM12.0019 8.14742C9.87731 8.14742 8.14866 9.87607 8.14866 11.9994C8.14866 14.1239 9.87731 15.8526 12.0019 15.8526C12.4297 15.8514 12.7789 15.5022 12.7789 15.0743C12.7801 14.8665 12.699 14.6698 12.5514 14.5235C12.4051 14.376 12.2096 14.2948 12.0019 14.2948C10.7355 14.2948 9.70641 13.2658 9.70641 11.9994C9.70641 10.7342 10.7355 9.70517 12.0019 9.70517C13.267 9.70517 14.2961 10.7342 14.2961 11.9994C14.2973 12.4285 14.6465 12.7776 15.0743 12.7776H15.0756C15.2833 12.7776 15.4788 12.6965 15.6251 12.5502C15.7727 12.4027 15.8538 12.2072 15.8538 11.9994C15.8538 9.87607 14.1252 8.14742 12.0019 8.14742ZM21.4209 13.6739L20.3353 12.8711C20.1681 12.7481 20.0697 12.5514 20.0685 12.3449V11.6539C20.0697 11.4473 20.1681 11.2506 20.3341 11.1277L21.4197 10.3261C22.0111 9.88836 22.1758 9.08551 21.8033 8.45847L20.0648 5.52739C19.691 4.90281 18.93 4.64954 18.2562 4.9274L17.13 5.38846C16.9419 5.46591 16.7243 5.44993 16.5485 5.34542L15.635 4.80445C15.4604 4.70117 15.3448 4.52659 15.319 4.32618L15.1801 3.24915C15.0829 2.53605 14.4682 2 13.749 2H10.2548C9.53428 2 8.91954 2.53605 8.82364 3.25038L8.68348 4.32495C8.65889 4.52536 8.54332 4.69994 8.36996 4.80445L7.45523 5.34542C7.27941 5.44993 7.06179 5.46591 6.87368 5.38968L5.74748 4.92863C5.07372 4.65077 4.31267 4.90404 3.93768 5.52862L2.20042 8.45847C1.82543 9.0892 1.99018 9.89205 2.58156 10.3248L3.66842 11.1277C3.8344 11.2506 3.93399 11.4473 3.93399 11.6539V12.3449C3.93399 12.5514 3.8344 12.7481 3.66842 12.8711L2.58279 13.6739C1.99018 14.1079 1.82666 14.9108 2.20042 15.5415L3.93891 18.4726C4.31267 19.0972 5.07372 19.3492 5.74748 19.0726L6.87245 18.6115C6.95237 18.5784 7.03597 18.5624 7.12081 18.5624C7.23638 18.5624 7.35318 18.5931 7.45523 18.6533L8.36873 19.1943C8.54332 19.2988 8.65766 19.4734 8.68348 19.6738L8.82364 20.7496C8.91954 21.4652 9.5392 21.9975 10.2621 22H13.7477C14.4682 22 15.0829 21.4627 15.1801 20.7496L15.319 19.675C15.3448 19.4746 15.4592 19.2988 15.6337 19.1955L16.5485 18.6533C16.7231 18.5501 16.9407 18.5329 17.13 18.6103L18.255 19.0714C18.93 19.348 19.691 19.096 20.0648 18.4702L21.8033 15.5415C22.1758 14.912 22.0111 14.1104 21.4209 13.6739ZM20.2173 15.2538L19.0382 17.2271C18.871 17.5075 18.5304 17.6206 18.228 17.4976L17.3808 17.1534C16.921 16.9677 16.3923 17.0058 15.9657 17.2554L14.7252 17.987C14.3071 18.2316 14.0207 18.662 13.9592 19.139L13.8633 19.8718C13.8203 20.1963 13.5412 20.4422 13.2141 20.4422H10.7896C10.4613 20.4422 10.1822 20.1963 10.1404 19.8718L10.0433 19.139C9.98059 18.6558 9.70149 18.2353 9.27855 17.9857L8.03677 17.2554C7.61014 17.0058 7.08147 16.9677 6.62287 17.1534L5.77453 17.4976C5.47207 17.6218 5.13151 17.5075 4.9643 17.2271L3.78522 15.2538C3.61064 14.9612 3.68563 14.5899 3.96104 14.3883L4.75528 13.8055C5.15855 13.5092 5.39953 13.0358 5.39953 12.5391V11.4609C5.39953 10.9629 5.15855 10.4896 4.75528 10.1945L3.96104 9.6105C3.68563 9.41009 3.61064 9.03756 3.78522 8.74494L4.9643 6.77285C5.13274 6.49253 5.4733 6.37819 5.77453 6.50114L6.62287 6.84539C7.08147 7.03227 7.61014 6.99416 8.03677 6.74335L9.27855 6.0118C9.70026 5.76468 9.97936 5.34542 10.0433 4.85978L10.1404 4.12701C10.1822 3.80242 10.4613 3.55775 10.7896 3.55775H13.2141C13.5412 3.55775 13.8203 3.80242 13.8633 4.12824L13.9592 4.85978C14.0231 5.34542 14.3022 5.76591 14.7239 6.01303L15.9657 6.74335C16.3923 6.99416 16.921 7.03227 17.3796 6.84539L18.2292 6.50114C18.5304 6.37819 18.871 6.4913 19.0394 6.77285L20.2173 8.74617C20.3918 9.03756 20.3168 9.41009 20.0427 9.6105L19.2484 10.1933C18.8452 10.4896 18.6042 10.9629 18.6042 11.4609V12.5391C18.6042 13.0371 18.8452 13.5104 19.2484 13.8055L20.0427 14.3883C20.3168 14.5899 20.3918 14.9612 20.2173 15.2538ZM12.0019 8.14742C9.87731 8.14742 8.14866 9.87607 8.14866 11.9994C8.14866 14.1239 9.87731 15.8526 12.0019 15.8526C12.4297 15.8514 12.7789 15.5022 12.7789 15.0743C12.7801 14.8665 12.699 14.6698 12.5514 14.5235C12.4051 14.376 12.2096 14.2948 12.0019 14.2948C10.7355 14.2948 9.70641 13.2658 9.70641 11.9994C9.70641 10.7342 10.7355 9.70517 12.0019 9.70517C13.267 9.70517 14.2961 10.7342 14.2961 11.9994C14.2973 12.4285 14.6465 12.7776 15.0743 12.7776H15.0756C15.2833 12.7776 15.4788 12.6965 15.6251 12.5502C15.7727 12.4027 15.8538 12.2072 15.8538 11.9994C15.8538 9.87607 14.1252 8.14742 12.0019 8.14742ZM12.0019 8.14742C9.87731 8.14742 8.14866 9.87607 8.14866 11.9994C8.14866 14.1239 9.87731 15.8526 12.0019 15.8526C12.4297 15.8514 12.7789 15.5022 12.7789 15.0743C12.7801 14.8665 12.699 14.6698 12.5514 14.5235C12.4051 14.376 12.2096 14.2948 12.0019 14.2948C10.7355 14.2948 9.70641 13.2658 9.70641 11.9994C9.70641 10.7342 10.7355 9.70517 12.0019 9.70517C13.267 9.70517 14.2961 10.7342 14.2961 11.9994C14.2973 12.4285 14.6465 12.7776 15.0743 12.7776H15.0756C15.2833 12.7776 15.4788 12.6965 15.6251 12.5502C15.7727 12.4027 15.8538 12.2072 15.8538 11.9994C15.8538 9.87607 14.1252 8.14742 12.0019 8.14742ZM12.0019 8.14742C9.87731 8.14742 8.14866 9.87607 8.14866 11.9994C8.14866 14.1239 9.87731 15.8526 12.0019 15.8526C12.4297 15.8514 12.7789 15.5022 12.7789 15.0743C12.7801 14.8665 12.699 14.6698 12.5514 14.5235C12.4051 14.376 12.2096 14.2948 12.0019 14.2948C10.7355 14.2948 9.70641 13.2658 9.70641 11.9994C9.70641 10.7342 10.7355 9.70517 12.0019 9.70517C13.267 9.70517 14.2961 10.7342 14.2961 11.9994C14.2973 12.4285 14.6465 12.7776 15.0743 12.7776H15.0756C15.2833 12.7776 15.4788 12.6965 15.6251 12.5502C15.7727 12.4027 15.8538 12.2072 15.8538 11.9994C15.8538 9.87607 14.1252 8.14742 12.0019 8.14742ZM12.0019 8.14742C9.87731 8.14742 8.14866 9.87607 8.14866 11.9994C8.14866 14.1239 9.87731 15.8526 12.0019 15.8526C12.4297 15.8514 12.7789 15.5022 12.7789 15.0743C12.7801 14.8665 12.699 14.6698 12.5514 14.5235C12.4051 14.376 12.2096 14.2948 12.0019 14.2948C10.7355 14.2948 9.70641 13.2658 9.70641 11.9994C9.70641 10.7342 10.7355 9.70517 12.0019 9.70517C13.267 9.70517 14.2961 10.7342 14.2961 11.9994C14.2973 12.4285 14.6465 12.7776 15.0743 12.7776H15.0756C15.2833 12.7776 15.4788 12.6965 15.6251 12.5502C15.7727 12.4027 15.8538 12.2072 15.8538 11.9994C15.8538 9.87607 14.1252 8.14742 12.0019 8.14742ZM12.0019 8.14742C9.87731 8.14742 8.14866 9.87607 8.14866 11.9994C8.14866 14.1239 9.87731 15.8526 12.0019 15.8526C12.4297 15.8514 12.7789 15.5022 12.7789 15.0743C12.7801 14.8665 12.699 14.6698 12.5514 14.5235C12.4051 14.376 12.2096 14.2948 12.0019 14.2948C10.7355 14.2948 9.70641 13.2658 9.70641 11.9994C9.70641 10.7342 10.7355 9.70517 12.0019 9.70517C13.267 9.70517 14.2961 10.7342 14.2961 11.9994C14.2973 12.4285 14.6465 12.7776 15.0743 12.7776H15.0756C15.2833 12.7776 15.4788 12.6965 15.6251 12.5502C15.7727 12.4027 15.8538 12.2072 15.8538 11.9994C15.8538 9.87607 14.1252 8.14742 12.0019 8.14742ZM12.0019 8.14742C9.87731 8.14742 8.14866 9.87607 8.14866 11.9994C8.14866 14.1239 9.87731 15.8526 12.0019 15.8526C12.4297 15.8514 12.7789 15.5022 12.7789 15.0743C12.7801 14.8665 12.699 14.6698 12.5514 14.5235C12.4051 14.376 12.2096 14.2948 12.0019 14.2948C10.7355 14.2948 9.70641 13.2658 9.70641 11.9994C9.70641 10.7342 10.7355 9.70517 12.0019 9.70517C13.267 9.70517 14.2961 10.7342 14.2961 11.9994C14.2973 12.4285 14.6465 12.7776 15.0743 12.7776H15.0756C15.2833 12.7776 15.4788 12.6965 15.6251 12.5502C15.7727 12.4027 15.8538 12.2072 15.8538 11.9994C15.8538 9.87607 14.1252 8.14742 12.0019 8.14742ZM12.0019 8.14742C9.87731 8.14742 8.14866 9.87607 8.14866 11.9994C8.14866 14.1239 9.87731 15.8526 12.0019 15.8526C12.4297 15.8514 12.7789 15.5022 12.7789 15.0743C12.7801 14.8665 12.699 14.6698 12.5514 14.5235C12.4051 14.376 12.2096 14.2948 12.0019 14.2948C10.7355 14.2948 9.70641 13.2658 9.70641 11.9994C9.70641 10.7342 10.7355 9.70517 12.0019 9.70517C13.267 9.70517 14.2961 10.7342 14.2961 11.9994C14.2973 12.4285 14.6465 12.7776 15.0743 12.7776H15.0756C15.2833 12.7776 15.4788 12.6965 15.6251 12.5502C15.7727 12.4027 15.8538 12.2072 15.8538 11.9994C15.8538 9.87607 14.1252 8.14742 12.0019 8.14742Z" fill="black"/>
</svg>
