<svg width="22" height="22" viewBox="0 0 22 22" fill="none" xmlns="http://www.w3.org/2000/svg">
<path d="M9.44492 1.83203H12.5561C12.9234 1.83028 13.2788 1.96223 13.5559 2.20327C13.833 2.44431 14.013 2.77796 14.0622 3.14194L14.1868 4.10444C14.194 4.15947 14.2136 4.21215 14.2441 4.25851C14.2746 4.30488 14.3152 4.34372 14.3628 4.37211L15.1805 4.85611C15.2292 4.88493 15.284 4.90208 15.3404 4.90622C15.3969 4.91035 15.4535 4.90136 15.5059 4.87994L16.5124 4.46744C16.8506 4.32838 17.2275 4.31526 17.5745 4.43049C17.9215 4.54572 18.2157 4.78163 18.4035 5.09536L19.9591 7.71794C20.3505 8.37794 20.1754 9.22128 19.5576 9.67778L18.5868 10.3955C18.5408 10.4296 18.5035 10.4739 18.4777 10.525C18.4519 10.5761 18.4384 10.6325 18.4383 10.6898V11.3076C18.4384 11.3648 18.4519 11.4213 18.4777 11.4724C18.5035 11.5235 18.5408 11.5678 18.5868 11.6019L19.5585 12.3196C20.1754 12.7752 20.3505 13.6185 19.9591 14.2794L18.4035 16.9011C18.2157 17.2148 17.9215 17.4507 17.5745 17.566C17.2275 17.6812 16.8506 17.6681 16.5124 17.529L15.5059 17.1165C15.4535 17.0952 15.3968 17.0864 15.3403 17.0907C15.2839 17.095 15.2292 17.1123 15.1805 17.1413L14.3628 17.6253C14.3151 17.6538 14.2744 17.6927 14.2439 17.7393C14.2134 17.7858 14.1939 17.8387 14.1868 17.8939L14.0622 18.8564C14.0128 19.2202 13.8327 19.5536 13.5556 19.7945C13.2785 20.0353 12.9232 20.1671 12.5561 20.1654H9.44492C9.07764 20.1671 8.72226 20.0352 8.44513 19.7941C8.16799 19.5531 7.98803 19.2194 7.93884 18.8554L7.81417 17.8929C7.807 17.8379 7.78744 17.7852 7.75695 17.7389C7.72647 17.6925 7.68585 17.6537 7.63817 17.6253L6.82051 17.1413C6.77179 17.1125 6.71705 17.0953 6.6606 17.0912C6.60414 17.087 6.54749 17.096 6.49509 17.1174L5.48859 17.5299C5.15041 17.669 4.77356 17.6821 4.42653 17.5669C4.07951 17.4517 3.78534 17.2157 3.59751 16.902L2.04192 14.2794C1.85346 13.9613 1.79018 13.5843 1.8644 13.222C1.93862 12.8597 2.14503 12.5381 2.44342 12.3196L3.41417 11.6019C3.46017 11.5678 3.49756 11.5235 3.52335 11.4724C3.54914 11.4213 3.5626 11.3648 3.56267 11.3076V10.6898C3.5626 10.6325 3.54914 10.5761 3.52335 10.525C3.49756 10.4739 3.46017 10.4296 3.41417 10.3955L2.44251 9.67778C2.14426 9.4592 1.93804 9.13744 1.86399 8.77517C1.78994 8.41289 1.85337 8.03602 2.04192 7.71794L3.59751 5.09628C3.78534 4.78255 4.07951 4.54664 4.42653 4.43141C4.77356 4.31618 5.15041 4.32929 5.48859 4.46836L6.49509 4.88086C6.54756 4.90214 6.60425 4.91098 6.6607 4.90669C6.71716 4.90239 6.77186 4.88508 6.82051 4.85611L7.63817 4.37211C7.68596 4.34363 7.72665 4.30464 7.75714 4.25811C7.78763 4.21158 7.80714 4.15871 7.81417 4.10353L7.93884 3.14103C7.98824 2.77721 8.16828 2.44378 8.4454 2.20293C8.72251 1.96208 9.07777 1.83025 9.44492 1.83203ZM9.46692 4.63978C9.43442 4.88551 9.34627 5.12058 9.20918 5.32708C9.07209 5.53359 8.88968 5.70609 8.67584 5.83144L7.56484 6.48594C7.34598 6.61429 7.10052 6.69055 6.84747 6.70883C6.59441 6.72711 6.34054 6.68692 6.10551 6.59136L5.34651 6.28336C5.2654 6.25034 5.17516 6.24744 5.0921 6.27519C5.00904 6.30293 4.93866 6.35948 4.89367 6.43461L3.83859 8.20011C3.79172 8.27851 3.77579 8.37158 3.79393 8.4611C3.81208 8.55062 3.86298 8.63015 3.93667 8.68411L4.64709 9.20569C5.06692 9.51277 5.31351 9.99861 5.31351 10.5165V11.4809C5.31351 11.9988 5.06601 12.4846 4.64709 12.7917L3.93667 13.3133C3.86298 13.3672 3.81208 13.4468 3.79393 13.5363C3.77579 13.6258 3.79172 13.7189 3.83859 13.7973L4.89276 15.5628C4.93777 15.6381 5.00831 15.6948 5.09158 15.7226C5.17484 15.7503 5.26529 15.7473 5.34651 15.714L6.10551 15.406C6.34054 15.3105 6.59441 15.2703 6.84747 15.2886C7.10052 15.3068 7.34598 15.3831 7.56484 15.5114L8.67584 16.165C9.11034 16.4217 9.40184 16.8608 9.46692 17.3576L9.55309 18.013C9.56465 18.1012 9.60783 18.1821 9.6746 18.2408C9.74138 18.2995 9.8272 18.3319 9.91609 18.332H12.0849C12.1738 18.3319 12.2596 18.2995 12.3264 18.2408C12.3932 18.1821 12.4364 18.1012 12.4479 18.013L12.5341 17.3576C12.5983 16.8608 12.8907 16.4208 13.3252 16.1659L14.4362 15.5114C14.655 15.3831 14.9005 15.3068 15.1535 15.2886C15.4066 15.2703 15.6605 15.3105 15.8955 15.406L16.6545 15.714C16.7356 15.747 16.8259 15.7499 16.9089 15.7222C16.992 15.6945 17.0624 15.6379 17.1073 15.5628L18.1624 13.7973C18.2093 13.7189 18.2252 13.6258 18.2071 13.5363C18.1889 13.4468 18.138 13.3672 18.0643 13.3133L17.3539 12.7917C17.1476 12.641 16.9798 12.4437 16.864 12.216C16.7482 11.9882 16.6877 11.7364 16.6875 11.4809V10.5165C16.6875 9.99861 16.935 9.51277 17.3539 9.20569L18.0643 8.68411C18.138 8.63015 18.1889 8.55062 18.2071 8.4611C18.2252 8.37158 18.2093 8.27851 18.1624 8.20011L17.1083 6.43461C17.0632 6.35927 16.9927 6.30257 16.9094 6.27482C16.8262 6.24706 16.7357 6.25009 16.6545 6.28336L15.8955 6.59136C15.4188 6.78569 14.8789 6.74628 14.4362 6.48594L13.3252 5.83236C13.1112 5.70692 12.9287 5.53427 12.7916 5.3276C12.6546 5.12092 12.5665 4.88567 12.5341 4.63978L12.4479 3.98436C12.4364 3.89622 12.3932 3.81528 12.3264 3.7566C12.2596 3.69792 12.1738 3.66549 12.0849 3.66536H9.91609C9.8272 3.66549 9.74138 3.69792 9.6746 3.7566C9.60783 3.81528 9.56465 3.89622 9.55309 3.98436L9.46692 4.63978Z" fill="black" fill-opacity="0.7"/>
<circle cx="11.275" cy="11.165" r="4.455" fill="black" fill-opacity="0.7"/>
</svg>
