<svg width="24" height="24" viewBox="0 0 24 24" fill="none" xmlns="http://www.w3.org/2000/svg">
<path d="M14.7668 3.21273L22.2834 10.5486C22.6648 10.9213 22.6676 11.5244 22.2906 11.8956L14.7596 19.3053C14.3821 19.6766 14.076 19.5396 14.076 19.0089V15.1335C3.23486 15.1335 2.03638 20.8137 2 21L2.01041 20.5888C2.11696 18.4741 3.20169 8.95199 14.076 7.38311V3.50722C14.076 2.97267 14.3821 2.83758 14.7668 3.21273ZM15.5232 5.99378L15.524 7.38311C15.524 8.11841 14.9931 8.7416 14.2789 8.84463C9.64641 9.51297 6.69336 11.7269 4.9836 15.0217C4.89438 15.1936 4.80908 15.3676 4.72777 15.5435L4.643 15.7373L4.87223 15.6049C7.01861 14.4181 9.86692 13.7286 13.4964 13.6626L14.076 13.6574C14.8186 13.6574 15.4306 14.2272 15.5143 14.9613L15.524 15.1335L15.5232 16.5018L20.8836 11.2264L15.5232 5.99376V5.99378Z" fill="#323233"/>
</svg>
