<svg width="24" height="24" viewBox="0 0 24 24" fill="none" xmlns="http://www.w3.org/2000/svg">
<g clip-path="url(#clip0_423_3062)">
<path d="M11.9567 22.0081L11.6617 21.8772C11.3334 21.7331 3.66675 18.2706 3.66675 12.0006V6.56389C3.66704 6.0407 3.8324 5.53094 4.13928 5.1072C4.44616 4.68346 4.87892 4.36735 5.37591 4.20389L12.0001 2.00806L18.6242 4.20389C19.1212 4.36735 19.554 4.68346 19.8609 5.1072C20.1678 5.53094 20.3331 6.0407 20.3334 6.56389V12.0006C20.3334 19.1481 12.5934 21.7964 12.2634 21.9064L11.9567 22.0081ZM12.0001 3.75556L5.90341 5.77722C5.73754 5.8314 5.59306 5.93669 5.49067 6.07799C5.38828 6.2193 5.33323 6.38939 5.33341 6.56389V12.0006C5.33341 16.5789 10.7001 19.5489 12.0392 20.2181C13.3759 19.6806 18.6667 17.2197 18.6667 12.0006V6.56389C18.6669 6.38939 18.6119 6.2193 18.5095 6.07799C18.4071 5.93669 18.2626 5.8314 18.0967 5.77722L12.0001 3.75556Z" fill="black"/>
<path d="M11.2594 14.1185H11.2319C11.021 14.1153 10.8129 14.0693 10.6203 13.9834C10.4276 13.8975 10.2544 13.7733 10.1111 13.6185L8.18945 11.6185L9.39028 10.4669L11.2603 12.4169L15.5778 8.09937L16.7561 9.2777L12.3719 13.6619C12.2259 13.8078 12.0524 13.9233 11.8614 14.0017C11.6705 14.08 11.4659 14.1198 11.2594 14.1185Z" fill="black"/>
</g>
<defs>
<clipPath id="clip0_423_3062">
<rect width="20" height="20" fill="white" transform="translate(2 2)"/>
</clipPath>
</defs>
</svg>
