<svg width="32" height="32" viewBox="0 0 32 32" fill="none" xmlns="http://www.w3.org/2000/svg">
<path fill-rule="evenodd" clip-rule="evenodd" d="M29.3333 15.9993C29.3333 23.3631 23.3638 29.3327 16 29.3327C8.63619 29.3327 2.66666 23.3631 2.66666 15.9993C2.66666 8.63555 8.63619 2.66602 16 2.66602C23.3638 2.66602 29.3333 8.63555 29.3333 15.9993ZM13.3673 20.8472H11.7506V14.6068C11.7506 14.399 11.7529 14.1912 11.7575 13.9834L11.7712 13.3733C11.7803 13.1743 11.7917 12.9842 11.8054 12.8029C11.7095 12.9046 11.5908 13.0151 11.4492 13.1345C11.3122 13.2539 11.1661 13.3777 11.0108 13.5059L9.85994 14.3945L9.0516 13.4064L12.0247 11.1516H13.3673V20.8472ZM15.4078 13.5066L17.9424 17.0943L15.2845 20.8478H17.1135L18.9768 18.0957L20.8332 20.8478H22.676L19.9975 17.0943L22.5458 13.5066H20.7168L18.9768 16.0863L17.2437 13.5066H15.4078Z" fill="white"/>
</svg>
