<svg width="20" height="20" viewBox="0 0 20 20" fill="none" xmlns="http://www.w3.org/2000/svg">
<path d="M10.836 13.7112L9.33598 17.7815C9.29158 17.9011 9.21164 18.0043 9.10689 18.0771C9.00215 18.15 8.87762 18.189 8.75004 18.189C8.62245 18.189 8.49793 18.15 8.39318 18.0771C8.28844 18.0043 8.2085 17.9011 8.1641 17.7815L6.6641 13.7112C6.63245 13.6253 6.58252 13.5473 6.51778 13.4825C6.45304 13.4178 6.37501 13.3679 6.2891 13.3362L2.21879 11.8362C2.09918 11.7918 1.99602 11.7119 1.92317 11.6071C1.85033 11.5024 1.81128 11.3779 1.81128 11.2503C1.81128 11.1227 1.85033 10.9982 1.92317 10.8934C1.99602 10.7887 2.09918 10.7087 2.21879 10.6643L6.2891 9.16435C6.37501 9.13269 6.45304 9.08277 6.51778 9.01802C6.58252 8.95328 6.63245 8.87526 6.6641 8.78935L8.1641 4.71903C8.2085 4.59942 8.28844 4.49626 8.39318 4.42342C8.49793 4.35057 8.62245 4.31152 8.75004 4.31152C8.87762 4.31152 9.00215 4.35057 9.10689 4.42342C9.21164 4.49626 9.29158 4.59942 9.33598 4.71903L10.836 8.78935C10.8676 8.87526 10.9176 8.95328 10.9823 9.01802C11.047 9.08277 11.1251 9.13269 11.211 9.16435L15.2813 10.6643C15.4009 10.7087 15.5041 10.7887 15.5769 10.8934C15.6498 10.9982 15.6888 11.1227 15.6888 11.2503C15.6888 11.3779 15.6498 11.5024 15.5769 11.6071C15.5041 11.7119 15.4009 11.7918 15.2813 11.8362L11.211 13.3362C11.1251 13.3679 11.047 13.4178 10.9823 13.4825C10.9176 13.5473 10.8676 13.6253 10.836 13.7112V13.7112Z" stroke="black" stroke-width="1.5" stroke-linecap="round" stroke-linejoin="round"/>
<path d="M13.75 1.25V5" stroke="black" stroke-width="1.5" stroke-linecap="round" stroke-linejoin="round"/>
<path d="M15.625 3.125H11.875" stroke="black" stroke-width="1.5" stroke-linecap="round" stroke-linejoin="round"/>
<path d="M17.5 5.625V8.125" stroke="black" stroke-width="1.5" stroke-linecap="round" stroke-linejoin="round"/>
<path d="M18.75 6.875H16.25" stroke="black" stroke-width="1.5" stroke-linecap="round" stroke-linejoin="round"/>
</svg>
