<svg width="24" height="24" viewBox="0 0 24 24" fill="none" xmlns="http://www.w3.org/2000/svg">
<path d="M21.2836 8.27578L15.3328 7.41093L12.6727 2.01797C12.6 1.87031 12.4805 1.75078 12.3328 1.67812C11.9625 1.49531 11.5125 1.64765 11.3273 2.01797L8.66719 7.41093L2.71641 8.27578C2.55235 8.29922 2.40235 8.37656 2.2875 8.49375C1.99922 8.7914 2.00391 9.26484 2.30157 9.55547L6.60704 13.7531L5.58985 19.6805C5.56172 19.8422 5.5875 20.0109 5.66485 20.1562C5.85704 20.5219 6.31172 20.6648 6.67735 20.4703L12 17.6719L17.3227 20.4703C17.468 20.5477 17.6367 20.5734 17.7984 20.5453C18.2063 20.475 18.4805 20.0883 18.4102 19.6805L17.393 13.7531L21.6984 9.55547C21.8156 9.44062 21.893 9.29062 21.9164 9.12656C21.9797 8.7164 21.6938 8.33672 21.2836 8.27578Z" fill="#FFD646"/>
</svg>
