<svg width="24" height="24" viewBox="0 0 24 24" fill="none" xmlns="http://www.w3.org/2000/svg">
<path d="M7.654 4.8H19.6V4.2C19.6 3.88174 19.4736 3.57652 19.2485 3.35147C19.0235 3.12643 18.7183 3 18.4 3H7.6C6.64522 3 5.72955 3.37928 5.05442 4.05442C4.37928 4.72955 4 5.64522 4 6.6V17.4C4 18.3548 4.37928 19.2705 5.05442 19.9456C5.72955 20.6207 6.64522 21 7.6 21H18.4C18.7183 21 19.0235 20.8736 19.2485 20.6485C19.4736 20.4235 19.6 20.1183 19.6 19.8V8.4C19.6 8.08174 19.4736 7.77652 19.2485 7.55147C19.0235 7.32643 18.7183 7.2 18.4 7.2H7.654C7.49193 7.2073 7.33006 7.18166 7.17818 7.12463C7.0263 7.06761 6.88756 6.98037 6.77034 6.86821C6.65313 6.75604 6.55988 6.62127 6.49622 6.47204C6.43257 6.32282 6.39984 6.16224 6.4 6C6.39984 5.83777 6.43257 5.67718 6.49622 5.52796C6.55988 5.37873 6.65313 5.24396 6.77034 5.13179C6.88756 5.01963 7.0263 4.93239 7.17818 4.87537C7.33006 4.81834 7.49193 4.7927 7.654 4.8ZM7.888 12.228L10.42 11.856C10.5068 11.8396 10.589 11.8042 10.6606 11.7523C10.7321 11.7004 10.7913 11.6334 10.834 11.556L11.968 9.258C12.04 9.114 12.154 9.114 12.226 9.258L13.36 11.556C13.4027 11.6334 13.4619 11.7004 13.5334 11.7523C13.605 11.8042 13.6872 11.8396 13.774 11.856L16.306 12.228C16.462 12.228 16.498 12.36 16.384 12.474L14.548 14.274C14.4879 14.3386 14.4427 14.4156 14.4157 14.4996C14.3888 14.5836 14.3807 14.6725 14.392 14.76L14.824 17.286C14.824 17.442 14.758 17.514 14.614 17.436L12.346 16.236C12.2654 16.1976 12.1773 16.1777 12.088 16.1777C11.9987 16.1777 11.9106 16.1976 11.83 16.236L9.562 17.436C9.418 17.508 9.328 17.436 9.352 17.286L9.784 14.76C9.79533 14.6725 9.78722 14.5836 9.76026 14.4996C9.73329 14.4156 9.68813 14.3386 9.628 14.274L7.792 12.474C7.696 12.36 7.726 12.252 7.888 12.228Z" fill="black" fill-opacity="0.7"/>
</svg>
