<svg width="18" height="18" viewBox="0 0 18 18" fill="none" xmlns="http://www.w3.org/2000/svg">
<path d="M9.53571 8.28571V12.5714C9.53571 12.6661 9.49809 12.757 9.43111 12.824C9.36413 12.8909 9.27329 12.9286 9.17857 12.9286H8.82143C8.72671 12.9286 8.63587 12.8909 8.56889 12.824C8.50191 12.757 8.46429 12.6661 8.46429 12.5714V8.28571C8.46429 8.19099 8.50191 8.10015 8.56889 8.03318C8.63587 7.9662 8.72671 7.92857 8.82143 7.92857H9.17857C9.27329 7.92857 9.36413 7.9662 9.43111 8.03318C9.49809 8.10015 9.53571 8.19099 9.53571 8.28571ZM8.82143 5.42857H9.17857C9.27329 5.42857 9.36413 5.4662 9.43111 5.53318C9.49809 5.60015 9.53571 5.69099 9.53571 5.78571V6.5C9.53571 6.59472 9.49809 6.68556 9.43111 6.75254C9.36413 6.81952 9.27329 6.85714 9.17857 6.85714H8.82143C8.72671 6.85714 8.63587 6.81952 8.56889 6.75254C8.50191 6.68556 8.46429 6.59472 8.46429 6.5V5.78571C8.46429 5.69099 8.50191 5.60015 8.56889 5.53318C8.63587 5.4662 8.72671 5.42857 8.82143 5.42857ZM9 15.4286C12.5504 15.4286 15.4286 12.5504 15.4286 9C15.4286 5.44964 12.5504 2.57143 9 2.57143C5.44964 2.57143 2.57143 5.44964 2.57143 9C2.57143 12.5504 5.44964 15.4286 9 15.4286ZM9 16.5C4.85786 16.5 1.5 13.1421 1.5 9C1.5 4.85786 4.85786 1.5 9 1.5C13.1421 1.5 16.5 4.85786 16.5 9C16.5 13.1421 13.1421 16.5 9 16.5Z" fill="#FF7E20"/>
</svg>
