<svg width="61" height="28" viewBox="0 0 61 28" fill="none" xmlns="http://www.w3.org/2000/svg">
<g filter="url(#filter0_ii_2183_15941)">
<rect width="61" height="26" rx="13" fill="#D9D9D9"/>
</g>
<path d="M42.2415 13.9091C42.2415 15.0194 42.031 15.964 41.6101 16.7429C41.1925 17.5218 40.6224 18.1167 39.8999 18.5277C39.1806 18.9354 38.3719 19.1392 37.4737 19.1392C36.5689 19.1392 35.7569 18.9337 35.0376 18.5227C34.3184 18.1117 33.75 17.5168 33.3324 16.7379C32.9148 15.959 32.706 15.0161 32.706 13.9091C32.706 12.7988 32.9148 11.8542 33.3324 11.0753C33.75 10.2964 34.3184 9.70312 35.0376 9.29545C35.7569 8.88447 36.5689 8.67898 37.4737 8.67898C38.3719 8.67898 39.1806 8.88447 39.8999 9.29545C40.6224 9.70312 41.1925 10.2964 41.6101 11.0753C42.031 11.8542 42.2415 12.7988 42.2415 13.9091ZM40.0589 13.9091C40.0589 13.1899 39.9512 12.5833 39.7358 12.0895C39.5237 11.5956 39.2237 11.2211 38.8359 10.9659C38.4482 10.7107 37.9941 10.5831 37.4737 10.5831C36.9534 10.5831 36.4993 10.7107 36.1115 10.9659C35.7237 11.2211 35.4221 11.5956 35.2067 12.0895C34.9946 12.5833 34.8885 13.1899 34.8885 13.9091C34.8885 14.6283 34.9946 15.2348 35.2067 15.7287C35.4221 16.2225 35.7237 16.5971 36.1115 16.8523C36.4993 17.1075 36.9534 17.2351 37.4737 17.2351C37.9941 17.2351 38.4482 17.1075 38.8359 16.8523C39.2237 16.5971 39.5237 16.2225 39.7358 15.7287C39.9512 15.2348 40.0589 14.6283 40.0589 13.9091ZM47.9029 11.3636V12.9545H43.1898V11.3636H47.9029ZM44.2686 19V10.8118C44.2686 10.2583 44.3764 9.79924 44.5918 9.43466C44.8105 9.07008 45.1088 8.79664 45.4867 8.61435C45.8645 8.43205 46.2937 8.34091 46.7743 8.34091C47.0991 8.34091 47.3958 8.36577 47.6642 8.41548C47.936 8.4652 48.1382 8.50994 48.2708 8.54972L47.8929 10.1406C47.8101 10.1141 47.7073 10.0893 47.5847 10.0661C47.4654 10.0429 47.3427 10.0312 47.2168 10.0312C46.9052 10.0312 46.6882 10.1042 46.5655 10.25C46.4429 10.3925 46.3816 10.593 46.3816 10.8516V19H44.2686ZM53.3033 11.3636V12.9545H48.5902V11.3636H53.3033ZM49.669 19V10.8118C49.669 10.2583 49.7768 9.79924 49.9922 9.43466C50.2109 9.07008 50.5092 8.79664 50.8871 8.61435C51.2649 8.43205 51.6941 8.34091 52.1747 8.34091C52.4995 8.34091 52.7962 8.36577 53.0646 8.41548C53.3364 8.4652 53.5386 8.50994 53.6712 8.54972L53.2933 10.1406C53.2105 10.1141 53.1077 10.0893 52.9851 10.0661C52.8658 10.0429 52.7431 10.0312 52.6172 10.0312C52.3056 10.0312 52.0885 10.1042 51.9659 10.25C51.8433 10.3925 51.782 10.593 51.782 10.8516V19H49.669Z" fill="white"/>
<g filter="url(#filter1_dd_2183_15941)">
<circle cx="12.5" cy="13.0996" r="10.5" fill="white"/>
</g>
<path d="M14.6797 15.8838C14.6797 16.2017 14.9359 16.458 15.2538 16.458C16.9417 16.458 18.3175 15.0837 18.3175 13.3937C18.3166 12.5815 17.9936 11.8027 17.4192 11.2284C16.8449 10.654 16.0661 10.3309 15.2538 10.3301C14.9359 10.3301 14.6797 10.5863 14.6797 10.9042C14.6797 11.2217 14.9359 11.4784 15.2538 11.4784C15.7616 11.479 16.2485 11.681 16.6075 12.04C16.9666 12.3991 17.1686 12.8859 17.1692 13.3937C17.1687 13.9016 16.9668 14.3886 16.6077 14.7478C16.2486 15.107 15.7617 15.309 15.2538 15.3096C14.9359 15.3096 14.6797 15.5664 14.6797 15.8838Z" fill="#E8E8E8"/>
<path d="M15.2538 14.4467C14.9359 14.4467 14.6797 14.1905 14.6797 13.8726V12.9155C14.6797 12.598 14.9359 12.3413 15.2538 12.3413C15.835 12.3413 16.3063 12.8142 16.3063 13.3937C16.3063 13.9739 15.8334 14.4467 15.2538 14.4467Z" fill="#E8E8E8"/>
<path fill-rule="evenodd" clip-rule="evenodd" d="M13.7025 15.4939V8.80001C13.7025 8.68464 13.6738 8.58172 13.6158 8.48585C13.5567 8.38955 13.4654 8.31737 13.358 8.28218C13.2644 8.23567 13.1608 8.21262 13.0563 8.21501C12.9459 8.21333 12.8387 8.25183 12.7546 8.32335L10.2668 10.4548L13.7025 15.4939ZM9.85295 10.8094L9.79709 10.8573C9.56525 10.9889 9.38163 11.0403 9.25975 11.0588H8.34975C8.01531 11.0598 7.69494 11.1935 7.45901 11.4305C7.22308 11.6676 7.09089 11.9886 7.09146 12.323V14.2188C7.09146 14.9176 7.6548 15.4826 8.34975 15.4826H9.08642V15.4842L9.1043 15.4826H9.17417C9.28142 15.4885 9.48292 15.5226 9.7543 15.67L12.7551 18.1996C12.8418 18.2862 12.9555 18.3279 13.0996 18.3279C13.215 18.3279 13.3 18.3155 13.358 18.2868C13.5871 18.1421 13.7025 17.9542 13.7025 17.7234V16.4554L9.85295 10.8094Z" fill="#E8E8E8"/>
<path fill-rule="evenodd" clip-rule="evenodd" d="M15.9587 19.3169C15.8909 19.3631 15.7983 19.3456 15.7521 19.2778L7.79463 7.60685C7.74835 7.53899 7.76586 7.44646 7.83372 7.40019V7.40019C7.90159 7.35392 7.99411 7.37142 8.04039 7.43929L15.9978 19.1102C16.0441 19.1781 16.0266 19.2706 15.9587 19.3169V19.3169Z" fill="#E8E8E8"/>
<defs>
<filter id="filter0_ii_2183_15941" x="-2" y="0" width="63" height="28" filterUnits="userSpaceOnUse" color-interpolation-filters="sRGB">
<feFlood flood-opacity="0" result="BackgroundImageFix"/>
<feBlend mode="normal" in="SourceGraphic" in2="BackgroundImageFix" result="shape"/>
<feColorMatrix in="SourceAlpha" type="matrix" values="0 0 0 0 0 0 0 0 0 0 0 0 0 0 0 0 0 0 127 0" result="hardAlpha"/>
<feOffset dx="-2" dy="2"/>
<feGaussianBlur stdDeviation="1"/>
<feComposite in2="hardAlpha" operator="arithmetic" k2="-1" k3="1"/>
<feColorMatrix type="matrix" values="0 0 0 0 0 0 0 0 0 0 0 0 0 0 0 0 0 0 0.25 0"/>
<feBlend mode="normal" in2="shape" result="effect1_innerShadow_2183_15941"/>
<feColorMatrix in="SourceAlpha" type="matrix" values="0 0 0 0 0 0 0 0 0 0 0 0 0 0 0 0 0 0 127 0" result="hardAlpha"/>
<feMorphology radius="1" operator="dilate" in="SourceAlpha" result="effect2_innerShadow_2183_15941"/>
<feOffset/>
<feGaussianBlur stdDeviation="1.5"/>
<feComposite in2="hardAlpha" operator="arithmetic" k2="-1" k3="1"/>
<feColorMatrix type="matrix" values="0 0 0 0 0 0 0 0 0 0 0 0 0 0 0 0 0 0 0.25 0"/>
<feBlend mode="normal" in2="effect1_innerShadow_2183_15941" result="effect2_innerShadow_2183_15941"/>
</filter>
<filter id="filter1_dd_2183_15941" x="0" y="0.599609" width="27" height="27" filterUnits="userSpaceOnUse" color-interpolation-filters="sRGB">
<feFlood flood-opacity="0" result="BackgroundImageFix"/>
<feColorMatrix in="SourceAlpha" type="matrix" values="0 0 0 0 0 0 0 0 0 0 0 0 0 0 0 0 0 0 127 0" result="hardAlpha"/>
<feOffset dy="1"/>
<feGaussianBlur stdDeviation="0.5"/>
<feComposite in2="hardAlpha" operator="out"/>
<feColorMatrix type="matrix" values="0 0 0 0 0 0 0 0 0 0 0 0 0 0 0 0 0 0 0.25 0"/>
<feBlend mode="normal" in2="BackgroundImageFix" result="effect1_dropShadow_2183_15941"/>
<feColorMatrix in="SourceAlpha" type="matrix" values="0 0 0 0 0 0 0 0 0 0 0 0 0 0 0 0 0 0 127 0" result="hardAlpha"/>
<feOffset dx="1" dy="1"/>
<feGaussianBlur stdDeviation="1.5"/>
<feComposite in2="hardAlpha" operator="out"/>
<feColorMatrix type="matrix" values="0 0 0 0 0 0 0 0 0 0 0 0 0 0 0 0 0 0 0.26 0"/>
<feBlend mode="normal" in2="effect1_dropShadow_2183_15941" result="effect2_dropShadow_2183_15941"/>
<feBlend mode="normal" in="SourceGraphic" in2="effect2_dropShadow_2183_15941" result="shape"/>
</filter>
</defs>
</svg>
