<svg width="24" height="24" viewBox="0 0 24 24" fill="none" xmlns="http://www.w3.org/2000/svg">
<path d="M23.52 13.846H16.4308L19.9754 9.11914L23.52 13.846ZM0.480011 12.0723H7.56924L4.02463 16.7991L0.480011 12.0723Z" fill="white"/>
<path d="M17.8608 6.4395C16.2524 5.00008 14.165 4.20217 12 4.19922C10.8339 4.19922 9.67914 4.42735 8.60177 4.8706C7.5244 5.31385 6.54547 5.96352 5.72089 6.78254C4.8963 7.60155 4.24221 8.57386 3.79595 9.64395C3.34968 10.714 3.12 11.861 3.12 13.0192C3.12 13.2926 3.12 13.5572 3.1644 13.8307H4.9404C4.90767 13.5614 4.89284 13.2904 4.896 13.0192C4.896 11.1479 5.64445 9.35313 6.97671 8.02987C8.30897 6.70662 10.1159 5.96322 12 5.96322C13.7817 5.96472 15.4961 6.63954 16.7952 7.8507L17.8608 6.4395ZM20.88 12.1372H19.104C19.1219 12.4309 19.1219 12.7255 19.104 13.0192C19.104 14.8906 18.3555 16.6853 17.0233 18.0086C15.691 19.3318 13.8841 20.0752 12 20.0752C10.2183 20.0737 8.50388 19.3989 7.2048 18.1877L6.1392 19.5989C7.74759 21.0384 9.83502 21.8363 12 21.8392C14.3551 21.8392 16.6138 20.91 18.2791 19.2559C19.9444 17.6018 20.88 15.3584 20.88 13.0192V12.1372Z" fill="white"/>
</svg>
