<svg width="24" height="24" viewBox="0 0 24 24" fill="none" xmlns="http://www.w3.org/2000/svg">
<path d="M23.52 13.846H16.4308L19.9754 9.11914L23.52 13.846ZM0.47998 12.0723H7.56921L4.0246 16.7991L0.47998 12.0723Z" fill="black" fill-opacity="0.7"/>
<path d="M17.8609 6.4395C16.2525 5.00008 14.1651 4.20217 12.0001 4.19922C10.834 4.19922 9.67926 4.42735 8.60189 4.8706C7.52452 5.31385 6.54559 5.96352 5.72101 6.78254C4.89642 7.60155 4.24233 8.57386 3.79607 9.64395C3.34981 10.714 3.12012 11.861 3.12012 13.0192C3.12012 13.2926 3.12012 13.5572 3.16452 13.8307H4.94052C4.90779 13.5614 4.89296 13.2904 4.89612 13.0192C4.89612 11.1479 5.64457 9.35313 6.97683 8.02987C8.30909 6.70662 10.116 5.96322 12.0001 5.96322C13.7818 5.96472 15.4962 6.63954 16.7953 7.8507L17.8609 6.4395ZM20.8801 12.1372H19.1041C19.1221 12.4309 19.1221 12.7255 19.1041 13.0192C19.1041 14.8906 18.3557 16.6853 17.0234 18.0086C15.6911 19.3318 13.8842 20.0752 12.0001 20.0752C10.2184 20.0737 8.504 19.3989 7.20492 18.1877L6.13932 19.5989C7.74771 21.0384 9.83514 21.8363 12.0001 21.8392C14.3552 21.8392 16.6139 20.91 18.2792 19.2559C19.9445 17.6018 20.8801 15.3584 20.8801 13.0192V12.1372Z" fill="black" fill-opacity="0.7"/>
</svg>
