<svg width="24" height="24" viewBox="0 0 24 24" fill="none" xmlns="http://www.w3.org/2000/svg">
<path d="M17.5 12C18.2223 12 18.9375 12.1422 19.6049 12.4186C20.2722 12.6949 20.8786 13.1001 21.3893 13.6108C21.9001 14.1215 22.3052 14.7278 22.5817 15.3952C22.8581 16.0625 23.0004 16.7777 23.0004 17.5C23.0004 18.2223 22.8581 18.9375 22.5817 19.6048C22.3052 20.2722 21.9001 20.8785 21.3893 21.3892C20.8786 21.8999 20.2722 22.3051 19.6049 22.5814C18.9375 22.8578 18.2223 23 17.5 23C16.0414 22.9999 14.6425 22.4204 13.6111 21.389C12.5798 20.3575 12.0004 18.9586 12.0004 17.5C12.0004 16.0414 12.5798 14.6425 13.6111 13.611C14.6425 12.5796 16.0414 12.0001 17.5 12ZM17.75 3C18.5801 2.99995 19.3788 3.31755 19.9822 3.88767C20.5856 4.45779 20.948 5.23719 20.995 6.066L21 6.25V12.022C19.9554 11.3528 18.7405 10.9981 17.5 11C15.655 11 13.99 11.769 12.807 13.003H8.747L8.647 13.01C8.46749 13.0347 8.30299 13.1236 8.18391 13.2601C8.06483 13.3967 7.99923 13.5718 7.99923 13.753C7.99923 13.9342 8.06483 14.1093 8.18391 14.2459C8.30299 14.3824 8.46749 14.4713 8.647 14.496L8.747 14.503H11.731C11.2493 15.4285 10.9985 16.4567 11 17.5C11 18.79 11.374 19.99 12.022 21.001L6.25 21C5.41986 21.0001 4.62117 20.6824 4.01777 20.1123C3.41437 19.5422 3.052 18.7628 3.005 17.934L3 17.75V9.372C3.33001 9.48837 3.68262 9.52617 4.0298 9.48239C4.37697 9.4386 4.70916 9.31444 4.99994 9.11978C5.29073 8.92511 5.5321 8.66531 5.70488 8.36101C5.87765 8.05671 5.97707 7.7163 5.99524 7.36685C6.0134 7.01739 5.9498 6.66851 5.8095 6.34794C5.6692 6.02737 5.45606 5.74394 5.18702 5.52018C4.91798 5.29642 4.60046 5.1385 4.25969 5.05896C3.91892 4.97942 3.5643 4.98046 3.224 5.062C3.45096 4.48519 3.838 3.98523 4.33955 3.62098C4.84109 3.25673 5.43627 3.04337 6.055 3.006L6.25 3H17.75ZM18.5 20.002H16.5L16.507 20.118C16.5371 20.371 16.6626 20.603 16.858 20.7666C17.0533 20.9302 17.3037 21.013 17.5581 20.9982C17.8125 20.9834 18.0516 20.8721 18.2266 20.6869C18.4017 20.5018 18.4995 20.2568 18.5 20.002ZM17.503 14L17.336 14.007C16.399 14.092 15.666 14.771 15.527 15.642L15.509 15.797L15.503 16.001V17.294L14.647 18.148C14.5823 18.2127 14.5366 18.2939 14.5149 18.3828C14.4931 18.4716 14.4962 18.5648 14.5237 18.652C14.5513 18.7393 14.6022 18.8173 14.671 18.8776C14.7399 18.9379 14.8239 18.9782 14.914 18.994L15 19.002H20C20.0917 19.0022 20.1817 18.9772 20.2602 18.9298C20.3386 18.8823 20.4025 18.8141 20.4448 18.7328C20.4872 18.6514 20.5063 18.56 20.5002 18.4685C20.494 18.377 20.4628 18.289 20.41 18.214L20.354 18.148L19.505 17.299V15.947L19.5 15.8C19.422 14.788 18.556 14 17.503 14ZM15.253 9.496H8.747L8.645 9.503C8.46549 9.5277 8.30099 9.61655 8.18191 9.75314C8.06283 9.88972 7.99723 10.0648 7.99723 10.246C7.99723 10.4272 8.06283 10.6023 8.18191 10.7389C8.30099 10.8754 8.46549 10.9643 8.645 10.989L8.747 10.996H15.251L15.353 10.989C15.5412 10.9631 15.7126 10.8667 15.8326 10.7193C15.9525 10.5719 16.012 10.3845 15.999 10.1949C15.9861 10.0053 15.9016 9.8277 15.7628 9.69797C15.6239 9.56824 15.441 9.49606 15.251 9.496H15.253ZM3.75 6C4.08152 6 4.39946 6.1317 4.63388 6.36612C4.8683 6.60054 5 6.91848 5 7.25C5 7.58152 4.8683 7.89946 4.63388 8.13388C4.39946 8.3683 4.08152 8.5 3.75 8.5C3.41848 8.5 3.10054 8.3683 2.86612 8.13388C2.6317 7.89946 2.5 7.58152 2.5 7.25C2.5 6.91848 2.6317 6.60054 2.86612 6.36612C3.10054 6.1317 3.41848 6 3.75 6Z" fill="black"/>
</svg>
