<svg width="24" height="24" viewBox="0 0 24 24" fill="none" xmlns="http://www.w3.org/2000/svg">
<path d="M6.75 3C5.78312 3 5 3.8064 5 4.8V19.2C5 20.1936 5.78312 21 6.75 21H17.25C18.2169 21 19 20.1936 19 19.2V8.4L13.75 3H6.75ZM12.875 4.35L17.6875 9.3H12.875V4.35ZM10.168 11.4375C11.2363 11.4375 11.918 12.3359 11.918 13.7156C11.918 14.9234 11.2134 15.9256 10.25 16.5844C10.327 16.678 10.4208 16.725 10.4961 16.725C11.6056 16.725 11.9525 16.0639 12.3008 15.4312C12.5405 14.9948 12.8632 14.4469 13.4766 14.4469C14.2028 14.4469 14.375 15.1354 14.4336 15.5719C14.8195 15.1219 15.4088 14.5031 16.3477 14.5031V15.8531C15.9347 15.8531 15.6787 16.1407 15.3086 16.5844C15.0242 16.9264 14.7101 17.3156 14.2148 17.3156C13.6102 17.3156 13.3398 16.8787 13.2305 16.4719C12.8043 17.1676 12.0623 18.075 10.4961 18.075C9.84772 18.075 9.39622 17.7069 9.07422 17.175C8.59909 17.3343 8.07978 17.4281 7.59766 17.4281V16.0781C7.91791 16.0781 8.26091 16.0102 8.58203 15.9094C8.45166 15.3415 8.39063 14.7533 8.39063 14.2781C8.39063 11.7068 9.63947 11.4375 10.168 11.4375ZM10.168 12.7875C9.90984 12.7875 9.70313 13.4087 9.70313 14.2781C9.70313 14.6201 9.73616 14.9619 9.78516 15.2625C10.2717 14.8512 10.6055 14.315 10.6055 13.7156C10.6063 13.2953 10.5363 12.7875 10.168 12.7875Z" fill="black" fill-opacity="0.7"/>
</svg>
