<svg width="24" height="24" viewBox="0 0 24 24" fill="none" xmlns="http://www.w3.org/2000/svg">
<path d="M6.63031 4.90918C5.97128 4.90918 5.43719 5.44366 5.43712 6.10321C5.43712 6.76274 5.97128 7.29722 6.63031 7.29722C7.28929 7.29722 7.82338 6.76274 7.82338 6.10321C7.82338 5.44366 7.28929 4.90918 6.63031 4.90918Z" fill="black"/>
<path d="M20.2319 5.38672H10.2097C9.94584 5.38672 9.73243 5.60058 9.73245 5.86433V6.3419C9.73245 6.60564 9.94586 6.81958 10.2097 6.81958H20.2319C20.4958 6.81958 20.7092 6.60564 20.7092 6.3419V5.86433C20.7092 5.60058 20.4958 5.38672 20.2319 5.38672Z" fill="black"/>
<path d="M6.63031 10.8062C5.97128 10.8062 5.43719 11.3406 5.43712 12.0003C5.43712 12.6597 5.97128 13.1941 6.63031 13.1941C7.28929 13.1941 7.82338 12.6597 7.82338 12.0003C7.82338 11.3406 7.28929 10.8062 6.63031 10.8062Z" fill="black"/>
<path d="M20.2319 11.2837H10.2097C9.94584 11.2837 9.73243 11.4977 9.73245 11.7613V12.2389C9.73245 12.503 9.94586 12.7166 10.2097 12.7166H20.2319C20.4958 12.7166 20.7092 12.503 20.7092 12.2389V11.7613C20.7092 11.4976 20.4958 11.2837 20.2319 11.2837Z" fill="black"/>
<path d="M6.63031 16.7026C5.97128 16.7026 5.43712 17.2372 5.43712 17.8966C5.43712 18.5562 5.97128 19.0906 6.63031 19.0906C7.28929 19.0906 7.82338 18.5562 7.82338 17.8966C7.82338 17.2372 7.28929 16.7026 6.63031 16.7026Z" fill="black"/>
<path d="M20.2319 17.1802H10.2097C9.94584 17.1802 9.73243 17.3938 9.73245 17.6578V18.1354C9.73245 18.3995 9.94586 18.6131 10.2097 18.6131H20.2319C20.4958 18.6131 20.7092 18.3995 20.7092 18.1354V17.6578C20.7092 17.3938 20.4958 17.1802 20.2319 17.1802Z" fill="black"/>
</svg>
