<svg width="32" height="32" viewBox="0 0 32 32" fill="none" xmlns="http://www.w3.org/2000/svg">
<path d="M15.9973 6.66865C17.6067 6.66844 19.1976 7.01098 20.6643 7.67348C22.1309 8.33599 23.4397 9.30326 24.5034 10.5109C25.5672 11.7186 26.3615 13.139 26.8336 14.6775C27.3057 16.2161 27.4447 17.8375 27.2413 19.434C26.4787 18.9305 25.5845 18.6629 24.6707 18.6646H24.336L24.0853 18.6713C22.9819 18.7375 21.9451 19.2218 21.1863 20.0257C20.4275 20.8296 20.0037 21.8925 20.0013 22.998L20.0093 23.1886C20.0707 23.946 20.4947 24.602 21.112 24.9846L21.036 25.074C20.3647 25.901 19.9988 26.9341 20 27.9993V28.33L20.0133 28.5566L20.0213 28.5993C18.4682 29.1881 16.8047 29.4283 15.1484 29.303C13.4922 29.1776 11.8838 28.6898 10.437 27.8739C8.99019 27.0581 7.74041 25.9342 6.77609 24.5819C5.81177 23.2295 5.15649 21.6817 4.85663 20.048C4.55677 18.4143 4.61966 16.7347 5.04085 15.128C5.46205 13.5214 6.23124 12.0269 7.294 10.7504C8.35676 9.47398 9.68709 8.44671 11.1908 7.74135C12.6946 7.036 14.335 6.66979 15.996 6.66865H15.9973ZM24.6707 19.9966C25.5372 19.9945 26.3705 20.3299 26.9939 20.9318C27.6173 21.5336 27.9819 22.3545 28.0103 23.2206C28.0387 24.0866 27.7288 24.9297 27.1462 25.5711C26.5636 26.2126 25.7541 26.6019 24.8893 26.6566L24.6707 26.6646C24.4457 26.6642 24.2243 26.7208 24.0271 26.8289C23.8299 26.9371 23.6632 27.0934 23.5427 27.2833L23.516 27.33H27.004C27.2458 27.33 27.4795 27.4177 27.6616 27.5768C27.8438 27.7359 27.9621 27.9557 27.9947 28.1953L28.004 28.33C28.0043 28.5719 27.9169 28.8057 27.7581 28.9881C27.5992 29.1705 27.3796 29.2891 27.14 29.322L27.004 29.33H22.3347C22.093 29.33 21.8595 29.2425 21.6774 29.0836C21.4953 28.9248 21.3769 28.7054 21.344 28.466L21.3347 28.33V28.0006C21.3345 27.154 21.6564 26.339 22.2351 25.721C22.8138 25.103 23.6058 24.7282 24.4507 24.6726L24.6693 24.666C25.0114 24.6691 25.3415 24.5406 25.5915 24.3071C25.8414 24.0736 25.9921 23.7529 26.0123 23.4115C26.0325 23.07 25.9207 22.7338 25.7 22.4725C25.4794 22.2111 25.1667 22.0446 24.8267 22.0073L24.6707 21.998H24.336C24.0939 21.9977 23.8599 22.0853 23.6775 22.2444C23.4951 22.4035 23.3766 22.6234 23.344 22.8633L23.3347 22.9993C23.3347 23.2645 23.2293 23.5189 23.0418 23.7064C22.8542 23.894 22.5999 23.9993 22.3347 23.9993C22.0694 23.9993 21.8151 23.894 21.6275 23.7064C21.44 23.5189 21.3347 23.2645 21.3347 22.9993C21.3346 22.2389 21.6233 21.5069 22.1423 20.9512C22.6613 20.3955 23.372 20.0577 24.1307 20.006L24.336 19.9993H24.6707V19.9966ZM15.9973 10.6687C15.7557 10.6687 15.5222 10.7562 15.3401 10.915C15.158 11.0738 15.0395 11.2932 15.0067 11.5326L14.9973 11.6687V17.6686L15.0067 17.8047C15.0396 18.044 15.1581 18.2633 15.3402 18.4221C15.5223 18.5809 15.7557 18.6683 15.9973 18.6683C16.2389 18.6683 16.4724 18.5809 16.6545 18.4221C16.8366 18.2633 16.9551 18.044 16.988 17.8047L16.9973 17.6686V11.6687L16.988 11.5326C16.9551 11.2932 16.8367 11.0738 16.6546 10.915C16.4724 10.7562 16.239 10.6687 15.9973 10.6687ZM25.5573 6.83265L25.6653 6.91398L27.1987 8.24598C27.3914 8.41187 27.5137 8.64495 27.5407 8.89781C27.5677 9.15067 27.4973 9.40431 27.3439 9.60713C27.1905 9.80996 26.9656 9.94672 26.715 9.98961C26.4643 10.0325 26.2068 9.97827 25.9947 9.83798L25.8853 9.75532L24.3533 8.42332C24.163 8.25674 24.0429 8.02423 24.0171 7.77261C23.9914 7.521 24.0619 7.26898 24.2146 7.06731C24.3672 6.86564 24.5906 6.72931 24.8398 6.68576C25.0889 6.64222 25.3453 6.69471 25.5573 6.83265ZM18.9973 3.33398C19.2507 3.33406 19.4946 3.43031 19.6797 3.60328C19.8648 3.77625 19.9774 4.01305 19.9947 4.26582C20.012 4.5186 19.9326 4.76851 19.7727 4.96505C19.6129 5.16159 19.3843 5.29012 19.1333 5.32465L18.9973 5.33398H12.9973C12.744 5.33391 12.5001 5.23766 12.3149 5.06469C12.1298 4.89172 12.0172 4.65492 12 4.40214C11.9827 4.14937 12.062 3.89946 12.2219 3.70292C12.3818 3.50638 12.6103 3.37785 12.8613 3.34332L12.9973 3.33398H18.9973Z" fill="white"/>
</svg>
