<svg width="20" height="20" viewBox="0 0 20 20" fill="none" xmlns="http://www.w3.org/2000/svg">
<g clip-path="url(#clip0_378_1194)">
<path d="M18.3333 13.333V17.4997C18.3333 17.7207 18.2455 17.9326 18.0893 18.0889C17.933 18.2452 17.721 18.333 17.5 18.333H2.5C2.27899 18.333 2.06702 18.2452 1.91074 18.0889C1.75446 17.9326 1.66667 17.7207 1.66667 17.4997V13.333H0V17.4997C0 18.1627 0.263392 18.7986 0.732233 19.2674C1.20107 19.7363 1.83696 19.9997 2.5 19.9997H17.5C18.163 19.9997 18.7989 19.7363 19.2678 19.2674C19.7366 18.7986 20 18.1627 20 17.4997V13.333H18.3333Z" fill="black"/>
<path d="M9.97252 9.47766e-06C9.64435 -0.000895192 9.31922 0.0629736 9.01577 0.187955C8.71233 0.312937 8.43653 0.496575 8.20419 0.728343L4.93835 3.99418L6.11669 5.17251L9.14502 2.14501L9.16669 15.8333H10.8334L10.8117 2.15668L13.8275 5.17251L15.0059 3.99418L11.74 0.728343C11.5078 0.4966 11.2322 0.312972 10.9289 0.187988C10.6256 0.063004 10.3006 -0.000876539 9.97252 9.47766e-06Z" fill="black"/>
</g>
<defs>
<clipPath id="clip0_378_1194">
<rect width="20" height="20" fill="white"/>
</clipPath>
</defs>
</svg>
