<svg width="21" height="29" viewBox="0 0 21 29" fill="none" xmlns="http://www.w3.org/2000/svg">
<path d="M3.46608 11.5362L8.09671 6.88531V26.2773C8.09671 26.8136 8.30975 27.328 8.68897 27.7072C9.06819 28.0864 9.58252 28.2994 10.1188 28.2994C10.6551 28.2994 11.1694 28.0864 11.5487 27.7072C11.9279 27.328 12.1409 26.8136 12.1409 26.2773V6.88531L16.7716 11.5362C16.9595 11.7257 17.1832 11.8761 17.4296 11.9788C17.676 12.0814 17.9403 12.1343 18.2073 12.1343C18.4742 12.1343 18.7385 12.0814 18.9849 11.9788C19.2313 11.8761 19.455 11.7257 19.643 11.5362C19.8325 11.3482 19.9829 11.1245 20.0856 10.8781C20.1882 10.6317 20.2411 10.3674 20.2411 10.1005C20.2411 9.83352 20.1882 9.56922 20.0856 9.3228C19.9829 9.07639 19.8325 8.85274 19.643 8.66476L11.5545 0.576328C11.3622 0.392234 11.1354 0.247927 10.8872 0.151685C10.3949 -0.0505618 9.84272 -0.0505618 9.35042 0.151685C9.1022 0.247927 8.87543 0.392234 8.68312 0.576328L0.594686 8.66476C0.406147 8.8533 0.25659 9.07713 0.154553 9.32347C0.0525171 9.5698 1.98658e-09 9.83383 0 10.1005C-1.98658e-09 10.3671 0.0525171 10.6311 0.154553 10.8775C0.25659 11.1238 0.406147 11.3476 0.594686 11.5362C0.783224 11.7247 1.00705 11.8743 1.25339 11.9763C1.49973 12.0783 1.76375 12.1308 2.03038 12.1308C2.29702 12.1308 2.56104 12.0783 2.80738 11.9763C3.05371 11.8743 3.27754 11.7247 3.46608 11.5362Z" fill="#007BE0" fill-opacity="0.5"/>
</svg>
