<svg width="29" height="29" viewBox="0 0 29 29" fill="none" xmlns="http://www.w3.org/2000/svg">
<path d="M17.235 9.28023C17.235 9.93782 17.4962 10.5685 17.9612 11.0335C18.4262 11.4985 19.0568 11.7597 19.7144 11.7597C20.372 11.7597 21.0027 11.4985 21.4676 11.0335C21.9326 10.5685 22.1939 9.93782 22.1939 9.28023C22.1939 8.62264 21.9326 7.99198 21.4676 7.52699C21.0027 7.06201 20.372 6.80078 19.7144 6.80078C19.0568 6.80078 18.4262 7.06201 17.9612 7.52699C17.4962 7.99198 17.235 8.62264 17.235 9.28023Z" fill="#AAAAAA"/>
<path d="M23.2876 15.8379C20.4753 15.8379 18.1945 18.1187 18.1945 20.9309C18.1945 23.7432 20.4753 26.024 23.2876 26.024C26.0998 26.024 28.3806 23.7432 28.3806 20.9309C28.3806 18.1187 26.0998 15.8379 23.2876 15.8379ZM25.4884 20.6368H24.0951V23.2375C24.0951 23.5704 23.8268 23.8387 23.494 23.8387H23.0837C22.7509 23.8387 22.4826 23.5704 22.4826 23.2375V20.6368H21.0893C20.9294 20.4769 20.9294 20.2137 21.0893 20.0537L22.9986 18.1445C23.1586 17.9845 23.4191 17.9845 23.5817 18.1445L25.4909 20.0537C25.6483 20.2137 25.6483 20.4743 25.4884 20.6368Z" fill="#AAAAAA"/>
<path d="M17.1421 20.9324C17.1421 19.983 17.3743 19.0954 17.7587 18.293L16.9125 17.4468C16.3242 16.8585 15.3722 16.8585 14.7865 17.4468L13.708 18.5252C13.2359 18.9974 12.4722 18.9974 12 18.5252L8.20732 14.7325C7.57262 14.0978 6.54575 14.0978 5.91105 14.7325L2.42796 18.2156V5.87256C2.42796 5.08564 3.06781 4.44578 3.85474 4.44578H23.84C24.6269 4.44578 25.2667 5.08564 25.2667 5.87256V15.1402C25.7415 15.3027 26.1956 15.5065 26.611 15.7723V5.87256C26.611 4.34516 25.3674 3.10156 23.84 3.10156H3.85474C2.32733 3.10156 1.08374 4.34516 1.08374 5.87256V23.1694C1.08374 24.6968 2.32733 25.9404 3.85474 25.9404H19.7454C18.1741 24.8283 17.1421 23.0042 17.1421 20.9324Z" fill="#AAAAAA"/>
</svg>
