<svg width="24" height="24" viewBox="0 0 24 24" fill="none" xmlns="http://www.w3.org/2000/svg">
<g clip-path="url(#clip0_745_3355)">
<path d="M19.5 22.0006H17.8333V17.7981C17.8327 17.1447 17.5728 16.5183 17.1109 16.0564C16.6489 15.5944 16.0225 15.3346 15.3692 15.3339H8.63083C7.9775 15.3346 7.35111 15.5944 6.88914 16.0564C6.42716 16.5183 6.16733 17.1447 6.16667 17.7981V22.0006H4.5V17.7981C4.50132 16.7029 4.93696 15.653 5.71135 14.8786C6.48575 14.1042 7.53567 13.6686 8.63083 13.6672H15.3692C16.4643 13.6686 17.5143 14.1042 18.2886 14.8786C19.063 15.653 19.4987 16.7029 19.5 17.7981V22.0006Z" fill="black"/>
<path d="M12 12C11.0111 12 10.0444 11.7068 9.22215 11.1573C8.39991 10.6079 7.75904 9.82705 7.3806 8.91342C7.00217 7.99979 6.90315 6.99446 7.09608 6.02455C7.289 5.05465 7.76521 4.16373 8.46447 3.46447C9.16373 2.76521 10.0546 2.289 11.0246 2.09608C11.9945 1.90315 12.9998 2.00217 13.9134 2.3806C14.8271 2.75904 15.6079 3.39991 16.1574 4.22215C16.7068 5.0444 17 6.0111 17 7C16.9987 8.32568 16.4715 9.59668 15.5341 10.5341C14.5967 11.4715 13.3257 11.9987 12 12ZM12 3.66667C11.3407 3.66667 10.6963 3.86217 10.1481 4.22844C9.59994 4.59471 9.1727 5.1153 8.9204 5.72439C8.66811 6.33348 8.6021 7.0037 8.73072 7.6503C8.85934 8.29691 9.1768 8.89085 9.64298 9.35703C10.1092 9.8232 10.7031 10.1407 11.3497 10.2693C11.9963 10.3979 12.6665 10.3319 13.2756 10.0796C13.8847 9.82731 14.4053 9.40007 14.7716 8.8519C15.1378 8.30374 15.3333 7.65927 15.3333 7C15.3333 6.11595 14.9821 5.2681 14.357 4.64298C13.7319 4.01786 12.8841 3.66667 12 3.66667Z" fill="black"/>
</g>
<defs>
<clipPath id="clip0_745_3355">
<rect width="20" height="20" fill="white" transform="translate(2 2)"/>
</clipPath>
</defs>
</svg>
