<svg width="14" height="6" viewBox="0 0 14 6" fill="none" xmlns="http://www.w3.org/2000/svg">
<path d="M9.9055 3.75041C9.73867 4.39409 9.36282 4.96415 8.83695 5.37111C8.31107 5.77806 7.66495 5.99887 7 5.99887C6.33505 5.99887 5.68893 5.77806 5.16305 5.37111C4.63718 4.96415 4.26133 4.39409 4.0945 3.75041H0.25V2.25041H4.0945C4.26133 1.60673 4.63718 1.03667 5.16305 0.629716C5.68893 0.222761 6.33505 0.00195312 7 0.00195312C7.66495 0.00195312 8.31107 0.222761 8.83695 0.629716C9.36282 1.03667 9.73867 1.60673 9.9055 2.25041H13.75V3.75041H9.9055ZM7 4.50041C7.39782 4.50041 7.77936 4.34238 8.06066 4.06107C8.34196 3.77977 8.5 3.39824 8.5 3.00041C8.5 2.60259 8.34196 2.22106 8.06066 1.93975C7.77936 1.65845 7.39782 1.50041 7 1.50041C6.60218 1.50041 6.22064 1.65845 5.93934 1.93975C5.65804 2.22106 5.5 2.60259 5.5 3.00041C5.5 3.39824 5.65804 3.77977 5.93934 4.06107C6.22064 4.34238 6.60218 4.50041 7 4.50041Z" fill="#C4C4C4"/>
</svg>
