<svg width="20" height="20" viewBox="0 0 20 20" fill="none" xmlns="http://www.w3.org/2000/svg">
<path d="M19.3333 4.66602H0.666641V1.99936C0.666641 1.26297 1.26359 0.666016 1.99999 0.666016H18C18.7364 0.666016 19.3333 1.26297 19.3333 1.99936V4.666L19.3333 4.66602ZM19.3333 5.99934V17.9993C19.3333 18.7357 18.7364 19.3327 18 19.3327H2.00001C1.26362 19.3327 0.666665 18.7357 0.666665 17.9993V5.99934H19.3334H19.3333ZM4.66667 1.99936L6.00827 4.666H7.34159L5.99999 1.99936H4.66667ZM8.66666 1.99936L10.0083 4.666H11.3416L10 1.99938H8.66666V1.99936ZM12.6667 1.99936L14.0083 4.666H15.3416L14 1.99936H12.6667ZM12.8074 12.5956C12.9365 12.5311 13.0411 12.4265 13.1056 12.2975C13.2702 11.9682 13.1368 11.5677 12.8074 11.4031L8.29816 9.14843C8.2056 9.10215 8.10353 9.07804 8.00003 9.07804C7.63182 9.07804 7.33336 9.37653 7.33336 9.74471V14.254C7.33336 14.3575 7.35746 14.4596 7.40373 14.5521C7.56839 14.8815 7.96886 15.0149 8.29816 14.8503L12.8074 12.5956Z" fill="black" fill-opacity="0.7"/>
</svg>
