<svg width="23" height="22" viewBox="0 0 23 22" fill="none" xmlns="http://www.w3.org/2000/svg">
<path d="M20.2446 17.6667V4.83333C20.2446 4.59258 20.1972 4.35418 20.1051 4.13175C20.0129 3.90932 19.8779 3.70721 19.7077 3.53697C19.5374 3.36673 19.3353 3.23169 19.1129 3.13955C18.8905 3.04742 18.6521 3 18.4113 3H5.57796C5.09173 3 4.62542 3.19315 4.2816 3.53697C3.93778 3.88079 3.74463 4.3471 3.74463 4.83333V17.6667C3.74463 17.9074 3.79205 18.1458 3.88418 18.3683C3.97632 18.5907 4.11136 18.7928 4.2816 18.963C4.45184 19.1333 4.65395 19.2683 4.87638 19.3604C5.09881 19.4526 5.33721 19.5 5.57796 19.5H18.4113C18.6521 19.5 18.8905 19.4526 19.1129 19.3604C19.3353 19.2683 19.5374 19.1333 19.7077 18.963C19.8779 18.7928 20.0129 18.5907 20.1051 18.3683C20.1972 18.1458 20.2446 17.9074 20.2446 17.6667ZM9.70296 7.58333C9.97491 7.58333 10.2408 7.66398 10.4669 7.81506C10.693 7.96615 10.8692 8.1809 10.9733 8.43214C11.0774 8.68339 11.1046 8.95986 11.0515 9.22658C10.9985 9.49331 10.8675 9.73831 10.6752 9.93061C10.4829 10.1229 10.2379 10.2539 9.97121 10.3069C9.70449 10.36 9.42802 10.3327 9.17677 10.2287C8.92552 10.1246 8.71078 9.94836 8.55969 9.72224C8.40861 9.49613 8.32796 9.23028 8.32796 8.95833C8.32796 8.59366 8.47283 8.24392 8.73069 7.98606C8.98855 7.7282 9.33829 7.58333 9.70296 7.58333ZM17.4946 16.2917C17.4946 16.3519 17.4828 16.4115 17.4597 16.4671C17.4367 16.5227 17.4029 16.5732 17.3604 16.6158C17.3178 16.6583 17.2673 16.6921 17.2117 16.7151C17.1561 16.7381 17.0965 16.75 17.0363 16.75H6.95296C6.89277 16.75 6.83317 16.7381 6.77757 16.7151C6.72196 16.6921 6.67143 16.6583 6.62887 16.6158C6.58631 16.5732 6.55255 16.5227 6.52952 16.4671C6.50648 16.4115 6.49463 16.3519 6.49463 16.2917V15.9892C6.49528 15.8901 6.52737 15.7938 6.5863 15.7142L8.7588 12.8083C8.80244 12.7513 8.85863 12.7051 8.92301 12.6733C8.9874 12.6415 9.05824 12.625 9.13005 12.625C9.20185 12.625 9.2727 12.6415 9.33708 12.6733C9.40146 12.7051 9.45765 12.7513 9.5013 12.8083L10.418 14.055C10.4608 14.1102 10.5157 14.1549 10.5785 14.1856C10.6412 14.2163 10.7102 14.2323 10.78 14.2323C10.8499 14.2323 10.9189 14.2163 10.9816 14.1856C11.0444 14.1549 11.0993 14.1102 11.1421 14.055L13.2413 11.415C13.2842 11.3615 13.3387 11.3183 13.4005 11.2886C13.4624 11.2589 13.5302 11.2435 13.5988 11.2435C13.6674 11.2435 13.7352 11.2589 13.7971 11.2886C13.8589 11.3183 13.9134 11.3615 13.9563 11.415L17.3846 15.6958C17.45 15.7796 17.4855 15.8829 17.4855 15.9892L17.4946 16.2917Z" fill="black" fill-opacity="0.7"/>
</svg>
