<svg width="20" height="16" viewBox="0 0 20 16" fill="none" xmlns="http://www.w3.org/2000/svg">
<path d="M10 0.571289C13.5343 0.571289 16.7566 2.72786 19.6663 7.041C19.8457 7.30699 19.9469 7.61798 19.9583 7.93861C19.9697 8.25925 19.8909 8.57665 19.7309 8.85472L19.6663 8.95872L19.504 9.19586C16.6371 13.3507 13.4686 15.4284 10 15.4284C6.46572 15.4284 3.24343 13.2719 0.33372 8.95872C0.154314 8.69273 0.0531501 8.38174 0.0417351 8.06111C0.03032 7.74047 0.109112 7.42307 0.269149 7.145L0.33372 7.041L0.496006 6.80386C3.36286 2.649 6.53143 0.571289 10 0.571289ZM10 2.28558C7.16686 2.28558 4.48115 4.04672 1.91201 7.77015L1.75486 7.99986L1.91258 8.23015C4.48401 11.9547 7.16915 13.7141 10 13.7141C12.8331 13.7141 15.5189 11.953 18.088 8.22958L18.2451 7.99986L18.0874 7.76957C15.516 4.045 12.8309 2.28558 10 2.28558ZM10 4.361C10.5016 4.35484 10.9993 4.44831 11.4645 4.63598C11.9296 4.82366 12.3529 5.10181 12.7098 5.4543C13.0666 5.80679 13.3499 6.22661 13.5433 6.68943C13.7367 7.15225 13.8363 7.64884 13.8363 8.15043C13.8363 8.65202 13.7367 9.14862 13.5433 9.61143C13.3499 10.0743 13.0666 10.4941 12.7098 10.8466C12.3529 11.1991 11.9296 11.4772 11.4645 11.6649C10.9993 11.8526 10.5016 11.946 10 11.9399C9.00305 11.9276 8.05107 11.523 7.3504 10.8137C6.64974 10.1043 6.25682 9.14747 6.25682 8.15043C6.25682 7.1534 6.64974 6.19653 7.3504 5.4872C8.05107 4.77788 9.00305 4.37325 10 4.361ZM10 6.07529C9.7246 6.07072 9.45103 6.12102 9.19526 6.22325C8.93949 6.32548 8.70662 6.47761 8.51025 6.67076C8.31387 6.8639 8.1579 7.09421 8.05143 7.34825C7.94497 7.60229 7.89014 7.87499 7.89014 8.15043C7.89014 8.42588 7.94497 8.69857 8.05143 8.95261C8.1579 9.20665 8.31387 9.43696 8.51025 9.63011C8.70662 9.82325 8.93949 9.97538 9.19526 10.0776C9.45103 10.1798 9.7246 10.2301 10 10.2256C10.5444 10.2165 11.0634 9.99394 11.4452 9.60576C11.827 9.21757 12.041 8.69491 12.041 8.15043C12.041 7.60596 11.827 7.08329 11.4452 6.69511C11.0634 6.30693 10.5444 6.08432 10 6.07529Z" fill="black"/>
</svg>
