<svg width="24" height="24" viewBox="0 0 24 24" fill="none" xmlns="http://www.w3.org/2000/svg">
<g clip-path="url(#clip0_423_3065)">
<path d="M12 2C10.0222 2 8.08879 2.58649 6.4443 3.6853C4.79981 4.78412 3.51809 6.3459 2.76121 8.17317C2.00433 10.0004 1.8063 12.0111 2.19215 13.9509C2.578 15.8907 3.53041 17.6725 4.92894 19.0711C6.32746 20.4696 8.10929 21.422 10.0491 21.8079C11.9889 22.1937 13.9996 21.9957 15.8268 21.2388C17.6541 20.4819 19.2159 19.2002 20.3147 17.5557C21.4135 15.9112 22 13.9778 22 12C21.9971 9.34872 20.9426 6.80684 19.0679 4.9321C17.1932 3.05736 14.6513 2.00287 12 2V2ZM20.3333 12C20.3339 13.6243 19.8569 15.213 18.9617 16.5683C18.2431 15.7685 17.8418 14.7335 17.8333 13.6583V12H12.8333C12.6123 12 12.4004 11.9122 12.2441 11.7559C12.0878 11.5996 12 11.3877 12 11.1667V10.3333H14.5V7H16.9283L17.8525 6.07583C18.6385 6.84923 19.2626 7.77137 19.6886 8.78848C20.1145 9.80558 20.3337 10.8973 20.3333 12ZM3.7075 12.8025L7.07167 16.1667H10.3333C10.5544 16.1667 10.7663 16.2545 10.9226 16.4107C11.0789 16.567 11.1667 16.779 11.1667 17V20.2908C9.25017 20.0952 7.46033 19.2426 6.10078 17.8778C4.74122 16.5129 3.89565 14.7198 3.7075 12.8025ZM12.8333 20.2908V17C12.8333 16.337 12.5699 15.7011 12.1011 15.2322C11.6323 14.7634 10.9964 14.5 10.3333 14.5H7.76167L3.8025 10.5408C4.04098 9.18517 4.61229 7.90991 5.46515 6.82948C6.31802 5.74906 7.42576 4.89726 8.689 4.35051C9.95224 3.80377 11.3315 3.57918 12.7029 3.6969C14.0743 3.81462 15.3951 4.27097 16.5467 5.025L16.2383 5.33333H12.8333V8.66667H10.3333V11.1667C10.3333 11.8297 10.5967 12.4656 11.0656 12.9344C11.5344 13.4033 12.1703 13.6667 12.8333 13.6667H16.1667C16.1647 15.2455 16.7851 16.7614 17.8933 17.8858C16.536 19.2492 14.7476 20.0992 12.8333 20.2908Z" fill="black"/>
</g>
<defs>
<clipPath id="clip0_423_3065">
<rect width="20" height="20" fill="white" transform="translate(2 2)"/>
</clipPath>
</defs>
</svg>
