<svg width="40" height="40" viewBox="0 0 40 40" fill="none" xmlns="http://www.w3.org/2000/svg">
<mask id="mask0_1506_23253" style="mask-type:luminance" maskUnits="userSpaceOnUse" x="0" y="0" width="40" height="40">
<path d="M39.71 19.855C39.71 25.1209 37.6181 30.1711 33.8946 33.8946C30.1711 37.6181 25.1209 39.71 19.855 39.71C14.5891 39.71 9.53893 37.6181 5.81539 33.8946C2.09186 30.1711 0 25.1209 0 19.855C0 14.5891 2.09186 9.53893 5.81539 5.8154C9.53893 2.09186 14.5891 0 19.855 0C25.1209 0 30.1711 2.09186 33.8946 5.8154C37.6181 9.53893 39.71 14.5891 39.71 19.855Z" fill="white"/>
</mask>
<g mask="url(#mask0_1506_23253)">
<path d="M-6.21753 40.4272H55.8115V-0.956055H-6.21753V40.4272Z" fill="#E74C3C"/>
</g>
<path d="M9.74771 5.9209L10.7434 8.98551H13.9663L11.3592 10.8838L12.3525 13.9531L9.74771 12.0548L7.13822 13.9531L8.13388 10.8838L5.52675 8.98551H8.74969L9.74771 5.9209Z" fill="#F1C40F"/>
<path d="M18.1472 4.31836L18.0811 5.37846L19.065 5.77039L18.0387 6.03247L17.9679 7.09256L17.4016 6.19537L16.3753 6.45745L17.0524 5.64053L16.4862 4.74334L17.47 5.13763L18.1472 4.31836Z" fill="#F1C40F"/>
<path d="M21.7688 7.75599L21.2852 8.7004L22.0331 9.45357L20.9879 9.28357L20.5018 10.2303L20.339 9.17969L19.2914 9.01196L20.2351 8.53267L20.0747 7.48438L20.8203 8.23518L21.7688 7.75589" fill="#F1C40F"/>
<path d="M20.6812 12.0576L21.0044 13.0681L22.0685 13.07L21.2073 13.6909L21.5353 14.7015L20.6788 14.0782L19.8176 14.7015L20.148 13.6909L19.2915 13.0676L20.3509 13.0695L20.6812 12.0566" fill="#F1C40F"/>
<path d="M18.1425 15.2969L18.0717 16.357L19.0579 16.7513L18.0292 17.011L17.9609 18.0711L17.3946 17.1739L16.3659 17.436L17.0431 16.6214L16.4768 15.7219L17.4631 16.1161L18.1426 15.2969" fill="#F1C40F"/>
</svg>
