<svg width="24" height="24" viewBox="0 0 24 24" fill="none" xmlns="http://www.w3.org/2000/svg">
<path d="M11.9996 22C17.4605 22 21.9995 17.4706 21.9995 12C21.9995 6.53903 17.4505 2 11.9895 2C6.51934 2 1.99997 6.53903 1.99997 12C1.99997 17.4706 6.52896 22 11.9996 22ZM11.9996 20.3335C7.37184 20.3335 3.67528 16.6273 3.67528 12C3.67528 7.38191 7.3618 3.66653 11.9895 3.66653C16.6072 3.66653 20.3226 7.38233 20.3326 12C20.3422 16.6277 16.6172 20.3335 11.9996 20.3335Z" fill="black"/>
<path fill-rule="evenodd" clip-rule="evenodd" d="M12 21C16.9706 21 21 16.9706 21 12C21 7.02944 16.9706 3 12 3C7.02944 3 3 7.02944 3 12C3 16.9706 7.02944 21 12 21ZM13.9433 9.46457C13.9433 10.9047 12.9185 12 11.6378 11.9913C10.3567 11.9827 9.33225 10.9047 9.33225 9.46495C9.33225 8.12204 10.3567 7 11.6378 7C12.9185 7 13.9433 8.12204 13.9433 9.46457ZM15.7453 17H7.52123C7.17674 17 6.99997 16.7614 6.99997 16.4433C6.99997 15.4539 8.48421 12.9012 11.6378 12.9012C14.7913 12.9012 16.2756 15.4539 16.2756 16.4433C16.2756 16.7614 16.0988 17 15.7453 17Z" fill="black"/>
</svg>
