<svg width="24" height="24" viewBox="0 0 24 24" fill="none" xmlns="http://www.w3.org/2000/svg">
<path d="M11.9996 22C17.4605 22 21.9996 17.4706 21.9996 12C21.9996 6.53903 17.4505 2 11.9895 2C6.51935 2 1.99998 6.53903 1.99998 12C1.99998 17.4706 6.52897 22 11.9996 22ZM11.9996 20.3335C7.37186 20.3335 3.6753 16.6273 3.6753 12C3.6753 7.38191 7.36182 3.66653 11.9895 3.66653C16.6072 3.66653 20.3226 7.38233 20.3326 12C20.3422 16.6277 16.6172 20.3335 11.9996 20.3335Z" fill="#AAAAAA"/>
<path d="M11.6378 11.9913C12.9185 12 13.9433 10.9047 13.9433 9.46457C13.9433 8.12204 12.9185 7 11.6378 7C10.3567 7 9.33226 8.12204 9.33226 9.46495C9.33226 10.9047 10.3567 11.9827 11.6378 11.9913ZM7.52124 17H15.7453C16.0988 17 16.2756 16.7614 16.2756 16.4433C16.2756 15.4539 14.7913 12.9012 11.6378 12.9012C8.48423 12.9012 6.99998 15.4539 6.99998 16.4433C6.99998 16.7614 7.17675 17 7.52124 17Z" fill="#AAAAAA"/>
</svg>
