<svg width="24" height="24" viewBox="0 0 24 24" fill="none" xmlns="http://www.w3.org/2000/svg">
<path d="M4.76189 9.2381H19.2381C20.4444 9.2381 21.0476 9.84127 21.0476 11.0476V19.1905C21.0476 20.3968 20.4444 21 19.2381 21H4.76189C3.55554 21 2.95236 20.3968 2.95236 19.1905V11.0476C2.95236 9.84127 3.55554 9.2381 4.76189 9.2381Z" fill="black"/>
<path d="M6.11904 5.61905H17.8809C18.1825 5.61905 18.3333 5.76984 18.3333 6.07143V6.97619C18.3333 7.27778 18.1825 7.42857 17.8809 7.42857H6.11904C5.81745 7.42857 5.66666 7.27778 5.66666 6.97619V6.07143C5.66666 5.76984 5.81745 5.61905 6.11904 5.61905Z" fill="black"/>
<path d="M7.92855 2H16.0714C16.373 2 16.5238 2.15079 16.5238 2.45238V3.35714C16.5238 3.65873 16.373 3.80952 16.0714 3.80952H7.92855C7.62696 3.80952 7.47617 3.65873 7.47617 3.35714V2.45238C7.47617 2.15079 7.62696 2 7.92855 2Z" fill="black"/>
</svg>
