<svg width="24" height="24" viewBox="0 0 24 24" fill="none" xmlns="http://www.w3.org/2000/svg">
<path d="M4.76189 10.1429H19.2381C19.7018 10.1429 19.8834 10.2582 19.9555 10.3302C20.0275 10.4023 20.1428 10.5839 20.1428 11.0476V19.1905C20.1428 19.6542 20.0275 19.8358 19.9555 19.9079C19.8834 19.9799 19.7018 20.0952 19.2381 20.0952H4.76189C4.29818 20.0952 4.11657 19.9799 4.04451 19.9079C3.97244 19.8358 3.85712 19.6542 3.85712 19.1905V11.0476C3.85712 10.5839 3.97244 10.4023 4.04451 10.3302C4.11657 10.2582 4.29818 10.1429 4.76189 10.1429Z" stroke="#AAAAAA" stroke-width="1.80952"/>
<path d="M6.11904 5.61905H17.8809C18.1825 5.61905 18.3333 5.76984 18.3333 6.07143V6.97619C18.3333 7.27778 18.1825 7.42857 17.8809 7.42857H6.11904C5.81745 7.42857 5.66666 7.27778 5.66666 6.97619V6.07143C5.66666 5.76984 5.81745 5.61905 6.11904 5.61905Z" fill="#AAAAAA"/>
<path d="M7.92856 2H16.0714C16.373 2 16.5238 2.15079 16.5238 2.45238V3.35714C16.5238 3.65873 16.373 3.80952 16.0714 3.80952H7.92856C7.62697 3.80952 7.47618 3.65873 7.47618 3.35714V2.45238C7.47618 2.15079 7.62697 2 7.92856 2Z" fill="#AAAAAA"/>
</svg>
